<svg width="152" height="150" viewBox="0 0 152 150" fill="none" xmlns="http://www.w3.org/2000/svg">
<ellipse cx="75.9696" cy="75" rx="75.9696" ry="75" fill="white"/>
<path d="M112.941 28.353H39.0587C35.55 28.353 32.7058 31.1972 32.7058 34.706V62.7843H119.294V34.706C119.294 31.1974 116.45 28.353 112.941 28.353Z" fill="#FFC674"/>
<path d="M32.7058 62.7842V117.294C32.7058 120.803 35.55 123.647 39.0587 123.647H112.941C116.45 123.647 119.294 120.803 119.294 117.294V62.7842H32.7058Z" fill="#6D529F"/>
<path d="M66.6715 55.1783C68.9926 52.6687 72.3119 51.0958 76 51.0958C79.6881 51.0958 83.0076 52.6685 85.3285 55.1783L97.0902 43.4166C91.7566 37.8998 84.2795 34.4685 76 34.4685C67.7205 34.4685 60.2434 37.9 54.91 43.4167L66.6715 55.1783Z" fill="#E3A9ED"/>
<path d="M98.7816 41.7815C92.7561 35.5483 84.6652 32.1157 76 32.1157C67.3348 32.1157 59.2439 35.5483 53.2184 41.7815C52.326 42.7046 52.3383 44.1728 53.2461 45.0808L65.0074 56.8421C65.4492 57.2837 66.0478 57.5313 66.6711 57.5313C66.6861 57.5313 66.7018 57.5313 66.717 57.531C67.3568 57.5185 67.9641 57.246 68.3984 56.7761C70.3539 54.6618 73.1244 53.4489 75.9996 53.4489C78.9168 53.4489 81.6164 54.6306 83.6008 56.7763C84.0353 57.2462 84.6426 57.5187 85.2822 57.5312C85.2975 57.5313 85.3129 57.5315 85.3281 57.5315C85.9514 57.5315 86.5502 57.2841 86.9918 56.8423L98.7531 45.0806C99.6619 44.1728 99.674 42.7048 98.7816 41.7815ZM85.2531 51.9265C83.2447 50.3642 80.8645 49.3329 78.3529 48.9323V47.5296C78.3529 46.23 77.2992 45.1767 76 45.1767C74.7008 45.1767 73.6471 46.23 73.6471 47.5296V48.9321C71.1355 49.3325 68.7553 50.364 66.7469 51.9263L58.2779 43.4573C63.1877 39.162 69.398 36.8216 76 36.8216C82.602 36.8216 88.8123 39.1618 93.7221 43.4573L85.2531 51.9265Z" fill="black"/>
<path d="M87.5232 87.2883C87.4004 83.9346 88.016 80.5824 89.4484 77.5476C91.2471 73.7375 94.4678 70.0572 100.091 71.182C110.95 73.3537 110.553 86.4818 105.249 94.2564C101.565 99.6562 101.466 104.627 98.068 109.73C95.9037 112.98 91.0906 113.829 87.3324 111.359C83.2408 108.669 82.9889 102.129 85.7037 97.5138C87.4594 94.5287 87.6252 90.0674 87.5232 87.2883Z" fill="#FFCEB3"/>
<path d="M92.0472 115.145C90.0086 115.145 87.9103 114.554 86.0396 113.324C83.5109 111.662 81.9422 108.839 81.6224 105.374C81.3406 102.318 82.0886 99.0178 83.6754 96.3203C84.7832 94.4373 85.3146 91.2601 85.1718 87.3742C85.032 83.5623 85.7752 79.8168 87.3209 76.5427C90.1898 70.4646 94.8898 67.7408 100.552 68.8742C105.118 69.7871 108.411 72.4261 110.075 76.506C112.343 82.0646 111.185 89.7308 107.193 95.582C105.472 98.1037 104.609 100.53 103.694 103.1C102.783 105.661 101.84 108.309 100.026 111.033C98.2412 113.715 95.2175 115.145 92.0472 115.145ZM89.8746 87.2019C89.9984 90.5777 89.7273 95.3142 87.7316 98.7068C85.7054 102.151 85.574 107.387 88.625 109.392C91.2043 111.088 94.6318 110.645 96.1093 108.426C97.6017 106.184 98.4078 103.92 99.2611 101.522C100.236 98.7844 101.243 95.9539 103.305 92.9301C106.347 88.4717 107.361 82.3121 105.718 78.2838C104.664 75.6994 102.615 74.0861 99.6297 73.4888C98.3496 73.2334 94.4549 72.4541 91.5763 78.5517C90.3506 81.148 89.7623 84.139 89.8746 87.2019Z" fill="black"/>
<path d="M64.4768 87.2883C64.5998 83.9346 63.984 80.5824 62.5516 77.5476C60.7529 73.7375 57.5322 70.0572 51.909 71.182C41.0504 73.3537 41.4471 86.4818 46.7512 94.2564C50.435 99.6562 50.5342 104.627 53.932 109.73C56.0963 112.98 60.9094 113.829 64.6676 111.359C68.7592 108.669 69.0112 102.129 66.2963 97.5138C64.5406 94.5287 64.3748 90.0674 64.4768 87.2883Z" fill="#FFCEB3"/>
<path d="M59.9527 115.145C56.7822 115.145 53.7588 113.715 51.9736 111.033C50.1597 108.309 49.2172 105.661 48.3058 103.1C47.3916 100.531 46.5277 98.104 44.8074 95.5821C40.8154 89.7305 39.657 82.0647 41.9248 76.5061C43.589 72.4266 46.882 69.7876 51.4476 68.8743C57.1119 67.7413 61.8107 70.4651 64.6791 76.5428C66.2244 79.8169 66.9677 83.5624 66.8281 87.3741C66.6855 91.2602 67.2168 94.4374 68.3246 96.3202C69.9111 99.0175 70.6593 102.317 70.3775 105.374C70.0578 108.839 68.489 111.662 65.9603 113.324C64.09 114.554 61.9908 115.145 59.9527 115.145ZM53.9051 73.313C53.251 73.313 52.7154 73.42 52.3705 73.4889C49.3851 74.0862 47.3363 75.6993 46.282 78.2837C44.6387 82.312 45.6533 88.4718 48.6949 92.93C50.7578 95.9538 51.765 98.7843 52.739 101.522C53.5924 103.92 54.3984 106.184 55.8906 108.425C57.3685 110.645 60.7959 111.088 63.3754 109.392C66.4263 107.387 66.2949 102.151 64.2687 98.7067C62.273 95.3139 62.0017 90.5778 62.1258 87.2018C62.2381 84.1389 61.6498 81.1479 60.4242 78.5516C58.3215 74.0981 55.6769 73.313 53.9051 73.313Z" fill="black"/>
<path d="M112.941 26H39.0588C34.2584 26 30.3529 29.9055 30.3529 34.7059V62.7842V117.294C30.3529 122.095 34.2584 126 39.0588 126H112.941C117.742 126 121.647 122.095 121.647 117.294V62.7842V34.7059C121.647 29.9055 117.742 26 112.941 26ZM35.0588 34.7059C35.0588 32.5002 36.8531 30.7059 39.0588 30.7059H112.941C115.147 30.7059 116.941 32.5002 116.941 34.7059V60.4312H35.0588V34.7059ZM116.941 117.294C116.941 119.5 115.147 121.294 112.941 121.294H78.3529V78.8898C78.3529 77.5902 77.2992 76.5369 76 76.5369C74.7008 76.5369 73.647 77.5902 73.647 78.8898V121.294H39.0588C36.8531 121.294 35.0588 119.5 35.0588 117.294V65.1371H116.941V117.294Z" fill="black"/>
<path d="M76 74.1836C75.8471 74.1836 75.6916 74.1672 75.5412 74.1366C75.3906 74.1083 75.2424 74.0612 75.0988 74.0047C74.9574 73.9459 74.8211 73.8729 74.6942 73.7883C74.5645 73.7012 74.4445 73.6024 74.3363 73.4942C74.2281 73.386 74.1293 73.2659 74.0445 73.1366C73.9602 73.0094 73.8869 72.8731 73.8281 72.7319C73.7694 72.5883 73.7223 72.4401 73.6944 72.2918C73.6635 72.1389 73.6473 71.9836 73.6473 71.8307C73.6473 71.6778 73.6635 71.5225 73.6944 71.3719C73.7223 71.2213 73.7694 71.0731 73.8281 70.9319C73.8869 70.7883 73.9602 70.6518 74.0445 70.5249C74.1293 70.3954 74.2281 70.2754 74.3363 70.1672C74.4445 70.059 74.5647 69.9602 74.6942 69.8754C74.8213 69.7907 74.9574 69.7178 75.0988 69.659C75.2424 69.6002 75.3906 69.5555 75.5412 69.5249C75.8424 69.4637 76.1553 69.4637 76.4588 69.5249C76.6094 69.5555 76.7576 69.6002 76.8986 69.659C77.0422 69.7178 77.1787 69.7909 77.3057 69.8754C77.4352 69.9602 77.5551 70.059 77.6633 70.1672C77.7717 70.2754 77.8705 70.3956 77.9551 70.5249C78.0399 70.652 78.1127 70.7883 78.1715 70.9319C78.2303 71.0731 78.2774 71.2213 78.3057 71.3719C78.3363 71.5225 78.3527 71.6778 78.3527 71.8307C78.3527 71.9836 78.3363 72.1389 78.3057 72.2918C78.2774 72.4401 78.2305 72.5883 78.1715 72.7319C78.1127 72.8731 78.0397 73.0096 77.9551 73.1366C77.8707 73.2661 77.7719 73.386 77.6633 73.4942C77.5551 73.6024 77.435 73.7012 77.3057 73.7883C77.1785 73.8731 77.0422 73.9459 76.8986 74.0047C76.7574 74.0612 76.6094 74.1083 76.4588 74.1366C76.3082 74.167 76.1527 74.1836 76 74.1836Z" fill="black"/>
</svg>
