<svg width="472" height="320" viewBox="0 0 472 320" fill="none" xmlns="http://www.w3.org/2000/svg">
<path d="M96.7871 319.335H41.6851C40.7171 319.335 39.9321 318.55 39.9321 317.582V316.619C39.9321 315.651 40.7171 314.866 41.6851 314.866H96.7861C97.7541 314.866 98.5391 315.651 98.5391 316.619V317.582C98.5401 318.55 97.7551 319.335 96.7871 319.335Z" fill="#ADBEC4"/>
<path d="M445.941 319.335H430.865C429.897 319.335 429.112 318.55 429.112 317.582V316.619C429.112 315.651 429.897 314.866 430.865 314.866H445.941C446.909 314.866 447.694 315.651 447.694 316.619V317.582C447.693 318.55 446.909 319.335 445.941 319.335Z" fill="#ADBEC4"/>
<path d="M200.482 319.335H145.38C144.412 319.335 143.627 318.55 143.627 317.582V316.619C143.627 315.651 144.412 314.866 145.38 314.866H200.482C201.45 314.866 202.235 315.651 202.235 316.619V317.582C202.235 318.55 201.451 319.335 200.482 319.335Z" fill="#ADBEC4"/>
<path d="M281.39 319.335H226.289C225.321 319.335 224.536 318.55 224.536 317.582V316.619C224.536 315.651 225.321 314.866 226.289 314.866H281.39C282.358 314.866 283.143 315.651 283.143 316.619V317.582C283.143 318.55 282.358 319.335 281.39 319.335Z" fill="#ADBEC4"/>
<path d="M380.479 319.335H305.365C304.397 319.335 303.612 318.55 303.612 317.582V316.619C303.612 315.651 304.397 314.866 305.365 314.866H380.479C381.447 314.866 382.232 315.651 382.232 316.619V317.582C382.232 318.55 381.447 319.335 380.479 319.335Z" fill="#ADBEC4"/>
<path d="M115.256 69.062C115.256 69.062 109.436 65.103 100.924 68.152C92.4121 71.202 90.5001 82.665 92.5971 91.968C94.6941 101.271 82.9751 133.033 82.9751 133.033C82.9751 133.033 89.0661 141.599 110.353 138.321C110.353 138.321 126.226 109.475 125.048 88.766C123.87 68.057 115.256 69.062 115.256 69.062Z" fill="#0E3944"/>
<path d="M121.976 104.846C129.976 102.288 134.872 108.949 139.456 121.347C144.04 133.745 145.582 134.988 145.582 134.988L163.275 146.356L161.804 152.982C161.804 152.982 144.965 146.389 140.894 142.195C136.823 138.002 125.111 116.759 125.111 116.759L121.976 104.846Z" fill="#EF6E4B"/>
<path d="M82.9843 184.941C82.9843 184.941 79.5133 202.52 80.0853 228.981C80.0853 228.981 66.4073 249.151 77.6953 306.699H83.6163C83.6163 306.699 88.4533 257.736 92.1543 244.469C95.8553 231.202 109.521 227.131 110.261 186.791L82.9843 184.941Z" fill="#FF8B66"/>
<path d="M55.9218 236.631C52.4808 225.292 43.6378 206.301 20.9528 180.559C20.9528 180.559 19.5998 179.862 17.7708 180.98C15.8398 182.16 15.8398 183.546 15.8398 183.546C15.8398 183.546 27.2148 208.336 34.4688 226.499C36.9108 232.614 42.8188 236.631 49.4028 236.631H55.9218Z" fill="#FF8B66"/>
<path d="M97.224 258.556C97.224 258.556 97.302 267.016 91.751 267.16C83.913 267.371 83.624 258.833 74.742 259.111C65.86 259.388 47.541 261.609 41.712 247.731C38.703 240.559 42.822 231.355 33.108 224.416C23.393 217.477 28.112 209.705 33.108 205.542C38.104 201.39 30.954 196.838 36.161 194.717C37.404 194.217 38.626 194.273 39.758 194.65C40.424 194.883 41.046 195.205 41.645 195.605C44.398 197.437 46.33 200.623 46.33 200.623C61.041 160.332 87.232 155.014 87.232 155.014L113.134 163.952C113.755 226.637 97.224 258.556 97.224 258.556Z" fill="#164353"/>
<path d="M121.976 104.846C121.976 104.846 115.933 106.885 107.337 105.58C98.741 104.275 95.947 98.8779 89.905 102.352C80.834 107.567 85.079 125.516 87.357 134.849C88.206 138.329 89.282 147.471 87.234 155.016C87.234 155.016 99.312 164.414 113.136 163.947L120.678 147.544C120.678 147.544 137.079 127.918 121.976 104.846Z" fill="#CFD8DC"/>
<path d="M106.628 89.7899C106.628 89.7899 107.633 98.2809 104.492 106.006C104.492 106.006 108.977 112.627 113.257 108.27C113.257 108.27 113.648 100.488 118.456 91.6839C121.675 85.7879 106.628 89.7899 106.628 89.7899Z" fill="#EF6E4B"/>
<path d="M99.7548 90.079C99.7548 90.079 95.9718 87.686 96.3988 91.378C96.8938 95.656 101.067 96.49 101.511 94.994C101.955 93.499 99.7548 90.079 99.7548 90.079Z" fill="#FF8B66"/>
<path d="M121.457 85.448C121.457 85.448 123.858 81.67 125.047 85.192C126.424 89.273 123.005 91.806 121.965 90.643C120.926 89.48 121.457 85.448 121.457 85.448Z" fill="#FF8B66"/>
<path d="M113.646 102.866C106.785 104.402 101.909 100.788 98.8991 87.346C97.3461 80.412 99.9221 75.369 107.607 73.649C115.293 71.928 119.481 75.456 121.034 82.39C124.268 96.833 120.734 101.279 113.646 102.866Z" fill="#FF8B66"/>
<path d="M119.835 87.6922C120.11 88.3552 119.661 89.1712 118.832 89.5142C118.003 89.8572 117.108 89.5992 116.834 88.9362C116.559 88.2732 117.008 87.4572 117.837 87.1142C118.665 86.7712 119.56 87.0302 119.835 87.6922Z" fill="#DB614D"/>
<path d="M105.806 91.2281C105.917 91.9371 105.288 92.6241 104.402 92.7621C103.516 92.9011 102.707 92.4391 102.596 91.7301C102.485 91.0211 103.114 90.3341 104 90.1961C104.887 90.0571 105.695 90.5191 105.806 91.2281Z" fill="#DB614D"/>
<path d="M115.057 81.4291C114.99 81.4291 114.923 81.4101 114.862 81.3701C113.689 80.5871 112.027 81.0031 112.009 81.0071C111.818 81.0571 111.629 80.9421 111.581 80.7541C111.533 80.5661 111.646 80.3741 111.834 80.3261C111.915 80.3061 113.821 79.8291 115.253 80.7861C115.415 80.8941 115.458 81.1121 115.35 81.2731C115.282 81.3741 115.171 81.4291 115.057 81.4291Z" fill="#0E3944"/>
<path d="M102.138 84.322C102.077 84.322 102.014 84.306 101.958 84.272C101.792 84.172 101.738 83.957 101.838 83.79C102.725 82.315 104.653 81.932 104.735 81.916C104.922 81.886 105.109 82.004 105.145 82.195C105.181 82.385 105.057 82.569 104.866 82.606C104.849 82.61 103.163 82.949 102.439 84.152C102.374 84.261 102.257 84.322 102.138 84.322Z" fill="#0E3944"/>
<path d="M115.358 85.1942C115.548 86.0462 115.319 86.8232 114.846 86.9282C114.373 87.0342 113.834 86.4292 113.643 85.5772C113.452 84.7252 113.681 83.9482 114.155 83.8422C114.628 83.7372 115.167 84.3412 115.358 85.1942Z" fill="#1A4850"/>
<path d="M105.825 87.2452C106.016 88.0972 105.787 88.8742 105.313 88.9792C104.84 89.0852 104.301 88.4802 104.11 87.6282C103.919 86.7762 104.148 85.9992 104.622 85.8932C105.096 85.7882 105.634 86.3932 105.825 87.2452Z" fill="#1A4850"/>
<path d="M108.907 95.3152C108.907 95.3152 113.314 94.9562 115.256 93.3162C115.256 93.3162 114.721 96.7592 112.324 96.9972C109.926 97.2372 108.907 95.3152 108.907 95.3152Z" fill="#1A4850"/>
<path d="M112.956 85.2872C112.956 85.2872 113.111 83.0482 113.969 83.0142C114.827 82.9802 115.855 84.6382 115.855 84.6382L116.928 83.7202L115.746 84.1522C115.746 84.1522 114.692 82.4192 113.876 82.5982C112.715 82.8522 112.956 85.2872 112.956 85.2872Z" fill="#1A4850"/>
<path d="M106.351 87.036C106.351 87.036 105.256 85.077 104.465 85.412C103.674 85.747 103.452 87.685 103.452 87.685L102.089 87.313L103.343 87.199C103.343 87.199 103.558 85.182 104.372 84.996C105.532 84.73 106.351 87.036 106.351 87.036Z" fill="#1A4850"/>
<path d="M111.13 91.34L110.777 90.67C111.348 90.369 111.397 89.962 111.337 89.676C111.253 89.27 110.923 88.948 110.684 88.929C110.547 88.922 110.429 89.039 110.337 89.283L109.627 89.018C109.931 88.201 110.506 88.156 110.742 88.173C111.345 88.219 111.932 88.811 112.081 89.521C112.234 90.265 111.879 90.945 111.13 91.34Z" fill="#DB614D"/>
<path d="M100.298 92.4991C100.298 92.4991 98.1818 84.7131 99.4378 79.2071C99.4378 79.2071 105.407 70.8951 116.929 75.0051C116.929 75.0051 120.345 80.5071 122.038 88.2071C122.038 88.2071 122.468 85.4411 121.322 79.2811C120.176 73.1211 114.711 69.2941 107.216 70.5261C99.7218 71.7581 91.7018 79.2141 100.298 92.4991Z" fill="#0E3944"/>
<path d="M112.378 73.2759C112.378 73.2759 112.835 75.3079 110.858 80.5409C110.858 80.5409 109.436 79.0549 107.771 80.5409C106.106 82.0269 102.724 81.5309 101.57 82.3339C100.416 83.1369 100.416 84.9729 100.416 84.9729C100.416 84.9729 99.4173 82.6869 100.416 79.9449C100.416 79.9449 98.1693 82.8009 98.4673 86.3279C98.4673 86.3279 95.4203 85.8359 95.5583 80.8079C95.6973 75.7809 102.842 67.6479 110.858 68.1759C118.874 68.7029 120.782 81.3949 120.782 81.3949C120.782 81.3949 120.051 80.8199 118.907 81.0759C118.907 81.0759 118.73 78.3879 116.928 75.0019C116.928 75.0019 117.758 77.4459 116.928 80.0829C116.928 80.0829 114.695 78.9119 112.935 79.2779C112.935 79.2799 114.022 77.1539 112.378 73.2759Z" fill="#0E3944"/>
<path d="M87.8702 103.955C91.7712 100.879 94.8092 104.792 95.5532 110.202C96.2982 115.613 89.2432 147.532 83.8032 146.356C81.7032 145.902 80.8472 137.541 80.8472 137.541C80.8472 137.541 82.9752 128.566 84.3522 115.058C84.9852 108.85 85.8362 105.559 87.8702 103.955Z" fill="#FF8B66"/>
<path d="M76.519 141.845C71.267 136.839 61.85 120.234 59.458 111.775L63.444 110.172C63.444 110.172 75.446 127.342 80.917 131.671C86.388 136.001 88.312 140.822 85.869 144.951C83.426 149.08 77.625 142.898 76.519 141.845Z" fill="#FF8B66"/>
<path d="M61.0949 100.698C60.8199 106.128 65.2449 107.415 63.2819 111.583C62.8769 112.443 62.2599 112.9 61.6189 113.127C60.4029 113.557 59.0519 113.151 58.1449 112.234C56.0409 110.108 52.7889 107.855 51.0579 106.867C49.0899 105.731 50.2049 105.422 50.2049 105.422C50.0139 105.332 49.8289 105.257 49.6429 105.182C48.2389 104.594 47.1159 104.372 48.1339 103.747C49.2799 103.035 53.3419 104.519 53.3419 104.519C48.0549 100.997 46.6199 101.856 47.5849 101.108C48.9019 100.084 53.9289 102.439 54.0789 102.51C51.2849 99.869 49.2599 99.27 50.3679 98.872C51.4909 98.468 57.0179 102.471 59.0349 103.973C59.4899 104.31 59.7679 104.527 59.7679 104.527C59.6999 100.09 61.0949 100.698 61.0949 100.698Z" fill="#FF8B66"/>
<path d="M59.0369 103.975C59.4919 104.312 59.7699 104.529 59.7699 104.529C59.7699 104.529 58.8239 106.121 60.0489 108.183C60.0489 108.183 57.7989 106.705 59.0369 103.975Z" fill="#EF6E4B"/>
<path d="M54.4011 107.093C53.9331 106.836 51.2661 105.334 50.2051 105.423C50.0141 105.333 49.8291 105.258 49.6431 105.183C50.3561 104.242 53.8711 106.708 54.4011 107.093Z" fill="#EF6E4B"/>
<path d="M75.365 187.668C75.365 188.258 74.887 188.735 74.298 188.735C73.709 188.735 73.231 188.257 73.231 187.668C73.231 187.079 73.709 186.601 74.298 186.601C74.887 186.601 75.365 187.078 75.365 187.668Z" fill="#6097B2"/>
<path d="M94.405 195.013C94.405 195.603 93.927 196.08 93.338 196.08C92.749 196.08 92.271 195.602 92.271 195.013C92.271 194.424 92.749 193.946 93.338 193.946C93.927 193.946 94.405 194.424 94.405 195.013Z" fill="#6097B2"/>
<path d="M110.629 198.952C110.629 199.541 110.151 200.019 109.562 200.019C108.973 200.019 108.495 199.541 108.495 198.952C108.495 198.363 108.973 197.885 109.562 197.885C110.151 197.885 110.629 198.363 110.629 198.952Z" fill="#6097B2"/>
<path d="M85.7009 173.732C85.7009 174.322 85.2229 174.799 84.6339 174.799C84.0449 174.799 83.5669 174.321 83.5669 173.732C83.5669 173.143 84.0449 172.665 84.6339 172.665C85.2229 172.665 85.7009 173.143 85.7009 173.732Z" fill="#6097B2"/>
<path d="M88.2281 184.941C88.8174 184.941 89.2951 184.463 89.2951 183.874C89.2951 183.285 88.8174 182.807 88.2281 182.807C87.6388 182.807 87.1611 183.285 87.1611 183.874C87.1611 184.463 87.6388 184.941 88.2281 184.941Z" fill="#6097B2"/>
<path d="M106.178 189.654C106.178 190.244 105.7 190.721 105.111 190.721C104.522 190.721 104.044 190.243 104.044 189.654C104.044 189.065 104.522 188.587 105.111 188.587C105.7 188.587 106.178 189.064 106.178 189.654Z" fill="#6097B2"/>
<path d="M108.495 172.16C108.495 172.749 108.017 173.227 107.428 173.227C106.839 173.227 106.361 172.749 106.361 172.16C106.361 171.57 106.839 171.093 107.428 171.093C108.017 171.093 108.495 171.571 108.495 172.16Z" fill="#6097B2"/>
<path d="M96.3649 169.587C96.9541 169.587 97.4319 169.109 97.4319 168.52C97.4319 167.931 96.9541 167.453 96.3649 167.453C95.7756 167.453 95.2979 167.931 95.2979 168.52C95.2979 169.109 95.7756 169.587 96.3649 169.587Z" fill="#6097B2"/>
<path d="M65.9211 208.487C65.9211 209.077 65.4431 209.554 64.8541 209.554C64.2651 209.554 63.7871 209.076 63.7871 208.487C63.7871 207.898 64.2651 207.42 64.8541 207.42C65.4431 207.42 65.9211 207.898 65.9211 208.487Z" fill="#6097B2"/>
<path d="M50.7111 203.949C50.7111 204.538 50.2331 205.016 49.6441 205.016C49.0551 205.016 48.5771 204.538 48.5771 203.949C48.5771 203.359 49.0551 202.882 49.6441 202.882C50.2331 202.882 50.7111 203.36 50.7111 203.949Z" fill="#6097B2"/>
<path d="M41.6442 195.605C41.4552 195.894 41.1222 196.082 40.7452 196.082C40.1572 196.082 39.6792 195.605 39.6792 195.016C39.6792 194.883 39.7012 194.761 39.7572 194.65C40.4232 194.883 41.0452 195.205 41.6442 195.605Z" fill="#6097B2"/>
<path d="M70.3028 223.473C70.8921 223.473 71.3698 222.995 71.3698 222.406C71.3698 221.817 70.8921 221.339 70.3028 221.339C69.7136 221.339 69.2358 221.817 69.2358 222.406C69.2358 222.995 69.7136 223.473 70.3028 223.473Z" fill="#6097B2"/>
<path d="M44.072 237.534C44.072 238.124 43.594 238.601 43.005 238.601C42.416 238.601 41.938 238.123 41.938 237.534C41.938 236.945 42.416 236.467 43.005 236.467C43.594 236.467 44.072 236.944 44.072 237.534Z" fill="#6097B2"/>
<path d="M54.1568 229.431C54.7461 229.431 55.2238 228.953 55.2238 228.364C55.2238 227.775 54.7461 227.297 54.1568 227.297C53.5676 227.297 53.0898 227.775 53.0898 228.364C53.0898 228.953 53.5676 229.431 54.1568 229.431Z" fill="#6097B2"/>
<path d="M37.548 221.318C38.1372 221.318 38.615 220.84 38.615 220.251C38.615 219.662 38.1372 219.184 37.548 219.184C36.9587 219.184 36.481 219.662 36.481 220.251C36.481 220.84 36.9587 221.318 37.548 221.318Z" fill="#6097B2"/>
<path d="M52.0222 252.198C52.0222 252.787 51.5442 253.265 50.9552 253.265C50.3662 253.265 49.8882 252.787 49.8882 252.198C49.8882 251.608 50.3662 251.131 50.9552 251.131C51.5442 251.131 52.0222 251.609 52.0222 252.198Z" fill="#6097B2"/>
<path d="M62.1838 196.081C62.1838 196.671 61.7058 197.148 61.1168 197.148C60.5268 197.148 60.0498 196.67 60.0498 196.081C60.0498 195.492 60.5278 195.014 61.1168 195.014C61.7058 195.013 62.1838 195.491 62.1838 196.081Z" fill="#6097B2"/>
<path d="M72.4382 178.106C72.4382 178.696 71.9602 179.173 71.3712 179.173C70.7822 179.173 70.3042 178.695 70.3042 178.106C70.3042 177.517 70.7822 177.039 71.3712 177.039C71.9602 177.039 72.4382 177.517 72.4382 178.106Z" fill="#6097B2"/>
<path d="M84.0432 163.147C84.0432 163.736 83.5652 164.214 82.9762 164.214C82.3862 164.214 81.9092 163.736 81.9092 163.147C81.9092 162.557 82.3872 162.08 82.9762 162.08C83.5652 162.079 84.0432 162.557 84.0432 163.147Z" fill="#6097B2"/>
<path d="M60.5251 184.941C60.5251 185.531 60.0471 186.008 59.4581 186.008C58.8691 186.008 58.3911 185.53 58.3911 184.941C58.3911 184.352 58.8691 183.874 59.4581 183.874C60.0471 183.874 60.5251 184.351 60.5251 184.941Z" fill="#6097B2"/>
<path d="M73.5061 167.452C73.5061 168.041 73.0281 168.519 72.4391 168.519C71.8501 168.519 71.3721 168.041 71.3721 167.452C71.3721 166.862 71.8501 166.385 72.4391 166.385C73.0281 166.385 73.5061 166.863 73.5061 167.452Z" fill="#6097B2"/>
<path d="M53.09 215.51C53.09 216.1 52.6121 216.577 52.0231 216.577C51.4331 216.577 50.9561 216.099 50.9561 215.51C50.9561 214.921 51.4341 214.443 52.0231 214.443C52.6121 214.443 53.09 214.921 53.09 215.51Z" fill="#6097B2"/>
<path d="M39.6819 206.084C39.6819 206.674 39.2039 207.151 38.6149 207.151C38.0259 207.151 37.5479 206.673 37.5479 206.084C37.5479 205.495 38.0259 205.017 38.6149 205.017C39.2039 205.017 39.6819 205.495 39.6819 206.084Z" fill="#6097B2"/>
<path d="M77.5001 203.949C78.0894 203.949 78.5671 203.471 78.5671 202.882C78.5671 202.293 78.0894 201.815 77.5001 201.815C76.9108 201.815 76.4331 202.293 76.4331 202.882C76.4331 203.471 76.9108 203.949 77.5001 203.949Z" fill="#6097B2"/>
<path d="M99.567 209.554C100.156 209.554 100.634 209.076 100.634 208.487C100.634 207.898 100.156 207.42 99.567 207.42C98.9777 207.42 98.5 207.898 98.5 208.487C98.5 209.076 98.9777 209.554 99.567 209.554Z" fill="#6097B2"/>
<path d="M99.5671 178.106C99.5671 178.696 99.0891 179.173 98.5001 179.173C97.9111 179.173 97.4331 178.695 97.4331 178.106C97.4331 177.517 97.9111 177.039 98.5001 177.039C99.0891 177.039 99.5671 177.517 99.5671 178.106Z" fill="#6097B2"/>
<path d="M112.396 180.344C112.396 180.934 111.918 181.411 111.329 181.411C110.74 181.411 110.262 180.933 110.262 180.344C110.262 179.755 110.74 179.277 111.329 179.277C111.918 179.277 112.396 179.755 112.396 180.344Z" fill="#6097B2"/>
<path d="M86.7678 216.578C86.7678 217.168 86.2898 217.645 85.7008 217.645C85.1118 217.645 84.6338 217.167 84.6338 216.578C84.6338 215.989 85.1118 215.511 85.7008 215.511C86.2898 215.511 86.7678 215.988 86.7678 216.578Z" fill="#6097B2"/>
<path d="M76.4327 236.63C77.022 236.63 77.4997 236.152 77.4997 235.563C77.4997 234.974 77.022 234.496 76.4327 234.496C75.8434 234.496 75.3657 234.974 75.3657 235.563C75.3657 236.152 75.8434 236.63 76.4327 236.63Z" fill="#6097B2"/>
<path d="M60.0489 239.668C60.6382 239.668 61.1159 239.19 61.1159 238.601C61.1159 238.012 60.6382 237.534 60.0489 237.534C59.4596 237.534 58.9819 238.012 58.9819 238.601C58.9819 239.19 59.4596 239.668 60.0489 239.668Z" fill="#6097B2"/>
<path d="M105.111 223.473C105.7 223.473 106.178 222.995 106.178 222.406C106.178 221.817 105.7 221.339 105.111 221.339C104.522 221.339 104.044 221.817 104.044 222.406C104.044 222.995 104.522 223.473 105.111 223.473Z" fill="#6097B2"/>
<path d="M91.4299 230.499C91.4299 231.089 90.9519 231.566 90.3629 231.566C89.7739 231.566 89.2959 231.088 89.2959 230.499C89.2959 229.91 89.7739 229.432 90.3629 229.432C90.9519 229.432 91.4299 229.909 91.4299 230.499Z" fill="#6097B2"/>
<path d="M69.2361 254.333C69.2361 254.922 68.7581 255.4 68.1691 255.4C67.5791 255.4 67.1021 254.922 67.1021 254.333C67.1021 253.743 67.5801 253.266 68.1691 253.266C68.7581 253.266 69.2361 253.743 69.2361 254.333Z" fill="#6097B2"/>
<path d="M84.6339 249.842C85.2232 249.842 85.7009 249.364 85.7009 248.775C85.7009 248.186 85.2232 247.708 84.6339 247.708C84.0446 247.708 83.5669 248.186 83.5669 248.775C83.5669 249.364 84.0446 249.842 84.6339 249.842Z" fill="#6097B2"/>
<path d="M100.495 243.554C101.084 243.554 101.562 243.076 101.562 242.487C101.562 241.898 101.084 241.42 100.495 241.42C99.9054 241.42 99.4277 241.898 99.4277 242.487C99.4277 243.076 99.9054 243.554 100.495 243.554Z" fill="#6097B2"/>
<path d="M94.405 260.849C94.405 261.439 93.927 261.916 93.338 261.916C92.749 261.916 92.271 261.438 92.271 260.849C92.271 260.26 92.749 259.782 93.338 259.782C93.927 259.782 94.405 260.259 94.405 260.849Z" fill="#6097B2"/>
<path d="M93.2383 317.056H75.7073C74.5633 313.792 76.6733 310.517 76.3183 307.641C75.7073 302.778 78.5383 305.465 78.5383 305.465C79.0383 300.236 86.3883 299.248 86.3103 301.579C86.1883 305.01 86.8543 307.13 87.8313 308.551C89.8073 311.404 93.0493 311.382 93.6043 313.425C93.6603 313.625 93.7043 313.825 93.7373 314.002C94.2813 316.556 93.2383 317.056 93.2383 317.056Z" fill="#164353"/>
<path d="M93.7371 314.003C90.1061 314.847 81.7351 313.748 81.4021 311.638C81.0801 309.595 85.5881 308.64 87.8301 308.551C89.8061 311.404 93.0481 311.382 93.6031 313.425C93.6601 313.625 93.7041 313.825 93.7371 314.003Z" fill="#205260"/>
<path d="M21.171 181.26C19.306 179.561 16.275 182.37 16.275 182.37C16.275 182.37 17.907 184.79 16.852 185.767C15.797 186.744 14.576 184.512 12.5 185.489C12.333 185.567 12.156 185.667 11.989 185.778C10.368 186.744 8.68004 188.776 7.31504 190.319C7.03704 190.63 6.77104 190.919 6.52704 191.174C4.93904 192.839 0.843045 193.816 0.0760447 189.375C-0.689955 184.934 4.30605 179.727 9.79105 174.942C15.276 170.157 18.817 172.999 18.817 172.999C18.817 172.999 20.06 175.009 20.06 176.263C20.06 177.506 21.17 178.128 21.792 179.316C22.415 180.494 21.171 181.26 21.171 181.26Z" fill="#164353"/>
<path d="M11.989 185.779C10.368 186.745 8.67995 188.777 7.31495 190.32C5.26095 190.808 3.41795 190.664 3.12895 188.732C2.42895 184.069 11.733 178.14 10.99 181.415C10.613 183.059 11.257 184.624 11.989 185.779Z" fill="#205260"/>
<path d="M336.621 309.475C335.756 309.021 334.96 308.023 334.244 306.761C334.244 306.761 333.628 303.028 334.244 299.107C334.86 295.185 333.153 291.983 327.601 290.78C322.204 289.611 319.002 292.211 320.248 303.061L320.249 303.065C319.428 307.572 319.258 312.719 321.131 317.056H337.744C337.744 317.056 340.364 311.44 336.621 309.475Z" fill="#CFD8DC"/>
<path d="M351.195 250.996C351.195 250.996 351.195 261.821 345.089 272.923C338.871 284.229 331.184 299.745 331.184 299.745C331.184 299.745 326.062 304.742 322.808 296.465C322.808 296.465 325.105 267.649 330.379 257.101C335.651 246.555 351.195 250.996 351.195 250.996Z" fill="#FF8B66"/>
<path d="M430.856 215.745C430.856 215.745 440.751 257.355 447.045 268.331C447.045 268.331 445.597 272.923 438.782 274.311C438.782 274.311 417.256 242.669 415.868 229.346C414.479 216.022 430.856 215.745 430.856 215.745Z" fill="#FF8B66"/>
<path d="M435.641 225.526C433.01 231.865 412.681 232.21 412.681 232.21L411.127 229.923L410.716 229.324L407.541 224.639C407.541 224.639 373.856 191.598 367.294 194.373H367.283C367.094 194.462 366.906 194.562 366.728 194.695C362.22 197.915 361.798 215.557 356.469 245.167C355.958 247.976 354.826 251.251 353.971 253.516C353.871 253.76 353.782 253.994 353.693 254.216C353.205 255.471 352.86 256.27 352.86 256.27C332.298 264.597 325.514 248.143 325.514 248.143C325.514 248.143 325.758 247.666 326.113 246.9C326.191 246.733 326.28 246.545 326.368 246.345C327.445 243.969 329.166 239.85 329.144 237.674C329.122 235.287 329.1 232.989 329.089 230.779C329.089 230.579 329.089 230.39 329.078 230.202C329.045 223.085 329.056 216.901 329.1 211.528V210.962C329.122 208.619 329.156 206.432 329.2 204.389V203.812C329.378 194.453 329.677 188.202 329.999 184.038C330.01 183.849 330.032 183.649 330.044 183.472C330.61 176.466 331.21 175.778 331.21 175.778L327.091 147.144H372.034C372.034 147.144 378.784 153.905 387.544 162.832C387.733 163.01 387.91 163.187 388.088 163.376C391.263 166.607 394.694 170.115 398.136 173.679C398.28 173.823 398.413 173.956 398.536 174.09C399.891 175.489 401.245 176.888 402.588 178.276C402.755 178.442 402.91 178.62 403.077 178.787C407.585 183.461 411.959 188.069 415.701 192.099C415.834 192.232 415.956 192.366 416.079 192.499C421.197 198.039 425.094 202.469 426.438 204.534C430.002 209.985 432.777 217.08 434.31 221.465C434.31 221.465 434.31 221.465 434.31 221.476C434.388 221.676 434.454 221.854 434.521 222.042C435.241 224.172 435.641 225.526 435.641 225.526Z" fill="#8B383E"/>
<path d="M337.938 180.061C336.106 182.226 333.441 183.558 330 184.036C330.011 183.847 330.033 183.647 330.045 183.47C333.287 183.004 335.796 181.738 337.517 179.695C340.603 176.053 340.104 171.135 340.093 171.091L340.648 171.024C340.669 171.235 341.18 176.231 337.938 180.061Z" fill="#662C33"/>
<path d="M388.089 163.374C387.911 163.385 387.745 163.396 387.567 163.396C382.571 163.396 377.353 157.934 377.086 157.656L377.486 157.267C377.553 157.345 382.749 162.785 387.545 162.829C387.733 163.008 387.911 163.185 388.089 163.374Z" fill="#662C33"/>
<path d="M353.97 253.516C353.87 253.76 353.781 253.994 353.692 254.216C350.361 255.437 347.308 255.937 344.521 255.937C335.639 255.937 329.488 250.796 326.113 246.899C326.191 246.732 326.28 246.544 326.368 246.344C330.688 251.406 339.915 258.878 353.97 253.516Z" fill="#662C33"/>
<path d="M366.039 184.058C366.783 187.244 367.26 190.72 367.282 194.372C367.093 194.461 366.905 194.561 366.727 194.694C366.705 177.929 357.001 164.85 356.89 164.706L357.334 164.373C357.423 164.484 363.174 172.256 365.894 183.481C367.026 182.737 367.793 181.671 368.114 180.295C369.513 174.411 363.151 164.796 363.096 164.696L363.551 164.385C363.817 164.796 370.102 174.3 368.658 180.417C368.282 182.015 367.393 183.225 366.039 184.058Z" fill="#662C33"/>
<path d="M416.078 192.496C414.424 194.295 412.869 195.827 412.725 195.96L412.425 196.26L412.281 195.86C410.105 190.164 396.116 177.818 395.971 177.696L395.804 177.54L398.136 173.676C398.28 173.82 398.413 173.953 398.536 174.087L396.582 177.329C399.302 178.273 401.234 178.439 402.588 178.273C402.755 178.439 402.91 178.617 403.077 178.784C402.622 178.862 402.133 178.906 401.623 178.906C400.368 178.906 398.936 178.651 397.326 178.162C400.501 181.026 410.372 190.175 412.637 195.271C413.514 194.405 414.624 193.262 415.701 192.096C415.834 192.23 415.956 192.363 416.078 192.496Z" fill="#662C33"/>
<path d="M339.315 230.678L339.093 230.722C338.882 230.778 336.362 231.299 333.464 231.299C332.01 231.299 330.477 231.166 329.09 230.777C329.09 230.577 329.09 230.388 329.079 230.2C332.743 231.255 337.639 230.444 338.749 230.233L337.817 207.129C337.295 208.395 336.263 210.127 334.331 211.081C333.409 211.547 332.377 211.769 331.245 211.769C330.568 211.769 329.857 211.691 329.102 211.525V210.959C331.023 211.403 332.688 211.281 334.076 210.581C336.43 209.415 337.362 206.917 337.651 205.929C335.797 206.206 332.055 205.263 329.202 204.386V203.809C332.277 204.742 336.441 205.819 337.94 205.297L338.295 205.175L339.315 230.678Z" fill="#662C33"/>
<path d="M434.519 222.04C431.288 225.226 424.671 230.1 414.49 230.1C413.413 230.1 412.292 230.045 411.126 229.922L410.715 229.323C423.094 230.744 430.855 224.937 434.308 221.473C434.386 221.674 434.453 221.851 434.519 222.04Z" fill="#662C33"/>
<path d="M380.339 25.4051C380.339 25.4051 379.104 22.5611 373.886 22.5601C369.865 22.5591 368.326 24.7801 368.326 24.7801C365.92 31.8121 363.335 58.7351 362.409 59.6931C361.94 60.1791 332.113 80.2671 332.113 80.2671C348.299 80.5701 358.398 100.522 358.398 100.522C358.921 93.9661 377.201 67.9861 377.397 65.6691C377.768 61.3001 385.501 41.7821 380.339 25.4051Z" fill="#CE364C"/>
<path d="M328.559 166.18C328.559 166.18 328.409 171.797 330.226 172.167C332.043 172.537 346.846 176.912 363.87 169.174C380.894 161.435 383.855 155.699 378.858 151.443C373.862 147.187 328.559 166.18 328.559 166.18Z" fill="#CE364C"/>
<path d="M321.738 84.155C321.738 84.155 306.249 82.32 297.367 86.164C297.367 86.164 294.89 97.156 307.092 121.754C319.294 146.353 316.464 161.846 330.226 167.678C342.426 172.849 378.396 157.462 379.526 152.359C382.37 139.513 360.374 116.968 358.986 103.904C357.598 90.841 344.83 71.2 321.738 84.155Z" fill="#F24052"/>
<path d="M297.367 86.164C286.542 90.008 274.364 102.162 274.347 108.02C274.33 113.878 284.504 116.137 284.504 116.137L301.185 108.02C301.185 108.02 305.956 104.689 302.919 94.979C299.881 85.27 297.367 86.164 297.367 86.164Z" fill="#CE364C"/>
<path d="M341.845 96.996C338.611 96.996 334.599 95.831 332.106 94.054C330.732 93.075 329.913 91.971 329.736 90.86C329.124 87.015 332.868 85.06 333.029 84.979L333.533 85.967C333.403 86.034 330.35 87.644 330.833 90.685C330.961 91.495 331.625 92.347 332.75 93.149C335.541 95.139 340.368 96.306 343.511 95.752C344.927 95.502 345.854 94.992 346.265 94.238C346.768 93.315 346.339 92.271 346.334 92.26L347.354 91.821C347.381 91.883 348.001 93.353 347.247 94.754C346.669 95.827 345.477 96.53 343.704 96.843C343.13 96.947 342.503 96.996 341.845 96.996Z" fill="#CFD8DC"/>
<path d="M328.118 108.711C325.723 108.711 321.746 107.712 321.189 103.78C320.905 101.779 321.088 100.11 321.249 98.6381C321.486 96.4701 321.674 94.7571 320.411 92.7051C318.325 89.3181 315.485 89.0901 315.365 89.0821L315.432 87.9741C315.574 87.9821 318.952 88.2211 321.356 92.1231C322.819 94.5001 322.592 96.5691 322.352 98.7591C322.191 100.235 322.024 101.761 322.288 103.624C322.89 107.867 328.298 107.601 328.527 107.589L328.593 108.697C328.443 108.706 328.284 108.711 328.118 108.711Z" fill="#CFD8DC"/>
<path d="M331.488 88.7851C331.488 88.7851 339.676 83.2081 337.733 77.1711C335.79 71.1341 309.422 71.5501 302.621 78.7671C295.821 85.9841 317.332 90.7741 317.332 90.7741C318.997 87.4181 329.637 87.0481 331.488 88.7851Z" fill="#CE364C"/>
<path d="M316.766 87.8401C312.881 86.5211 310.577 83.7171 311.41 80.4781C312.243 77.2401 328.946 77.1541 332.113 79.7411C335.281 82.3291 330.819 92.6111 316.766 87.8401Z" fill="#A02E44"/>
<path d="M314.917 78.7391C314.917 78.7391 318.354 84.6111 316.766 87.8401C316.766 87.8401 328.558 91.9111 328.558 85.3131C328.558 85.3131 326.336 80.3681 327.173 77.1711L314.917 78.7391Z" fill="#EF6E4B"/>
<path d="M310.985 73.61C310.985 73.61 305.191 64.331 305.728 55.467C305.997 51.035 308.276 49.299 308.276 49.299C308.276 49.299 306.436 46.741 308.408 42.832C308.408 42.832 311.137 45.99 320.715 44.994C329.951 44.034 330.872 50.618 330.872 50.618C337.474 51.599 333.02 71.569 328.413 73.611L310.985 73.61Z" fill="#FFB878"/>
<path d="M308.527 65.042C308.527 65.042 305.197 61.719 304.787 65.604C304.312 70.105 308.4 71.918 309.199 70.486C309.997 69.054 308.527 65.042 308.527 65.042Z" fill="#FF8B66"/>
<path d="M331.846 65.2761C331.846 65.2761 335.176 61.9531 335.586 65.8381C336.061 70.3391 331.973 72.1521 331.174 70.7201C330.375 69.2891 331.846 65.2761 331.846 65.2761Z" fill="#FF8B66"/>
<path d="M319.835 81.3451C312.446 81.3451 308.276 76.5181 308.276 62.0431C308.276 54.5761 312.075 49.9961 320.352 49.9961C328.628 49.9961 332.114 54.5761 332.114 62.0431C332.114 77.5971 327.469 81.3451 319.835 81.3451Z" fill="#FF8B66"/>
<path d="M329.667 67.205C329.797 67.948 329.149 68.681 328.22 68.843C327.292 69.005 326.433 68.534 326.304 67.792C326.175 67.049 326.822 66.316 327.751 66.154C328.679 65.992 329.537 66.463 329.667 67.205Z" fill="#DB614D"/>
<path d="M314.468 67.61C314.419 68.362 313.616 68.922 312.676 68.861C311.735 68.8 311.012 68.14 311.061 67.388C311.11 66.636 311.912 66.075 312.853 66.137C313.795 66.198 314.517 66.857 314.468 67.61Z" fill="#DB614D"/>
<path d="M326.413 59.4439C326.316 59.4589 326.215 59.4359 326.132 59.3719C324.956 58.4679 323.191 58.788 323.164 58.792C322.967 58.824 322.771 58.6979 322.734 58.4969C322.695 58.2959 322.828 58.1039 323.029 58.0659C323.106 58.0489 325.147 57.6829 326.582 58.7869C326.744 58.9109 326.774 59.1429 326.65 59.3049C326.589 59.3829 326.503 59.4299 326.413 59.4439Z" fill="#FFB878"/>
<path d="M312.271 59.4949C312.18 59.4839 312.094 59.4389 312.031 59.3629C311.902 59.2049 311.925 58.9719 312.082 58.8429C313.482 57.6959 315.532 57.9999 315.611 58.0139C315.812 58.0459 315.95 58.2339 315.919 58.4349C315.888 58.6369 315.691 58.7709 315.498 58.7439C315.485 58.7389 313.687 58.4829 312.551 59.4149C312.468 59.4809 312.367 59.5069 312.271 59.4949Z" fill="#FFB878"/>
<path d="M325.649 63.6151C325.649 64.5321 325.236 65.2771 324.726 65.2761C324.216 65.2761 323.803 64.5321 323.803 63.6151C323.803 62.6971 324.216 61.9531 324.726 61.9531C325.236 61.9531 325.649 62.6971 325.649 63.6151Z" fill="#1A4850"/>
<path d="M315.781 63.6151C315.781 64.5321 315.368 65.2771 314.858 65.2761C314.348 65.2761 313.935 64.5321 313.935 63.6151C313.935 62.6971 314.348 61.9531 314.858 61.9531C315.368 61.9531 315.781 62.6971 315.781 63.6151Z" fill="#1A4850"/>
<path d="M310.543 51.599C310.543 51.599 318.418 54.482 329.707 53.671C329.707 53.671 332.114 56.671 331.822 67.258C331.822 67.258 338.433 48.188 319.135 48.188C299.837 48.188 308.531 66.835 308.531 66.835C308.531 66.835 306.953 55.172 310.543 51.599Z" fill="#FFB878"/>
<path d="M320.303 68.5491L319.75 67.9921L321.212 66.5401C319.795 64.5361 319.802 59.8991 319.804 59.6921L320.589 59.6961C320.589 59.7461 320.581 64.7351 322.028 66.3031L322.285 66.5811L320.303 68.5491Z" fill="#DB614D"/>
<path d="M315.399 70.966C315.399 70.966 322.672 71.273 326.343 70.302C326.343 70.302 326.992 75.591 321.356 75.853C315.399 76.13 315.399 70.966 315.399 70.966Z" fill="#1A4850"/>
<path d="M346.476 90.9599C347.864 90.7019 347.725 94.3339 346.476 93.2809C345.227 92.2289 345.088 91.2179 346.476 90.9599Z" fill="#CFD8DC"/>
<path d="M329.74 108.559C329.529 109.955 326.143 108.633 327.547 107.798C328.95 106.963 329.951 107.163 329.74 108.559Z" fill="#CFD8DC"/>
<path d="M314.843 116.137C314.843 116.137 312.639 121.788 312.765 124.981C312.891 128.174 313.935 127.757 313.935 127.757C313.935 127.757 312.264 128.415 311.947 130.255C311.631 132.095 316.277 133.447 316.596 133.447C316.915 133.447 320.194 132.198 320.194 132.198L320.881 121.755L317.978 119.932L314.843 116.137Z" fill="#EF6E4B"/>
<path d="M316.596 115.406C316.596 115.406 320.608 117.904 322.162 119.431C323.716 120.958 322.829 132.754 322.162 133.309C321.495 133.864 316.38 135.009 315.399 134.367C314.418 133.725 315.781 130.256 315.781 130.256C315.781 130.256 318.35 129.701 317.979 130.672C317.609 131.644 317.979 132.476 317.979 132.476L319.034 132.06C319.034 132.06 318.516 129.423 319.034 127.48C319.552 125.537 315.417 123.488 314.917 119.933C314.417 116.377 316.596 115.406 316.596 115.406Z" fill="#FF8B66"/>
<path d="M275.013 109.658C273.728 104.111 279.234 102.148 286.893 103.094C295.775 104.191 314.015 106.514 317.98 116.137C317.98 116.137 319.275 119.932 315.924 121.755C306.554 126.851 277.425 120.077 275.013 109.658Z" fill="#CE364C"/>
<path d="M302.798 105.983C302.798 105.983 292.213 101.586 286.939 101.14C281.665 100.695 294.231 105.303 302.798 105.983Z" fill="#A02E44"/>
<path d="M382.149 10.6811C381.35 11.5911 380.028 15.1331 380.028 15.1331C379.473 18.1081 379.151 19.7521 378.107 21.1171C377.074 22.4831 377.618 24.8921 377.618 24.8921C377.618 24.8921 373.577 26.9681 370.179 24.4031C370.179 24.4031 370.534 22.0161 370.179 21.3391C369.48 19.9851 367.237 19.2631 366.471 16.5321C365.705 13.7901 363.407 10.7361 363.407 10.7361C363.407 10.7361 364.062 9.31506 365.261 10.1811C366.471 11.0581 367.237 13.2451 367.892 13.4671C368.025 13.5111 368.159 13.5451 368.292 13.5561C368.292 13.5561 368.303 13.5561 368.325 13.5671C368.825 13.6341 369.335 13.5231 369.646 13.2231C369.668 13.2121 369.702 13.1901 369.724 13.1561C370.823 11.8791 371.079 8.12606 371.034 6.45006C370.967 4.11906 371.056 0.89906 372.477 1.44306C373.898 1.98706 372.599 3.28606 373.698 8.42706L374.231 8.49406C374.331 8.86006 375.308 5.37406 375.541 2.09906C375.708 -0.154942 377.184 0.67806 377.506 1.38806C377.839 2.09906 377.339 4.34106 377.24 5.97306C377.162 7.05006 377.073 8.17106 377.018 8.83806L377.64 9.18206C379.883 5.27406 379.117 3.65306 380.427 3.57506C381.726 3.49706 381.26 6.79506 380.56 8.04906C380.26 8.59306 379.972 9.72506 379.738 10.8361C382.036 8.18206 381.781 6.79506 382.836 6.96106C383.925 7.13906 382.948 9.77006 382.149 10.6811Z" fill="#FF8B66"/>
<path d="M372.223 16.7981C371.446 14.6551 368.67 13.6781 368.326 13.5671C368.826 13.6341 369.336 13.5231 369.647 13.2231C372.367 14.4441 372.223 16.7981 372.223 16.7981Z" fill="#EF6E4B"/>
<path d="M323.993 300.771C323.993 300.771 322.457 297.636 323.826 296.289C325.195 294.942 326.808 297.44 329.147 296.885C331.487 296.33 332.029 294.667 332.637 296.932C333.246 299.198 332.505 306.322 323.993 300.771Z" fill="#CFD8DC"/>
<path d="M332.8 300.632C332.8 300.632 326.516 302.858 323.259 300.632L324.087 303.352C324.087 303.352 330.917 304.075 331.859 302.354L332.8 300.632Z" fill="#ADBEC4"/>
<path d="M332.715 304.012C332.715 304.012 326.962 303.214 324.186 304.642V305.991C324.186 305.991 331.687 304.24 334.112 305.991L332.715 304.012Z" fill="#ADBEC4"/>
<path d="M323.91 308.791C323.91 308.791 325.026 306.072 328.526 305.877C332.026 305.682 334.388 307.609 334.388 307.609C334.388 307.609 328.837 305.322 323.91 308.791Z" fill="#ADBEC4"/>
<path d="M472.002 271.013C460.955 285.757 445.922 288.588 445.922 288.588C441.559 285.102 441.448 280.972 441.448 280.972C441.448 280.972 437.24 277.219 436.685 275.421C436.13 273.622 440.293 268.204 442.791 268.76C444.512 269.137 445.511 270.514 445.966 271.325C443.901 266.673 445.555 265.052 448.486 265.452C451.539 265.863 448.653 266.585 450.84 269.038C450.995 269.216 451.173 269.36 451.362 269.493C451.762 269.771 452.239 269.959 452.783 270.059C453.26 270.148 453.793 270.17 454.348 270.137C454.637 270.126 454.936 270.093 455.236 270.048C455.802 269.959 456.379 269.815 456.979 269.626C457.901 269.337 458.855 268.927 459.788 268.416C463.607 266.329 465.217 265.618 468.126 266.362C471.024 267.095 470.979 269.293 470.979 269.293L472.002 271.013Z" fill="#CFD8DC"/>
<path d="M472.002 271.013C460.955 285.757 445.922 288.588 445.922 288.588C453.594 285.291 460.644 280.972 465.462 275.653C470.27 270.336 472.002 271.013 472.002 271.013Z" fill="#ADBEC4"/>
<path d="M451.362 269.492C451.762 269.77 452.239 269.958 452.783 270.058C449.863 270.646 449.652 273.256 449.652 273.256L448.409 272.856C448.675 269.725 451.151 269.503 451.362 269.492Z" fill="#ADBEC4"/>
<path d="M453.327 273.567L452.028 273.611C451.539 271.768 452.172 270.669 452.783 270.058C453.26 270.147 453.793 270.169 454.348 270.136C452.805 271.657 453.327 273.567 453.327 273.567Z" fill="#ADBEC4"/>
<path d="M456.536 272.856L455.248 273.022C454.748 271.712 454.893 270.735 455.237 270.047C455.803 269.958 456.38 269.814 456.98 269.625C455.914 271.213 456.536 272.856 456.536 272.856Z" fill="#ADBEC4"/>
<path d="M332.914 135.946C332.914 135.946 335.765 151.332 329.999 157.463C324.234 163.594 328.048 158.556 329.767 150.651C331.488 142.746 330.178 134.419 332.914 135.946Z" fill="#CE364C"/>
<path d="M359.522 129.079C359.522 129.079 368.61 132.065 373.364 140.459C373.364 140.459 367.016 126.792 359.522 129.079Z" fill="#CE364C"/>
<path d="M123.473 14.7671C124.684 14.7861 128.196 16.1841 128.196 16.1841C130.774 17.7701 132.208 18.6351 133.921 18.7781C135.626 18.9301 136.326 21.8591 136.326 21.8591C136.326 21.8591 143.051 23.3301 143.431 19.0901C143.431 19.0901 139.672 13.7691 139.408 13.0511C138.874 11.6231 139.844 9.47711 138.335 7.07511C136.817 4.66611 136.097 0.913114 136.097 0.913114C136.097 0.913114 134.604 0.445113 134.441 1.91511C134.279 3.40111 135.385 5.43711 135.11 6.07211C135.053 6.20011 134.989 6.32211 134.908 6.42811C134.908 6.42811 134.901 6.43611 134.894 6.46011C134.608 6.87511 134.183 7.17911 133.752 7.20811C133.729 7.21711 133.69 7.22711 133.65 7.22111C131.966 7.17911 129.013 4.84811 127.801 3.69011C126.118 2.07511 123.672 -0.0198856 123.121 1.39811C122.57 2.81711 124.405 2.72611 127.477 6.99111L127.169 7.43111C127.373 7.75111 124.134 6.13511 121.55 4.10911C119.768 2.71911 119.394 4.37311 119.704 5.08811C120.007 5.81211 122.005 6.94711 123.281 7.96911C124.131 8.63411 125.022 9.32111 125.553 9.72811L125.391 10.4201C120.989 9.45811 120.302 7.80211 119.365 8.72111C118.435 9.63111 121.192 11.5001 122.592 11.8241C123.196 11.9671 124.23 12.5131 125.209 13.0861C121.699 13.0081 120.842 11.8871 120.258 12.7801C119.656 13.7061 122.262 14.7481 123.473 14.7671Z" fill="#FF8B66"/>
<path d="M134.671 11.5182C133.605 9.50318 134.744 6.79018 134.893 6.46118C134.607 6.87618 134.182 7.18018 133.751 7.20918C132.829 10.0442 134.671 11.5182 134.671 11.5182Z" fill="#EF6E4B"/>
<path d="M321.329 14.7671C320.118 14.7861 316.606 16.1841 316.606 16.1841C314.028 17.7701 312.594 18.6351 310.881 18.7781C309.176 18.9301 308.476 21.8591 308.476 21.8591C308.476 21.8591 301.751 23.3301 301.371 19.0901C301.371 19.0901 305.131 13.7691 305.394 13.0511C305.928 11.6231 304.958 9.47711 306.467 7.07511C307.985 4.66611 308.705 0.913114 308.705 0.913114C308.705 0.913114 310.198 0.445113 310.361 1.91511C310.523 3.40111 309.417 5.43711 309.692 6.07211C309.749 6.20011 309.813 6.32211 309.895 6.42811C309.895 6.42811 309.902 6.43611 309.909 6.46011C310.195 6.87511 310.62 7.17911 311.051 7.20811C311.074 7.21711 311.113 7.22711 311.153 7.22111C312.837 7.17911 315.79 4.84811 317.003 3.69011C318.686 2.07511 321.132 -0.0198856 321.683 1.39811C322.234 2.81711 320.399 2.72611 317.327 6.99111L317.635 7.43111C317.431 7.75111 320.67 6.13511 323.254 4.10911C325.036 2.71911 325.41 4.37311 325.1 5.08811C324.797 5.81211 322.799 6.94711 321.523 7.96911C320.673 8.63411 319.782 9.32111 319.251 9.72811L319.413 10.4201C323.815 9.45811 324.502 7.80211 325.439 8.72111C326.369 9.63111 323.612 11.5001 322.212 11.8241C321.608 11.9671 320.574 12.5131 319.595 13.0861C323.104 13.0081 323.962 11.8871 324.546 12.7801C325.146 13.7061 322.54 14.7481 321.329 14.7671Z" fill="#FF8B66"/>
<path d="M310.131 11.5182C311.197 9.50318 310.058 6.79018 309.909 6.46118C310.195 6.87618 310.62 7.18018 311.051 7.20918C311.973 10.0442 310.131 11.5182 310.131 11.5182Z" fill="#EF6E4B"/>
<path d="M262.231 218.613L249.312 138.622L223.444 141.511L197.576 138.622L184.657 218.613L178.452 296.194C178.452 296.194 180.425 302.622 193.329 298.181C193.329 298.181 202.903 226.223 204.383 224.638C205.863 223.053 221.066 176.052 221.066 176.052H225.821C225.821 176.052 241.023 223.053 242.504 224.638C243.984 226.223 253.558 298.181 253.558 298.181C266.463 302.622 268.435 296.194 268.435 296.194L262.231 218.613Z" fill="#0E3944"/>
<path d="M215.294 61.1602C216.928 62.7502 224.967 65.6192 229.212 61.1602L232.09 63.9872C232.09 63.9872 228.808 71.7052 223.049 71.9752C217.289 72.2452 213.126 65.1082 213.126 65.1082L215.294 61.1602Z" fill="#0C476B"/>
<path d="M238.061 60.2882C247.683 56.1452 278.77 45.1342 278.77 45.1342C278.77 45.1342 299.668 18.9522 303.93 15.0662C303.93 15.0662 308.556 15.8992 309.91 21.6582C309.91 21.6582 296.453 50.4722 289.139 58.7212C281.824 66.9702 244.777 84.8112 244.777 84.8112L238.061 60.2882Z" fill="#0C476B"/>
<path d="M204.383 59.6941C207.246 57.8841 221.617 67.4981 221.617 67.4981C221.617 67.4981 240.301 57.5761 244.686 59.4981C244.686 59.4981 248.638 64.7861 250.225 78.3801C251.813 91.9741 251.918 147.916 251.918 147.916C251.918 147.916 239.356 152.36 222.365 152.36C202.995 152.36 192.574 146.805 192.574 146.805C192.574 146.805 189.117 69.3491 204.383 59.6941Z" fill="#FFB878"/>
<path d="M216.053 58.2412C216.053 58.2412 218.122 64.7502 216.053 67.2582C216.053 67.2582 218.202 71.7672 222.065 71.9672C226.528 72.1972 228.076 67.2582 228.076 67.2582C228.076 67.2582 225.716 60.9712 228.076 58.7622L216.053 58.2412Z" fill="#EF6E4B"/>
<path d="M210.894 51.8341C210.894 51.8341 206.539 43.4521 207.401 34.4941C208.263 25.5371 221.76 23.4831 230.855 27.8841C230.855 27.8841 228.155 25.2441 229.212 24.5101C230.269 23.7771 232.09 28.4711 232.09 28.4711C232.09 28.4711 234.963 27.5911 235.403 28.4711C235.843 29.3521 232.46 29.8331 232.46 29.8331C232.46 29.8331 238.329 33.0881 232.846 50.4111L210.894 51.8341Z" fill="#8B383E"/>
<path d="M210.239 46.526C210.239 46.526 206.992 43.286 206.592 47.074C206.129 51.463 210.115 53.231 210.894 51.835C211.673 50.438 210.239 46.526 210.239 46.526Z" fill="#FF8B66"/>
<path d="M232.977 46.7552C232.977 46.7552 236.224 43.5142 236.624 47.3032C237.087 51.6922 233.101 53.4602 232.322 52.0642C231.543 50.6672 232.977 46.7552 232.977 46.7552Z" fill="#FF8B66"/>
<path d="M221.266 62.422C214.061 62.422 209.995 57.716 209.995 43.601C209.995 36.32 213.699 31.854 221.77 31.854C229.84 31.854 233.239 36.32 233.239 43.601C233.239 58.768 228.709 62.422 221.266 62.422Z" fill="#FF8B66"/>
<path d="M230.852 48.635C230.979 49.359 230.347 50.074 229.441 50.232C228.535 50.39 227.699 49.931 227.573 49.207C227.446 48.483 228.078 47.768 228.984 47.61C229.889 47.452 230.726 47.911 230.852 48.635Z" fill="#DB614D"/>
<path d="M216.033 49.0301C215.985 49.7641 215.203 50.3101 214.285 50.2501C213.368 50.1901 212.663 49.5471 212.711 48.8131C212.759 48.0801 213.541 47.5331 214.459 47.5931C215.376 47.6531 216.081 48.2961 216.033 49.0301Z" fill="#DB614D"/>
<path d="M227.557 41.311C227.462 41.311 227.368 41.274 227.297 41.2C226.298 40.153 224.55 40.198 224.524 40.198C224.329 40.199 224.159 40.048 224.153 39.849C224.146 39.65 224.302 39.484 224.501 39.478C224.578 39.473 226.6 39.426 227.817 40.703C227.954 40.847 227.949 41.075 227.806 41.212C227.736 41.279 227.646 41.311 227.557 41.311Z" fill="#8B383E"/>
<path d="M213.991 41.311C213.902 41.311 213.813 41.279 213.743 41.212C213.599 41.075 213.594 40.847 213.73 40.703C214.948 39.425 216.967 39.474 217.046 39.478C217.245 39.485 217.4 39.651 217.394 39.849C217.388 40.048 217.214 40.201 217.023 40.198C217.01 40.195 215.239 40.162 214.252 41.2C214.18 41.274 214.086 41.311 213.991 41.311Z" fill="#8B383E"/>
<path d="M226.934 45.1342C226.934 46.0292 226.531 46.7542 226.034 46.7542C225.537 46.7542 225.134 46.0282 225.134 45.1342C225.134 44.2392 225.537 43.5142 226.034 43.5142C226.532 43.5142 226.934 44.2392 226.934 45.1342Z" fill="#1A4850"/>
<path d="M217.313 45.1342C217.313 46.0292 216.91 46.7542 216.413 46.7542C215.916 46.7542 215.513 46.0292 215.513 45.1342C215.513 44.2392 215.916 43.5142 216.413 43.5142C216.91 43.5142 217.313 44.2402 217.313 45.1342Z" fill="#1A4850"/>
<path d="M217.313 54.7071C217.313 54.7071 223.667 55.5251 226.935 53.9561C226.935 53.9561 225.087 58.2821 221.617 57.8941C218.146 57.5071 217.313 54.7071 217.313 54.7071Z" fill="#1A4850"/>
<path d="M232.488 48.354C232.488 48.354 232.263 40.518 229.212 34.495C229.212 34.495 223.834 36.981 222.65 36.394C221.466 35.807 223.778 34.495 223.778 34.495C223.778 34.495 214.904 37.421 214.371 36.834C213.838 36.247 217.312 34.495 217.312 34.495L211.784 36.394C211.784 36.394 210.08 43.444 210.785 48.355C210.785 48.355 208.41 44.256 208.116 41.425C207.822 38.594 209.067 30.526 217.393 29.939C225.72 29.352 230.396 31.242 232.459 35.065C234.523 38.887 234.267 43.59 232.488 48.354Z" fill="#8B383E"/>
<path d="M222.522 52.4429C221.822 52.4439 221.111 52.262 220.896 52.202L221.1 51.465C221.856 51.674 223.042 51.798 223.301 51.493C223.39 51.387 223.355 51.1409 223.202 50.8179C222.161 48.6029 221.944 42.996 221.935 42.759L222.701 42.731C222.703 42.788 222.92 48.419 223.895 50.492C224.193 51.124 224.189 51.627 223.886 51.987C223.59 52.337 223.059 52.4429 222.522 52.4429Z" fill="#DB614D"/>
<path d="M230.494 63.222C230.494 63.222 243.534 103.702 244.776 136.639C244.776 136.639 249.483 137.934 254.782 130.718C260.081 123.501 256.929 66.339 246.777 56.821C246.777 56.821 242.17 55.771 230.494 63.222Z" fill="#105E99"/>
<path d="M232.619 70.301C232.619 70.301 234.953 64.878 233.916 61.159C232.879 57.44 229.212 61.159 229.212 61.159C229.212 61.159 230.694 67.248 232.619 70.301Z" fill="#0C476B"/>
<path d="M206.445 60.2882C196.823 56.1452 165.736 45.1342 165.736 45.1342C165.736 45.1342 144.785 18.1882 140.523 14.3032C140.523 14.3032 135.249 17.2872 134.892 23.4632C134.892 23.4632 148.053 50.4732 155.368 58.7222C162.683 66.9712 199.73 84.8122 199.73 84.8122L206.445 60.2882Z" fill="#0C476B"/>
<path d="M214.013 63.222C214.013 63.222 200.973 103.702 199.731 136.639C199.731 136.639 195.024 137.934 189.725 130.718C184.426 123.501 187.578 66.339 197.73 56.821C197.73 56.821 202.336 55.771 214.013 63.222Z" fill="#105E99"/>
<path d="M211.887 70.301C211.887 70.301 209.553 64.878 210.59 61.159C211.627 57.44 215.294 61.159 215.294 61.159C215.294 61.159 213.813 67.248 211.887 70.301Z" fill="#0C476B"/>
<path d="M279.938 317.056H254.047C252.237 306.764 255.124 296.461 255.124 296.461L266.959 294.429C268.036 300.935 269.335 303.5 271.134 304.821C271.145 304.821 271.145 304.821 271.145 304.821C272.455 305.776 274.02 306.087 275.975 306.764C278.207 307.541 279.384 308.951 279.972 310.483C281.138 313.525 279.938 317.056 279.938 317.056Z" fill="#662C33"/>
<path d="M279.972 310.483C273.588 311.282 259.565 312.648 260.42 308.951C261.131 305.864 267.048 305.032 271.134 304.821C271.145 304.821 271.145 304.821 271.145 304.821C272.455 305.776 274.02 306.087 275.975 306.764C278.206 307.541 279.383 308.951 279.972 310.483Z" fill="#8B383E"/>
<path d="M193.227 317.056H167.336C167.336 317.056 166.514 314.636 166.892 312.071C167.203 309.984 168.313 307.796 171.3 306.764C173.543 305.987 175.264 305.698 176.674 304.377C178.206 302.934 179.35 300.269 180.316 294.429L192.151 296.461C192.151 296.461 195.026 306.764 193.227 317.056Z" fill="#662C33"/>
<path d="M166.892 312.071C167.203 309.984 168.313 307.796 171.3 306.764C173.543 305.987 175.264 305.698 176.674 304.377C179.949 305.387 184.535 307.242 185.956 310.05C187.932 313.902 172.799 313.292 166.892 312.071Z" fill="#8B383E"/>
<path d="M379.107 315.202C379.107 316.29 378.996 317.056 378.996 317.056H347.543C347.543 316.434 347.554 315.813 347.587 315.202C347.942 306.975 350.54 299.836 350.54 299.836L358.401 296.461C359.078 300.513 360.821 303.1 363.009 304.788C363.586 305.243 364.186 305.621 364.808 305.943C365.097 306.099 365.385 306.243 365.685 306.376C366.34 306.676 367.017 306.92 367.695 307.12C370.471 307.964 373.28 308.141 375.245 308.441C378.596 308.962 379.107 312.837 379.107 315.202Z" fill="#164353"/>
<path d="M379.107 315.202C379.107 316.29 378.996 317.056 378.996 317.056H347.543C347.543 316.434 347.554 315.813 347.587 315.202H379.107Z" fill="#225866"/>
<path d="M364.806 305.942L360.443 307.341L359.521 305.742L363.007 304.787C363.585 305.243 364.185 305.62 364.806 305.942Z" fill="#225866"/>
<path d="M367.693 307.119L364.751 309.073L362.941 308.362L365.683 306.375C366.339 306.675 367.016 306.919 367.693 307.119Z" fill="#225866"/>
<path d="M258.932 315.202C258.854 316.268 258.577 317.056 258.577 317.056H237.627C237.361 316.445 237.172 315.835 237.038 315.202C234.973 305.176 248.895 292.908 248.895 292.908L253.314 298.804C253.314 298.804 252.803 308.241 256.545 310.206C258.788 311.382 259.077 313.603 258.932 315.202Z" fill="#164353"/>
<path d="M237.038 315.202H258.932C258.854 316.268 258.577 317.056 258.577 317.056H237.627C237.36 316.445 237.171 315.834 237.038 315.202Z" fill="#225866"/>
<path d="M255.588 309.454C255.588 309.454 246.761 307.442 242.737 310.047V308.59C242.737 308.59 250.161 304.982 255.588 309.454Z" fill="#225866"/>
<path d="M253.839 307.215C253.839 307.215 248.203 304.638 242.736 307.215L243.36 305.745C243.36 305.745 249.89 303.276 253.839 307.215Z" fill="#225866"/>
<path d="M369.614 226.07C369.625 234.497 362.142 303.2 362.142 303.2C354.659 303.944 348.664 302.445 348.664 302.445C346.61 267.627 346.41 237.684 346.41 237.684L310.549 210.805L310.46 210.738C310.46 210.738 310.327 211.349 310.082 212.437C308.306 220.32 300.789 253.339 297.658 260.9C294.094 269.516 255.126 305.746 255.126 305.746C247.887 304.747 241.745 299.504 241.745 299.504C255.734 276.3 274.808 253.029 274.808 253.029C276.296 244.669 277.362 226.072 277.995 212.172C278.006 211.961 278.017 211.739 278.028 211.528C278.45 202.113 278.661 195.007 278.661 195.007L272.088 181.528L313.845 166.184L323.204 178.164C323.204 178.164 325.347 180.151 328.722 183.327C328.877 183.471 329.033 183.616 329.188 183.76C341.724 195.583 369.614 222.295 369.614 226.07Z" fill="#8BBDDB"/>
<path d="M277.996 212.17C278.007 211.959 278.018 211.737 278.029 211.526C286.822 206.752 285.346 199.135 285.323 199.058L285.867 198.947C285.889 199.024 287.466 207.207 277.996 212.17Z" fill="#6097B2"/>
<path d="M309.904 205.419C310.204 207.084 310.426 208.883 310.548 210.804L310.459 210.737C310.459 210.737 310.326 211.348 310.081 212.436C309.693 199.379 304.308 191.663 304.241 191.574L304.696 191.252C304.751 191.319 308.149 196.226 309.792 204.786C316.143 199.146 309.925 187.588 309.859 187.477L310.347 187.211C310.415 187.333 316.999 199.568 309.904 205.419Z" fill="#6097B2"/>
<path d="M329.189 183.758C329.178 183.769 329.156 183.769 329.145 183.78C328.89 183.88 328.59 183.924 328.279 183.924C325.204 183.924 320.041 179.616 319.797 179.405L320.163 178.983C321.84 180.404 326.514 183.813 328.723 183.324C328.879 183.47 329.034 183.614 329.189 183.758Z" fill="#6097B2"/>
<path d="M275.013 109.658C275.013 109.658 287.715 107.614 294.079 111.671C300.443 115.728 308.799 126.317 308.799 126.317C308.799 126.317 298.878 127.627 297.755 134.366C297.755 134.366 290.549 117.204 275.013 109.658Z" fill="#ADBEC4"/>
<path d="M255.905 116.283C250.532 119.188 241.551 130.093 241.145 136.799C240.749 143.34 245.595 149.356 248.861 154.47C259.054 170.429 269.786 184.53 274.347 203.248C274.376 203.367 297.662 212.607 324.991 179.757C324.991 179.757 309.548 158.98 304.214 141.291C302.043 134.091 299.833 126.442 295.662 120.096C291.068 113.106 283.199 108.994 275.014 109.657C268.087 110.22 261.198 113.421 255.905 116.283Z" fill="#CFD8DC"/>
<path d="M253.65 109.589C253.65 109.589 257.086 115.461 255.499 118.69C255.499 118.69 267.292 122.761 267.292 116.163C267.292 116.163 265.069 111.218 265.907 108.021L253.65 109.589Z" fill="#EF6E4B"/>
<path d="M279.854 149.798C279.854 149.798 273.294 151.661 271.639 153.983C269.984 156.305 268.511 161.514 268.511 161.514H279.854L281.987 157.59L284.484 152.36L279.854 149.798Z" fill="#EF6E4B"/>
<path d="M269.01 103.041C269.01 103.041 273.615 101.109 270.636 87.2581C268.662 78.0801 265.818 76.7121 263.981 76.6311C263.981 76.6311 261.733 73.2441 253.936 74.8651C248.596 75.9761 244.335 79.2191 242.459 85.2201C240.501 91.4841 244.417 104.911 249.574 106.247L269.01 103.041Z" fill="#164353"/>
<path d="M270.099 93.681C270.099 93.681 273.001 89.641 274.097 93.623C275.367 98.236 271.415 100.831 270.335 99.475C269.256 98.119 270.099 93.681 270.099 93.681Z" fill="#FF8B66"/>
<path d="M245.815 97.938C245.815 97.938 241.769 95.045 242.01 99.168C242.289 103.944 246.865 105.132 247.452 103.501C248.04 101.87 245.815 97.938 245.815 97.938Z" fill="#FF8B66"/>
<path d="M261.109 112.632C268.817 111.36 272.336 105.608 269.845 90.508C268.56 82.719 263.809 78.595 255.176 80.02C246.543 81.444 243.695 86.821 244.98 94.611C247.656 110.836 253.146 113.946 261.109 112.632Z" fill="#FF8B66"/>
<path d="M248.42 99.575C248.413 100.372 249.215 101.026 250.212 101.035C251.209 101.044 252.023 100.405 252.03 99.608C252.037 98.811 251.235 98.157 250.238 98.148C249.242 98.14 248.428 98.778 248.42 99.575Z" fill="#DB614D"/>
<path d="M264.344 97.382C264.524 98.158 265.458 98.604 266.429 98.379C267.4 98.153 268.04 97.341 267.86 96.564C267.679 95.788 266.746 95.341 265.775 95.567C264.804 95.793 264.163 96.605 264.344 97.382Z" fill="#DB614D"/>
<path d="M250.59 91.1641C250.514 91.1641 250.437 91.142 250.37 91.096C250.192 90.975 250.146 90.7321 250.267 90.5541C251.345 88.9731 253.508 88.67 253.6 88.657C253.827 88.632 254.009 88.7801 254.038 88.9921C254.066 89.2061 253.917 89.4021 253.703 89.4311C253.683 89.4331 251.79 89.704 250.913 90.993C250.837 91.105 250.714 91.1641 250.59 91.1641Z" fill="#1A4850"/>
<path d="M265.102 88.7701C265.02 88.7701 264.937 88.7451 264.867 88.6911C263.619 87.7491 261.744 88.1041 261.726 88.1081C261.511 88.1551 261.31 88.0131 261.267 87.8011C261.225 87.5901 261.362 87.3841 261.574 87.3421C261.664 87.3251 263.81 86.9151 265.337 88.0671C265.509 88.1971 265.543 88.4421 265.414 88.6141C265.337 88.7161 265.22 88.7701 265.102 88.7701Z" fill="#1A4850"/>
<path d="M251.994 95.1382C252.152 96.0952 252.711 96.8012 253.243 96.7132C253.775 96.6252 254.078 95.7782 253.92 94.8212C253.762 93.8642 253.203 93.1592 252.671 93.2472C252.139 93.3342 251.836 94.1812 251.994 95.1382Z" fill="#1A4850"/>
<path d="M262.287 93.4402C262.445 94.3972 263.004 95.1022 263.536 95.0142C264.068 94.9262 264.371 94.0792 264.213 93.1222C264.055 92.1652 263.496 91.4602 262.964 91.5482C262.432 91.6362 262.129 92.4832 262.287 93.4402Z" fill="#1A4850"/>
<path d="M265.177 102.131C265.177 102.131 258.491 103.925 254.782 103.212C254.782 103.212 257.345 106.44 261.005 105.509C264.664 104.579 265.177 102.131 265.177 102.131Z" fill="#1A4850"/>
<path d="M265.493 83.501C265.493 83.501 256.793 89.8 245.873 90.28L246.182 100.001C246.182 100.001 236.004 81.247 256.135 77.926C276.265 74.605 270.406 95.552 270.406 95.552C270.406 95.552 269.781 86.517 265.493 83.501Z" fill="#0E3944"/>
<path d="M258.377 99.519L258.322 98.679C258.334 98.678 259.495 98.588 259.797 97.869C259.922 97.573 259.427 96.629 258.99 95.797C258.384 94.64 257.63 93.201 257.309 91.602L258.135 91.436C258.431 92.917 259.154 94.297 259.735 95.406C260.382 96.641 260.85 97.533 260.572 98.195C260.068 99.396 258.446 99.515 258.377 99.519Z" fill="#DB614D"/>
<path d="M270.213 83.5251C255.58 77.1741 241.768 90.3421 241.768 90.3421C241.768 90.3421 240.158 79.6721 242.978 77.1741C243.711 76.5191 244.499 75.9421 245.321 75.4311C251.783 71.3561 260.376 71.4341 264.317 72.8331C265.127 73.1221 265.749 73.4661 266.105 73.8321C268.436 76.2521 270.213 83.5251 270.213 83.5251Z" fill="#CE364C"/>
<path d="M268.436 81.1481C268.436 81.1481 256.145 78.7171 244.688 86.3001C244.688 86.3001 243.955 79.4161 245.321 75.4311C251.783 71.3561 260.376 71.4341 264.317 72.8331C266.615 75.4531 268.436 81.1481 268.436 81.1481Z" fill="#CFD8DC"/>
<path d="M242.978 89.0871C242.978 89.0871 244.927 80.8121 247.552 78.4811C251.918 74.6041 264.188 73.2721 270.637 75.6031C277.086 77.9341 270.637 84.9801 270.637 84.9801C270.637 84.9801 260.358 77.6181 242.978 89.0871Z" fill="#A02E44"/>
<path d="M261.956 144.074C261.956 144.074 266.979 151.854 275.533 156.431C275.533 156.431 286.235 147.142 300.11 147.978C300.11 147.978 288.61 168.726 278.735 171.024C273.546 172.231 254.782 159.806 254.782 159.806C254.782 159.806 258.528 146.6 261.956 144.074Z" fill="#FF8B66"/>
<path d="M243.459 129.969C248.056 122.486 258.66 133.548 262.269 141.448C265.878 149.349 268.512 151.024 268.512 151.024C268.512 151.024 257.916 155.45 257.992 163.392C257.992 163.392 233.428 146.298 243.459 129.969Z" fill="#ADBEC4"/>
<path d="M275.533 153.013C275.533 153.013 281.987 146.681 303.209 138.417L300.468 129.797C302.902 126.593 307.378 126.593 307.378 126.593C307.378 126.593 318.251 141.947 316.379 146.533C315.211 149.398 292.532 152.404 275.533 153.013Z" fill="#EF6E4B"/>
<path d="M298.775 140.485C298.775 140.485 298.942 139.578 299.727 138.471C300.511 137.364 300.299 135.349 300.58 134.724C300.861 134.1 302.531 131.547 303.639 131.051C304.747 130.554 306.201 129.742 306.51 131.149C306.819 132.555 304.525 132.157 303.495 134.18C303.495 134.18 305.749 133.451 307.537 133.874C309.325 134.297 309.831 135.931 307.622 135.877C305.86 135.834 303.591 137.09 303.591 137.09C303.591 137.09 305.887 137.435 305.517 138.494C305.003 139.957 302.203 139.056 298.775 140.485Z" fill="#FF8B66"/>
<path d="M141.819 169.392C143.716 174.249 151.487 182.576 151.487 182.576C151.487 182.576 170.471 171.196 179.229 175.984C187.987 180.772 194.947 183.693 200.627 181.608C206.307 179.523 181.951 135.228 181.951 135.228L150.373 123.178C150.373 123.178 149.684 131.165 146.076 132.584C142.468 134.003 138.621 147.187 138.879 149.685C139.136 152.183 141.819 169.392 141.819 169.392Z" fill="#3E6575"/>
<path d="M177.349 182.865C177.349 182.865 169.206 198.827 152.395 219.269C152.395 219.269 150.672 243.578 106.216 281.825L101.562 278.164C101.562 278.164 128.037 236.693 133.332 223.978C138.628 211.263 130.405 199.613 154.767 167.452L177.349 182.865Z" fill="#EF6E4B"/>
<path d="M151.432 154.62C144.423 168.047 142.07 185.213 142.07 185.213L138.878 193.266C138.878 193.266 150.2 199.372 163.274 201.593L168.517 187.715L151.432 154.62Z" fill="#662C33"/>
<path d="M187.991 181.608C187.991 181.608 191.462 199.187 190.89 225.648C190.89 225.648 204.568 245.818 193.28 303.366H187.359C187.359 303.366 182.522 254.404 178.821 241.136C175.12 227.869 161.454 223.798 160.714 183.458L187.991 181.608Z" fill="#FF8B66"/>
<path d="M191.462 200.479C191.462 200.479 180.326 202.478 160.708 201.556L160.397 199.347L160.319 198.781L158.287 184.481C158.287 184.481 156.4 182.149 154.457 178.352C154.224 177.908 154.002 177.453 153.78 176.975C151.137 171.346 148.795 163.163 151.426 154.626L155.567 154.815L156.144 154.848L170 155.481L170.588 155.514L175.14 155.725L175.85 155.758L178.803 155.891C178.803 155.891 193.814 169.403 191.138 194.384L191.327 197.859L191.349 198.425L191.462 200.479Z" fill="#8B383E"/>
<path d="M156.145 154.847C155.756 155.991 153.136 164.473 154.457 178.351C154.224 177.907 154.002 177.452 153.78 176.974C152.792 164.284 155.068 156.368 155.567 154.813C155.634 154.624 155.667 154.536 155.667 154.524L156.189 154.713C156.189 154.725 156.167 154.77 156.145 154.847Z" fill="#662C33"/>
<path d="M191.35 198.425C187.409 199.435 180.725 199.713 174.374 199.713C168.678 199.713 163.271 199.48 160.396 199.347L160.318 198.781C165.303 199.025 178.426 199.536 186.886 198.614L186.342 189.676C186.475 179.251 183.322 170.347 180.28 164.196C172.575 162.797 170.454 157.09 169.999 155.48C169.932 155.225 169.899 155.069 169.899 155.058L170.443 154.969C170.443 154.98 170.487 155.18 170.587 155.513C171.087 157.178 173.152 162.141 179.958 163.562C177.904 159.554 175.961 156.812 175.14 155.724C174.896 155.391 174.74 155.202 174.729 155.191L175.151 154.836C175.173 154.858 175.429 155.169 175.85 155.757C178.426 159.254 187.119 172.411 186.897 189.653L187.441 198.546C188.918 198.368 190.239 198.146 191.327 197.858L191.35 198.425Z" fill="#662C33"/>
<path d="M162.984 94.3852C158.565 91.9512 126.722 104.439 126.722 104.439C126.722 104.439 122.011 112.842 124.948 116.137C127.885 119.432 138.304 117.979 141.496 116.137C144.688 114.295 153.143 112.901 153.143 112.901L162.984 94.3852Z" fill="#8BBDDB"/>
<path d="M191.143 67.8762C191.143 67.8762 197.721 70.4151 200.127 77.9931C202.533 85.5711 195.34 104.757 197.826 113.576C200.312 122.395 199.926 139.049 192.162 142.565C184.398 146.081 168.475 139.789 165.057 130.167C161.638 120.545 163.114 84.0911 169.685 71.6941C176.257 59.2951 189.561 65.5392 191.143 67.8762Z" fill="#F24052"/>
<path d="M183.584 100.572C185.319 102.442 189.779 99.109 189.779 99.109C189.779 99.109 189.688 115.646 184.882 116.914C180.076 118.182 167.827 103.887 168.331 100.002C168.835 96.115 179.737 96.424 183.584 100.572Z" fill="#8BBDDB"/>
<path d="M165.057 96.436C165.057 96.436 169.919 100.564 178.388 102.527C186.858 104.49 191.448 100.508 195.779 105.969C202.28 114.166 191.703 129.277 186.138 137.108C184.063 140.027 179.685 148.125 178.8 155.893C178.8 155.893 164.104 160.162 151.431 154.62L150.485 136.591C150.485 136.591 142.497 112.294 165.057 96.436Z" fill="#0E3944"/>
<path d="M180.251 113.976C180.251 113.976 186.966 97.9732 188.911 96.9512C190.856 95.9292 195.787 98.3822 196.777 100.571C197.767 102.76 196.777 107.535 196.777 107.535C196.777 107.535 191.481 101.491 180.251 113.976Z" fill="#8BBDDB"/>
<path d="M212.413 181.604C209.36 187.855 201.865 189.653 201.865 189.653C201.865 189.653 201.299 188.787 200.344 187.233C200.244 187.078 200.133 186.9 200.033 186.722C194.137 177.163 176.118 146.575 176.473 130.665C176.884 111.657 189.285 101.221 189.285 101.221C195.58 102.72 197.568 104.441 197.568 104.441C197.568 104.441 199.689 115.255 197.746 128.267C195.803 141.268 192.272 144.71 194.049 145.687C195.814 146.653 194.049 148.596 194.049 148.596C194.049 148.596 204.496 163.151 206.451 167.681C207.717 170.634 209.871 175.653 211.214 178.784C211.303 179.006 211.392 179.228 211.48 179.428C212.046 180.75 212.413 181.604 212.413 181.604Z" fill="#6097B2"/>
<path d="M194.266 104.439C194.266 104.439 186.786 109.984 191.144 118.456L211.878 139.921C200.498 152.047 199.37 157.026 191.144 162.616L194.266 167.452C194.266 167.452 223.076 145.31 223.119 139.921C223.137 137.614 205.521 109.706 194.266 104.439Z" fill="#FF8B66"/>
<path d="M190.689 162.618C190.689 162.618 186.737 163.056 184.248 163.679C181.759 164.301 178.441 164.923 178.337 165.442C178.233 165.96 183.833 165.442 183.833 165.442C183.833 165.442 179.27 167.316 179.167 168.038C179.064 168.76 184.974 167.516 184.974 167.516C184.974 167.516 181.241 169.797 181.448 170.419C181.655 171.041 186.254 169.486 186.254 169.486C186.254 169.486 185.399 171.663 184.512 172.7C184.512 172.7 185.403 173.189 187.21 171.182C189.017 169.174 191.903 169.819 194.188 168.038C196.472 166.256 192.769 162.35 190.689 162.618Z" fill="#FF8B66"/>
<path d="M169.502 99.0993C169.502 99.0993 163.811 102.776 160.217 111.658C156.623 120.54 145.282 137.254 142.625 141.573C139.968 145.891 141.819 169.392 141.819 169.392C141.819 169.392 138.488 155.144 137.008 149.592C135.528 144.041 141.788 130.323 142.729 129.595C143.67 128.867 148.481 130.199 147.556 124.63C146.631 119.061 159.539 95.0613 162.985 94.3853C162.985 94.3853 168.504 95.4223 169.502 99.0993Z" fill="#6097B2"/>
<path d="M151.904 100.3C151.804 100.489 151.693 100.678 151.56 100.855C150.272 102.709 147.874 104.186 147.874 104.186C147.874 104.186 143.533 110.27 143.489 110.97C143.445 111.57 135.95 117.01 132.62 116.899H132.609C132.154 116.888 131.776 116.766 131.51 116.521C129.534 114.656 138.238 99.0012 140.159 95.6262C140.281 95.4042 140.381 95.2372 140.448 95.1262C140.492 95.0372 140.526 94.9822 140.526 94.9822C140.526 94.9822 138.994 89.2752 145.389 90.3412C150.707 91.2182 151.762 95.4482 152.317 98.2792C152.448 98.9572 152.259 99.6452 151.904 100.3Z" fill="#6097B2"/>
<path d="M129.574 106.216C133.967 100.441 149.425 89.241 157.567 85.926L159.602 89.71C159.602 89.71 143.869 103.542 140.173 109.459C136.477 115.376 131.898 117.823 127.524 115.853C123.149 113.882 128.65 107.432 129.574 106.216Z" fill="#FF8B66"/>
<path d="M150.372 99.1131L149.539 100.068L149.117 100.556L147.74 102.133C147.74 102.133 144.276 106.33 144.409 108.017C144.509 109.227 137.836 114.645 132.618 116.899C130.497 117.82 128.61 118.22 127.511 117.587C123.736 115.411 124.58 108.872 126.723 104.442C128.588 100.578 136.837 95.5931 138.958 94.3721C139.224 94.2051 139.391 94.1061 139.446 94.0831C139.457 94.0721 139.457 94.0721 139.457 94.0721L140.245 91.0081C140.245 91.0081 143.121 89.2761 145.386 90.3421C145.386 90.3421 140.39 90.5531 141.212 92.4961C142.056 94.4491 148.984 99.0461 150.372 99.1131Z" fill="#8BBDDB"/>
<path d="M168.513 83.0921C163.484 85.1571 164.205 89.7091 159.598 89.7091C156.745 89.7091 156.367 86.4451 156.367 86.4451C157.655 83.6581 158.476 78.9061 158.654 76.6411C158.843 74.3761 159.598 75.2531 159.598 75.2531C159.598 75.0421 159.587 74.8421 159.576 74.6421C159.509 73.1211 159.232 72.0111 160.231 72.6661C161.363 73.3991 161.752 77.7071 161.752 77.7071C162.685 71.4231 161.297 70.4901 162.385 71.0451C163.873 71.8001 163.884 77.3511 163.884 77.5181C165.083 73.8651 164.761 71.7781 165.594 72.6111C166.438 73.4551 165.172 80.1611 164.673 82.6261C164.562 83.1811 164.484 83.5251 164.484 83.5251C168.469 81.5701 168.513 83.0921 168.513 83.0921Z" fill="#FF8B66"/>
<path d="M164.672 82.6252C164.561 83.1802 164.483 83.5242 164.483 83.5242C164.483 83.5242 162.64 83.3462 161.297 85.3342C161.297 85.3342 161.674 82.6702 164.672 82.6252Z" fill="#EF6E4B"/>
<path d="M159.875 79.7611C159.908 79.2281 160.13 76.1751 159.598 75.2531C159.598 75.0421 159.587 74.8421 159.576 74.6421C160.73 74.8871 159.998 79.1171 159.875 79.7611Z" fill="#EF6E4B"/>
<path d="M162.996 106.248C162.996 106.248 166.395 97.0362 167.476 94.9802C168.558 92.9232 174.189 93.2762 178.451 94.0712C182.713 94.8662 183.584 100.572 183.584 100.572C183.584 100.572 170.618 94.4532 162.996 106.248Z" fill="#8BBDDB"/>
<path d="M184.882 88.1181C184.882 88.1181 180.81 95.6371 180.874 103.975C180.874 103.975 174.26 108.47 171.893 102.84C171.893 102.84 174.405 95.4641 173.191 85.5071C172.379 78.8391 184.882 88.1181 184.882 88.1181Z" fill="#EF6E4B"/>
<path d="M171.894 77.685C171.894 77.685 170.684 73.375 168.53 76.405C166.035 79.915 168.578 83.3271 169.909 82.5131C171.24 81.6991 171.894 77.685 171.894 77.685Z" fill="#FF8B66"/>
<path d="M191.12 88.7671C191.12 88.7671 195.433 87.5671 193.959 90.9791C192.251 94.9321 188.015 94.5271 188.021 92.9671C188.027 91.4081 191.12 88.7671 191.12 88.7671Z" fill="#FF8B66"/>
<path d="M173.659 96.4832C167.532 93.0332 166.328 87.0842 173.087 75.0812C176.573 68.8902 181.862 66.8662 188.724 70.7302C195.587 74.5952 196.338 80.0192 192.852 86.2112C185.589 99.1082 179.988 100.047 173.659 96.4832Z" fill="#FF8B66"/>
<path d="M188.412 89.349C188.173 90.025 187.293 90.331 186.447 90.032C185.601 89.733 185.11 88.942 185.349 88.265C185.588 87.589 186.468 87.283 187.314 87.583C188.16 87.882 188.651 88.673 188.412 89.349Z" fill="#DB614D"/>
<path d="M175.621 82.5892C175.229 83.1902 174.302 83.2802 173.551 82.7902C172.8 82.3002 172.508 81.4152 172.9 80.8152C173.292 80.2142 174.219 80.1242 174.97 80.6142C175.722 81.1032 176.013 81.9882 175.621 82.5892Z" fill="#DB614D"/>
<path d="M189.289 81.5892C189.132 81.5892 188.989 81.4832 188.949 81.3242C188.602 79.9572 187.087 79.1522 187.072 79.1452C186.9 79.0552 186.833 78.8432 186.923 78.6712C187.012 78.4992 187.223 78.4322 187.397 78.5222C187.471 78.5602 189.207 79.4842 189.63 81.1522C189.678 81.3402 189.564 81.5312 189.376 81.5792C189.346 81.5852 189.317 81.5892 189.289 81.5892Z" fill="#1A4850"/>
<path d="M180.875 75.6032C180.813 75.6032 180.751 75.5872 180.694 75.5532C180.679 75.5442 179.203 74.6672 177.856 75.0782C177.669 75.1352 177.474 75.0302 177.417 74.8442C177.361 74.6592 177.465 74.4622 177.651 74.4052C179.299 73.9002 180.987 74.9082 181.058 74.9512C181.224 75.0512 181.277 75.2672 181.176 75.4332C181.11 75.5432 180.994 75.6032 180.875 75.6032Z" fill="#1A4850"/>
<path d="M186.757 84.497C186.328 85.258 185.638 85.682 185.216 85.443C184.793 85.205 184.798 84.3951 185.226 83.6341C185.654 82.8731 186.345 82.449 186.767 82.687C187.19 82.926 187.186 83.735 186.757 84.497Z" fill="#1A4850"/>
<path d="M178.167 79.8891C177.739 80.6501 177.049 81.0741 176.626 80.8351C176.203 80.5971 176.208 79.7881 176.636 79.0271C177.064 78.2661 177.754 77.8421 178.177 78.0801C178.6 78.3181 178.595 79.1281 178.167 79.8891Z" fill="#1A4850"/>
<path d="M175.191 87.7012C175.191 87.7012 178.706 90.3832 181.246 90.4652C181.246 90.4652 178.545 92.6652 176.603 91.2382C174.662 89.8112 175.191 87.7012 175.191 87.7012Z" fill="#1A4850"/>
<path d="M184.91 82.9592C184.91 82.9592 186.523 81.3992 187.184 81.9482C187.844 82.4972 187.499 84.4172 187.499 84.4172L188.911 84.4532L187.744 83.9832C187.744 83.9832 188.12 81.9902 187.394 81.5772C186.36 80.9882 184.91 82.9592 184.91 82.9592Z" fill="#1A4850"/>
<path d="M178.832 79.838C178.832 79.838 179.329 77.65 178.517 77.37C177.705 77.09 176.243 78.381 176.243 78.381L175.48 77.192L176.488 77.947C176.488 77.947 177.997 76.592 178.727 76.998C179.766 77.577 178.832 79.838 178.832 79.838Z" fill="#1A4850"/>
<path d="M190.351 73.2961C190.351 73.2961 188.156 70.2461 185.125 72.6681C182.094 75.0901 175.257 78.9661 171.894 77.6851C168.53 76.4051 179.252 62.0751 188.561 66.2711C197.87 70.4681 197.032 84.1281 193.16 88.4711C189.288 92.8141 191.12 88.7681 191.12 88.7681C191.12 88.7681 191.379 82.6061 192.672 78.5231C193.966 74.4391 190.351 73.2961 190.351 73.2961Z" fill="#F24052"/>
<path d="M180.033 86.3041C179.863 86.3041 179.685 86.2811 179.502 86.2351L179.689 85.5001C180.315 85.6591 180.623 85.3901 180.77 85.1371C180.979 84.7791 180.95 84.3181 180.784 84.1451C180.687 84.0441 180.522 84.0551 180.29 84.1761L179.939 83.5041C180.71 83.1001 181.171 83.4511 181.333 83.6221C181.75 84.0601 181.791 84.8931 181.425 85.5191C181.127 86.0281 180.627 86.3041 180.033 86.3041Z" fill="#DB614D"/>
<path d="M224.903 139.071C224.537 144.456 211.214 161.987 208.993 162.608C208.416 162.763 207.827 163.085 207.272 163.463C207.039 163.63 206.806 163.807 206.584 163.985C205.318 165.006 204.364 166.183 204.364 166.183C200.478 165.928 189.564 160.876 193.073 159.766C193.284 159.699 193.517 159.577 193.772 159.4C193.916 159.3 194.072 159.189 194.227 159.045C198.357 155.581 206.395 141.525 206.451 140.459C206.495 139.293 207.883 139.071 207.883 139.071C207.883 139.071 200.3 127.935 195.903 126.592C191.506 125.249 189.286 119.931 189.286 119.931C184.945 101.556 197.569 104.443 197.569 104.443C206.873 109.982 225.269 133.675 224.903 139.071Z" fill="#8BBDDB"/>
<path d="M207.272 163.463C207.039 163.63 206.806 163.807 206.584 163.985C200.622 163.574 195.626 160.643 193.772 159.4C193.916 159.3 194.072 159.189 194.227 159.045C196.214 160.343 201.299 163.241 207.272 163.463Z" fill="#3E6575"/>
<path d="M151.904 100.3C151.804 100.489 151.693 100.678 151.56 100.855C150.705 100.822 149.895 100.722 149.117 100.555C145.176 99.7561 142.145 97.5461 140.157 95.6251C139.702 95.1811 139.302 94.7591 138.958 94.3701C139.224 94.2031 139.391 94.1041 139.446 94.0811C139.735 94.4031 140.068 94.7581 140.445 95.1251C142.421 97.0681 145.497 99.3331 149.538 100.066C150.294 100.212 151.082 100.289 151.904 100.3Z" fill="#3E6575"/>
<path d="M211.48 179.428C209.648 182.526 206.262 186.267 200.344 187.233C200.244 187.078 200.133 186.9 200.033 186.722C206.106 185.811 209.47 181.87 211.213 178.784C211.302 179.007 211.391 179.228 211.48 179.428Z" fill="#3E6575"/>
<path d="M110.436 280.451C110.436 280.451 109.048 281.817 107.605 284.326C106.162 286.835 107.749 289.145 100.766 294.962C100.766 294.962 86.6769 286.713 80.3149 276.11C80.3149 276.11 80.4259 273.079 83.5009 272.368C85.1549 271.99 89.7069 274.122 94.0819 274.944C94.7039 275.055 95.3249 275.155 95.9359 275.199C96.7019 275.266 97.4569 275.277 98.1789 275.188C98.8449 275.121 99.4779 274.977 100.066 274.733H100.077C101.565 274.122 102.742 272.912 103.352 270.792C103.352 270.792 107.093 272.924 104.595 276.532C104.595 276.532 109.037 274.588 110.436 280.451Z" fill="#CFD8DC"/>
<path d="M100.765 294.962C100.765 294.962 86.676 286.713 80.314 276.11C80.314 276.11 82.679 275.61 84.633 279.119C86.587 282.638 101.909 290.621 100.765 294.962Z" fill="#ADBEC4"/>
<path d="M100.821 278.285C99.6782 280.095 99.7002 276.753 98.1792 275.187C98.8452 275.12 99.4782 274.976 100.066 274.732H100.077C100.754 275.466 101.72 276.875 100.821 278.285Z" fill="#ADBEC4"/>
<path d="M96.391 278.385C95.181 279.529 94.792 276.542 94.082 274.943C94.704 275.054 95.325 275.154 95.936 275.198C96.646 276.165 97.313 277.508 96.391 278.385Z" fill="#ADBEC4"/>
<path d="M197.113 317.056H177.184C177.184 317.056 176.351 314.28 177.184 311.227C177.539 309.906 179.604 308.673 181.525 306.952C182.058 306.475 182.569 305.975 183.046 305.409C183.424 304.965 183.768 304.476 184.056 303.955C184.422 303.322 184.711 302.634 184.878 301.879C185.2 300.369 185.078 298.593 184.212 296.461C184.212 296.461 190.996 295.04 193.416 298.737C193.416 298.737 193.649 297.027 195.803 298.171C195.803 298.171 195.492 301.602 195.914 304.477C196.336 307.341 199.012 308.174 197.113 317.056Z" fill="#CFD8DC"/>
<path d="M191.928 305.054C191.75 305.254 191.506 305.354 191.262 305.354C191.051 305.354 190.851 305.287 190.673 305.154C189.641 304.332 187.365 303.056 184.056 303.955C184.422 303.322 184.711 302.634 184.878 301.879C186.21 301.391 188.719 301.102 191.817 303.744C192.217 304.077 192.273 304.665 191.928 305.054Z" fill="#ADBEC4"/>
<path d="M190.252 308.362L190.141 308.529C189.875 308.94 189.342 309.073 188.92 308.829C187.565 308.03 184.523 306.52 181.526 306.953C182.059 306.476 182.57 305.976 183.047 305.41C184.524 305.066 187.31 304.877 190.053 307.153C190.408 307.452 190.507 307.974 190.252 308.362Z" fill="#ADBEC4"/>
</svg>
