<svg width="821" height="717" viewBox="0 0 821 717" fill="none" xmlns="http://www.w3.org/2000/svg">
<g clip-path="url(#clip0_323_900)">
<path d="M-16 -155H704.084C745.316 28.0592 734.128 90.5502 656.966 135.071C508.991 126.518 473.798 161.415 500.248 297.341C544.658 461.83 507.198 521.486 290.778 549.761C225.493 569.802 201.702 592.024 180.666 649.987L149.425 799H-16V-155Z" fill="url(#paint0_linear_323_900)"/>
<path d="M171.895 643.698H79.4474C77.8234 643.698 76.5063 642.27 76.5063 640.51V638.758C76.5063 636.998 77.8234 635.57 79.4474 635.57H171.893C173.517 635.57 174.834 636.998 174.834 638.758V640.51C174.836 642.27 173.519 643.698 171.895 643.698Z" fill="#ADBEC4"/>
<path d="M757.688 643.698H732.394C730.77 643.698 729.453 642.27 729.453 640.51V638.758C729.453 636.998 730.77 635.57 732.394 635.57H757.688C759.312 635.57 760.629 636.998 760.629 638.758V640.51C760.627 642.27 759.312 643.698 757.688 643.698Z" fill="#ADBEC4"/>
<path d="M345.869 643.698H253.422C251.798 643.698 250.481 642.27 250.481 640.51V638.758C250.481 636.998 251.798 635.57 253.422 635.57H345.869C347.493 635.57 348.81 636.998 348.81 638.758V640.51C348.81 642.27 347.495 643.698 345.869 643.698Z" fill="#ADBEC4"/>
<path d="M481.613 643.698H389.167C387.543 643.698 386.226 642.27 386.226 640.51V638.758C386.226 636.998 387.543 635.57 389.167 635.57H481.613C483.237 635.57 484.554 636.998 484.554 638.758V640.51C484.554 642.27 483.237 643.698 481.613 643.698Z" fill="#ADBEC4"/>
<path d="M647.859 643.698H521.837C520.213 643.698 518.896 642.27 518.896 640.51V638.758C518.896 636.998 520.213 635.57 521.837 635.57H647.859C649.483 635.57 650.8 636.998 650.8 638.758V640.51C650.8 642.27 649.483 643.698 647.859 643.698Z" fill="#ADBEC4"/>
<path d="M202.882 188.538C202.882 188.538 193.117 181.338 178.836 186.883C164.555 192.43 161.347 213.277 164.865 230.196C168.384 247.115 148.722 304.879 148.722 304.879C148.722 304.879 158.941 320.458 194.656 314.496C194.656 314.496 221.287 262.036 219.31 224.373C217.334 186.711 202.882 188.538 202.882 188.538Z" fill="#0E3944"/>
<path d="M214.156 253.617C227.578 248.965 235.793 261.079 243.483 283.627C251.174 306.174 253.761 308.435 253.761 308.435L283.446 329.109L280.978 341.16C280.978 341.16 252.726 329.169 245.896 321.542C239.066 313.916 219.416 275.283 219.416 275.283L214.156 253.617Z" fill="#EF6E4B"/>
<path d="M148.737 399.282C148.737 399.282 142.913 431.252 143.873 479.375C143.873 479.375 120.925 516.058 139.863 620.717H149.797C149.797 620.717 157.913 531.671 164.122 507.543C170.331 483.415 193.259 476.011 194.501 402.646L148.737 399.282Z" fill="#FF8B66"/>
<path d="M103.334 493.288C97.5609 472.666 82.7245 438.128 44.6648 391.313C44.6648 391.313 42.3948 390.045 39.3262 392.078C36.0864 394.224 36.0864 396.745 36.0864 396.745C36.0864 396.745 55.1708 441.829 67.3412 474.861C71.4383 485.982 81.3504 493.288 92.3967 493.288H103.334Z" fill="#FF8B66"/>
<path d="M172.628 533.162C172.628 533.162 172.759 548.548 163.446 548.81C150.295 549.193 149.811 533.666 134.909 534.171C120.007 534.675 89.2723 538.714 79.4927 513.475C74.4443 500.432 81.355 483.693 65.0573 471.073C48.758 458.453 56.6753 444.319 65.0573 436.748C73.4393 429.197 61.4434 420.918 70.1795 417.061C72.2649 416.152 74.3151 416.254 76.2143 416.939C77.3317 417.363 78.3753 417.949 79.3803 418.676C83.9991 422.008 87.2405 427.802 87.2405 427.802C111.922 354.527 155.864 344.855 155.864 344.855L199.321 361.11C200.363 475.112 172.628 533.162 172.628 533.162Z" fill="#164353"/>
<path d="M214.156 253.617C214.156 253.617 204.017 257.325 189.595 254.952C175.173 252.579 170.486 242.763 160.349 249.081C145.13 258.566 152.252 291.208 156.074 308.182C157.498 314.511 159.303 331.137 155.867 344.859C155.867 344.859 176.131 361.95 199.324 361.101L211.978 331.27C211.978 331.27 239.495 295.577 214.156 253.617Z" fill="#CFD8DC"/>
<path d="M188.405 226.235C188.405 226.235 190.092 241.678 184.822 255.727C184.822 255.727 192.346 267.768 199.527 259.844C199.527 259.844 200.183 245.691 208.25 229.68C213.651 218.957 188.405 226.235 188.405 226.235Z" fill="#EF6E4B"/>
<path d="M176.875 226.761C176.875 226.761 170.528 222.409 171.244 229.124C172.075 236.904 179.076 238.421 179.821 235.7C180.566 232.981 176.875 226.761 176.875 226.761Z" fill="#FF8B66"/>
<path d="M213.285 218.339C213.285 218.339 217.313 211.468 219.308 217.873C221.618 225.295 215.882 229.902 214.137 227.787C212.394 225.672 213.285 218.339 213.285 218.339Z" fill="#FF8B66"/>
<path d="M200.18 250.016C188.669 252.809 180.488 246.237 175.438 221.79C172.832 209.18 177.154 200.009 190.048 196.88C202.943 193.751 209.969 200.167 212.575 212.777C218.001 239.044 212.072 247.13 200.18 250.016Z" fill="#FF8B66"/>
<path d="M210.564 222.42C211.025 223.626 210.272 225.11 208.881 225.733C207.49 226.357 205.989 225.888 205.529 224.682C205.068 223.476 205.821 221.992 207.212 221.369C208.601 220.745 210.103 221.216 210.564 222.42Z" fill="#DB614D"/>
<path d="M187.027 228.851C187.213 230.14 186.158 231.39 184.671 231.641C183.185 231.893 181.828 231.053 181.641 229.764C181.455 228.474 182.51 227.225 183.997 226.974C185.485 226.721 186.841 227.561 187.027 228.851Z" fill="#DB614D"/>
<path d="M202.548 211.03C202.435 211.03 202.323 210.995 202.22 210.922C200.252 209.498 197.464 210.255 197.434 210.262C197.113 210.353 196.796 210.144 196.716 209.802C196.635 209.46 196.825 209.111 197.14 209.024C197.276 208.987 200.474 208.12 202.876 209.86C203.148 210.057 203.22 210.453 203.039 210.746C202.925 210.93 202.739 211.03 202.548 211.03Z" fill="#0E3944"/>
<path d="M180.873 216.291C180.77 216.291 180.665 216.262 180.571 216.2C180.292 216.018 180.202 215.627 180.369 215.324C181.858 212.641 185.092 211.945 185.23 211.915C185.544 211.861 185.857 212.075 185.918 212.423C185.978 212.768 185.77 213.103 185.45 213.17C185.421 213.178 182.592 213.794 181.378 215.982C181.269 216.18 181.072 216.291 180.873 216.291Z" fill="#0E3944"/>
<path d="M203.053 217.877C203.371 219.426 202.987 220.839 202.194 221.03C201.4 221.223 200.496 220.123 200.175 218.573C199.855 217.024 200.239 215.611 201.034 215.418C201.828 215.227 202.732 216.325 203.053 217.877Z" fill="#1A4850"/>
<path d="M187.058 221.607C187.379 223.156 186.995 224.569 186.199 224.76C185.406 224.953 184.502 223.853 184.181 222.303C183.861 220.754 184.245 219.341 185.04 219.148C185.835 218.957 186.738 220.057 187.058 221.607Z" fill="#1A4850"/>
<path d="M192.229 236.283C192.229 236.283 199.623 235.631 202.882 232.648C202.882 232.648 201.984 238.91 197.962 239.342C193.939 239.779 192.229 236.283 192.229 236.283Z" fill="#1A4850"/>
<path d="M199.022 218.046C199.022 218.046 199.282 213.974 200.722 213.912C202.161 213.851 203.886 216.866 203.886 216.866L205.686 215.196L203.703 215.982C203.703 215.982 201.935 212.83 200.566 213.156C198.618 213.618 199.022 218.046 199.022 218.046Z" fill="#1A4850"/>
<path d="M187.941 221.227C187.941 221.227 186.104 217.664 184.777 218.273C183.45 218.882 183.077 222.407 183.077 222.407L180.79 221.73L182.894 221.523C182.894 221.523 183.255 217.855 184.621 217.517C186.567 217.033 187.941 221.227 187.941 221.227Z" fill="#1A4850"/>
<path d="M195.959 229.054L195.367 227.836C196.325 227.288 196.407 226.548 196.306 226.028C196.166 225.29 195.612 224.704 195.211 224.669C194.981 224.657 194.783 224.87 194.629 225.313L193.438 224.831C193.948 223.346 194.912 223.264 195.308 223.295C196.32 223.378 197.305 224.455 197.555 225.746C197.811 227.099 197.216 228.336 195.959 229.054Z" fill="#DB614D"/>
<path d="M177.786 231.162C177.786 231.162 174.236 217.002 176.343 206.989C176.343 206.989 186.357 191.872 205.688 199.347C205.688 199.347 211.42 209.353 214.26 223.357C214.26 223.357 214.981 218.326 213.059 207.123C211.136 195.92 201.967 188.96 189.392 191.201C176.819 193.442 163.364 207.001 177.786 231.162Z" fill="#0E3944"/>
<path d="M198.053 196.202C198.053 196.202 198.819 199.898 195.502 209.415C195.502 209.415 193.117 206.712 190.323 209.415C187.53 212.117 181.856 211.215 179.919 212.675C177.983 214.136 177.983 217.475 177.983 217.475C177.983 217.475 176.307 213.317 177.983 208.331C177.983 208.331 174.213 213.525 174.713 219.939C174.713 219.939 169.601 219.044 169.833 209.9C170.066 200.758 182.054 185.967 195.502 186.927C208.951 187.885 212.152 210.968 212.152 210.968C212.152 210.968 210.926 209.922 209.007 210.388C209.007 210.388 208.71 205.499 205.686 199.341C205.686 199.341 207.079 203.786 205.686 208.582C205.686 208.582 201.94 206.452 198.987 207.118C198.987 207.121 200.811 203.255 198.053 196.202Z" fill="#0E3944"/>
<path d="M156.934 251.997C163.479 246.402 168.576 253.519 169.825 263.358C171.075 273.198 159.238 331.248 150.111 329.109C146.588 328.284 145.152 313.078 145.152 313.078C145.152 313.078 148.722 296.755 151.032 272.189C152.094 260.899 153.522 254.914 156.934 251.997Z" fill="#FF8B66"/>
<path d="M137.89 320.905C129.079 311.801 113.279 281.602 109.266 266.219L115.954 263.303C115.954 263.303 136.09 294.529 145.269 302.402C154.448 310.277 157.676 319.045 153.577 326.554C149.478 334.063 139.746 322.82 137.89 320.905Z" fill="#FF8B66"/>
<path d="M112.013 246.073C111.552 255.948 118.976 258.289 115.682 265.869C115.003 267.433 113.968 268.264 112.892 268.677C110.852 269.459 108.586 268.721 107.064 267.053C103.534 263.186 98.0778 259.089 95.1736 257.292C91.8718 255.226 93.7425 254.664 93.7425 254.664C93.422 254.501 93.1116 254.364 92.7996 254.228C90.444 253.158 88.5599 252.755 90.2678 251.618C92.1906 250.323 99.0056 253.022 99.0056 253.022C90.1353 246.617 87.7277 248.179 89.3468 246.819C91.5564 244.956 99.9904 249.239 100.242 249.368C95.5544 244.565 92.157 243.476 94.0159 242.752C95.9001 242.017 105.173 249.297 108.557 252.029C109.32 252.642 109.787 253.037 109.787 253.037C109.673 244.967 112.013 246.073 112.013 246.073Z" fill="#FF8B66"/>
<path d="M108.56 252.033C109.324 252.646 109.79 253.04 109.79 253.04C109.79 253.04 108.203 255.936 110.258 259.686C110.258 259.686 106.483 256.998 108.56 252.033Z" fill="#EF6E4B"/>
<path d="M100.781 257.704C99.9961 257.236 95.5216 254.505 93.7415 254.666C93.421 254.503 93.1106 254.366 92.7986 254.23C93.9948 252.519 99.8921 257.003 100.781 257.704Z" fill="#EF6E4B"/>
<path d="M135.954 404.241C135.954 405.314 135.152 406.182 134.164 406.182C133.176 406.182 132.374 405.312 132.374 404.241C132.374 403.17 133.176 402.301 134.164 402.301C135.152 402.301 135.954 403.168 135.954 404.241Z" fill="#6097B2"/>
<path d="M167.898 417.599C167.898 418.672 167.096 419.54 166.108 419.54C165.12 419.54 164.318 418.67 164.318 417.599C164.318 416.528 165.12 415.659 166.108 415.659C167.096 415.659 167.898 416.528 167.898 417.599Z" fill="#6097B2"/>
<path d="M195.118 424.763C195.118 425.834 194.316 426.704 193.328 426.704C192.34 426.704 191.538 425.834 191.538 424.763C191.538 423.692 192.34 422.823 193.328 422.823C194.316 422.823 195.118 423.692 195.118 424.763Z" fill="#6097B2"/>
<path d="M153.295 378.897C153.295 379.97 152.493 380.837 151.505 380.837C150.517 380.837 149.715 379.968 149.715 378.897C149.715 377.825 150.517 376.956 151.505 376.956C152.493 376.956 153.295 377.825 153.295 378.897Z" fill="#6097B2"/>
<path d="M157.535 399.282C158.523 399.282 159.325 398.413 159.325 397.341C159.325 396.27 158.523 395.401 157.535 395.401C156.546 395.401 155.744 396.27 155.744 397.341C155.744 398.413 156.546 399.282 157.535 399.282Z" fill="#6097B2"/>
<path d="M187.65 407.853C187.65 408.926 186.848 409.794 185.86 409.794C184.872 409.794 184.07 408.924 184.07 407.853C184.07 406.782 184.872 405.913 185.86 405.913C186.848 405.913 187.65 406.78 187.65 407.853Z" fill="#6097B2"/>
<path d="M191.538 376.037C191.538 377.109 190.736 377.978 189.747 377.978C188.759 377.978 187.957 377.109 187.957 376.037C187.957 374.964 188.759 374.097 189.747 374.097C190.736 374.097 191.538 374.966 191.538 376.037Z" fill="#6097B2"/>
<path d="M171.187 371.358C172.175 371.358 172.977 370.489 172.977 369.418C172.977 368.346 172.175 367.477 171.187 367.477C170.198 367.477 169.396 368.346 169.396 369.418C169.396 370.489 170.198 371.358 171.187 371.358Z" fill="#6097B2"/>
<path d="M120.109 442.104C120.109 443.177 119.307 444.044 118.319 444.044C117.331 444.044 116.529 443.175 116.529 442.104C116.529 441.032 117.331 440.163 118.319 440.163C119.307 440.163 120.109 441.032 120.109 442.104Z" fill="#6097B2"/>
<path d="M94.5906 433.851C94.5906 434.922 93.7886 435.791 92.8004 435.791C91.8122 435.791 91.0103 434.922 91.0103 433.851C91.0103 432.778 91.8122 431.91 92.8004 431.91C93.7886 431.91 94.5906 432.78 94.5906 433.851Z" fill="#6097B2"/>
<path d="M79.3783 418.676C79.0612 419.201 78.5025 419.543 77.87 419.543C76.8835 419.543 76.0815 418.676 76.0815 417.605C76.0815 417.363 76.1185 417.141 76.2124 416.939C77.3298 417.363 78.3733 417.948 79.3783 418.676Z" fill="#6097B2"/>
<path d="M127.461 469.358C128.45 469.358 129.251 468.489 129.251 467.418C129.251 466.346 128.45 465.477 127.461 465.477C126.472 465.477 125.671 466.346 125.671 467.418C125.671 468.489 126.472 469.358 127.461 469.358Z" fill="#6097B2"/>
<path d="M83.4521 494.93C83.4521 496.003 82.6502 496.871 81.662 496.871C80.6738 496.871 79.8718 496.001 79.8718 494.93C79.8718 493.859 80.6738 492.99 81.662 492.99C82.6502 492.99 83.4521 493.857 83.4521 494.93Z" fill="#6097B2"/>
<path d="M100.372 480.194C101.361 480.194 102.162 479.325 102.162 478.253C102.162 477.182 101.361 476.313 100.372 476.313C99.3835 476.313 98.582 477.182 98.582 478.253C98.582 479.325 99.3835 480.194 100.372 480.194Z" fill="#6097B2"/>
<path d="M72.5067 465.439C73.4954 465.439 74.2969 464.57 74.2969 463.499C74.2969 462.427 73.4954 461.558 72.5067 461.558C71.518 461.558 70.7166 462.427 70.7166 463.499C70.7166 464.57 71.518 465.439 72.5067 465.439Z" fill="#6097B2"/>
<path d="M96.7903 521.599C96.7903 522.67 95.9883 523.539 95.0001 523.539C94.0119 523.539 93.21 522.67 93.21 521.599C93.21 520.526 94.0119 519.658 95.0001 519.658C95.9883 519.658 96.7903 520.528 96.7903 521.599Z" fill="#6097B2"/>
<path d="M113.84 419.541C113.84 420.614 113.038 421.482 112.05 421.482C111.06 421.482 110.26 420.613 110.26 419.541C110.26 418.47 111.061 417.601 112.05 417.601C113.038 417.599 113.84 418.468 113.84 419.541Z" fill="#6097B2"/>
<path d="M131.043 386.851C131.043 387.924 130.241 388.792 129.253 388.792C128.265 388.792 127.463 387.922 127.463 386.851C127.463 385.78 128.265 384.911 129.253 384.911C130.241 384.911 131.043 385.78 131.043 386.851Z" fill="#6097B2"/>
<path d="M150.514 359.646C150.514 360.718 149.712 361.587 148.724 361.587C147.734 361.587 146.933 360.718 146.933 359.646C146.933 358.573 147.735 357.706 148.724 357.706C149.712 357.704 150.514 358.573 150.514 359.646Z" fill="#6097B2"/>
<path d="M111.056 399.282C111.056 400.355 110.254 401.222 109.266 401.222C108.278 401.222 107.476 400.353 107.476 399.282C107.476 398.211 108.278 397.341 109.266 397.341C110.254 397.341 111.056 398.209 111.056 399.282Z" fill="#6097B2"/>
<path d="M132.835 367.476C132.835 368.547 132.033 369.416 131.045 369.416C130.057 369.416 129.255 368.547 129.255 367.476C129.255 366.403 130.057 365.535 131.045 365.535C132.033 365.535 132.835 366.404 132.835 367.476Z" fill="#6097B2"/>
<path d="M98.5825 454.876C98.5825 455.949 97.7806 456.817 96.7924 456.817C95.8025 456.817 95.0022 455.947 95.0022 454.876C95.0022 453.805 95.8042 452.936 96.7924 452.936C97.7806 452.936 98.5825 453.805 98.5825 454.876Z" fill="#6097B2"/>
<path d="M76.0864 437.733C76.0864 438.807 75.2845 439.674 74.2963 439.674C73.3081 439.674 72.5061 438.805 72.5061 437.733C72.5061 436.662 73.3081 435.793 74.2963 435.793C75.2845 435.793 76.0864 436.662 76.0864 437.733Z" fill="#6097B2"/>
<path d="M139.536 433.851C140.524 433.851 141.326 432.982 141.326 431.91C141.326 430.838 140.524 429.97 139.536 429.97C138.547 429.97 137.746 430.838 137.746 431.91C137.746 432.982 138.547 433.851 139.536 433.851Z" fill="#6097B2"/>
<path d="M176.559 444.044C177.548 444.044 178.349 443.175 178.349 442.104C178.349 441.032 177.548 440.163 176.559 440.163C175.57 440.163 174.769 441.032 174.769 442.104C174.769 443.175 175.57 444.044 176.559 444.044Z" fill="#6097B2"/>
<path d="M176.559 386.851C176.559 387.924 175.757 388.792 174.769 388.792C173.781 388.792 172.979 387.922 172.979 386.851C172.979 385.78 173.781 384.911 174.769 384.911C175.757 384.911 176.559 385.78 176.559 386.851Z" fill="#6097B2"/>
<path d="M198.083 390.922C198.083 391.995 197.281 392.862 196.293 392.862C195.304 392.862 194.502 391.993 194.502 390.922C194.502 389.85 195.304 388.981 196.293 388.981C197.281 388.981 198.083 389.85 198.083 390.922Z" fill="#6097B2"/>
<path d="M155.085 456.818C155.085 457.891 154.283 458.759 153.295 458.759C152.307 458.759 151.505 457.89 151.505 456.818C151.505 455.747 152.307 454.878 153.295 454.878C154.283 454.878 155.085 455.745 155.085 456.818Z" fill="#6097B2"/>
<path d="M137.746 493.286C138.735 493.286 139.536 492.417 139.536 491.346C139.536 490.274 138.735 489.405 137.746 489.405C136.758 489.405 135.956 490.274 135.956 491.346C135.956 492.417 136.758 493.286 137.746 493.286Z" fill="#6097B2"/>
<path d="M110.257 498.811C111.246 498.811 112.047 497.942 112.047 496.871C112.047 495.799 111.246 494.93 110.257 494.93C109.269 494.93 108.467 495.799 108.467 496.871C108.467 497.942 109.269 498.811 110.257 498.811Z" fill="#6097B2"/>
<path d="M185.86 469.358C186.849 469.358 187.65 468.489 187.65 467.418C187.65 466.346 186.849 465.477 185.86 465.477C184.872 465.477 184.07 466.346 184.07 467.418C184.07 468.489 184.872 469.358 185.86 469.358Z" fill="#6097B2"/>
<path d="M162.907 482.136C162.907 483.209 162.105 484.077 161.117 484.077C160.129 484.077 159.327 483.207 159.327 482.136C159.327 481.065 160.129 480.196 161.117 480.196C162.105 480.196 162.907 481.063 162.907 482.136Z" fill="#6097B2"/>
<path d="M125.671 525.482C125.671 526.553 124.869 527.422 123.881 527.422C122.891 527.422 122.091 526.553 122.091 525.482C122.091 524.409 122.893 523.541 123.881 523.541C124.869 523.541 125.671 524.409 125.671 525.482Z" fill="#6097B2"/>
<path d="M151.505 517.314C152.493 517.314 153.295 516.445 153.295 515.374C153.295 514.302 152.493 513.433 151.505 513.433C150.516 513.433 149.715 514.302 149.715 515.374C149.715 516.445 150.516 517.314 151.505 517.314Z" fill="#6097B2"/>
<path d="M178.116 505.879C179.105 505.879 179.906 505.01 179.906 503.938C179.906 502.866 179.105 501.998 178.116 501.998C177.127 501.998 176.326 502.866 176.326 503.938C176.326 505.01 177.127 505.879 178.116 505.879Z" fill="#6097B2"/>
<path d="M167.898 537.332C167.898 538.405 167.096 539.273 166.108 539.273C165.12 539.273 164.318 538.403 164.318 537.332C164.318 536.261 165.12 535.392 166.108 535.392C167.096 535.392 167.898 536.259 167.898 537.332Z" fill="#6097B2"/>
<path d="M165.941 639.553H136.528C134.609 633.617 138.149 627.661 137.554 622.431C136.528 613.586 141.278 618.473 141.278 618.473C142.117 608.963 154.448 607.167 154.318 611.406C154.113 617.646 155.23 621.501 156.869 624.086C160.185 629.274 165.624 629.234 166.555 632.95C166.649 633.313 166.723 633.677 166.778 633.999C167.691 638.644 165.941 639.553 165.941 639.553Z" fill="#164353"/>
<path d="M166.778 634.001C160.686 635.536 146.642 633.537 146.083 629.7C145.543 625.984 153.106 624.247 156.867 624.086C160.183 629.274 165.622 629.234 166.553 632.95C166.649 633.313 166.723 633.677 166.778 634.001Z" fill="#205260"/>
<path d="M45.0306 392.588C41.9016 389.498 36.8163 394.606 36.8163 394.606C36.8163 394.606 39.5544 399.008 37.7844 400.784C36.0143 402.561 33.9658 398.502 30.4828 400.279C30.2026 400.421 29.9056 400.603 29.6255 400.804C26.9058 402.561 24.0738 406.257 21.7837 409.063C21.3172 409.629 20.871 410.154 20.4616 410.618C17.7973 413.646 10.9253 415.423 9.63843 407.346C8.35327 399.27 16.7353 389.8 25.9378 381.098C35.1402 372.395 41.0811 377.564 41.0811 377.564C41.0811 377.564 43.1666 381.219 43.1666 383.5C43.1666 385.761 45.0289 386.892 46.0724 389.052C47.1177 391.195 45.0306 392.588 45.0306 392.588Z" fill="#164353"/>
<path d="M29.6253 400.806C26.9057 402.563 24.0736 406.258 21.7835 409.064C18.3374 409.952 15.2453 409.69 14.7604 406.176C13.586 397.696 29.1958 386.913 27.9492 392.869C27.3167 395.859 28.3972 398.705 29.6253 400.806Z" fill="#205260"/>
<path d="M574.276 625.766C572.825 624.94 571.489 623.125 570.288 620.83C570.288 620.83 569.255 614.041 570.288 606.91C571.322 599.777 568.458 593.954 559.143 591.766C550.088 589.64 544.716 594.369 546.806 614.101L546.808 614.108C545.431 622.305 545.145 631.666 548.288 639.553H576.16C576.16 639.553 580.556 629.34 574.276 625.766Z" fill="#CFD8DC"/>
<path d="M598.728 519.413C598.728 519.413 598.728 539.1 588.483 559.29C578.051 579.852 565.154 608.07 565.154 608.07C565.154 608.07 556.561 617.158 551.102 602.105C551.102 602.105 554.955 549.699 563.804 530.516C572.649 511.336 598.728 519.413 598.728 519.413Z" fill="#FF8B66"/>
<path d="M732.379 455.304C732.379 455.304 748.98 530.978 759.54 550.939C759.54 550.939 757.111 559.29 745.677 561.815C745.677 561.815 709.562 504.269 707.233 480.039C704.902 455.807 732.379 455.304 732.379 455.304Z" fill="#FF8B66"/>
<path d="M740.407 473.092C735.992 484.62 701.886 485.247 701.886 485.247L699.278 481.088L698.589 479.999L693.262 471.478C693.262 471.478 636.747 411.388 625.737 416.435H625.719C625.402 416.597 625.087 416.779 624.788 417.021C617.225 422.877 616.517 454.961 607.576 508.812C606.719 513.92 604.819 519.876 603.385 523.996C603.217 524.439 603.068 524.865 602.918 525.269C602.1 527.551 601.521 529.004 601.521 529.004C567.023 544.148 555.641 514.224 555.641 514.224C555.641 514.224 556.05 513.356 556.646 511.963C556.777 511.66 556.926 511.318 557.074 510.954C558.881 506.633 561.768 499.142 561.731 495.185C561.694 490.843 561.657 486.664 561.639 482.645C561.639 482.281 561.639 481.937 561.621 481.596C561.565 468.652 561.584 457.406 561.658 447.634V446.605C561.694 442.344 561.751 438.366 561.825 434.651V433.601C562.124 416.581 562.626 405.212 563.166 397.639C563.184 397.296 563.221 396.932 563.241 396.61C564.191 383.868 565.198 382.617 565.198 382.617L558.287 330.542H633.69C633.69 330.542 645.015 342.838 659.712 359.073C660.029 359.397 660.326 359.719 660.625 360.062C665.951 365.938 671.708 372.318 677.483 378.8C677.724 379.062 677.947 379.304 678.154 379.547C680.427 382.092 682.699 384.636 684.952 387.16C685.232 387.462 685.492 387.786 685.772 388.09C693.336 396.59 700.674 404.97 706.952 412.299C707.175 412.541 707.38 412.785 707.587 413.027C716.173 423.102 722.711 431.159 724.966 434.914C730.946 444.828 735.602 457.731 738.174 465.706C738.174 465.706 738.174 465.706 738.174 465.726C738.304 466.09 738.415 466.413 738.528 466.755C739.736 470.629 740.407 473.092 740.407 473.092Z" fill="#8B383E"/>
<path d="M576.486 390.407C573.412 394.344 568.941 396.766 563.168 397.636C563.186 397.292 563.223 396.928 563.243 396.606C568.683 395.759 572.892 393.456 575.779 389.741C580.957 383.117 580.12 374.173 580.101 374.093L581.032 373.971C581.068 374.355 581.925 383.441 576.486 390.407Z" fill="#662C33"/>
<path d="M660.627 360.059C660.328 360.079 660.049 360.099 659.751 360.099C651.369 360.099 642.614 350.166 642.166 349.66L642.837 348.953C642.95 349.094 651.667 358.988 659.714 359.068C660.029 359.394 660.328 359.715 660.627 360.059Z" fill="#662C33"/>
<path d="M603.383 523.996C603.216 524.44 603.066 524.865 602.917 525.269C597.328 527.49 592.206 528.399 587.53 528.399C572.628 528.399 562.309 519.049 556.646 511.962C556.777 511.658 556.926 511.316 557.074 510.953C564.322 520.159 579.803 533.747 603.383 523.996Z" fill="#662C33"/>
<path d="M623.632 397.676C624.88 403.47 625.681 409.792 625.718 416.434C625.401 416.595 625.085 416.777 624.786 417.019C624.75 386.53 608.469 362.743 608.282 362.481L609.027 361.876C609.177 362.078 618.825 376.212 623.389 396.627C625.288 395.274 626.575 393.335 627.114 390.832C629.461 380.132 618.787 362.645 618.695 362.463L619.458 361.898C619.904 362.645 630.449 379.93 628.026 391.054C627.395 393.961 625.904 396.161 623.632 397.676Z" fill="#662C33"/>
<path d="M707.585 413.022C704.81 416.293 702.201 419.08 701.96 419.321L701.456 419.867L701.215 419.14C697.564 408.781 674.094 386.328 673.851 386.106L673.57 385.822L677.483 378.795C677.725 379.057 677.948 379.298 678.154 379.542L674.876 385.438C679.439 387.155 682.681 387.457 684.952 387.155C685.233 387.457 685.493 387.781 685.773 388.084C685.009 388.226 684.189 388.306 683.333 388.306C681.228 388.306 678.825 387.842 676.124 386.953C681.451 392.162 698.012 408.801 701.812 418.068C703.283 416.494 705.146 414.415 706.953 412.294C707.176 412.538 707.38 412.78 707.585 413.022Z" fill="#662C33"/>
<path d="M578.796 482.462L578.424 482.542C578.07 482.644 573.842 483.591 568.979 483.591C566.54 483.591 563.968 483.349 561.641 482.642C561.641 482.278 561.641 481.934 561.623 481.592C567.77 483.511 575.984 482.036 577.846 481.652L576.283 439.634C575.407 441.937 573.675 445.087 570.434 446.822C568.887 447.669 567.156 448.073 565.257 448.073C564.121 448.073 562.928 447.931 561.661 447.629V446.6C564.884 447.407 567.678 447.185 570.006 445.912C573.956 443.792 575.519 439.249 576.004 437.452C572.894 437.956 566.616 436.241 561.829 434.646V433.596C566.988 435.293 573.974 437.252 576.489 436.302L577.085 436.081L578.796 482.462Z" fill="#662C33"/>
<path d="M738.524 466.752C733.104 472.546 722.002 481.411 704.921 481.411C703.114 481.411 701.233 481.311 699.277 481.087L698.587 479.997C719.356 482.582 732.377 472.021 738.17 465.721C738.301 466.087 738.414 466.409 738.524 466.752Z" fill="#662C33"/>
<path d="M647.624 109.141C647.624 109.141 645.552 103.969 636.797 103.967C630.051 103.965 627.469 108.005 627.469 108.005C623.433 120.793 619.096 169.757 617.542 171.499C616.755 172.383 566.713 208.916 566.713 208.916C593.869 209.467 610.813 245.753 610.813 245.753C611.69 233.83 642.359 186.581 642.688 182.368C643.311 174.422 656.285 138.925 647.624 109.141Z" fill="#CE364C"/>
<path d="M560.75 365.162C560.75 365.162 560.498 375.377 563.547 376.05C566.595 376.723 591.431 384.68 619.993 370.607C648.555 356.533 653.523 346.101 645.139 338.361C636.757 330.62 560.75 365.162 560.75 365.162Z" fill="#CE364C"/>
<path d="M549.306 215.987C549.306 215.987 523.319 212.65 508.418 219.641C508.418 219.641 504.262 239.632 524.734 284.367C545.206 329.104 540.458 357.28 563.547 367.887C584.015 377.291 644.364 349.307 646.26 340.027C651.031 316.664 614.128 275.663 611.799 251.904C609.47 228.147 588.049 192.427 549.306 215.987Z" fill="#F24052"/>
<path d="M508.418 219.641C490.256 226.632 469.824 248.736 469.796 259.389C469.767 270.043 486.837 274.151 486.837 274.151L514.823 259.389C514.823 259.389 522.828 253.332 517.733 235.672C512.636 218.015 508.418 219.641 508.418 219.641Z" fill="#CE364C"/>
<path d="M583.041 239.34C577.615 239.34 570.884 237.222 566.701 233.99C564.396 232.209 563.022 230.202 562.725 228.181C561.698 221.188 567.98 217.633 568.25 217.486L569.095 219.282C568.877 219.404 563.755 222.332 564.565 227.863C564.78 229.336 565.894 230.885 567.782 232.344C572.464 235.963 580.563 238.085 585.836 237.078C588.212 236.623 589.767 235.696 590.456 234.324C591.3 232.646 590.581 230.747 590.572 230.727L592.284 229.929C592.329 230.042 593.369 232.715 592.104 235.263C591.134 237.214 589.134 238.493 586.16 239.062C585.197 239.251 584.145 239.34 583.041 239.34Z" fill="#CFD8DC"/>
<path d="M560.01 260.646C555.992 260.646 549.32 258.829 548.385 251.678C547.909 248.039 548.216 245.004 548.486 242.327C548.883 238.384 549.199 235.269 547.08 231.537C543.58 225.377 538.815 224.962 538.614 224.948L538.726 222.933C538.964 222.947 544.632 223.382 548.665 230.478C551.12 234.801 550.739 238.564 550.336 242.547C550.066 245.231 549.786 248.006 550.229 251.395C551.239 259.111 560.312 258.627 560.696 258.606L560.807 260.621C560.555 260.637 560.289 260.646 560.01 260.646Z" fill="#CFD8DC"/>
<path d="M565.664 224.408C565.664 224.408 579.402 214.265 576.142 203.286C572.882 192.307 528.643 193.063 517.233 206.189C505.824 219.314 541.914 228.025 541.914 228.025C544.707 221.922 562.559 221.249 565.664 224.408Z" fill="#CE364C"/>
<path d="M540.964 222.689C534.446 220.29 530.581 215.191 531.978 209.3C533.376 203.411 561.399 203.255 566.713 207.96C572.028 212.666 564.542 231.366 540.964 222.689Z" fill="#A02E44"/>
<path d="M537.862 206.137C537.862 206.137 543.629 216.817 540.964 222.689C540.964 222.689 560.749 230.093 560.749 218.093C560.749 218.093 557.021 209.1 558.425 203.286L537.862 206.137Z" fill="#EF6E4B"/>
<path d="M531.265 196.81C531.265 196.81 521.544 179.934 522.445 163.814C522.897 155.753 526.72 152.596 526.72 152.596C526.72 152.596 523.633 147.944 526.942 140.835C526.942 140.835 531.52 146.578 547.59 144.767C563.085 143.021 564.631 154.995 564.631 154.995C575.707 156.779 568.234 193.098 560.505 196.811L531.265 196.81Z" fill="#FFB878"/>
<path d="M527.142 181.227C527.142 181.227 521.555 175.184 520.867 182.249C520.07 190.435 526.928 193.732 528.269 191.128C529.608 188.524 527.142 181.227 527.142 181.227Z" fill="#FF8B66"/>
<path d="M566.265 181.653C566.265 181.653 571.852 175.609 572.539 182.675C573.336 190.861 566.478 194.158 565.137 191.554C563.797 188.951 566.265 181.653 566.265 181.653Z" fill="#FF8B66"/>
<path d="M546.113 210.877C533.716 210.877 526.72 202.098 526.72 175.773C526.72 162.193 533.094 153.864 546.981 153.864C560.866 153.864 566.714 162.193 566.714 175.773C566.714 204.061 558.921 210.877 546.113 210.877Z" fill="#FF8B66"/>
<path d="M562.609 185.161C562.827 186.512 561.74 187.846 560.181 188.14C558.624 188.435 557.183 187.578 556.967 186.229C556.75 184.877 557.836 183.544 559.394 183.25C560.951 182.955 562.391 183.812 562.609 185.161Z" fill="#DB614D"/>
<path d="M537.109 185.898C537.026 187.265 535.679 188.284 534.102 188.173C532.523 188.062 531.31 186.861 531.393 185.494C531.475 184.126 532.82 183.106 534.399 183.219C535.98 183.33 537.191 184.528 537.109 185.898Z" fill="#DB614D"/>
<path d="M557.149 171.047C556.987 171.074 556.817 171.032 556.678 170.916C554.705 169.272 551.744 169.853 551.698 169.861C551.368 169.919 551.039 169.69 550.977 169.324C550.912 168.959 551.135 168.61 551.472 168.54C551.601 168.509 555.025 167.844 557.433 169.852C557.705 170.077 557.755 170.499 557.547 170.794C557.445 170.936 557.3 171.021 557.149 171.047Z" fill="#FFB878"/>
<path d="M533.423 171.139C533.27 171.119 533.126 171.038 533.02 170.899C532.804 170.612 532.842 170.188 533.106 169.954C535.454 167.868 538.894 168.421 539.026 168.446C539.364 168.504 539.595 168.846 539.543 169.212C539.491 169.579 539.161 169.823 538.837 169.774C538.815 169.765 535.798 169.299 533.892 170.994C533.753 171.114 533.584 171.161 533.423 171.139Z" fill="#FFB878"/>
<path d="M555.868 178.632C555.868 180.3 555.175 181.655 554.319 181.653C553.463 181.653 552.771 180.3 552.771 178.632C552.771 176.963 553.463 175.61 554.319 175.61C555.175 175.61 555.868 176.963 555.868 178.632Z" fill="#1A4850"/>
<path d="M539.311 178.632C539.311 180.3 538.619 181.655 537.763 181.653C536.907 181.653 536.214 180.3 536.214 178.632C536.214 176.963 536.907 175.61 537.763 175.61C538.619 175.61 539.311 176.963 539.311 178.632Z" fill="#1A4850"/>
<path d="M530.524 156.779C530.524 156.779 543.736 162.022 562.676 160.547C562.676 160.547 566.715 166.003 566.225 185.257C566.225 185.257 577.316 150.575 544.939 150.575C512.562 150.575 527.148 184.488 527.148 184.488C527.148 184.488 524.501 163.277 530.524 156.779Z" fill="#FFB878"/>
<path d="M546.899 187.605L545.971 186.592L548.424 183.952C546.046 180.307 546.058 171.874 546.062 171.498L547.379 171.505C547.379 171.596 547.365 180.669 549.793 183.521L550.224 184.026L546.899 187.605Z" fill="#DB614D"/>
<path d="M538.671 192.001C538.671 192.001 550.873 192.559 557.032 190.793C557.032 190.793 558.121 200.412 548.665 200.888C538.671 201.392 538.671 192.001 538.671 192.001Z" fill="#1A4850"/>
<path d="M590.811 228.363C593.139 227.894 592.906 234.499 590.811 232.584C588.715 230.671 588.482 228.832 590.811 228.363Z" fill="#CFD8DC"/>
<path d="M562.731 260.37C562.377 262.909 556.697 260.504 559.052 258.986C561.406 257.467 563.085 257.831 562.731 260.37Z" fill="#CFD8DC"/>
<path d="M537.738 274.151C537.738 274.151 534.04 284.428 534.252 290.235C534.463 296.042 536.214 295.284 536.214 295.284C536.214 295.284 533.411 296.481 532.879 299.827C532.349 303.173 540.144 305.632 540.679 305.632C541.214 305.632 546.716 303.361 546.716 303.361L547.868 284.368L542.998 281.053L537.738 274.151Z" fill="#EF6E4B"/>
<path d="M540.679 272.822C540.679 272.822 547.41 277.365 550.017 280.142C552.625 282.919 551.136 304.372 550.017 305.381C548.898 306.39 540.317 308.473 538.671 307.305C537.025 306.138 539.312 299.829 539.312 299.829C539.312 299.829 543.622 298.819 542.999 300.585C542.379 302.353 542.999 303.866 542.999 303.866L544.769 303.11C544.769 303.11 543.9 298.314 544.769 294.78C545.639 291.247 538.701 287.52 537.862 281.055C537.023 274.588 540.679 272.822 540.679 272.822Z" fill="#FF8B66"/>
<path d="M470.913 262.368C468.757 252.28 477.995 248.71 490.845 250.431C505.746 252.426 536.349 256.65 543.001 274.151C543.001 274.151 545.174 281.053 539.551 284.368C523.831 293.636 474.96 281.317 470.913 262.368Z" fill="#CE364C"/>
<path d="M517.529 255.685C517.529 255.685 499.77 247.688 490.922 246.877C482.074 246.068 503.156 254.448 517.529 255.685Z" fill="#A02E44"/>
<path d="M650.661 82.3639C649.32 84.0188 647.102 90.4605 647.102 90.4605C646.171 95.871 645.631 98.8609 643.879 101.343C642.146 103.828 643.059 108.209 643.059 108.209C643.059 108.209 636.279 111.984 630.578 107.319C630.578 107.319 631.173 102.978 630.578 101.747C629.405 99.2846 625.642 97.9715 624.357 93.0048C623.072 88.0181 619.216 82.4639 619.216 82.4639C619.216 82.4639 620.315 79.8796 622.327 81.4546C624.357 83.0495 625.642 87.0269 626.741 87.4306C626.964 87.5107 627.189 87.5725 627.412 87.5925C627.412 87.5925 627.43 87.5925 627.467 87.6125C628.306 87.7344 629.162 87.5325 629.684 86.9869C629.721 86.9669 629.778 86.9269 629.815 86.865C631.658 84.5426 632.088 77.7172 632.012 74.6692C631.9 70.4299 632.049 64.5738 634.433 65.5632C636.817 66.5525 634.638 68.915 636.482 78.2646L637.376 78.3865C637.544 79.0521 639.183 72.7123 639.574 66.7562C639.854 62.657 642.331 64.1719 642.871 65.4632C643.429 66.7562 642.591 70.8336 642.424 73.8017C642.294 75.7604 642.144 77.7991 642.052 79.0121L643.096 79.6377C646.859 72.5304 645.574 69.5824 647.771 69.4405C649.951 69.2987 649.169 75.2966 647.995 77.5772C647.491 78.5665 647.008 80.6252 646.616 82.6458C650.471 77.8191 650.043 75.2966 651.813 75.5985C653.64 75.9222 652.001 80.7071 650.661 82.3639Z" fill="#FF8B66"/>
<path d="M634.007 93.4884C632.704 89.591 628.046 87.8142 627.469 87.6123C628.308 87.7342 629.164 87.5323 629.685 86.9867C634.249 89.2073 634.007 93.4884 634.007 93.4884Z" fill="#EF6E4B"/>
<path d="M553.09 609.936C553.09 609.936 550.513 604.235 552.809 601.785C555.106 599.335 557.812 603.878 561.737 602.869C565.663 601.86 566.572 598.835 567.592 602.955C568.614 607.076 567.371 620.032 553.09 609.936Z" fill="#CFD8DC"/>
<path d="M567.866 609.683C567.866 609.683 557.323 613.732 551.859 609.683L553.248 614.63C553.248 614.63 564.707 615.945 566.287 612.815L567.866 609.683Z" fill="#ADBEC4"/>
<path d="M567.723 615.83C567.723 615.83 558.071 614.379 553.414 616.976V619.43C553.414 619.43 565.998 616.245 570.067 619.43L567.723 615.83Z" fill="#ADBEC4"/>
<path d="M552.95 624.522C552.95 624.522 554.823 619.577 560.695 619.222C566.567 618.868 570.53 622.372 570.53 622.372C570.53 622.372 561.217 618.213 552.95 624.522Z" fill="#ADBEC4"/>
<path d="M801.412 555.817C782.878 582.631 757.656 587.78 757.656 587.78C750.336 581.44 750.15 573.929 750.15 573.929C750.15 573.929 743.09 567.103 742.159 563.833C741.227 560.562 748.212 550.708 752.403 551.719C755.29 552.405 756.966 554.909 757.73 556.384C754.265 547.924 757.04 544.976 761.958 545.703C767.08 546.451 762.238 547.764 765.907 552.225C766.167 552.549 766.466 552.811 766.783 553.052C767.454 553.558 768.254 553.9 769.167 554.082C769.967 554.244 770.862 554.284 771.793 554.224C772.278 554.204 772.779 554.144 773.282 554.062C774.232 553.9 775.2 553.638 776.207 553.294C777.754 552.769 779.354 552.023 780.92 551.094C787.327 547.298 790.028 546.005 794.909 547.358C799.771 548.691 799.695 552.689 799.695 552.689L801.412 555.817Z" fill="#CFD8DC"/>
<path d="M801.412 555.817C782.877 582.631 757.656 587.779 757.656 587.779C770.527 581.783 782.356 573.928 790.439 564.255C798.506 554.585 801.412 555.817 801.412 555.817Z" fill="#ADBEC4"/>
<path d="M766.783 553.05C767.454 553.556 768.254 553.898 769.167 554.08C764.268 555.149 763.914 559.896 763.914 559.896L761.828 559.168C762.275 553.474 766.429 553.07 766.783 553.05Z" fill="#ADBEC4"/>
<path d="M770.08 560.461L767.9 560.542C767.08 557.19 768.142 555.191 769.167 554.08C769.967 554.242 770.861 554.282 771.792 554.222C769.204 556.988 770.08 560.461 770.08 560.461Z" fill="#ADBEC4"/>
<path d="M775.463 559.169L773.302 559.47C772.463 557.088 772.707 555.311 773.284 554.06C774.233 553.898 775.202 553.636 776.208 553.292C774.42 556.18 775.463 559.169 775.463 559.169Z" fill="#ADBEC4"/>
<path d="M568.057 310.177C568.057 310.177 572.84 338.159 563.166 349.309C553.494 360.459 559.893 351.297 562.777 336.92C565.664 322.544 563.467 307.4 568.057 310.177Z" fill="#CE364C"/>
<path d="M612.698 297.688C612.698 297.688 627.946 303.119 635.922 318.385C635.922 318.385 625.271 293.529 612.698 297.688Z" fill="#CE364C"/>
<path d="M216.668 89.7946C218.7 89.8292 224.592 92.3716 224.592 92.3716C228.917 95.256 231.323 96.8292 234.197 97.0892C237.058 97.3657 238.232 102.692 238.232 102.692C238.232 102.692 249.515 105.368 250.152 97.6566C250.152 97.6566 243.846 87.9796 243.403 86.6738C242.507 84.0768 244.134 80.1739 241.603 75.8055C239.056 71.4244 237.848 64.599 237.848 64.599C237.848 64.599 235.343 63.7479 235.07 66.4213C234.798 69.1238 236.653 72.8266 236.192 73.9814C236.096 74.2142 235.989 74.4361 235.853 74.6289C235.853 74.6289 235.841 74.6434 235.83 74.6871C235.35 75.4418 234.637 75.9947 233.914 76.0474C233.875 76.0638 233.81 76.082 233.742 76.0711C230.917 75.9947 225.963 71.7554 223.929 69.6494C221.106 66.7123 217.002 62.9022 216.077 65.4811C215.153 68.0617 218.232 67.8962 223.386 75.6528L222.869 76.453C223.211 77.035 217.777 74.096 213.442 70.4114C210.452 67.8835 209.824 70.8916 210.345 72.1919C210.853 73.5086 214.205 75.5728 216.346 77.4314C217.772 78.6408 219.267 79.8902 220.158 80.6304L219.886 81.8889C212.5 80.1394 211.348 77.1277 209.776 78.7991C208.215 80.454 212.841 83.8531 215.19 84.4423C216.203 84.7024 217.938 85.6954 219.581 86.7375C213.692 86.5956 212.254 84.5569 211.274 86.181C210.264 87.865 214.636 89.7601 216.668 89.7946Z" fill="#FF8B66"/>
<path d="M235.455 83.8858C233.667 80.2212 235.578 75.2872 235.827 74.6888C235.348 75.4436 234.635 75.9965 233.912 76.0492C232.365 81.2051 235.455 83.8858 235.455 83.8858Z" fill="#EF6E4B"/>
<path d="M548.62 89.7946C546.589 89.8292 540.696 92.3716 540.696 92.3716C536.371 95.256 533.965 96.8292 531.091 97.0892C528.231 97.3657 527.056 102.692 527.056 102.692C527.056 102.692 515.773 105.368 515.136 97.6566C515.136 97.6566 521.444 87.9796 521.885 86.6738C522.781 84.0768 521.154 80.1739 523.686 75.8055C526.232 71.4244 527.44 64.599 527.44 64.599C527.44 64.599 529.945 63.7479 530.219 66.4213C530.49 69.1238 528.635 72.8266 529.096 73.9814C529.192 74.2142 529.299 74.4361 529.437 74.6289C529.437 74.6289 529.449 74.6434 529.46 74.6871C529.94 75.4418 530.653 75.9947 531.376 76.0474C531.415 76.0638 531.48 76.082 531.548 76.0711C534.373 75.9947 539.327 71.7554 541.362 69.6494C544.186 66.7123 548.29 62.9022 549.214 65.4811C550.139 68.0617 547.06 67.8962 541.906 75.6528L542.423 76.453C542.08 77.035 547.515 74.096 551.85 70.4114C554.84 67.8835 555.467 70.8916 554.947 72.1919C554.439 73.5086 551.087 75.5728 548.946 77.4314C547.52 78.6408 546.025 79.8902 545.134 80.6304L545.406 81.8889C552.791 80.1394 553.944 77.1277 555.516 78.7991C557.076 80.454 552.451 83.8531 550.102 84.4423C549.088 84.7024 547.354 85.6954 545.711 86.7375C551.598 86.5956 553.038 84.5569 554.018 86.181C555.024 87.865 550.652 89.7601 548.62 89.7946Z" fill="#FF8B66"/>
<path d="M529.833 83.8858C531.621 80.2212 529.71 75.2872 529.46 74.6888C529.94 75.4436 530.653 75.9965 531.376 76.0492C532.923 81.2051 529.833 83.8858 529.833 83.8858Z" fill="#EF6E4B"/>
<path d="M449.469 460.52L427.794 315.044L384.394 320.298L340.994 315.044L319.319 460.52L308.908 601.612C308.908 601.612 312.219 613.303 333.868 605.226C333.868 605.226 349.931 474.359 352.414 471.477C354.897 468.594 380.404 383.116 380.404 383.116H388.382C388.382 383.116 413.887 468.594 416.372 471.477C418.855 474.359 434.918 605.226 434.918 605.226C456.569 613.303 459.877 601.612 459.877 601.612L449.469 460.52Z" fill="#0E3944"/>
<path d="M370.72 174.167C373.462 177.059 386.949 182.277 394.071 174.167L398.9 179.309C398.9 179.309 393.393 193.345 383.731 193.836C374.067 194.327 367.083 181.348 367.083 181.348L370.72 174.167Z" fill="#0C476B"/>
<path d="M408.917 172.582C425.061 165.047 477.217 145.022 477.217 145.022C477.217 145.022 512.278 97.4061 519.429 90.3389C519.429 90.3389 527.19 91.8538 529.462 102.327C529.462 102.327 506.884 154.73 494.613 169.732C482.341 184.734 420.185 217.181 420.185 217.181L408.917 172.582Z" fill="#0C476B"/>
<path d="M352.414 171.501C357.218 168.209 381.329 185.694 381.329 185.694C381.329 185.694 412.676 167.649 420.033 171.145C420.033 171.145 426.663 180.762 429.326 205.485C431.99 230.207 432.166 331.946 432.166 331.946C432.166 331.946 411.09 340.028 382.584 340.028C350.086 340.028 332.602 329.926 332.602 329.926C332.602 329.926 326.802 189.06 352.414 171.501Z" fill="#FFB878"/>
<path d="M371.994 168.859C371.994 168.859 375.465 180.696 371.994 185.258C371.994 185.258 375.599 193.458 382.08 193.822C389.568 194.24 392.165 185.258 392.165 185.258C392.165 185.258 388.206 173.824 392.165 169.806L371.994 168.859Z" fill="#EF6E4B"/>
<path d="M363.338 157.207C363.338 157.207 356.031 141.963 357.478 125.671C358.924 109.382 381.568 105.646 396.828 113.65C396.828 113.65 392.298 108.849 394.071 107.514C395.844 106.181 398.9 114.717 398.9 114.717C398.9 114.717 403.72 113.117 404.458 114.717C405.196 116.32 399.52 117.194 399.52 117.194C399.52 117.194 409.367 123.114 400.168 154.619L363.338 157.207Z" fill="#8B383E"/>
<path d="M362.239 147.553C362.239 147.553 356.791 141.661 356.12 148.55C355.343 156.532 362.031 159.748 363.338 157.209C364.645 154.668 362.239 147.553 362.239 147.553Z" fill="#FF8B66"/>
<path d="M400.388 147.97C400.388 147.97 405.836 142.075 406.507 148.966C407.284 156.948 400.596 160.164 399.289 157.625C397.982 155.084 400.388 147.97 400.388 147.97Z" fill="#FF8B66"/>
<path d="M380.74 176.463C368.652 176.463 361.83 167.904 361.83 142.234C361.83 128.992 368.044 120.87 381.585 120.87C395.125 120.87 400.827 128.992 400.827 142.234C400.827 169.817 393.227 176.463 380.74 176.463Z" fill="#FF8B66"/>
<path d="M396.823 151.389C397.036 152.705 395.975 154.006 394.455 154.293C392.935 154.58 391.533 153.746 391.321 152.429C391.108 151.112 392.169 149.812 393.689 149.525C395.207 149.237 396.611 150.072 396.823 151.389Z" fill="#DB614D"/>
<path d="M371.96 152.107C371.88 153.442 370.568 154.435 369.027 154.326C367.489 154.217 366.306 153.047 366.387 151.712C366.467 150.379 367.779 149.385 369.319 149.494C370.858 149.603 372.041 150.772 371.96 152.107Z" fill="#DB614D"/>
<path d="M391.294 138.069C391.135 138.069 390.977 138.002 390.858 137.867C389.182 135.963 386.249 136.045 386.206 136.045C385.878 136.047 385.593 135.772 385.583 135.41C385.571 135.048 385.833 134.746 386.167 134.735C386.296 134.726 389.689 134.641 391.73 136.963C391.96 137.225 391.952 137.64 391.712 137.889C391.595 138.011 391.444 138.069 391.294 138.069Z" fill="#8B383E"/>
<path d="M368.534 138.069C368.384 138.069 368.235 138.011 368.118 137.889C367.876 137.64 367.868 137.225 368.096 136.963C370.139 134.639 373.527 134.728 373.659 134.735C373.993 134.748 374.253 135.05 374.243 135.41C374.233 135.772 373.941 136.05 373.621 136.045C373.599 136.039 370.628 135.979 368.972 137.867C368.851 138.002 368.693 138.069 368.534 138.069Z" fill="#8B383E"/>
<path d="M390.249 145.022C390.249 146.649 389.573 147.968 388.739 147.968C387.906 147.968 387.229 146.648 387.229 145.022C387.229 143.394 387.906 142.076 388.739 142.076C389.575 142.076 390.249 143.394 390.249 145.022Z" fill="#1A4850"/>
<path d="M374.107 145.022C374.107 146.649 373.431 147.968 372.597 147.968C371.764 147.968 371.087 146.649 371.087 145.022C371.087 143.394 371.764 142.076 372.597 142.076C373.431 142.076 374.107 143.396 374.107 145.022Z" fill="#1A4850"/>
<path d="M374.108 162.431C374.108 162.431 384.768 163.919 390.251 161.066C390.251 161.066 387.15 168.933 381.329 168.227C375.505 167.524 374.108 162.431 374.108 162.431Z" fill="#1A4850"/>
<path d="M399.567 150.878C399.567 150.878 399.19 136.627 394.071 125.673C394.071 125.673 385.048 130.194 383.062 129.127C381.075 128.059 384.954 125.673 384.954 125.673C384.954 125.673 370.066 130.994 369.172 129.927C368.277 128.859 374.106 125.673 374.106 125.673L364.831 129.127C364.831 129.127 361.972 141.948 363.155 150.88C363.155 150.88 359.17 143.425 358.677 138.276C358.184 133.128 360.273 118.455 374.242 117.387C388.212 116.32 396.057 119.757 399.519 126.71C402.982 133.661 402.552 142.214 399.567 150.878Z" fill="#8B383E"/>
<path d="M382.847 158.314C381.673 158.316 380.48 157.985 380.119 157.876L380.461 156.536C381.73 156.916 383.72 157.141 384.154 156.586C384.303 156.394 384.245 155.946 383.988 155.359C382.241 151.331 381.877 141.133 381.862 140.702L383.147 140.651C383.151 140.755 383.515 150.996 385.151 154.766C385.651 155.915 385.644 156.83 385.136 157.485C384.639 158.121 383.748 158.314 382.847 158.314Z" fill="#DB614D"/>
<path d="M396.222 177.918C396.222 177.918 418.1 251.537 420.184 311.438C420.184 311.438 428.081 313.793 436.971 300.67C445.862 287.544 440.573 183.587 423.541 166.277C423.541 166.277 415.812 164.367 396.222 177.918Z" fill="#105E99"/>
<path d="M399.787 190.792C399.787 190.792 403.703 180.929 401.963 174.166C400.223 167.402 394.071 174.166 394.071 174.166C394.071 174.166 396.557 185.239 399.787 190.792Z" fill="#0C476B"/>
<path d="M355.873 172.582C339.73 165.047 287.574 145.022 287.574 145.022C287.574 145.022 252.423 96.0165 245.273 88.951C245.273 88.951 236.424 94.3779 235.825 105.61C235.825 105.61 257.906 154.732 270.179 169.734C282.452 184.736 344.607 217.182 344.607 217.182L355.873 172.582Z" fill="#0C476B"/>
<path d="M368.571 177.918C368.571 177.918 346.693 251.537 344.609 311.438C344.609 311.438 336.712 313.793 327.822 300.67C318.931 287.544 324.22 183.587 341.252 166.277C341.252 166.277 348.98 164.367 368.571 177.918Z" fill="#105E99"/>
<path d="M365.004 190.792C365.004 190.792 361.088 180.929 362.828 174.166C364.568 167.402 370.72 174.166 370.72 174.166C370.72 174.166 368.235 185.239 365.004 190.792Z" fill="#0C476B"/>
<path d="M479.177 639.553H435.738C432.701 620.835 437.545 602.098 437.545 602.098L457.401 598.402C459.208 610.234 461.387 614.899 464.406 617.302C464.424 617.302 464.424 617.302 464.424 617.302C466.622 619.038 469.248 619.604 472.528 620.835C476.272 622.248 478.247 624.813 479.234 627.599C481.19 633.131 479.177 639.553 479.177 639.553Z" fill="#662C33"/>
<path d="M479.234 627.599C468.523 629.052 444.996 631.536 446.43 624.813C447.623 619.198 457.551 617.685 464.406 617.302C464.424 617.302 464.424 617.302 464.424 617.302C466.622 619.038 469.248 619.604 472.528 620.835C476.271 622.248 478.246 624.813 479.234 627.599Z" fill="#8B383E"/>
<path d="M333.698 639.553H290.259C290.259 639.553 288.88 635.152 289.514 630.487C290.036 626.691 291.898 622.712 296.91 620.835C300.673 619.422 303.56 618.897 305.926 616.494C308.496 613.87 310.416 609.023 312.036 598.402L331.892 602.098C331.892 602.098 336.716 620.835 333.698 639.553Z" fill="#662C33"/>
<path d="M289.514 630.487C290.036 626.691 291.898 622.712 296.909 620.835C300.673 619.422 303.56 618.897 305.926 616.494C311.42 618.331 319.114 621.705 321.499 626.811C324.814 633.817 299.424 632.707 289.514 630.487Z" fill="#8B383E"/>
<path d="M645.558 636.181C645.558 638.16 645.372 639.553 645.372 639.553H592.602C592.602 638.422 592.62 637.292 592.675 636.181C593.271 621.219 597.63 608.236 597.63 608.236L610.819 602.098C611.954 609.467 614.879 614.172 618.55 617.242C619.518 618.069 620.524 618.757 621.568 619.342C622.053 619.626 622.536 619.888 623.039 620.13C624.138 620.675 625.274 621.119 626.412 621.483C631.069 623.018 635.782 623.34 639.079 623.885C644.701 624.833 645.558 631.88 645.558 636.181Z" fill="#164353"/>
<path d="M645.557 636.181C645.557 638.16 645.371 639.553 645.371 639.553H592.601C592.601 638.422 592.619 637.292 592.675 636.181H645.557Z" fill="#225866"/>
<path d="M621.564 619.341L614.244 621.885L612.697 618.977L618.546 617.24C619.516 618.069 620.522 618.755 621.564 619.341Z" fill="#225866"/>
<path d="M626.408 621.481L621.472 625.034L618.435 623.741L623.036 620.128C624.136 620.673 625.272 621.117 626.408 621.481Z" fill="#225866"/>
<path d="M443.934 636.181C443.803 638.12 443.338 639.553 443.338 639.553H408.189C407.743 638.442 407.426 637.332 407.201 636.181C403.736 617.947 427.094 595.636 427.094 595.636L434.508 606.359C434.508 606.359 433.651 623.521 439.929 627.095C443.692 629.234 444.177 633.273 443.934 636.181Z" fill="#164353"/>
<path d="M407.201 636.181H443.934C443.803 638.12 443.338 639.553 443.338 639.553H408.189C407.741 638.442 407.424 637.331 407.201 636.181Z" fill="#225866"/>
<path d="M438.323 625.728C438.323 625.728 423.514 622.069 416.762 626.806V624.156C416.762 624.156 429.218 617.595 438.323 625.728Z" fill="#225866"/>
<path d="M435.389 621.656C435.389 621.656 425.933 616.969 416.761 621.656L417.808 618.982C417.808 618.982 428.764 614.492 435.389 621.656Z" fill="#225866"/>
<path d="M629.63 474.081C629.649 489.407 617.094 614.354 617.094 614.354C604.539 615.707 594.481 612.981 594.481 612.981C591.035 549.659 590.7 495.203 590.7 495.203L530.534 446.319L530.384 446.198C530.384 446.198 530.161 447.309 529.75 449.288C526.771 463.624 514.159 523.674 508.906 537.425C502.926 553.094 437.548 618.984 437.548 618.984C425.403 617.167 415.098 607.632 415.098 607.632C438.568 565.432 470.569 523.11 470.569 523.11C473.066 507.906 474.854 474.085 475.916 448.806C475.935 448.422 475.953 448.018 475.972 447.634C476.68 430.512 477.034 417.588 477.034 417.588L466.006 393.075L536.064 365.169L551.766 386.957C551.766 386.957 555.361 390.571 561.024 396.347C561.284 396.608 561.545 396.872 561.805 397.134C582.838 418.636 629.63 467.216 629.63 474.081Z" fill="#8BBDDB"/>
<path d="M475.918 448.802C475.937 448.418 475.955 448.015 475.974 447.631C490.726 438.949 488.25 425.096 488.211 424.956L489.124 424.754C489.161 424.894 491.807 439.776 475.918 448.802Z" fill="#6097B2"/>
<path d="M529.452 436.525C529.955 439.553 530.328 442.824 530.532 446.318L530.383 446.196C530.383 446.196 530.16 447.307 529.749 449.286C529.098 425.54 520.063 411.507 519.951 411.345L520.714 410.76C520.806 410.882 526.507 419.806 529.264 435.373C539.919 425.116 529.487 404.096 529.376 403.894L530.195 403.411C530.309 403.632 541.355 425.884 529.452 436.525Z" fill="#6097B2"/>
<path d="M561.807 397.13C561.789 397.15 561.752 397.15 561.733 397.17C561.306 397.352 560.802 397.432 560.28 397.432C555.121 397.432 546.459 389.598 546.05 389.214L546.664 388.446C549.477 391.031 557.319 397.231 561.025 396.341C561.287 396.607 561.547 396.869 561.807 397.13Z" fill="#6097B2"/>
<path d="M470.914 262.368C470.914 262.368 492.224 258.651 502.902 266.029C513.579 273.408 527.598 292.665 527.598 292.665C527.598 292.665 510.953 295.048 509.069 307.304C509.069 307.304 496.979 276.092 470.914 262.368Z" fill="#ADBEC4"/>
<path d="M438.855 274.417C429.841 279.7 414.773 299.532 414.092 311.728C413.427 323.624 421.558 334.565 427.037 343.866C444.139 372.89 462.144 398.534 469.796 432.576C469.845 432.792 508.913 449.597 554.764 389.854C554.764 389.854 528.855 352.068 519.906 319.898C516.263 306.803 512.555 292.893 505.558 281.351C497.85 268.639 484.648 261.161 470.915 262.366C459.294 263.39 447.736 269.212 438.855 274.417Z" fill="#CFD8DC"/>
<path d="M435.072 262.243C435.072 262.243 440.836 272.922 438.174 278.794C438.174 278.794 457.959 286.198 457.959 274.199C457.959 274.199 454.23 265.205 455.636 259.391L435.072 262.243Z" fill="#EF6E4B"/>
<path d="M479.035 335.369C479.035 335.369 468.029 338.757 465.253 342.98C462.476 347.203 460.005 356.676 460.005 356.676H479.035L482.614 349.54L486.803 340.028L479.035 335.369Z" fill="#EF6E4B"/>
<path d="M460.842 250.334C460.842 250.334 468.568 246.821 463.57 221.631C460.258 204.939 455.486 202.451 452.404 202.304C452.404 202.304 448.633 196.144 435.551 199.092C426.592 201.113 419.443 207.01 416.296 217.924C413.011 229.316 419.581 253.735 428.233 256.165L460.842 250.334Z" fill="#164353"/>
<path d="M462.669 233.312C462.669 233.312 467.538 225.964 469.377 233.206C471.507 241.596 464.877 246.315 463.065 243.849C461.255 241.383 462.669 233.312 462.669 233.312Z" fill="#FF8B66"/>
<path d="M421.926 241.054C421.926 241.054 415.138 235.793 415.543 243.291C416.011 251.977 423.688 254.137 424.673 251.171C425.659 248.205 421.926 241.054 421.926 241.054Z" fill="#FF8B66"/>
<path d="M447.586 267.777C460.518 265.464 466.422 255.003 462.243 227.541C460.087 213.375 452.116 205.875 437.632 208.467C423.148 211.057 418.37 220.836 420.525 235.003C425.015 264.511 434.226 270.167 447.586 267.777Z" fill="#FF8B66"/>
<path d="M426.297 244.031C426.285 245.48 427.631 246.67 429.303 246.686C430.976 246.702 432.342 245.54 432.353 244.091C432.365 242.641 431.02 241.452 429.347 241.436C427.676 241.421 426.31 242.581 426.297 244.031Z" fill="#DB614D"/>
<path d="M453.013 240.043C453.315 241.454 454.882 242.265 456.512 241.856C458.141 241.445 459.214 239.968 458.912 238.555C458.609 237.144 457.043 236.331 455.414 236.742C453.785 237.153 452.71 238.63 453.013 240.043Z" fill="#DB614D"/>
<path d="M429.938 228.734C429.81 228.734 429.681 228.694 429.569 228.61C429.27 228.39 429.193 227.949 429.396 227.625C431.205 224.75 434.834 224.198 434.988 224.175C435.369 224.129 435.674 224.399 435.723 224.784C435.77 225.173 435.52 225.53 435.161 225.582C435.127 225.586 431.951 226.079 430.48 228.423C430.352 228.627 430.146 228.734 429.938 228.734Z" fill="#1A4850"/>
<path d="M454.285 224.38C454.148 224.38 454.009 224.335 453.891 224.237C451.797 222.524 448.652 223.169 448.621 223.177C448.261 223.262 447.923 223.004 447.851 222.618C447.781 222.234 448.011 221.86 448.366 221.783C448.517 221.753 452.118 221.007 454.68 223.102C454.968 223.338 455.025 223.784 454.809 224.097C454.68 224.282 454.483 224.38 454.285 224.38Z" fill="#1A4850"/>
<path d="M432.293 235.962C432.558 237.702 433.496 238.986 434.389 238.826C435.281 238.666 435.79 237.126 435.525 235.385C435.259 233.645 434.322 232.362 433.429 232.523C432.536 232.681 432.028 234.221 432.293 235.962Z" fill="#1A4850"/>
<path d="M449.562 232.873C449.828 234.614 450.765 235.896 451.658 235.736C452.551 235.576 453.059 234.036 452.794 232.295C452.529 230.555 451.591 229.273 450.698 229.433C449.806 229.593 449.297 231.133 449.562 232.873Z" fill="#1A4850"/>
<path d="M454.411 248.679C454.411 248.679 443.193 251.942 436.97 250.645C436.97 250.645 441.271 256.516 447.411 254.823C453.55 253.131 454.411 248.679 454.411 248.679Z" fill="#1A4850"/>
<path d="M454.941 214.798C454.941 214.798 440.345 226.253 422.023 227.126L422.542 244.806C422.542 244.806 405.466 210.699 439.241 204.659C473.014 198.619 463.184 236.714 463.184 236.714C463.184 236.714 462.135 220.283 454.941 214.798Z" fill="#0E3944"/>
<path d="M443.003 243.929L442.91 242.401C442.93 242.399 444.878 242.236 445.385 240.928C445.595 240.39 444.764 238.673 444.031 237.16C443.014 235.056 441.749 232.439 441.211 229.531L442.597 229.229C443.093 231.922 444.306 234.432 445.281 236.449C446.366 238.695 447.152 240.317 446.685 241.521C445.84 243.705 443.118 243.922 443.003 243.929Z" fill="#DB614D"/>
<path d="M462.86 214.841C438.31 203.291 415.137 227.239 415.137 227.239C415.137 227.239 412.436 207.834 417.167 203.291C418.397 202.1 419.719 201.051 421.098 200.121C431.94 192.71 446.356 192.852 452.968 195.396C454.327 195.922 455.371 196.548 455.968 197.213C459.879 201.614 462.86 214.841 462.86 214.841Z" fill="#CE364C"/>
<path d="M459.879 210.518C459.879 210.518 439.258 206.097 420.036 219.888C420.036 219.888 418.806 207.369 421.098 200.121C431.939 192.71 446.356 192.852 452.968 195.396C456.824 200.161 459.879 210.518 459.879 210.518Z" fill="#CFD8DC"/>
<path d="M417.167 224.957C417.167 224.957 420.437 209.908 424.841 205.668C432.166 198.617 452.752 196.195 463.572 200.434C474.392 204.673 463.572 217.488 463.572 217.488C463.572 217.488 446.326 204.099 417.167 224.957Z" fill="#A02E44"/>
<path d="M449.007 324.959C449.007 324.959 457.435 339.108 471.786 347.432C471.786 347.432 489.741 330.539 513.02 332.059C513.02 332.059 493.726 369.792 477.158 373.972C468.452 376.167 436.971 353.57 436.971 353.57C436.971 353.57 443.256 329.553 449.007 324.959Z" fill="#FF8B66"/>
<path d="M417.974 299.307C425.686 285.698 443.477 305.816 449.532 320.183C455.587 334.553 460.006 337.599 460.006 337.599C460.006 337.599 442.229 345.648 442.356 360.092C442.356 360.092 401.144 329.004 417.974 299.307Z" fill="#ADBEC4"/>
<path d="M471.786 341.216C471.786 341.216 482.615 329.701 518.22 314.671L513.621 298.994C517.705 293.167 525.214 293.167 525.214 293.167C525.214 293.167 543.456 321.091 540.316 329.431C538.356 334.642 500.306 340.109 471.786 341.216Z" fill="#EF6E4B"/>
<path d="M510.78 318.432C510.78 318.432 511.06 316.782 512.377 314.769C513.693 312.756 513.337 309.091 513.809 307.955C514.28 306.82 517.082 302.177 518.941 301.275C520.8 300.371 523.239 298.894 523.758 301.453C524.276 304.01 520.427 303.286 518.699 306.965C518.699 306.965 522.481 305.639 525.481 306.409C528.481 307.178 529.33 310.15 525.623 310.051C522.667 309.973 518.86 312.257 518.86 312.257C518.86 312.257 522.712 312.885 522.092 314.811C521.229 317.472 516.532 315.833 510.78 318.432Z" fill="#FF8B66"/>
<path d="M247.447 371.003C250.63 379.836 263.668 394.98 263.668 394.98C263.668 394.98 295.518 374.284 310.212 382.992C324.906 391.699 336.583 397.012 346.112 393.22C355.642 389.428 314.779 308.871 314.779 308.871L261.799 286.956C261.799 286.956 260.643 301.482 254.59 304.062C248.536 306.643 242.082 330.62 242.515 335.163C242.946 339.706 247.447 371.003 247.447 371.003Z" fill="#3E6575"/>
<path d="M307.058 395.506C307.058 395.506 293.396 424.535 265.191 461.712C265.191 461.712 262.301 505.922 187.715 575.48L179.906 568.822C179.906 568.822 224.325 493.4 233.208 470.276C242.094 447.152 228.298 425.965 269.171 367.475L307.058 395.506Z" fill="#EF6E4B"/>
<path d="M263.575 344.138C251.816 368.557 247.868 399.776 247.868 399.776L242.512 414.422C242.512 414.422 261.508 425.527 283.443 429.566L292.239 404.327L263.575 344.138Z" fill="#662C33"/>
<path d="M324.912 393.22C324.912 393.22 330.735 425.19 329.776 473.314C329.776 473.314 352.724 509.996 333.786 614.656H323.852C323.852 614.656 315.736 525.611 309.527 501.481C303.318 477.353 280.389 469.949 279.148 396.585L324.912 393.22Z" fill="#FF8B66"/>
<path d="M330.735 427.54C330.735 427.54 312.052 431.176 279.138 429.499L278.616 425.481L278.485 424.452L275.076 398.445C275.076 398.445 271.91 394.204 268.65 387.299C268.259 386.491 267.887 385.664 267.514 384.795C263.08 374.557 259.151 359.675 263.565 344.15L270.512 344.493L271.48 344.553L294.727 345.704L295.714 345.764L303.351 346.148L304.542 346.208L309.497 346.45C309.497 346.45 334.681 371.024 330.192 416.455L330.509 422.775L330.546 423.805L330.735 427.54Z" fill="#8B383E"/>
<path d="M271.482 344.551C270.83 346.632 266.434 362.058 268.65 387.297C268.259 386.49 267.887 385.662 267.515 384.793C265.857 361.714 269.675 347.318 270.513 344.49C270.625 344.146 270.68 343.986 270.68 343.964L271.556 344.308C271.556 344.33 271.519 344.411 271.482 344.551Z" fill="#662C33"/>
<path d="M330.549 423.805C323.937 425.641 312.723 426.147 302.068 426.147C292.511 426.147 283.44 425.723 278.616 425.481L278.485 424.452C286.849 424.896 308.866 425.825 323.06 424.148L322.147 407.893C322.37 388.934 317.08 372.74 311.976 361.554C299.049 359.01 295.491 348.631 294.727 345.703C294.615 345.239 294.56 344.955 294.56 344.935L295.472 344.773C295.472 344.793 295.546 345.157 295.714 345.763C296.553 348.791 300.017 357.817 311.436 360.401C307.99 353.112 304.73 348.125 303.353 346.146C302.943 345.541 302.682 345.197 302.663 345.177L303.371 344.531C303.408 344.571 303.838 345.137 304.544 346.206C308.866 352.566 323.45 376.494 323.078 407.851L323.991 424.025C326.469 423.701 328.685 423.297 330.51 422.773L330.549 423.805Z" fill="#662C33"/>
<path d="M282.956 234.592C275.542 230.165 222.118 252.877 222.118 252.877C222.118 252.877 214.214 268.159 219.142 274.151C224.069 280.144 241.55 277.501 246.905 274.151C252.26 270.801 266.446 268.266 266.446 268.266L282.956 234.592Z" fill="#8BBDDB"/>
<path d="M330.2 186.381C330.2 186.381 341.236 190.999 345.273 204.78C349.31 218.562 337.242 253.455 341.413 269.493C345.583 285.532 344.936 315.82 331.91 322.214C318.884 328.609 292.169 317.166 286.434 299.667C280.698 282.168 283.175 215.871 294.199 193.325C305.225 170.775 327.546 182.131 330.2 186.381Z" fill="#F24052"/>
<path d="M317.518 245.844C320.429 249.245 327.912 243.183 327.912 243.183C327.912 243.183 327.759 273.258 319.696 275.564C311.633 277.87 291.082 251.873 291.928 244.807C292.773 237.738 311.064 238.3 317.518 245.844Z" fill="#8BBDDB"/>
<path d="M286.435 238.322C286.435 238.322 294.592 245.829 308.801 249.399C323.011 252.969 330.712 245.728 337.979 255.659C348.886 270.567 331.14 298.048 321.803 312.29C318.322 317.599 310.977 332.326 309.492 346.454C309.492 346.454 284.836 354.217 263.574 344.138L261.987 311.35C261.987 311.35 248.585 267.162 286.435 238.322Z" fill="#0E3944"/>
<path d="M311.927 270.221C311.927 270.221 323.193 241.117 326.456 239.259C329.719 237.4 337.992 241.861 339.653 245.842C341.314 249.823 339.653 258.507 339.653 258.507C339.653 258.507 330.768 247.515 311.927 270.221Z" fill="#8BBDDB"/>
<path d="M365.886 393.213C360.764 404.581 348.189 407.851 348.189 407.851C348.189 407.851 347.239 406.276 345.637 403.45C345.469 403.168 345.283 402.844 345.115 402.52C335.223 385.136 304.992 329.507 305.588 300.572C306.277 266.003 327.083 247.024 327.083 247.024C337.644 249.75 340.98 252.88 340.98 252.88C340.98 252.88 344.538 272.547 341.278 296.211C338.018 319.855 332.094 326.115 335.076 327.892C338.037 329.649 335.076 333.183 335.076 333.183C335.076 333.183 352.603 359.653 355.883 367.891C358.007 373.262 361.621 382.39 363.874 388.084C364.024 388.488 364.173 388.891 364.321 389.255C365.27 391.659 365.886 393.213 365.886 393.213Z" fill="#6097B2"/>
<path d="M335.44 252.877C335.44 252.877 322.89 262.961 330.202 278.369L364.988 317.406C345.896 339.459 344.003 348.514 330.202 358.68L335.44 367.475C335.44 367.475 383.776 327.207 383.848 317.406C383.878 313.21 354.323 262.455 335.44 252.877Z" fill="#FF8B66"/>
<path d="M329.439 358.684C329.439 358.684 322.808 359.48 318.632 360.613C314.457 361.745 308.89 362.876 308.715 363.82C308.541 364.762 317.936 363.82 317.936 363.82C317.936 363.82 310.281 367.228 310.108 368.541C309.935 369.854 319.851 367.592 319.851 367.592C319.851 367.592 313.587 371.74 313.935 372.871C314.282 374.002 321.998 371.174 321.998 371.174C321.998 371.174 320.564 375.134 319.075 377.02C319.075 377.02 320.57 377.909 323.602 374.259C326.634 370.607 331.476 371.78 335.309 368.541C339.141 365.3 332.929 358.196 329.439 358.684Z" fill="#FF8B66"/>
<path d="M293.892 243.165C293.892 243.165 284.344 249.852 278.314 266.005C272.284 282.159 253.257 312.556 248.799 320.41C244.341 328.263 247.447 371.003 247.447 371.003C247.447 371.003 241.858 345.091 239.375 334.994C236.892 324.899 247.395 299.951 248.974 298.627C250.553 297.303 258.624 299.725 257.072 289.597C255.52 279.469 277.177 235.821 282.958 234.592C282.958 234.592 292.218 236.478 293.892 243.165Z" fill="#6097B2"/>
<path d="M264.367 245.349C264.199 245.693 264.013 246.037 263.79 246.359C261.629 249.731 257.606 252.417 257.606 252.417C257.606 252.417 250.322 263.481 250.249 264.754C250.175 265.846 237.6 275.739 232.013 275.537H231.995C231.231 275.517 230.597 275.295 230.151 274.85C226.836 271.458 241.439 242.987 244.662 236.849C244.866 236.445 245.034 236.142 245.147 235.94C245.22 235.778 245.277 235.678 245.277 235.678C245.277 235.678 242.707 225.299 253.436 227.238C262.359 228.832 264.129 236.525 265.06 241.674C265.28 242.907 264.963 244.158 264.367 245.349Z" fill="#6097B2"/>
<path d="M226.903 256.108C234.273 245.606 260.208 225.237 273.868 219.208L277.282 226.09C277.282 226.09 250.886 251.245 244.685 262.006C238.485 272.767 230.802 277.218 223.464 273.635C216.123 270.05 225.353 258.32 226.903 256.108Z" fill="#FF8B66"/>
<path d="M261.797 243.191L260.4 244.927L259.692 245.815L257.381 248.683C257.381 248.683 251.57 256.316 251.793 259.384C251.96 261.585 240.765 271.438 232.01 275.537C228.452 277.212 225.286 277.94 223.442 276.788C217.109 272.831 218.525 260.939 222.12 252.882C225.249 245.855 239.089 236.789 242.647 234.568C243.094 234.265 243.374 234.085 243.466 234.043C243.484 234.023 243.484 234.023 243.484 234.023L244.807 228.451C244.807 228.451 249.632 225.301 253.432 227.239C253.432 227.239 245.05 227.623 246.429 231.157C247.845 234.708 259.468 243.069 261.797 243.191Z" fill="#8BBDDB"/>
<path d="M292.233 214.054C283.796 217.81 285.005 226.088 277.276 226.088C272.489 226.088 271.855 220.152 271.855 220.152C274.016 215.083 275.394 206.441 275.692 202.322C276.009 198.203 277.276 199.798 277.276 199.798C277.276 199.414 277.258 199.05 277.239 198.686C277.127 195.92 276.662 193.902 278.338 195.093C280.237 196.426 280.89 204.261 280.89 204.261C282.455 192.832 280.127 191.135 281.952 192.145C284.448 193.518 284.467 203.613 284.467 203.917C286.478 197.273 285.938 193.478 287.336 194.993C288.752 196.528 286.628 208.724 285.791 213.207C285.604 214.216 285.474 214.842 285.474 214.842C292.159 211.286 292.233 214.054 292.233 214.054Z" fill="#FF8B66"/>
<path d="M285.788 213.205C285.602 214.214 285.471 214.84 285.471 214.84C285.471 214.84 282.379 214.516 280.126 218.131C280.126 218.131 280.758 213.286 285.788 213.205Z" fill="#EF6E4B"/>
<path d="M277.741 207.996C277.796 207.027 278.168 201.474 277.276 199.797C277.276 199.414 277.257 199.05 277.239 198.686C279.175 199.132 277.947 206.825 277.741 207.996Z" fill="#EF6E4B"/>
<path d="M282.977 256.167C282.977 256.167 288.68 239.413 290.493 235.674C292.309 231.933 301.756 232.575 308.907 234.021C316.057 235.467 317.519 245.844 317.519 245.844C317.519 245.844 295.765 234.716 282.977 256.167Z" fill="#8BBDDB"/>
<path d="M319.696 223.195C319.696 223.195 312.864 236.869 312.972 252.033C312.972 252.033 301.875 260.208 297.904 249.969C297.904 249.969 302.118 236.554 300.082 218.446C298.719 206.319 319.696 223.195 319.696 223.195Z" fill="#EF6E4B"/>
<path d="M297.906 204.221C297.906 204.221 295.876 196.382 292.262 201.893C288.076 208.276 292.342 214.481 294.575 213.001C296.808 211.521 297.906 204.221 297.906 204.221Z" fill="#FF8B66"/>
<path d="M330.162 224.375C330.162 224.375 337.398 222.192 334.925 228.398C332.06 235.587 324.953 234.85 324.963 232.013C324.973 229.178 330.162 224.375 330.162 224.375Z" fill="#FF8B66"/>
<path d="M300.867 238.407C290.587 232.133 288.567 221.314 299.907 199.484C305.756 188.225 314.629 184.544 326.142 191.572C337.656 198.601 338.916 208.465 333.068 219.726C320.882 243.181 311.485 244.889 300.867 238.407Z" fill="#FF8B66"/>
<path d="M325.619 225.433C325.218 226.663 323.741 227.219 322.322 226.675C320.902 226.132 320.079 224.693 320.48 223.462C320.881 222.232 322.357 221.676 323.776 222.222C325.196 222.765 326.02 224.204 325.619 225.433Z" fill="#DB614D"/>
<path d="M304.158 213.139C303.501 214.232 301.945 214.396 300.685 213.505C299.425 212.613 298.935 211.004 299.593 209.913C300.251 208.82 301.806 208.656 303.066 209.547C304.328 210.436 304.816 212.046 304.158 213.139Z" fill="#DB614D"/>
<path d="M327.09 211.32C326.827 211.32 326.587 211.127 326.519 210.838C325.937 208.352 323.396 206.888 323.37 206.875C323.082 206.712 322.969 206.326 323.12 206.013C323.27 205.701 323.624 205.579 323.916 205.742C324.04 205.812 326.952 207.492 327.662 210.525C327.743 210.867 327.551 211.215 327.236 211.302C327.186 211.313 327.137 211.32 327.09 211.32Z" fill="#1A4850"/>
<path d="M312.974 200.434C312.87 200.434 312.766 200.405 312.67 200.343C312.645 200.327 310.168 198.732 307.908 199.479C307.595 199.583 307.268 199.392 307.172 199.053C307.078 198.717 307.252 198.359 307.564 198.255C310.329 197.337 313.161 199.17 313.281 199.248C313.559 199.43 313.648 199.823 313.479 200.125C313.368 200.325 313.173 200.434 312.974 200.434Z" fill="#1A4850"/>
<path d="M322.842 216.609C322.122 217.993 320.964 218.764 320.256 218.329C319.547 217.897 319.555 216.423 320.273 215.039C320.991 213.655 322.15 212.884 322.858 213.317C323.568 213.752 323.561 215.223 322.842 216.609Z" fill="#1A4850"/>
<path d="M308.43 208.229C307.712 209.613 306.555 210.384 305.845 209.949C305.135 209.516 305.144 208.045 305.862 206.661C306.58 205.277 307.737 204.506 308.447 204.939C309.157 205.372 309.148 206.845 308.43 208.229Z" fill="#1A4850"/>
<path d="M303.437 222.436C303.437 222.436 309.334 227.313 313.596 227.463C313.596 227.463 309.064 231.464 305.806 228.868C302.55 226.273 303.437 222.436 303.437 222.436Z" fill="#1A4850"/>
<path d="M319.743 213.812C319.743 213.812 322.449 210.975 323.558 211.973C324.665 212.972 324.087 216.463 324.087 216.463L326.456 216.529L324.498 215.674C324.498 215.674 325.128 212.05 323.91 211.298C322.176 210.227 319.743 213.812 319.743 213.812Z" fill="#1A4850"/>
<path d="M309.546 208.136C309.546 208.136 310.38 204.157 309.017 203.648C307.655 203.139 305.202 205.486 305.202 205.486L303.922 203.324L305.613 204.697C305.613 204.697 308.145 202.233 309.37 202.971C311.113 204.024 309.546 208.136 309.546 208.136Z" fill="#1A4850"/>
<path d="M328.871 196.238C328.871 196.238 325.189 190.691 320.104 195.096C315.018 199.501 303.547 206.55 297.905 204.22C292.261 201.892 310.25 175.831 325.868 183.462C341.486 191.095 340.08 215.938 333.584 223.836C327.088 231.735 330.162 224.376 330.162 224.376C330.162 224.376 330.596 213.17 332.765 205.744C334.936 198.317 328.871 196.238 328.871 196.238Z" fill="#F24052"/>
<path d="M311.561 219.895C311.276 219.895 310.977 219.854 310.67 219.77L310.984 218.433C312.034 218.722 312.551 218.233 312.798 217.773C313.148 217.122 313.1 216.284 312.821 215.969C312.658 215.785 312.381 215.805 311.992 216.025L311.403 214.803C312.697 214.068 313.47 214.707 313.742 215.018C314.442 215.814 314.511 217.329 313.896 218.468C313.397 219.393 312.558 219.895 311.561 219.895Z" fill="#DB614D"/>
<path d="M386.841 315.86C386.227 325.653 363.875 357.536 360.148 358.666C359.18 358.948 358.192 359.533 357.261 360.221C356.87 360.524 356.479 360.846 356.107 361.17C353.983 363.027 352.382 365.167 352.382 365.167C345.862 364.704 327.551 355.516 333.439 353.497C333.793 353.375 334.183 353.153 334.611 352.831C334.853 352.65 335.115 352.448 335.375 352.186C342.304 345.886 355.79 320.323 355.884 318.384C355.957 316.264 358.286 315.86 358.286 315.86C358.286 315.86 345.564 295.608 338.187 293.165C330.81 290.723 327.085 281.051 327.085 281.051C319.802 247.633 340.982 252.884 340.982 252.884C356.592 262.957 387.455 306.047 386.841 315.86Z" fill="#8BBDDB"/>
<path d="M357.261 360.221C356.87 360.525 356.479 360.846 356.107 361.17C346.104 360.423 337.722 355.092 334.611 352.832C334.853 352.65 335.115 352.448 335.375 352.186C338.708 354.547 347.24 359.817 357.261 360.221Z" fill="#3E6575"/>
<path d="M264.367 245.35C264.199 245.693 264.013 246.037 263.79 246.359C262.356 246.299 260.997 246.117 259.691 245.813C253.079 244.36 247.994 240.341 244.659 236.847C243.895 236.04 243.224 235.272 242.647 234.565C243.093 234.261 243.373 234.081 243.466 234.039C243.951 234.625 244.509 235.271 245.142 235.938C248.457 239.472 253.618 243.591 260.398 244.924C261.666 245.189 262.988 245.33 264.367 245.35Z" fill="#3E6575"/>
<path d="M364.321 389.256C361.247 394.89 355.566 401.693 345.637 403.45C345.47 403.168 345.283 402.845 345.116 402.521C355.305 400.864 360.949 393.697 363.873 388.084C364.022 388.49 364.172 388.892 364.321 389.256Z" fill="#3E6575"/>
<path d="M194.794 572.981C194.794 572.981 192.466 575.465 190.045 580.028C187.624 584.591 190.286 588.792 178.57 599.372C178.57 599.372 154.933 584.369 144.259 565.086C144.259 565.086 144.445 559.574 149.604 558.281C152.379 557.594 160.016 561.471 167.356 562.966C168.4 563.168 169.442 563.35 170.467 563.43C171.752 563.551 173.019 563.571 174.23 563.41C175.347 563.288 176.41 563.026 177.396 562.582H177.414C179.911 561.471 181.886 559.27 182.909 555.415C182.909 555.415 189.186 559.292 184.995 565.854C184.995 565.854 192.447 562.318 194.794 572.981Z" fill="#CFD8DC"/>
<path d="M178.568 599.372C178.568 599.372 154.931 584.369 144.257 565.086C144.257 565.086 148.225 564.177 151.503 570.559C154.781 576.958 180.488 591.477 178.568 599.372Z" fill="#ADBEC4"/>
<path d="M178.662 569.042C176.745 572.334 176.782 566.256 174.23 563.408C175.347 563.286 176.409 563.024 177.396 562.58H177.414C178.55 563.915 180.171 566.478 178.662 569.042Z" fill="#ADBEC4"/>
<path d="M171.23 569.224C169.2 571.304 168.548 565.872 167.356 562.964C168.4 563.166 169.442 563.348 170.467 563.428C171.658 565.186 172.777 567.629 171.23 569.224Z" fill="#ADBEC4"/>
<path d="M340.216 639.553H306.781C306.781 639.553 305.383 634.504 306.781 628.952C307.376 626.55 310.841 624.307 314.064 621.177C314.958 620.31 315.815 619.401 316.616 618.371C317.25 617.564 317.827 616.674 318.31 615.727C318.924 614.576 319.409 613.324 319.689 611.951C320.229 609.205 320.025 605.975 318.572 602.098C318.572 602.098 329.954 599.514 334.014 606.237C334.014 606.237 334.405 603.127 338.019 605.208C338.019 605.208 337.497 611.448 338.205 616.676C338.913 621.885 343.402 623.4 340.216 639.553Z" fill="#CFD8DC"/>
<path d="M331.517 617.725C331.219 618.089 330.809 618.271 330.4 618.271C330.046 618.271 329.71 618.149 329.412 617.907C327.68 616.412 323.862 614.092 318.31 615.727C318.924 614.576 319.409 613.324 319.689 611.951C321.924 611.064 326.133 610.538 331.331 615.343C332.002 615.949 332.096 617.018 331.517 617.725Z" fill="#ADBEC4"/>
<path d="M328.706 623.742L328.519 624.045C328.073 624.793 327.179 625.035 326.471 624.591C324.198 623.138 319.094 620.392 314.066 621.179C314.96 620.312 315.817 619.402 316.618 618.373C319.096 617.747 323.77 617.404 328.372 621.543C328.967 622.087 329.134 623.036 328.706 623.742Z" fill="#ADBEC4"/>
</g>
<defs>
<linearGradient id="paint0_linear_323_900" x1="470.522" y1="499.238" x2="-105.813" y2="-132.053" gradientUnits="userSpaceOnUse">
<stop stop-color="#93B3FC"/>
<stop offset="0.9999" stop-color="#97CCF8"/>
<stop offset="1" stop-color="#97CCF8" stop-opacity="0"/>
</linearGradient>
<clipPath id="clip0_323_900">
<rect width="821" height="717" fill="white"/>
</clipPath>
</defs>
</svg>
