<svg width="382" height="448" viewBox="0 0 382 448" fill="none" xmlns="http://www.w3.org/2000/svg">
<path d="M-23 -25H333.777C354.206 65.6997 348.663 96.6618 310.432 118.72C237.115 114.482 219.678 131.773 232.783 199.12C254.787 280.618 236.227 310.176 128.998 324.186C96.6518 334.115 84.8642 345.125 74.4413 373.844L58.9623 447.675H-23V-25Z" fill="url(#paint0_linear_319_904)"/>
<path d="M70.0955 370.728H24.291C23.4863 370.728 22.8337 370.021 22.8337 369.148V368.281C22.8337 367.408 23.4863 366.701 24.291 366.701H70.0947C70.8994 366.701 71.5519 367.408 71.5519 368.281V369.148C71.5527 370.021 70.9002 370.728 70.0955 370.728Z" fill="#ADBEC4"/>
<path d="M360.336 370.728H347.804C346.999 370.728 346.347 370.021 346.347 369.148V368.281C346.347 367.408 346.999 366.701 347.804 366.701H360.336C361.141 366.701 361.794 367.408 361.794 368.281V369.148C361.793 370.021 361.141 370.728 360.336 370.728Z" fill="#ADBEC4"/>
<path d="M156.294 370.728H110.489C109.685 370.728 109.032 370.021 109.032 369.148V368.281C109.032 367.408 109.685 366.701 110.489 366.701H156.294C157.099 366.701 157.751 367.408 157.751 368.281V369.148C157.751 370.021 157.099 370.728 156.294 370.728Z" fill="#ADBEC4"/>
<path d="M223.55 370.728H177.747C176.942 370.728 176.289 370.021 176.289 369.148V368.281C176.289 367.408 176.942 366.701 177.747 366.701H223.55C224.355 366.701 225.007 367.408 225.007 368.281V369.148C225.007 370.021 224.355 370.728 223.55 370.728Z" fill="#ADBEC4"/>
<path d="M305.92 370.728H243.48C242.675 370.728 242.023 370.021 242.023 369.148V368.281C242.023 367.408 242.675 366.701 243.48 366.701H305.92C306.725 366.701 307.377 367.408 307.377 368.281V369.148C307.377 370.021 306.725 370.728 305.92 370.728Z" fill="#ADBEC4"/>
<path d="M85.4484 145.212C85.4484 145.212 80.6105 141.644 73.5347 144.392C66.4589 147.14 64.8696 157.469 66.6127 165.852C68.3559 174.235 58.6143 202.855 58.6143 202.855C58.6143 202.855 63.6775 210.573 81.3727 207.62C81.3727 207.62 94.5675 181.627 93.5882 162.967C92.609 144.306 85.4484 145.212 85.4484 145.212Z" fill="#0E3944"/>
<path d="M91.0347 177.456C97.6848 175.151 101.755 181.153 105.565 192.325C109.376 203.496 110.658 204.616 110.658 204.616L125.365 214.86L124.142 220.83C124.142 220.83 110.145 214.89 106.761 211.11C103.377 207.332 93.6407 188.191 93.6407 188.191L91.0347 177.456Z" fill="#EF6E4B"/>
<path d="M58.6215 249.628C58.6215 249.628 55.7362 265.468 56.2117 289.312C56.2117 289.312 44.8416 307.486 54.225 359.342H59.1469C59.1469 359.342 63.1677 315.222 66.2443 303.268C69.3208 291.313 80.6809 287.645 81.296 251.295L58.6215 249.628Z" fill="#FF8B66"/>
<path d="M36.126 296.205C33.2656 285.988 25.9147 268.875 7.0574 245.679C7.0574 245.679 5.9327 245.051 4.41231 246.059C2.80713 247.122 2.80713 248.371 2.80713 248.371C2.80713 248.371 12.2628 270.709 18.2928 287.075C20.3228 292.585 25.2339 296.205 30.707 296.205H36.126Z" fill="#FF8B66"/>
<path d="M70.4588 315.961C70.4588 315.961 70.5236 323.584 65.9093 323.714C59.3938 323.904 59.1535 316.211 51.7702 316.461C44.3869 316.711 29.1589 318.712 24.3134 306.207C21.8121 299.744 25.2361 291.451 17.1612 285.198C9.08542 278.946 13.0082 271.942 17.1612 268.191C21.3142 264.45 15.3706 260.348 19.6991 258.437C20.7323 257.986 21.7481 258.037 22.6891 258.377C23.2428 258.587 23.7598 258.877 24.2577 259.237C26.5462 260.888 28.1522 263.759 28.1522 263.759C40.381 227.453 62.1528 222.661 62.1528 222.661L83.6843 230.715C84.2005 287.199 70.4588 315.961 70.4588 315.961Z" fill="#164353"/>
<path d="M91.0344 177.456C91.0344 177.456 86.011 179.293 78.8654 178.117C71.7198 176.941 69.3973 172.078 64.3748 175.209C56.8343 179.908 60.3631 196.081 62.2567 204.491C62.9624 207.627 63.8569 215.865 62.1544 222.663C62.1544 222.663 72.1945 231.132 83.686 230.711L89.9554 215.93C89.9554 215.93 103.589 198.246 91.0344 177.456Z" fill="#CFD8DC"/>
<path d="M78.2761 163.889C78.2761 163.889 79.1115 171.54 76.5005 178.501C76.5005 178.501 80.2287 184.467 83.7866 180.541C83.7866 180.541 84.1116 173.529 88.1083 165.596C90.7842 160.283 78.2761 163.889 78.2761 163.889Z" fill="#EF6E4B"/>
<path d="M72.563 164.15C72.563 164.15 69.4183 161.994 69.7733 165.32C70.1848 169.175 73.6537 169.927 74.0227 168.579C74.3918 167.232 72.563 164.15 72.563 164.15Z" fill="#FF8B66"/>
<path d="M90.603 159.977C90.603 159.977 92.5989 156.573 93.5873 159.746C94.7319 163.423 91.8898 165.706 91.0253 164.658C90.1616 163.61 90.603 159.977 90.603 159.977Z" fill="#FF8B66"/>
<path d="M84.1098 175.672C78.4065 177.056 74.3532 173.799 71.8511 161.687C70.5601 155.439 72.7015 150.895 79.0898 149.345C85.4789 147.794 88.9603 150.973 90.2512 157.221C92.9396 170.236 90.0019 174.242 84.1098 175.672Z" fill="#FF8B66"/>
<path d="M89.2547 161.999C89.4833 162.596 89.1101 163.332 88.421 163.641C87.7319 163.95 86.9879 163.717 86.7601 163.12C86.5315 162.522 86.9047 161.787 87.5939 161.478C88.2822 161.169 89.0261 161.402 89.2547 161.999Z" fill="#DB614D"/>
<path d="M77.593 165.185C77.6853 165.824 77.1624 166.443 76.4259 166.567C75.6894 166.693 75.0169 166.276 74.9246 165.637C74.8323 164.999 75.3552 164.38 76.0917 164.255C76.8291 164.13 77.5007 164.546 77.593 165.185Z" fill="#DB614D"/>
<path d="M85.2829 156.355C85.2273 156.355 85.1715 156.338 85.1208 156.302C84.1458 155.597 82.7642 155.972 82.7492 155.975C82.5905 156.02 82.4334 155.917 82.3935 155.747C82.3536 155.578 82.4475 155.405 82.6038 155.362C82.6711 155.344 84.2555 154.914 85.4459 155.776C85.5805 155.873 85.6163 156.07 85.5265 156.215C85.47 156.306 85.3777 156.355 85.2829 156.355Z" fill="#0E3944"/>
<path d="M74.5438 158.962C74.4931 158.962 74.4408 158.948 74.3942 158.917C74.2562 158.827 74.2113 158.633 74.2945 158.483C75.0318 157.154 76.6345 156.809 76.7026 156.794C76.8581 156.767 77.0135 156.874 77.0435 157.046C77.0734 157.217 76.9703 157.383 76.8115 157.416C76.7974 157.42 75.3959 157.725 74.794 158.809C74.74 158.907 74.6428 158.962 74.5438 158.962Z" fill="#0E3944"/>
<path d="M85.5331 159.748C85.6911 160.516 85.5007 161.216 85.1075 161.31C84.7143 161.406 84.2663 160.861 84.1075 160.093C83.9487 159.325 84.1391 158.625 84.5331 158.53C84.9263 158.435 85.3744 158.979 85.5331 159.748Z" fill="#1A4850"/>
<path d="M77.6086 161.596C77.7673 162.364 77.577 163.064 77.183 163.158C76.7898 163.254 76.3417 162.709 76.183 161.941C76.0242 161.173 76.2145 160.473 76.6086 160.378C77.0026 160.283 77.4498 160.828 77.6086 161.596Z" fill="#1A4850"/>
<path d="M80.1707 168.868C80.1707 168.868 83.8341 168.544 85.4484 167.067C85.4484 167.067 85.0036 170.169 83.0111 170.383C81.0177 170.6 80.1707 168.868 80.1707 168.868Z" fill="#1A4850"/>
<path d="M83.5363 159.832C83.5363 159.832 83.6651 157.814 84.3784 157.784C85.0916 157.753 85.9461 159.247 85.9461 159.247L86.8381 158.42L85.8555 158.809C85.8555 158.809 84.9794 157.247 84.3011 157.409C83.3359 157.638 83.5363 159.832 83.5363 159.832Z" fill="#1A4850"/>
<path d="M78.0458 161.408C78.0458 161.408 77.1356 159.642 76.478 159.944C75.8205 160.246 75.636 161.992 75.636 161.992L74.5029 161.657L75.5453 161.555C75.5453 161.555 75.7241 159.737 76.4007 159.569C77.365 159.33 78.0458 161.408 78.0458 161.408Z" fill="#1A4850"/>
<path d="M82.0187 165.286L81.7252 164.682C82.1999 164.411 82.2406 164.044 82.1908 163.787C82.1209 163.421 81.8466 163.131 81.6479 163.113C81.5341 163.107 81.436 163.213 81.3595 163.432L80.7693 163.194C81.022 162.457 81.5 162.417 81.6961 162.432C82.1974 162.474 82.6854 163.007 82.8092 163.647C82.9364 164.317 82.6413 164.93 82.0187 165.286Z" fill="#DB614D"/>
<path d="M73.0143 166.33C73.0143 166.33 71.2553 159.315 72.2994 154.353C72.2994 154.353 77.2612 146.863 86.8391 150.567C86.8391 150.567 89.6787 155.525 91.086 162.463C91.086 162.463 91.4435 159.971 90.4909 154.42C89.5382 148.869 84.9953 145.421 78.765 146.531C72.5355 147.641 65.8687 154.359 73.0143 166.33Z" fill="#0E3944"/>
<path d="M83.0558 149.009C83.0558 149.009 83.4357 150.84 81.7923 155.555C81.7923 155.555 80.6102 154.216 79.2261 155.555C77.8421 156.894 75.0307 156.447 74.0714 157.171C73.1122 157.894 73.1122 159.549 73.1122 159.549C73.1122 159.549 72.2817 157.489 73.1122 155.018C73.1122 155.018 71.2443 157.592 71.492 160.77C71.492 160.77 68.9591 160.326 69.0739 155.796C69.1894 151.266 75.1288 143.938 81.7923 144.413C88.4557 144.888 90.0418 156.325 90.0418 156.325C90.0418 156.325 89.4341 155.807 88.4831 156.037C88.4831 156.037 88.336 153.615 86.8381 150.564C86.8381 150.564 87.528 152.766 86.8381 155.142C86.8381 155.142 84.9818 154.087 83.5188 154.417C83.5188 154.419 84.4224 152.503 83.0558 149.009Z" fill="#0E3944"/>
<path d="M62.6832 176.653C65.926 173.881 68.4514 177.407 69.0699 182.282C69.6891 187.158 63.8245 215.919 59.3024 214.86C57.5568 214.451 56.8452 206.917 56.8452 206.917C56.8452 206.917 58.6142 198.83 59.7588 186.658C60.285 181.064 60.9924 178.098 62.6832 176.653Z" fill="#FF8B66"/>
<path d="M53.2475 210.795C48.8816 206.284 41.0536 191.322 39.0652 183.7L42.3786 182.255C42.3786 182.255 52.3555 197.727 56.9034 201.627C61.4512 205.529 63.0506 209.873 61.0198 213.594C58.989 217.314 54.1668 211.744 53.2475 210.795Z" fill="#FF8B66"/>
<path d="M40.4262 173.718C40.1976 178.611 43.876 179.771 42.2442 183.526C41.9075 184.301 41.3947 184.713 40.8618 184.918C39.851 185.305 38.7279 184.939 37.974 184.113C36.225 182.197 33.5217 180.167 32.0828 179.277C30.4468 178.253 31.3737 177.975 31.3737 177.975C31.2149 177.894 31.0612 177.826 30.9065 177.759C29.7394 177.229 28.8059 177.029 29.6522 176.466C30.6048 175.824 33.9814 177.161 33.9814 177.161C29.5865 173.988 28.3936 174.762 29.1958 174.088C30.2906 173.165 34.4694 175.287 34.594 175.351C32.2715 172.971 30.5882 172.431 31.5092 172.073C32.4427 171.709 37.0371 175.316 38.7138 176.669C39.092 176.973 39.3231 177.168 39.3231 177.168C39.2666 173.17 40.4262 173.718 40.4262 173.718Z" fill="#FF8B66"/>
<path d="M38.7154 176.671C39.0936 176.975 39.3247 177.17 39.3247 177.17C39.3247 177.17 38.5383 178.605 39.5566 180.463C39.5566 180.463 37.6862 179.131 38.7154 176.671Z" fill="#EF6E4B"/>
<path d="M34.8612 179.481C34.4721 179.249 32.2552 177.896 31.3732 177.976C31.2144 177.895 31.0606 177.827 30.906 177.76C31.4987 176.912 34.4206 179.134 34.8612 179.481Z" fill="#EF6E4B"/>
<path d="M52.2881 252.085C52.2881 252.617 51.8907 253.047 51.4011 253.047C50.9115 253.047 50.5142 252.616 50.5142 252.085C50.5142 251.554 50.9115 251.124 51.4011 251.124C51.8907 251.124 52.2881 251.554 52.2881 252.085Z" fill="#6097B2"/>
<path d="M68.1155 258.704C68.1155 259.235 67.7181 259.665 67.2285 259.665C66.7389 259.665 66.3416 259.234 66.3416 258.704C66.3416 258.173 66.7389 257.742 67.2285 257.742C67.7181 257.742 68.1155 258.173 68.1155 258.704Z" fill="#6097B2"/>
<path d="M81.6018 262.253C81.6018 262.784 81.2045 263.215 80.7148 263.215C80.2252 263.215 79.8279 262.784 79.8279 262.253C79.8279 261.722 80.2252 261.292 80.7148 261.292C81.2045 261.292 81.6018 261.722 81.6018 262.253Z" fill="#6097B2"/>
<path d="M60.8799 239.528C60.8799 240.059 60.4825 240.489 59.9929 240.489C59.5033 240.489 59.106 240.058 59.106 239.528C59.106 238.997 59.5033 238.566 59.9929 238.566C60.4825 238.566 60.8799 238.997 60.8799 239.528Z" fill="#6097B2"/>
<path d="M62.9805 249.628C63.4703 249.628 63.8674 249.198 63.8674 248.667C63.8674 248.136 63.4703 247.705 62.9805 247.705C62.4906 247.705 62.0935 248.136 62.0935 248.667C62.0935 249.198 62.4906 249.628 62.9805 249.628Z" fill="#6097B2"/>
<path d="M77.9019 253.875C77.9019 254.406 77.5045 254.836 77.0149 254.836C76.5253 254.836 76.1279 254.406 76.1279 253.875C76.1279 253.344 76.5253 252.913 77.0149 252.913C77.5045 252.913 77.9019 253.343 77.9019 253.875Z" fill="#6097B2"/>
<path d="M79.8279 238.111C79.8279 238.642 79.4305 239.073 78.9409 239.073C78.4513 239.073 78.054 238.642 78.054 238.111C78.054 237.579 78.4513 237.15 78.9409 237.15C79.4305 237.15 79.8279 237.58 79.8279 238.111Z" fill="#6097B2"/>
<path d="M69.7446 235.793C70.2345 235.793 70.6316 235.362 70.6316 234.831C70.6316 234.3 70.2345 233.87 69.7446 233.87C69.2548 233.87 68.8577 234.3 68.8577 234.831C68.8577 235.362 69.2548 235.793 69.7446 235.793Z" fill="#6097B2"/>
<path d="M44.4375 270.845C44.4375 271.376 44.0401 271.806 43.5505 271.806C43.0609 271.806 42.6636 271.375 42.6636 270.845C42.6636 270.314 43.0609 269.883 43.5505 269.883C44.0401 269.883 44.4375 270.314 44.4375 270.845Z" fill="#6097B2"/>
<path d="M31.7939 266.756C31.7939 267.287 31.3966 267.717 30.907 267.717C30.4174 267.717 30.02 267.287 30.02 266.756C30.02 266.224 30.4174 265.794 30.907 265.794C31.3966 265.794 31.7939 266.225 31.7939 266.756Z" fill="#6097B2"/>
<path d="M24.2567 259.237C24.0996 259.497 23.8228 259.667 23.5094 259.667C23.0206 259.667 22.6233 259.237 22.6233 258.706C22.6233 258.586 22.6416 258.476 22.6881 258.376C23.2418 258.586 23.7588 258.877 24.2567 259.237Z" fill="#6097B2"/>
<path d="M48.0801 284.348C48.5699 284.348 48.967 283.918 48.967 283.387C48.967 282.856 48.5699 282.426 48.0801 282.426C47.5902 282.426 47.1931 282.856 47.1931 283.387C47.1931 283.918 47.5902 284.348 48.0801 284.348Z" fill="#6097B2"/>
<path d="M26.2751 297.018C26.2751 297.55 25.8778 297.98 25.3882 297.98C24.8986 297.98 24.5012 297.549 24.5012 297.018C24.5012 296.488 24.8986 296.057 25.3882 296.057C25.8778 296.057 26.2751 296.487 26.2751 297.018Z" fill="#6097B2"/>
<path d="M34.6584 289.717C35.1483 289.717 35.5454 289.287 35.5454 288.756C35.5454 288.225 35.1483 287.794 34.6584 287.794C34.1686 287.794 33.7715 288.225 33.7715 288.756C33.7715 289.287 34.1686 289.717 34.6584 289.717Z" fill="#6097B2"/>
<path d="M20.8521 282.407C21.3419 282.407 21.739 281.976 21.739 281.445C21.739 280.914 21.3419 280.484 20.8521 280.484C20.3622 280.484 19.9651 280.914 19.9651 281.445C19.9651 281.976 20.3622 282.407 20.8521 282.407Z" fill="#6097B2"/>
<path d="M32.8838 310.232C32.8838 310.763 32.4864 311.193 31.9968 311.193C31.5072 311.193 31.1099 310.763 31.1099 310.232C31.1099 309.7 31.5072 309.271 31.9968 309.271C32.4864 309.271 32.8838 309.701 32.8838 310.232Z" fill="#6097B2"/>
<path d="M41.3313 259.666C41.3313 260.198 40.9339 260.627 40.4443 260.627C39.9539 260.627 39.5574 260.197 39.5574 259.666C39.5574 259.135 39.9547 258.704 40.4443 258.704C40.9339 258.704 41.3313 259.134 41.3313 259.666Z" fill="#6097B2"/>
<path d="M49.855 243.469C49.855 244.001 49.4576 244.43 48.968 244.43C48.4784 244.43 48.0811 244 48.0811 243.469C48.0811 242.938 48.4784 242.508 48.968 242.508C49.4576 242.508 49.855 242.938 49.855 243.469Z" fill="#6097B2"/>
<path d="M59.502 229.99C59.502 230.521 59.1046 230.951 58.615 230.951C58.1245 230.951 57.728 230.521 57.728 229.99C57.728 229.458 58.1254 229.028 58.615 229.028C59.1046 229.028 59.502 229.458 59.502 229.99Z" fill="#6097B2"/>
<path d="M39.9522 249.628C39.9522 250.16 39.5548 250.589 39.0652 250.589C38.5756 250.589 38.1782 250.159 38.1782 249.628C38.1782 249.097 38.5756 248.667 39.0652 248.667C39.5548 248.667 39.9522 249.096 39.9522 249.628Z" fill="#6097B2"/>
<path d="M50.7429 233.869C50.7429 234.4 50.3456 234.831 49.856 234.831C49.3663 234.831 48.969 234.4 48.969 233.869C48.969 233.337 49.3663 232.908 49.856 232.908C50.3456 232.908 50.7429 233.338 50.7429 233.869Z" fill="#6097B2"/>
<path d="M33.7717 277.173C33.7717 277.705 33.3744 278.135 32.8848 278.135C32.3943 278.135 31.9978 277.704 31.9978 277.173C31.9978 276.642 32.3952 276.212 32.8848 276.212C33.3744 276.212 33.7717 276.642 33.7717 277.173Z" fill="#6097B2"/>
<path d="M22.6257 268.679C22.6257 269.211 22.2284 269.641 21.7388 269.641C21.2492 269.641 20.8518 269.21 20.8518 268.679C20.8518 268.149 21.2492 267.718 21.7388 267.718C22.2284 267.718 22.6257 268.149 22.6257 268.679Z" fill="#6097B2"/>
<path d="M54.0627 266.756C54.5526 266.756 54.9497 266.325 54.9497 265.794C54.9497 265.263 54.5526 264.833 54.0627 264.833C53.5729 264.833 53.1758 265.263 53.1758 265.794C53.1758 266.325 53.5729 266.756 54.0627 266.756Z" fill="#6097B2"/>
<path d="M72.4065 271.806C72.8964 271.806 73.2935 271.376 73.2935 270.845C73.2935 270.314 72.8964 269.883 72.4065 269.883C71.9166 269.883 71.5195 270.314 71.5195 270.845C71.5195 271.376 71.9166 271.806 72.4065 271.806Z" fill="#6097B2"/>
<path d="M72.4065 243.469C72.4065 244.001 72.0092 244.43 71.5195 244.43C71.0299 244.43 70.6326 244 70.6326 243.469C70.6326 242.938 71.0299 242.508 71.5195 242.508C72.0092 242.508 72.4065 242.938 72.4065 243.469Z" fill="#6097B2"/>
<path d="M83.0708 245.486C83.0708 246.017 82.6735 246.447 82.1838 246.447C81.6942 246.447 81.2969 246.016 81.2969 245.486C81.2969 244.955 81.6942 244.524 82.1838 244.524C82.6735 244.524 83.0708 244.955 83.0708 245.486Z" fill="#6097B2"/>
<path d="M61.7671 278.135C61.7671 278.667 61.3697 279.097 60.8801 279.097C60.3905 279.097 59.9932 278.666 59.9932 278.135C59.9932 277.605 60.3905 277.174 60.8801 277.174C61.3697 277.174 61.7671 277.604 61.7671 278.135Z" fill="#6097B2"/>
<path d="M53.176 296.204C53.6659 296.204 54.063 295.773 54.063 295.242C54.063 294.711 53.6659 294.281 53.176 294.281C52.6862 294.281 52.2891 294.711 52.2891 295.242C52.2891 295.773 52.6862 296.204 53.176 296.204Z" fill="#6097B2"/>
<path d="M39.5562 298.941C40.046 298.941 40.4431 298.511 40.4431 297.98C40.4431 297.449 40.046 297.018 39.5562 297.018C39.0663 297.018 38.6692 297.449 38.6692 297.98C38.6692 298.511 39.0663 298.941 39.5562 298.941Z" fill="#6097B2"/>
<path d="M77.0149 284.348C77.5048 284.348 77.9019 283.918 77.9019 283.387C77.9019 282.856 77.5048 282.426 77.0149 282.426C76.525 282.426 76.1279 282.856 76.1279 283.387C76.1279 283.918 76.525 284.348 77.0149 284.348Z" fill="#6097B2"/>
<path d="M65.6423 290.679C65.6423 291.211 65.245 291.641 64.7554 291.641C64.2658 291.641 63.8684 291.21 63.8684 290.679C63.8684 290.149 64.2658 289.718 64.7554 289.718C65.245 289.718 65.6423 290.148 65.6423 290.679Z" fill="#6097B2"/>
<path d="M47.1934 312.156C47.1934 312.687 46.796 313.117 46.3064 313.117C45.8159 313.117 45.4194 312.687 45.4194 312.156C45.4194 311.624 45.8168 311.194 46.3064 311.194C46.796 311.194 47.1934 311.624 47.1934 312.156Z" fill="#6097B2"/>
<path d="M59.9929 308.109C60.4828 308.109 60.8799 307.679 60.8799 307.148C60.8799 306.617 60.4828 306.186 59.9929 306.186C59.5031 306.186 59.106 306.617 59.106 307.148C59.106 307.679 59.5031 308.109 59.9929 308.109Z" fill="#6097B2"/>
<path d="M73.178 302.443C73.6678 302.443 74.0649 302.013 74.0649 301.482C74.0649 300.951 73.6678 300.52 73.178 300.52C72.6881 300.52 72.291 300.951 72.291 301.482C72.291 302.013 72.6881 302.443 73.178 302.443Z" fill="#6097B2"/>
<path d="M68.1155 318.027C68.1155 318.559 67.7181 318.989 67.2285 318.989C66.7389 318.989 66.3416 318.558 66.3416 318.027C66.3416 317.496 66.7389 317.066 67.2285 317.066C67.7181 317.066 68.1155 317.496 68.1155 318.027Z" fill="#6097B2"/>
<path d="M67.1456 368.674H52.5727C51.6217 365.733 53.3757 362.782 53.0806 360.191C52.5727 355.809 54.926 358.23 54.926 358.23C55.3416 353.518 61.4514 352.628 61.3866 354.728C61.2852 357.82 61.8388 359.73 62.6509 361.011C64.2935 363.581 66.9885 363.562 67.4499 365.402C67.4964 365.583 67.533 365.763 67.5604 365.922C68.0126 368.224 67.1456 368.674 67.1456 368.674Z" fill="#164353"/>
<path d="M67.5603 365.923C64.5419 366.684 57.5834 365.694 57.3066 363.792C57.0389 361.951 60.7863 361.091 62.65 361.011C64.2926 363.581 66.9875 363.562 67.4489 365.402C67.4963 365.583 67.5328 365.763 67.5603 365.923Z" fill="#205260"/>
<path d="M7.23863 246.311C5.68831 244.78 3.16874 247.311 3.16874 247.311C3.16874 247.311 4.52537 249.492 3.64838 250.372C2.77139 251.253 1.75641 249.242 0.0306998 250.122C-0.108122 250.192 -0.255256 250.282 -0.394078 250.382C-1.74156 251.253 -3.14475 253.084 -4.27943 254.474C-4.51052 254.754 -4.73164 255.015 -4.93447 255.245C-6.25452 256.745 -9.6594 257.625 -10.297 253.624C-10.9337 249.622 -6.78071 244.93 -2.22121 240.618C2.3383 236.307 5.28182 238.867 5.28182 238.867C5.28182 238.867 6.31509 240.679 6.31509 241.809C6.31509 242.929 7.2378 243.489 7.75485 244.56C8.27273 245.621 7.23863 246.311 7.23863 246.311Z" fill="#164353"/>
<path d="M269.462 361.843C268.743 361.434 268.081 360.535 267.486 359.398C267.486 359.398 266.974 356.034 267.486 352.501C267.998 348.967 266.579 346.081 261.964 344.997C257.478 343.944 254.816 346.287 255.852 356.064L255.852 356.067C255.17 360.128 255.029 364.766 256.586 368.674H270.396C270.396 368.674 272.573 363.614 269.462 361.843Z" fill="#CFD8DC"/>
<path d="M281.577 309.149C281.577 309.149 281.577 318.903 276.501 328.907C271.332 339.094 264.942 353.076 264.942 353.076C264.942 353.076 260.685 357.578 257.98 350.12C257.98 350.12 259.889 324.155 264.273 314.65C268.656 305.147 281.577 309.149 281.577 309.149Z" fill="#FF8B66"/>
<path d="M347.797 277.385C347.797 277.385 356.022 314.879 361.254 324.769C361.254 324.769 360.05 328.907 354.385 330.158C354.385 330.158 336.491 301.646 335.338 289.64C334.183 277.634 347.797 277.385 347.797 277.385Z" fill="#FF8B66"/>
<path d="M351.774 286.198C349.587 291.91 332.688 292.221 332.688 292.221L331.396 290.16L331.055 289.62L328.415 285.399C328.415 285.399 300.414 255.626 294.959 258.127H294.95C294.793 258.207 294.637 258.297 294.489 258.417C290.742 261.318 290.391 277.215 285.961 303.896C285.536 306.427 284.595 309.378 283.884 311.419C283.801 311.639 283.727 311.85 283.653 312.05C283.248 313.181 282.961 313.901 282.961 313.901C265.868 321.404 260.229 306.578 260.229 306.578C260.229 306.578 260.432 306.148 260.727 305.458C260.792 305.307 260.866 305.138 260.939 304.958C261.834 302.817 263.265 299.105 263.247 297.145C263.228 294.994 263.21 292.923 263.201 290.932C263.201 290.751 263.201 290.581 263.192 290.412C263.164 283.999 263.173 278.426 263.21 273.585V273.075C263.228 270.964 263.256 268.993 263.293 267.152V266.632C263.441 258.199 263.69 252.566 263.957 248.814C263.966 248.644 263.985 248.464 263.995 248.304C264.465 241.991 264.964 241.371 264.964 241.371L261.54 215.57H298.9C298.9 215.57 304.511 221.662 311.793 229.706C311.95 229.866 312.097 230.026 312.245 230.196C314.884 233.107 317.736 236.268 320.597 239.48C320.717 239.61 320.828 239.729 320.93 239.85C322.056 241.111 323.182 242.371 324.298 243.622C324.437 243.772 324.566 243.932 324.705 244.083C328.452 248.294 332.088 252.446 335.199 256.078C335.309 256.198 335.411 256.318 335.513 256.438C339.767 261.43 343.007 265.422 344.124 267.283C347.087 272.194 349.393 278.588 350.668 282.539C350.668 282.539 350.668 282.539 350.668 282.549C350.733 282.729 350.787 282.889 350.843 283.059C351.442 284.978 351.774 286.198 351.774 286.198Z" fill="#8B383E"/>
<path d="M270.557 245.231C269.034 247.181 266.819 248.382 263.958 248.812C263.967 248.642 263.986 248.462 263.996 248.302C266.691 247.882 268.776 246.742 270.207 244.901C272.772 241.619 272.357 237.188 272.348 237.148L272.809 237.088C272.827 237.278 273.252 241.779 270.557 245.231Z" fill="#662C33"/>
<path d="M312.246 230.194C312.098 230.204 311.96 230.214 311.812 230.214C307.659 230.214 303.321 225.293 303.099 225.042L303.432 224.692C303.487 224.762 307.807 229.664 311.793 229.703C311.95 229.865 312.098 230.024 312.246 230.194Z" fill="#662C33"/>
<path d="M283.884 311.42C283.8 311.639 283.726 311.85 283.652 312.05C280.884 313.151 278.346 313.601 276.029 313.601C268.646 313.601 263.532 308.969 260.727 305.457C260.792 305.307 260.866 305.137 260.939 304.957C264.53 309.518 272.2 316.251 283.884 311.42Z" fill="#662C33"/>
<path d="M293.916 248.832C294.535 251.703 294.931 254.835 294.949 258.126C294.792 258.206 294.636 258.296 294.488 258.416C294.47 243.31 286.403 231.524 286.311 231.395L286.68 231.095C286.754 231.195 291.535 238.198 293.796 248.312C294.737 247.642 295.374 246.682 295.641 245.442C296.804 240.14 291.515 231.476 291.47 231.386L291.848 231.105C292.069 231.476 297.294 240.04 296.093 245.552C295.781 246.991 295.042 248.082 293.916 248.832Z" fill="#662C33"/>
<path d="M335.512 256.436C334.137 258.057 332.845 259.437 332.725 259.557L332.475 259.827L332.356 259.467C330.547 254.334 318.918 243.21 318.798 243.1L318.659 242.959L320.597 239.477C320.717 239.607 320.828 239.727 320.93 239.848L319.306 242.769C321.567 243.62 323.173 243.769 324.298 243.62C324.437 243.769 324.566 243.93 324.705 244.08C324.327 244.15 323.92 244.19 323.496 244.19C322.453 244.19 321.262 243.96 319.924 243.52C322.563 246.1 330.769 254.344 332.652 258.936C333.381 258.156 334.303 257.126 335.199 256.075C335.309 256.196 335.411 256.316 335.512 256.436Z" fill="#662C33"/>
<path d="M271.701 290.841L271.517 290.88C271.341 290.931 269.247 291.4 266.838 291.4C265.629 291.4 264.355 291.281 263.202 290.93C263.202 290.75 263.202 290.579 263.193 290.41C266.238 291.361 270.308 290.63 271.231 290.44L270.456 269.621C270.022 270.762 269.164 272.323 267.558 273.182C266.792 273.602 265.934 273.802 264.993 273.802C264.43 273.802 263.839 273.732 263.212 273.582V273.072C264.808 273.472 266.193 273.363 267.346 272.732C269.303 271.681 270.078 269.43 270.318 268.54C268.777 268.79 265.666 267.94 263.295 267.15V266.63C265.851 267.47 269.312 268.441 270.558 267.97L270.853 267.861L271.701 290.841Z" fill="#662C33"/>
<path d="M350.841 283.057C348.156 285.928 342.655 290.32 334.192 290.32C333.297 290.32 332.365 290.27 331.395 290.16L331.054 289.62C341.344 290.9 347.796 285.668 350.666 282.546C350.731 282.728 350.786 282.887 350.841 283.057Z" fill="#662C33"/>
<path d="M305.803 105.873C305.803 105.873 304.777 103.31 300.439 103.31C297.097 103.309 295.817 105.31 295.817 105.31C293.817 111.646 291.669 135.906 290.899 136.769C290.509 137.207 265.715 155.308 265.715 155.308C279.17 155.581 287.565 173.56 287.565 173.56C287.999 167.652 303.195 144.242 303.358 142.154C303.666 138.217 310.094 120.63 305.803 105.873Z" fill="#CE364C"/>
<path d="M262.76 232.723C262.76 232.723 262.636 237.784 264.146 238.118C265.656 238.451 277.962 242.393 292.113 235.421C306.265 228.447 308.726 223.279 304.572 219.444C300.419 215.609 262.76 232.723 262.76 232.723Z" fill="#CE364C"/>
<path d="M257.09 158.812C257.09 158.812 244.215 157.158 236.831 160.622C236.831 160.622 234.772 170.527 244.915 192.691C255.059 214.857 252.706 228.818 264.146 234.073C274.287 238.732 304.188 224.867 305.128 220.269C307.492 208.694 289.207 188.379 288.053 176.607C286.899 164.836 276.286 147.138 257.09 158.812Z" fill="#F24052"/>
<path d="M236.831 160.622C227.833 164.086 217.71 175.038 217.696 180.316C217.681 185.595 226.139 187.63 226.139 187.63L240.005 180.316C240.005 180.316 243.971 177.315 241.447 168.565C238.921 159.816 236.831 160.622 236.831 160.622Z" fill="#CE364C"/>
<path d="M273.805 170.382C271.116 170.382 267.781 169.333 265.709 167.731C264.567 166.849 263.886 165.854 263.739 164.853C263.23 161.389 266.342 159.627 266.476 159.554L266.895 160.444C266.787 160.505 264.249 161.955 264.651 164.696C264.757 165.426 265.309 166.193 266.244 166.916C268.564 168.709 272.577 169.761 275.189 169.261C276.367 169.036 277.137 168.577 277.479 167.897C277.897 167.065 277.54 166.125 277.536 166.115L278.384 165.719C278.407 165.775 278.922 167.1 278.295 168.362C277.815 169.329 276.824 169.962 275.35 170.244C274.873 170.338 274.352 170.382 273.805 170.382Z" fill="#CFD8DC"/>
<path d="M262.394 180.939C260.403 180.939 257.097 180.038 256.634 176.495C256.398 174.692 256.55 173.188 256.684 171.862C256.881 169.909 257.037 168.365 255.987 166.516C254.253 163.464 251.892 163.259 251.792 163.251L251.848 162.253C251.966 162.26 254.774 162.475 256.773 165.992C257.989 168.133 257.8 169.998 257.601 171.971C257.467 173.301 257.328 174.676 257.547 176.355C258.048 180.178 262.543 179.938 262.734 179.928L262.788 180.926C262.664 180.934 262.532 180.939 262.394 180.939Z" fill="#CFD8DC"/>
<path d="M265.195 162.984C265.195 162.984 272.001 157.958 270.386 152.519C268.771 147.079 246.852 147.454 241.199 153.957C235.546 160.46 253.428 164.776 253.428 164.776C254.812 161.752 263.656 161.419 265.195 162.984Z" fill="#CE364C"/>
<path d="M252.957 162.132C249.728 160.944 247.812 158.417 248.505 155.498C249.197 152.581 263.082 152.503 265.715 154.834C268.348 157.166 264.639 166.431 252.957 162.132Z" fill="#A02E44"/>
<path d="M251.42 153.931C251.42 153.931 254.277 159.223 252.957 162.132C252.957 162.132 262.76 165.8 262.76 159.855C262.76 159.855 260.912 155.399 261.608 152.519L251.42 153.931Z" fill="#EF6E4B"/>
<path d="M248.152 149.31C248.152 149.31 243.335 140.949 243.782 132.961C244.005 128.968 245.9 127.404 245.9 127.404C245.9 127.404 244.37 125.099 246.009 121.576C246.009 121.576 248.278 124.422 256.24 123.524C263.917 122.659 264.683 128.592 264.683 128.592C270.171 129.476 266.469 147.471 262.639 149.311L248.152 149.31Z" fill="#FFB878"/>
<path d="M246.108 141.589C246.108 141.589 243.34 138.595 242.999 142.096C242.605 146.151 246.003 147.785 246.667 146.495C247.33 145.204 246.108 141.589 246.108 141.589Z" fill="#FF8B66"/>
<path d="M265.493 141.8C265.493 141.8 268.261 138.806 268.602 142.306C268.996 146.362 265.598 147.996 264.934 146.706C264.27 145.416 265.493 141.8 265.493 141.8Z" fill="#FF8B66"/>
<path d="M255.508 156.28C249.366 156.28 245.9 151.93 245.9 138.887C245.9 132.159 249.058 128.032 255.938 128.032C262.818 128.032 265.715 132.159 265.715 138.887C265.715 152.902 261.854 156.28 255.508 156.28Z" fill="#FF8B66"/>
<path d="M263.681 143.538C263.789 144.208 263.251 144.868 262.479 145.014C261.707 145.16 260.993 144.736 260.886 144.067C260.779 143.398 261.316 142.737 262.089 142.591C262.86 142.445 263.573 142.87 263.681 143.538Z" fill="#DB614D"/>
<path d="M251.047 143.903C251.006 144.581 250.339 145.086 249.557 145.031C248.775 144.976 248.174 144.381 248.215 143.703C248.255 143.026 248.922 142.52 249.704 142.576C250.487 142.631 251.088 143.225 251.047 143.903Z" fill="#DB614D"/>
<path d="M260.976 136.545C260.896 136.559 260.812 136.538 260.743 136.48C259.765 135.666 258.298 135.954 258.276 135.958C258.112 135.986 257.949 135.873 257.918 135.692C257.886 135.511 257.996 135.338 258.163 135.303C258.227 135.288 259.924 134.958 261.117 135.953C261.252 136.065 261.276 136.274 261.173 136.42C261.123 136.49 261.051 136.532 260.976 136.545Z" fill="#FFB878"/>
<path d="M249.221 136.591C249.145 136.581 249.073 136.541 249.021 136.472C248.914 136.33 248.933 136.12 249.063 136.004C250.227 134.97 251.931 135.244 251.997 135.257C252.164 135.285 252.279 135.455 252.253 135.636C252.227 135.818 252.064 135.939 251.903 135.914C251.892 135.91 250.398 135.679 249.453 136.519C249.384 136.579 249.3 136.602 249.221 136.591Z" fill="#FFB878"/>
<path d="M260.341 140.304C260.341 141.13 259.998 141.801 259.574 141.8C259.15 141.8 258.807 141.13 258.807 140.304C258.807 139.476 259.15 138.806 259.574 138.806C259.998 138.806 260.341 139.476 260.341 140.304Z" fill="#1A4850"/>
<path d="M252.138 140.304C252.138 141.13 251.795 141.801 251.371 141.8C250.947 141.8 250.604 141.13 250.604 140.304C250.604 139.476 250.947 138.806 251.371 138.806C251.795 138.806 252.138 139.476 252.138 140.304Z" fill="#1A4850"/>
<path d="M247.784 129.476C247.784 129.476 254.331 132.074 263.715 131.343C263.715 131.343 265.716 134.046 265.473 143.586C265.473 143.586 270.968 126.402 254.927 126.402C238.885 126.402 246.112 143.205 246.112 143.205C246.112 143.205 244.8 132.695 247.784 129.476Z" fill="#FFB878"/>
<path d="M255.897 144.749L255.438 144.248L256.653 142.939C255.475 141.133 255.481 136.955 255.483 136.769L256.135 136.772C256.135 136.817 256.129 141.313 257.331 142.726L257.545 142.976L255.897 144.749Z" fill="#DB614D"/>
<path d="M251.821 146.927C251.821 146.927 257.867 147.204 260.918 146.329C260.918 146.329 261.458 151.095 256.773 151.331C251.821 151.58 251.821 146.927 251.821 146.927Z" fill="#1A4850"/>
<path d="M277.654 164.944C278.808 164.711 278.693 167.984 277.654 167.035C276.616 166.087 276.5 165.176 277.654 164.944Z" fill="#CFD8DC"/>
<path d="M263.742 180.802C263.567 182.06 260.752 180.868 261.919 180.116C263.085 179.364 263.917 179.544 263.742 180.802Z" fill="#CFD8DC"/>
<path d="M251.359 187.63C251.359 187.63 249.526 192.722 249.631 195.599C249.736 198.476 250.604 198.101 250.604 198.101C250.604 198.101 249.215 198.693 248.951 200.351C248.688 202.009 252.551 203.228 252.816 203.228C253.081 203.228 255.807 202.102 255.807 202.102L256.378 192.692L253.965 191.05L251.359 187.63Z" fill="#EF6E4B"/>
<path d="M252.816 186.971C252.816 186.971 256.151 189.222 257.443 190.598C258.734 191.974 257.997 202.603 257.443 203.103C256.888 203.603 252.636 204.635 251.821 204.057C251.005 203.478 252.138 200.352 252.138 200.352C252.138 200.352 254.274 199.852 253.965 200.727C253.658 201.603 253.965 202.353 253.965 202.353L254.842 201.978C254.842 201.978 254.412 199.602 254.842 197.851C255.273 196.1 251.836 194.254 251.42 191.05C251.004 187.846 252.816 186.971 252.816 186.971Z" fill="#FF8B66"/>
<path d="M218.249 181.792C217.181 176.794 221.758 175.025 228.124 175.877C235.508 176.866 250.67 178.959 253.966 187.63C253.966 187.63 255.043 191.05 252.257 192.692C244.468 197.284 220.254 191.18 218.249 181.792Z" fill="#CE364C"/>
<path d="M241.346 178.481C241.346 178.481 232.547 174.518 228.163 174.117C223.779 173.716 234.224 177.868 241.346 178.481Z" fill="#A02E44"/>
<path d="M307.308 92.6058C306.644 93.4258 305.545 96.6174 305.545 96.6174C305.083 99.2981 304.816 100.779 303.948 102.009C303.089 103.24 303.541 105.411 303.541 105.411C303.541 105.411 300.182 107.282 297.358 104.97C297.358 104.97 297.653 102.82 297.358 102.21C296.777 100.989 294.912 100.339 294.275 97.878C293.639 95.4073 291.728 92.6554 291.728 92.6554C291.728 92.6554 292.273 91.3749 293.269 92.1553C294.275 92.9455 294.912 94.9162 295.456 95.1162C295.567 95.1559 295.678 95.1865 295.789 95.1964C295.789 95.1964 295.798 95.1964 295.816 95.2063C296.232 95.2667 296.656 95.1667 296.915 94.8963C296.933 94.8864 296.961 94.8666 296.979 94.836C297.893 93.6853 298.106 90.3035 298.068 88.7933C298.013 86.6929 298.087 83.7914 299.268 84.2816C300.449 84.7718 299.369 85.9423 300.283 90.5748L300.726 90.6351C300.809 90.9649 301.621 87.8238 301.815 84.8727C301.954 82.8417 303.181 83.5923 303.448 84.2321C303.725 84.8727 303.309 86.8929 303.227 88.3635C303.162 89.334 303.088 90.3441 303.043 90.9451L303.56 91.2551C305.424 87.7337 304.787 86.273 305.876 86.2027C306.956 86.1324 306.569 89.1042 305.987 90.2342C305.738 90.7243 305.498 91.7444 305.304 92.7455C307.214 90.354 307.002 89.1042 307.879 89.2538C308.784 89.4142 307.972 91.7849 307.308 92.6058Z" fill="#FF8B66"/>
<path d="M299.057 98.1176C298.411 96.1866 296.103 95.3062 295.817 95.2062C296.233 95.2666 296.657 95.1666 296.915 94.8962C299.176 95.9965 299.057 98.1176 299.057 98.1176Z" fill="#EF6E4B"/>
<path d="M258.965 354C258.965 354 257.688 351.175 258.826 349.962C259.964 348.748 261.305 350.999 263.249 350.499C265.194 349.998 265.645 348.5 266.15 350.541C266.656 352.583 266.04 359.002 258.965 354Z" fill="#CFD8DC"/>
<path d="M266.286 353.875C266.286 353.875 261.062 355.881 258.355 353.875L259.043 356.326C259.043 356.326 264.721 356.977 265.504 355.427L266.286 353.875Z" fill="#ADBEC4"/>
<path d="M266.215 356.921C266.215 356.921 261.433 356.201 259.125 357.488V358.704C259.125 358.704 265.361 357.126 267.376 358.704L266.215 356.921Z" fill="#ADBEC4"/>
<path d="M258.896 361.227C258.896 361.227 259.823 358.777 262.733 358.601C265.642 358.425 267.606 360.162 267.606 360.162C267.606 360.162 262.991 358.101 258.896 361.227Z" fill="#ADBEC4"/>
<path d="M382 327.186C372.817 340.471 360.32 343.022 360.32 343.022C356.694 339.881 356.601 336.16 356.601 336.16C356.601 336.16 353.103 332.778 352.642 331.158C352.181 329.537 355.641 324.655 357.718 325.156C359.148 325.495 359.979 326.736 360.357 327.467C358.641 323.275 360.015 321.814 362.452 322.175C364.99 322.545 362.591 323.196 364.409 325.406C364.538 325.567 364.685 325.696 364.843 325.816C365.175 326.067 365.572 326.236 366.024 326.326C366.42 326.406 366.863 326.426 367.325 326.396C367.565 326.386 367.814 326.357 368.063 326.316C368.533 326.236 369.013 326.106 369.512 325.936C370.278 325.676 371.071 325.306 371.847 324.846C375.021 322.965 376.36 322.324 378.778 322.995C381.187 323.655 381.15 325.636 381.15 325.636L382 327.186Z" fill="#CFD8DC"/>
<path d="M382 327.186C372.817 340.471 360.32 343.022 360.32 343.022C366.698 340.051 372.558 336.16 376.563 331.367C380.56 326.576 382 327.186 382 327.186Z" fill="#ADBEC4"/>
<path d="M364.843 325.815C365.175 326.066 365.572 326.235 366.024 326.325C363.596 326.855 363.421 329.207 363.421 329.207L362.388 328.846C362.609 326.025 364.667 325.825 364.843 325.815Z" fill="#ADBEC4"/>
<path d="M366.476 329.487L365.396 329.527C364.99 327.866 365.516 326.876 366.024 326.325C366.42 326.405 366.863 326.425 367.325 326.395C366.042 327.766 366.476 329.487 366.476 329.487Z" fill="#ADBEC4"/>
<path d="M369.143 328.846L368.073 328.996C367.657 327.816 367.778 326.935 368.064 326.315C368.534 326.235 369.014 326.105 369.513 325.935C368.626 327.366 369.143 328.846 369.143 328.846Z" fill="#ADBEC4"/>
<path d="M266.381 205.479C266.381 205.479 268.75 219.343 263.957 224.868C259.165 230.393 262.336 225.853 263.765 218.73C265.195 211.607 264.106 204.103 266.381 205.479Z" fill="#CE364C"/>
<path d="M288.499 199.292C288.499 199.292 296.053 201.982 300.005 209.546C300.005 209.546 294.728 197.231 288.499 199.292Z" fill="#CE364C"/>
<path d="M92.2791 96.2875C93.2858 96.3046 96.2052 97.5643 96.2052 97.5643C98.3482 98.9934 99.5402 99.7729 100.964 99.9017C102.381 100.039 102.963 102.678 102.963 102.678C102.963 102.678 108.554 104.003 108.87 100.183C108.87 100.183 105.745 95.3882 105.525 94.7412C105.081 93.4545 105.888 91.5208 104.633 89.3564C103.372 87.1857 102.773 83.8039 102.773 83.8039C102.773 83.8039 101.532 83.3822 101.396 84.7068C101.262 86.0458 102.181 87.8804 101.953 88.4526C101.905 88.5679 101.852 88.6779 101.785 88.7734C101.785 88.7734 101.779 88.7806 101.773 88.8022C101.535 89.1762 101.182 89.4501 100.824 89.4762C100.805 89.4843 100.772 89.4934 100.739 89.4879C99.339 89.4501 96.8843 87.3497 95.8768 86.3062C94.4778 84.851 92.4445 82.9632 91.9865 84.241C91.5285 85.5196 93.0538 85.4376 95.6075 89.2807L95.3515 89.6772C95.521 89.9655 92.8286 88.5094 90.6806 86.6838C89.1992 85.4313 88.8883 86.9217 89.146 87.5659C89.3979 88.2183 91.0588 89.2411 92.1195 90.162C92.8261 90.7612 93.5667 91.3802 94.0081 91.747L93.8735 92.3705C90.2142 91.5037 89.6431 90.0115 88.8642 90.8396C88.0912 91.6596 90.383 93.3437 91.5467 93.6356C92.0488 93.7645 92.9084 94.2565 93.7222 94.7728C90.8044 94.7025 90.092 93.6924 89.6066 94.4971C89.1061 95.3315 91.2724 96.2704 92.2791 96.2875Z" fill="#FF8B66"/>
<path d="M101.587 93.3599C100.701 91.5442 101.648 89.0996 101.772 88.8031C101.534 89.177 101.181 89.451 100.823 89.4771C100.056 92.0317 101.587 93.3599 101.587 93.3599Z" fill="#EF6E4B"/>
<path d="M256.75 96.2875C255.744 96.3046 252.824 97.5643 252.824 97.5643C250.681 98.9934 249.489 99.7729 248.065 99.9017C246.648 100.039 246.066 102.678 246.066 102.678C246.066 102.678 240.476 104.003 240.16 100.183C240.16 100.183 243.285 95.3882 243.504 94.7412C243.948 93.4545 243.142 91.5208 244.396 89.3564C245.658 87.1857 246.256 83.8039 246.256 83.8039C246.256 83.8039 247.498 83.3822 247.633 84.7068C247.768 86.0458 246.848 87.8804 247.077 88.4526C247.124 88.5679 247.177 88.6779 247.246 88.7734C247.246 88.7734 247.251 88.7806 247.257 88.8022C247.495 89.1762 247.848 89.4501 248.207 89.4762C248.226 89.4843 248.258 89.4934 248.291 89.4879C249.691 89.4501 252.146 87.3497 253.154 86.3062C254.553 84.851 256.587 82.9632 257.045 84.241C257.503 85.5196 255.977 85.4376 253.424 89.2807L253.68 89.6772C253.51 89.9655 256.203 88.5094 258.351 86.6838C259.832 85.4313 260.143 86.9217 259.885 87.5659C259.633 88.2183 257.972 89.2411 256.912 90.162C256.205 90.7612 255.464 91.3802 255.023 91.747L255.158 92.3705C258.817 91.5037 259.388 90.0115 260.167 90.8396C260.94 91.6596 258.648 93.3437 257.484 93.6356C256.982 93.7645 256.123 94.2565 255.309 94.7728C258.226 94.7025 258.939 93.6924 259.425 94.4971C259.923 95.3315 257.757 96.2704 256.75 96.2875Z" fill="#FF8B66"/>
<path d="M247.442 93.3599C248.328 91.5442 247.381 89.0996 247.257 88.8031C247.495 89.177 247.848 89.451 248.207 89.4771C248.973 92.0317 247.442 93.3599 247.442 93.3599Z" fill="#EF6E4B"/>
<path d="M207.624 279.969L196.885 207.891L175.382 210.494L153.878 207.891L143.139 279.969L137.981 349.876C137.981 349.876 139.621 355.668 150.348 351.666C150.348 351.666 158.307 286.826 159.537 285.398C160.767 283.97 173.405 241.618 173.405 241.618H177.358C177.358 241.618 189.995 283.97 191.226 285.398C192.456 286.826 200.414 351.666 200.414 351.666C211.142 355.668 212.781 349.876 212.781 349.876L207.624 279.969Z" fill="#0E3944"/>
<path d="M168.607 138.091C169.965 139.524 176.648 142.109 180.176 138.091L182.569 140.639C182.569 140.639 179.841 147.593 175.053 147.837C170.265 148.08 166.805 141.649 166.805 141.649L168.607 138.091Z" fill="#0C476B"/>
<path d="M187.532 137.306C195.531 133.573 221.372 123.651 221.372 123.651C221.372 123.651 238.744 100.059 242.287 96.5571C242.287 96.5571 246.132 97.3077 247.258 102.497C247.258 102.497 236.072 128.461 229.992 135.894C223.911 143.327 193.115 159.403 193.115 159.403L187.532 137.306Z" fill="#0C476B"/>
<path d="M159.537 136.77C161.917 135.139 173.863 143.802 173.863 143.802C173.863 143.802 189.394 134.862 193.039 136.594C193.039 136.594 196.325 141.359 197.644 153.608C198.964 165.857 199.051 216.265 199.051 216.265C199.051 216.265 188.609 220.27 174.485 220.27C158.383 220.27 149.72 215.264 149.72 215.264C149.72 215.264 146.847 145.47 159.537 136.77Z" fill="#FFB878"/>
<path d="M169.238 135.461C169.238 135.461 170.958 141.326 169.238 143.586C169.238 143.586 171.024 147.649 174.235 147.829C177.945 148.037 179.232 143.586 179.232 143.586C179.232 143.586 177.27 137.921 179.232 135.931L169.238 135.461Z" fill="#EF6E4B"/>
<path d="M164.949 129.688C164.949 129.688 161.329 122.135 162.046 114.063C162.762 105.992 173.982 104.141 181.542 108.107C181.542 108.107 179.298 105.728 180.176 105.067C181.055 104.406 182.569 108.636 182.569 108.636C182.569 108.636 184.957 107.843 185.323 108.636C185.688 109.43 182.876 109.863 182.876 109.863C182.876 109.863 187.755 112.796 183.197 128.406L164.949 129.688Z" fill="#8B383E"/>
<path d="M164.405 124.905C164.405 124.905 161.706 121.986 161.373 125.399C160.988 129.354 164.302 130.947 164.949 129.689C165.597 128.43 164.405 124.905 164.405 124.905Z" fill="#FF8B66"/>
<path d="M183.306 125.111C183.306 125.111 186.005 122.191 186.338 125.605C186.723 129.56 183.409 131.153 182.762 129.895C182.114 128.636 183.306 125.111 183.306 125.111Z" fill="#FF8B66"/>
<path d="M173.571 139.229C167.582 139.229 164.202 134.988 164.202 122.269C164.202 115.709 167.281 111.684 173.99 111.684C180.698 111.684 183.524 115.709 183.524 122.269C183.524 135.936 179.758 139.229 173.571 139.229Z" fill="#FF8B66"/>
<path d="M181.54 126.805C181.645 127.458 181.12 128.102 180.367 128.244C179.614 128.387 178.919 127.973 178.814 127.321C178.708 126.668 179.234 126.024 179.987 125.882C180.739 125.739 181.435 126.153 181.54 126.805Z" fill="#DB614D"/>
<path d="M169.221 127.161C169.181 127.823 168.531 128.315 167.768 128.261C167.006 128.206 166.42 127.627 166.46 126.966C166.5 126.305 167.15 125.812 167.913 125.866C168.675 125.92 169.261 126.5 169.221 127.161Z" fill="#DB614D"/>
<path d="M178.801 120.206C178.722 120.206 178.643 120.172 178.584 120.106C177.754 119.162 176.301 119.203 176.279 119.203C176.117 119.204 175.976 119.068 175.971 118.888C175.965 118.709 176.095 118.56 176.26 118.554C176.324 118.55 178.005 118.507 179.017 119.658C179.131 119.788 179.126 119.993 179.008 120.117C178.949 120.177 178.875 120.206 178.801 120.206Z" fill="#8B383E"/>
<path d="M167.524 120.206C167.45 120.206 167.376 120.177 167.317 120.117C167.198 119.993 167.194 119.788 167.307 119.658C168.319 118.506 169.997 118.551 170.063 118.554C170.228 118.56 170.357 118.71 170.352 118.888C170.347 119.068 170.203 119.206 170.044 119.203C170.033 119.2 168.561 119.171 167.741 120.106C167.681 120.173 167.603 120.206 167.524 120.206Z" fill="#8B383E"/>
<path d="M178.283 123.651C178.283 124.457 177.948 125.11 177.535 125.11C177.122 125.11 176.787 124.456 176.787 123.651C176.787 122.844 177.122 122.191 177.535 122.191C177.949 122.191 178.283 122.844 178.283 123.651Z" fill="#1A4850"/>
<path d="M170.285 123.651C170.285 124.457 169.95 125.11 169.537 125.11C169.124 125.11 168.789 124.457 168.789 123.651C168.789 122.844 169.124 122.191 169.537 122.191C169.95 122.191 170.285 122.845 170.285 123.651Z" fill="#1A4850"/>
<path d="M170.285 132.277C170.285 132.277 175.567 133.014 178.284 131.6C178.284 131.6 176.747 135.498 173.863 135.148C170.978 134.8 170.285 132.277 170.285 132.277Z" fill="#1A4850"/>
<path d="M182.9 126.552C182.9 126.552 182.713 119.491 180.176 114.064C180.176 114.064 175.706 116.304 174.722 115.775C173.737 115.246 175.659 114.064 175.659 114.064C175.659 114.064 168.283 116.701 167.84 116.172C167.396 115.643 170.284 114.064 170.284 114.064L165.689 115.775C165.689 115.775 164.273 122.128 164.859 126.553C164.859 126.553 162.884 122.86 162.64 120.309C162.396 117.758 163.43 110.488 170.352 109.959C177.274 109.43 181.161 111.133 182.876 114.578C184.591 118.022 184.378 122.259 182.9 126.552Z" fill="#8B383E"/>
<path d="M174.615 130.237C174.033 130.238 173.442 130.074 173.264 130.019L173.433 129.355C174.062 129.544 175.048 129.655 175.263 129.381C175.337 129.285 175.308 129.063 175.181 128.772C174.315 126.776 174.135 121.724 174.127 121.511L174.764 121.485C174.766 121.537 174.946 126.611 175.757 128.479C176.004 129.048 176.001 129.501 175.749 129.826C175.503 130.141 175.062 130.237 174.615 130.237Z" fill="#DB614D"/>
<path d="M181.242 139.95C181.242 139.95 192.082 176.425 193.114 206.104C193.114 206.104 197.027 207.271 201.432 200.769C205.837 194.266 203.217 142.758 194.778 134.182C194.778 134.182 190.948 133.236 181.242 139.95Z" fill="#105E99"/>
<path d="M183.008 146.328C183.008 146.328 184.949 141.442 184.087 138.09C183.225 134.739 180.176 138.09 180.176 138.09C180.176 138.09 181.408 143.577 183.008 146.328Z" fill="#0C476B"/>
<path d="M161.251 137.306C153.252 133.573 127.411 123.651 127.411 123.651C127.411 123.651 109.995 99.3702 106.452 95.8695C106.452 95.8695 102.068 98.5583 101.771 104.123C101.771 104.123 112.711 128.462 118.792 135.895C124.873 143.328 155.669 159.404 155.669 159.404L161.251 137.306Z" fill="#0C476B"/>
<path d="M167.542 139.95C167.542 139.95 156.702 176.425 155.67 206.104C155.67 206.104 151.757 207.271 147.352 200.769C142.947 194.266 145.567 142.758 154.006 134.182C154.006 134.182 157.835 133.236 167.542 139.95Z" fill="#105E99"/>
<path d="M165.775 146.328C165.775 146.328 163.834 141.442 164.696 138.09C165.558 134.739 168.607 138.09 168.607 138.09C168.607 138.09 167.376 143.577 165.775 146.328Z" fill="#0C476B"/>
<path d="M222.343 368.674H200.821C199.316 359.4 201.716 350.116 201.716 350.116L211.554 348.285C212.45 354.148 213.529 356.459 215.025 357.649C215.034 357.649 215.034 357.649 215.034 357.649C216.123 358.51 217.424 358.79 219.049 359.4C220.904 360.1 221.883 361.371 222.372 362.751C223.341 365.492 222.343 368.674 222.343 368.674Z" fill="#662C33"/>
<path d="M222.372 362.751C217.065 363.471 205.408 364.702 206.119 361.371C206.71 358.589 211.628 357.84 215.025 357.649C215.034 357.649 215.034 357.649 215.034 357.649C216.123 358.51 217.424 358.79 219.049 359.4C220.904 360.1 221.882 361.371 222.372 362.751Z" fill="#8B383E"/>
<path d="M150.263 368.674H128.741C128.741 368.674 128.058 366.494 128.372 364.182C128.63 362.302 129.553 360.33 132.036 359.4C133.901 358.7 135.331 358.44 136.503 357.249C137.777 355.949 138.728 353.548 139.531 348.285L149.369 350.116C149.369 350.116 151.759 359.4 150.263 368.674Z" fill="#662C33"/>
<path d="M128.372 364.182C128.63 362.302 129.553 360.33 132.036 359.4C133.901 358.7 135.331 358.44 136.503 357.249C139.226 358.159 143.038 359.831 144.219 362.361C145.862 365.832 133.282 365.283 128.372 364.182Z" fill="#8B383E"/>
<path d="M304.78 367.004C304.78 367.984 304.687 368.674 304.687 368.674H278.541C278.541 368.114 278.551 367.554 278.578 367.004C278.873 359.59 281.033 353.158 281.033 353.158L287.567 350.116C288.13 353.768 289.579 356.099 291.398 357.62C291.877 358.03 292.376 358.37 292.893 358.66C293.133 358.801 293.373 358.931 293.622 359.051C294.167 359.321 294.73 359.541 295.293 359.721C297.601 360.482 299.936 360.641 301.569 360.911C304.355 361.381 304.78 364.873 304.78 367.004Z" fill="#164353"/>
<path d="M304.779 367.004C304.779 367.984 304.687 368.674 304.687 368.674H278.541C278.541 368.114 278.55 367.554 278.578 367.004H304.779Z" fill="#225866"/>
<path d="M292.891 358.66L289.265 359.92L288.498 358.479L291.396 357.619C291.876 358.03 292.375 358.369 292.891 358.66Z" fill="#225866"/>
<path d="M295.291 359.72L292.846 361.481L291.341 360.84L293.621 359.05C294.166 359.32 294.729 359.54 295.291 359.72Z" fill="#225866"/>
<path d="M204.882 367.004C204.817 367.964 204.586 368.674 204.586 368.674H187.171C186.95 368.124 186.793 367.574 186.682 367.004C184.965 357.969 196.538 346.915 196.538 346.915L200.211 352.228C200.211 352.228 199.787 360.731 202.897 362.502C204.762 363.561 205.002 365.563 204.882 367.004Z" fill="#164353"/>
<path d="M186.682 367.004H204.882C204.817 367.964 204.587 368.674 204.587 368.674H187.172C186.95 368.124 186.792 367.573 186.682 367.004Z" fill="#225866"/>
<path d="M202.102 361.824C202.102 361.824 194.764 360.011 191.419 362.359V361.046C191.419 361.046 197.591 357.795 202.102 361.824Z" fill="#225866"/>
<path d="M200.648 359.807C200.648 359.807 195.963 357.485 191.418 359.807L191.937 358.482C191.937 358.482 197.365 356.257 200.648 359.807Z" fill="#225866"/>
<path d="M296.888 286.689C296.897 294.282 290.677 356.189 290.677 356.189C284.456 356.859 279.473 355.509 279.473 355.509C277.765 324.135 277.599 297.154 277.599 297.154L247.789 272.934L247.715 272.873C247.715 272.873 247.605 273.424 247.401 274.404C245.925 281.507 239.676 311.26 237.073 318.073C234.111 325.837 201.718 358.483 201.718 358.483C195.7 357.583 190.594 352.858 190.594 352.858C202.223 331.95 218.079 310.981 218.079 310.981C219.316 303.448 220.202 286.69 220.728 274.165C220.737 273.975 220.746 273.775 220.755 273.585C221.106 265.101 221.282 258.698 221.282 258.698L215.818 246.553L250.529 232.726L258.309 243.521C258.309 243.521 260.09 245.312 262.896 248.174C263.025 248.303 263.154 248.434 263.283 248.564C273.704 259.217 296.888 283.287 296.888 286.689Z" fill="#8BBDDB"/>
<path d="M220.729 274.164C220.738 273.974 220.747 273.773 220.756 273.583C228.066 269.282 226.839 262.418 226.82 262.349L227.272 262.249C227.29 262.318 228.601 269.692 220.729 274.164Z" fill="#6097B2"/>
<path d="M247.253 268.08C247.502 269.581 247.687 271.202 247.788 272.933L247.714 272.872C247.714 272.872 247.604 273.423 247.4 274.403C247.078 262.638 242.601 255.685 242.546 255.605L242.924 255.315C242.969 255.375 245.794 259.797 247.16 267.51C252.439 262.428 247.27 252.013 247.216 251.913L247.621 251.674C247.678 251.784 253.151 262.808 247.253 268.08Z" fill="#6097B2"/>
<path d="M263.284 248.562C263.275 248.572 263.257 248.572 263.247 248.582C263.036 248.672 262.786 248.712 262.528 248.712C259.971 248.712 255.68 244.83 255.477 244.64L255.781 244.259C257.175 245.54 261.06 248.612 262.897 248.171C263.026 248.303 263.155 248.432 263.284 248.562Z" fill="#6097B2"/>
<path d="M218.249 181.792C218.249 181.792 228.808 179.95 234.098 183.606C239.388 187.262 246.335 196.803 246.335 196.803C246.335 196.803 238.087 197.983 237.154 204.056C237.154 204.056 231.164 188.592 218.249 181.792Z" fill="#ADBEC4"/>
<path d="M202.365 187.762C197.899 190.379 190.433 200.206 190.096 206.248C189.767 212.142 193.795 217.563 196.51 222.171C204.983 236.552 213.904 249.258 217.696 266.124C217.72 266.231 237.077 274.557 259.794 244.957C259.794 244.957 246.957 226.235 242.523 210.296C240.718 203.808 238.881 196.916 235.414 191.197C231.595 184.899 225.054 181.194 218.25 181.791C212.492 182.298 206.765 185.183 202.365 187.762Z" fill="#CFD8DC"/>
<path d="M200.491 181.73C200.491 181.73 203.347 187.021 202.028 189.931C202.028 189.931 211.831 193.599 211.831 187.653C211.831 187.653 209.983 183.198 210.68 180.317L200.491 181.73Z" fill="#EF6E4B"/>
<path d="M222.273 217.961C222.273 217.961 216.82 219.64 215.444 221.732C214.069 223.825 212.844 228.518 212.844 228.518H222.273L224.046 224.983L226.122 220.27L222.273 217.961Z" fill="#EF6E4B"/>
<path d="M213.259 175.829C213.259 175.829 217.087 174.089 214.611 161.608C212.97 153.338 210.606 152.105 209.079 152.032C209.079 152.032 207.21 148.98 200.728 150.441C196.289 151.442 192.747 154.364 191.188 159.771C189.56 165.416 192.816 177.514 197.102 178.718L213.259 175.829Z" fill="#164353"/>
<path d="M214.164 167.395C214.164 167.395 216.577 163.755 217.488 167.343C218.543 171.5 215.258 173.838 214.361 172.616C213.464 171.394 214.164 167.395 214.164 167.395Z" fill="#FF8B66"/>
<path d="M193.978 171.231C193.978 171.231 190.614 168.625 190.815 172.34C191.047 176.643 194.851 177.714 195.339 176.244C195.827 174.774 193.978 171.231 193.978 171.231Z" fill="#FF8B66"/>
<path d="M206.691 184.472C213.099 183.325 216.024 178.142 213.953 164.536C212.885 157.518 208.936 153.802 201.759 155.086C194.583 156.369 192.216 161.214 193.284 168.233C195.508 182.853 200.072 185.656 206.691 184.472Z" fill="#FF8B66"/>
<path d="M196.143 172.706C196.137 173.424 196.804 174.014 197.633 174.022C198.462 174.03 199.138 173.454 199.144 172.736C199.15 172.018 198.483 171.429 197.654 171.42C196.826 171.413 196.15 171.988 196.143 172.706Z" fill="#DB614D"/>
<path d="M209.38 170.73C209.53 171.43 210.306 171.831 211.114 171.629C211.921 171.425 212.453 170.693 212.303 169.993C212.153 169.294 211.377 168.891 210.57 169.095C209.763 169.298 209.23 170.03 209.38 170.73Z" fill="#DB614D"/>
<path d="M197.947 165.127C197.884 165.127 197.82 165.108 197.764 165.066C197.616 164.957 197.578 164.738 197.679 164.578C198.575 163.153 200.373 162.88 200.449 162.868C200.638 162.846 200.789 162.979 200.813 163.17C200.837 163.363 200.713 163.54 200.535 163.566C200.518 163.568 198.945 163.812 198.216 164.973C198.153 165.074 198.05 165.127 197.947 165.127Z" fill="#1A4850"/>
<path d="M210.011 162.97C209.942 162.97 209.873 162.948 209.815 162.899C208.778 162.05 207.219 162.37 207.204 162.374C207.026 162.416 206.858 162.288 206.823 162.097C206.788 161.907 206.902 161.721 207.078 161.683C207.153 161.668 208.937 161.299 210.206 162.337C210.349 162.454 210.377 162.675 210.27 162.83C210.206 162.922 210.109 162.97 210.011 162.97Z" fill="#1A4850"/>
<path d="M199.114 168.708C199.245 169.571 199.71 170.207 200.152 170.128C200.595 170.048 200.847 169.285 200.715 168.423C200.584 167.56 200.119 166.925 199.677 167.004C199.235 167.083 198.983 167.846 199.114 168.708Z" fill="#1A4850"/>
<path d="M207.671 167.178C207.802 168.041 208.267 168.676 208.709 168.597C209.151 168.517 209.403 167.754 209.272 166.892C209.14 166.029 208.676 165.394 208.233 165.473C207.791 165.553 207.539 166.316 207.671 167.178Z" fill="#1A4850"/>
<path d="M210.073 175.01C210.073 175.01 204.515 176.626 201.432 175.984C201.432 175.984 203.562 178.892 206.605 178.053C209.646 177.215 210.073 175.01 210.073 175.01Z" fill="#1A4850"/>
<path d="M210.335 158.222C210.335 158.222 203.103 163.898 194.026 164.331L194.283 173.09C194.283 173.09 185.822 156.191 202.556 153.199C219.29 150.206 214.419 169.081 214.419 169.081C214.419 169.081 213.9 160.94 210.335 158.222Z" fill="#0E3944"/>
<path d="M204.42 172.656L204.375 171.899C204.385 171.898 205.35 171.817 205.601 171.169C205.705 170.902 205.293 170.052 204.93 169.302C204.426 168.259 203.799 166.963 203.532 165.522L204.219 165.372C204.465 166.707 205.066 167.95 205.549 168.95C206.087 170.063 206.476 170.866 206.245 171.463C205.826 172.545 204.478 172.652 204.42 172.656Z" fill="#DB614D"/>
<path d="M214.259 158.244C202.095 152.521 190.614 164.387 190.614 164.387C190.614 164.387 189.275 154.772 191.62 152.521C192.229 151.931 192.884 151.411 193.567 150.951C198.939 147.279 206.082 147.349 209.358 148.61C210.031 148.87 210.548 149.18 210.844 149.51C212.782 151.69 214.259 158.244 214.259 158.244Z" fill="#CE364C"/>
<path d="M212.782 156.102C212.782 156.102 202.565 153.912 193.041 160.744C193.041 160.744 192.432 154.541 193.567 150.951C198.939 147.279 206.082 147.349 209.358 148.61C211.268 150.97 212.782 156.102 212.782 156.102Z" fill="#CFD8DC"/>
<path d="M191.62 163.256C191.62 163.256 193.24 155.799 195.422 153.699C199.051 150.205 209.251 149.005 214.612 151.106C219.973 153.206 214.612 159.555 214.612 159.555C214.612 159.555 206.067 152.921 191.62 163.256Z" fill="#A02E44"/>
<path d="M207.395 212.804C207.395 212.804 211.571 219.814 218.682 223.938C218.682 223.938 227.578 215.568 239.112 216.321C239.112 216.321 229.552 235.017 221.343 237.088C217.03 238.175 201.432 226.979 201.432 226.979C201.432 226.979 204.546 215.08 207.395 212.804Z" fill="#FF8B66"/>
<path d="M192.019 200.094C195.841 193.351 204.655 203.319 207.655 210.437C210.656 217.557 212.845 219.066 212.845 219.066C212.845 219.066 204.037 223.054 204.1 230.211C204.1 230.211 183.681 214.808 192.019 200.094Z" fill="#ADBEC4"/>
<path d="M218.682 220.858C218.682 220.858 224.047 215.153 241.688 207.706L239.409 199.939C241.433 197.052 245.153 197.052 245.153 197.052C245.153 197.052 254.192 210.887 252.636 215.019C251.665 217.601 232.812 220.31 218.682 220.858Z" fill="#EF6E4B"/>
<path d="M238.002 209.57C238.002 209.57 238.141 208.752 238.793 207.755C239.445 206.757 239.269 204.942 239.502 204.378C239.736 203.816 241.124 201.516 242.045 201.069C242.966 200.621 244.175 199.889 244.432 201.157C244.689 202.424 242.782 202.065 241.925 203.888C241.925 203.888 243.799 203.231 245.285 203.612C246.772 203.994 247.192 205.466 245.356 205.417C243.891 205.379 242.005 206.51 242.005 206.51C242.005 206.51 243.914 206.821 243.606 207.775C243.179 209.094 240.851 208.282 238.002 209.57Z" fill="#FF8B66"/>
<path d="M107.529 235.617C109.106 239.993 115.566 247.497 115.566 247.497C115.566 247.497 131.347 237.242 138.627 241.557C145.907 245.871 151.693 248.503 156.415 246.624C161.136 244.746 140.89 204.832 140.89 204.832L114.64 193.974C114.64 193.974 114.067 201.171 111.068 202.45C108.069 203.729 104.871 215.608 105.085 217.859C105.299 220.11 107.529 235.617 107.529 235.617Z" fill="#3E6575"/>
<path d="M137.064 247.757C137.064 247.757 130.295 262.14 116.321 280.56C116.321 280.56 114.889 302.465 77.9337 336.928L74.0649 333.629C74.0649 333.629 96.0728 296.261 100.474 284.803C104.877 273.346 98.0412 262.849 118.293 233.869L137.064 247.757Z" fill="#EF6E4B"/>
<path d="M115.52 222.306C109.694 234.405 107.738 249.873 107.738 249.873L105.084 257.129C105.084 257.129 114.496 262.631 125.364 264.633L129.722 252.128L115.52 222.306Z" fill="#662C33"/>
<path d="M145.91 246.625C145.91 246.625 148.796 262.465 148.32 286.308C148.32 286.308 159.69 304.483 150.307 356.338H145.385C145.385 356.338 141.364 312.22 138.288 300.264C135.211 288.309 123.851 284.641 123.236 248.292L145.91 246.625Z" fill="#FF8B66"/>
<path d="M148.796 263.629C148.796 263.629 139.539 265.43 123.231 264.599L122.972 262.609L122.907 262.099L121.218 249.214C121.218 249.214 119.65 247.112 118.035 243.691C117.841 243.291 117.656 242.881 117.472 242.45C115.275 237.378 113.328 230.004 115.515 222.312L118.957 222.482L119.437 222.512L130.955 223.082L131.444 223.112L135.228 223.302L135.818 223.332L138.273 223.452C138.273 223.452 150.751 235.627 148.526 258.137L148.683 261.268L148.702 261.778L148.796 263.629Z" fill="#8B383E"/>
<path d="M119.438 222.511C119.115 223.542 116.937 231.185 118.035 243.69C117.841 243.29 117.656 242.88 117.472 242.449C116.651 231.014 118.543 223.881 118.957 222.48C119.013 222.31 119.041 222.231 119.041 222.22L119.474 222.39C119.474 222.401 119.456 222.442 119.438 222.511Z" fill="#662C33"/>
<path d="M148.703 261.778C145.427 262.688 139.871 262.939 134.592 262.939C129.857 262.939 125.362 262.729 122.972 262.609L122.907 262.099C127.051 262.319 137.96 262.779 144.993 261.948L144.54 253.895C144.651 244.501 142.03 236.478 139.501 230.935C133.096 229.674 131.333 224.532 130.955 223.081C130.899 222.851 130.872 222.711 130.872 222.701L131.324 222.621C131.324 222.631 131.361 222.811 131.444 223.111C131.859 224.611 133.576 229.083 139.234 230.364C137.526 226.752 135.911 224.282 135.229 223.301C135.026 223.001 134.896 222.831 134.887 222.821L135.238 222.501C135.256 222.521 135.469 222.801 135.819 223.331C137.96 226.482 145.186 238.337 145.002 253.874L145.454 261.887C146.682 261.727 147.78 261.527 148.684 261.267L148.703 261.778Z" fill="#662C33"/>
<path d="M125.123 168.03C121.449 165.836 94.9794 177.089 94.9794 177.089C94.9794 177.089 91.0633 184.661 93.5047 187.63C95.9461 190.599 104.607 189.29 107.261 187.63C109.914 185.97 116.942 184.714 116.942 184.714L125.123 168.03Z" fill="#8BBDDB"/>
<path d="M148.531 144.143C148.531 144.143 153.999 146.431 155.999 153.259C157.999 160.087 152.019 177.376 154.086 185.322C156.152 193.269 155.832 208.275 149.378 211.444C142.924 214.612 129.687 208.942 126.846 200.272C124.004 191.602 125.231 158.754 130.693 147.583C136.156 136.411 147.215 142.037 148.531 144.143Z" fill="#F24052"/>
<path d="M142.247 173.605C143.689 175.29 147.397 172.286 147.397 172.286C147.397 172.286 147.321 187.188 143.326 188.33C139.331 189.473 129.149 176.592 129.568 173.091C129.987 169.589 139.049 169.867 142.247 173.605Z" fill="#8BBDDB"/>
<path d="M126.846 169.878C126.846 169.878 130.888 173.597 137.928 175.366C144.969 177.135 148.784 173.547 152.384 178.468C157.788 185.854 148.996 199.47 144.37 206.527C142.645 209.157 139.006 216.454 138.27 223.453C138.27 223.453 126.054 227.3 115.519 222.306L114.733 206.061C114.733 206.061 108.093 184.167 126.846 169.878Z" fill="#0E3944"/>
<path d="M139.477 185.683C139.477 185.683 145.059 171.263 146.675 170.342C148.292 169.421 152.391 171.631 153.214 173.604C154.037 175.576 153.214 179.879 153.214 179.879C153.214 179.879 148.812 174.433 139.477 185.683Z" fill="#8BBDDB"/>
<path d="M166.212 246.621C163.674 252.254 157.443 253.874 157.443 253.874C157.443 253.874 156.973 253.093 156.179 251.693C156.096 251.553 156.004 251.393 155.921 251.233C151.019 242.619 136.041 215.057 136.336 200.721C136.677 183.593 146.986 174.189 146.986 174.189C152.219 175.54 153.871 177.091 153.871 177.091C153.871 177.091 155.635 186.835 154.019 198.56C152.404 210.275 149.469 213.376 150.946 214.257C152.413 215.127 150.946 216.878 150.946 216.878C150.946 216.878 159.63 229.993 161.256 234.075C162.308 236.736 164.099 241.259 165.215 244.08C165.289 244.28 165.363 244.48 165.436 244.66C165.907 245.851 166.212 246.621 166.212 246.621Z" fill="#6097B2"/>
<path d="M151.127 177.089C151.127 177.089 144.909 182.086 148.531 189.72L165.767 209.061C156.307 219.988 155.369 224.474 148.531 229.511L151.127 233.869C151.127 233.869 175.075 213.917 175.111 209.061C175.126 206.982 160.483 181.835 151.127 177.089Z" fill="#FF8B66"/>
<path d="M148.153 229.513C148.153 229.513 144.868 229.908 142.799 230.469C140.73 231.03 137.972 231.59 137.885 232.058C137.799 232.524 142.454 232.058 142.454 232.058C142.454 232.058 138.661 233.746 138.575 234.397C138.49 235.047 143.403 233.927 143.403 233.927C143.403 233.927 140.299 235.982 140.472 236.542C140.644 237.103 144.467 235.702 144.467 235.702C144.467 235.702 143.756 237.663 143.019 238.598C143.019 238.598 143.759 239.038 145.261 237.23C146.763 235.421 149.162 236.002 151.062 234.397C152.961 232.791 149.882 229.272 148.153 229.513Z" fill="#FF8B66"/>
<path d="M130.541 172.277C130.541 172.277 125.81 175.591 122.823 183.594C119.835 191.597 110.408 206.658 108.199 210.55C105.99 214.441 107.529 235.617 107.529 235.617C107.529 235.617 104.76 222.778 103.53 217.776C102.3 212.774 107.503 200.413 108.286 199.757C109.068 199.101 113.067 200.301 112.298 195.283C111.529 190.265 122.259 168.639 125.124 168.03C125.124 168.03 129.711 168.964 130.541 172.277Z" fill="#6097B2"/>
<path d="M115.912 173.36C115.829 173.53 115.737 173.7 115.626 173.86C114.556 175.53 112.562 176.861 112.562 176.861C112.562 176.861 108.954 182.343 108.917 182.974C108.881 183.515 102.65 188.417 99.8822 188.317H99.873C99.4948 188.307 99.1806 188.197 98.9595 187.976C97.3169 186.296 104.552 172.189 106.149 169.148C106.251 168.948 106.334 168.797 106.389 168.697C106.426 168.617 106.454 168.568 106.454 168.568C106.454 168.568 105.181 163.425 110.497 164.386C114.917 165.176 115.794 168.988 116.256 171.539C116.365 172.15 116.207 172.769 115.912 173.36Z" fill="#6097B2"/>
<path d="M97.3502 178.69C101.002 173.487 113.852 163.395 120.62 160.407L122.312 163.817C122.312 163.817 109.233 176.281 106.161 181.613C103.088 186.944 99.2821 189.149 95.6461 187.374C92.0093 185.598 96.5821 179.786 97.3502 178.69Z" fill="#FF8B66"/>
<path d="M114.639 172.29L113.947 173.151L113.596 173.59L112.451 175.011C112.451 175.011 109.572 178.793 109.682 180.313C109.765 181.404 104.218 186.286 99.8808 188.317C98.1176 189.147 96.549 189.507 95.6355 188.937C92.4974 186.976 93.199 181.084 94.9805 177.092C96.5308 173.61 103.388 169.118 105.151 168.018C105.372 167.868 105.511 167.778 105.557 167.758C105.566 167.748 105.566 167.748 105.566 167.748L106.221 164.987C106.221 164.987 108.612 163.426 110.494 164.387C110.494 164.387 106.341 164.577 107.025 166.328C107.726 168.087 113.485 172.23 114.639 172.29Z" fill="#8BBDDB"/>
<path d="M129.719 157.854C125.539 159.715 126.138 163.816 122.308 163.816C119.937 163.816 119.623 160.875 119.623 160.875C120.693 158.364 121.376 154.082 121.524 152.041C121.681 150 122.308 150.79 122.308 150.79C122.308 150.6 122.299 150.42 122.29 150.24C122.234 148.869 122.004 147.869 122.835 148.459C123.776 149.12 124.099 153.002 124.099 153.002C124.875 147.339 123.721 146.498 124.625 146.999C125.862 147.679 125.871 152.681 125.871 152.831C126.868 149.54 126.6 147.659 127.293 148.41C127.994 149.17 126.942 155.213 126.527 157.434C126.435 157.934 126.37 158.244 126.37 158.244C129.683 156.482 129.719 157.854 129.719 157.854Z" fill="#FF8B66"/>
<path d="M126.526 157.433C126.434 157.933 126.369 158.243 126.369 158.243C126.369 158.243 124.837 158.083 123.72 159.874C123.72 159.874 124.034 157.474 126.526 157.433Z" fill="#EF6E4B"/>
<path d="M122.539 154.852C122.566 154.372 122.751 151.621 122.308 150.79C122.308 150.6 122.299 150.42 122.29 150.24C123.249 150.46 122.641 154.272 122.539 154.852Z" fill="#EF6E4B"/>
<path d="M125.133 178.719C125.133 178.719 127.959 170.418 128.857 168.566C129.757 166.712 134.437 167.03 137.98 167.747C141.523 168.463 142.247 173.605 142.247 173.605C142.247 173.605 131.469 168.091 125.133 178.719Z" fill="#8BBDDB"/>
<path d="M143.326 162.383C143.326 162.383 139.941 169.158 139.994 176.671C139.994 176.671 134.496 180.721 132.529 175.648C132.529 175.648 134.617 169.002 133.608 160.03C132.933 154.022 143.326 162.383 143.326 162.383Z" fill="#EF6E4B"/>
<path d="M132.53 152.982C132.53 152.982 131.524 149.098 129.733 151.828C127.659 154.991 129.773 158.066 130.88 157.332C131.986 156.599 132.53 152.982 132.53 152.982Z" fill="#FF8B66"/>
<path d="M148.512 162.967C148.512 162.967 152.097 161.886 150.872 164.961C149.452 168.523 145.931 168.158 145.936 166.752C145.941 165.347 148.512 162.967 148.512 162.967Z" fill="#FF8B66"/>
<path d="M133.997 169.92C128.904 166.811 127.903 161.451 133.521 150.635C136.419 145.056 140.816 143.233 146.52 146.714C152.225 150.197 152.849 155.085 149.951 160.664C143.914 172.285 139.258 173.131 133.997 169.92Z" fill="#FF8B66"/>
<path d="M146.26 163.492C146.062 164.101 145.33 164.377 144.627 164.107C143.924 163.838 143.516 163.125 143.714 162.515C143.913 161.906 144.644 161.63 145.348 161.901C146.051 162.17 146.459 162.883 146.26 163.492Z" fill="#DB614D"/>
<path d="M135.628 157.4C135.302 157.942 134.531 158.023 133.907 157.582C133.283 157.14 133.04 156.343 133.366 155.802C133.692 155.26 134.462 155.179 135.086 155.621C135.712 156.061 135.953 156.859 135.628 157.4Z" fill="#DB614D"/>
<path d="M146.99 156.499C146.859 156.499 146.74 156.404 146.707 156.261C146.418 155.029 145.159 154.303 145.147 154.297C145.004 154.216 144.948 154.025 145.023 153.87C145.097 153.715 145.272 153.655 145.417 153.736C145.478 153.77 146.921 154.603 147.273 156.106C147.313 156.275 147.218 156.447 147.062 156.49C147.037 156.496 147.013 156.499 146.99 156.499Z" fill="#1A4850"/>
<path d="M139.995 151.105C139.944 151.105 139.892 151.091 139.845 151.06C139.832 151.052 138.605 150.262 137.486 150.632C137.33 150.684 137.168 150.589 137.121 150.422C137.074 150.255 137.161 150.077 137.315 150.026C138.685 149.571 140.088 150.479 140.147 150.518C140.285 150.608 140.329 150.803 140.245 150.952C140.191 151.051 140.094 151.105 139.995 151.105Z" fill="#1A4850"/>
<path d="M144.885 159.12C144.528 159.805 143.954 160.187 143.604 159.972C143.252 159.758 143.256 159.028 143.612 158.342C143.968 157.656 144.542 157.274 144.893 157.489C145.245 157.704 145.241 158.433 144.885 159.12Z" fill="#1A4850"/>
<path d="M137.744 154.968C137.388 155.653 136.815 156.035 136.463 155.82C136.112 155.606 136.116 154.877 136.472 154.191C136.827 153.505 137.401 153.123 137.753 153.338C138.104 153.552 138.1 154.282 137.744 154.968Z" fill="#1A4850"/>
<path d="M135.27 162.007C135.27 162.007 138.192 164.423 140.304 164.497C140.304 164.497 138.058 166.48 136.444 165.194C134.831 163.908 135.27 162.007 135.27 162.007Z" fill="#1A4850"/>
<path d="M143.349 157.734C143.349 157.734 144.69 156.328 145.24 156.823C145.788 157.318 145.502 159.048 145.502 159.048L146.675 159.08L145.705 158.657C145.705 158.657 146.018 156.861 145.414 156.489C144.555 155.958 143.349 157.734 143.349 157.734Z" fill="#1A4850"/>
<path d="M138.297 154.922C138.297 154.922 138.71 152.95 138.035 152.698C137.36 152.446 136.145 153.609 136.145 153.609L135.51 152.538L136.348 153.218C136.348 153.218 137.603 151.997 138.21 152.363C139.073 152.884 138.297 154.922 138.297 154.922Z" fill="#1A4850"/>
<path d="M147.872 149.027C147.872 149.027 146.048 146.278 143.528 148.461C141.008 150.643 135.325 154.136 132.529 152.981C129.733 151.828 138.646 138.916 146.384 142.697C154.122 146.478 153.426 158.787 150.207 162.701C146.989 166.614 148.511 162.968 148.511 162.968C148.511 162.968 148.727 157.416 149.802 153.737C150.877 150.057 147.872 149.027 147.872 149.027Z" fill="#F24052"/>
<path d="M139.295 160.748C139.154 160.748 139.006 160.727 138.854 160.686L139.009 160.024C139.53 160.167 139.786 159.924 139.908 159.696C140.082 159.374 140.058 158.959 139.92 158.803C139.839 158.712 139.702 158.722 139.509 158.831L139.217 158.225C139.858 157.861 140.241 158.177 140.376 158.331C140.723 158.726 140.757 159.477 140.453 160.041C140.205 160.499 139.789 160.748 139.295 160.748Z" fill="#DB614D"/>
<path d="M176.594 208.295C176.29 213.148 165.215 228.944 163.369 229.504C162.889 229.644 162.4 229.934 161.938 230.274C161.744 230.425 161.551 230.584 161.366 230.745C160.314 231.665 159.521 232.725 159.521 232.725C156.291 232.496 147.218 227.943 150.135 226.943C150.31 226.883 150.504 226.773 150.716 226.613C150.836 226.523 150.965 226.423 151.094 226.293C154.527 223.172 161.209 210.507 161.256 209.546C161.292 208.495 162.446 208.295 162.446 208.295C162.446 208.295 156.143 198.261 152.487 197.051C148.832 195.841 146.987 191.049 146.987 191.049C143.378 174.491 153.872 177.093 153.872 177.093C161.606 182.084 176.899 203.433 176.594 208.295Z" fill="#8BBDDB"/>
<path d="M161.938 230.275C161.745 230.425 161.551 230.585 161.366 230.745C156.41 230.375 152.257 227.734 150.716 226.613C150.836 226.523 150.965 226.423 151.094 226.294C152.746 227.463 156.973 230.075 161.938 230.275Z" fill="#3E6575"/>
<path d="M115.912 173.36C115.829 173.53 115.737 173.7 115.627 173.86C114.916 173.83 114.242 173.74 113.596 173.589C110.32 172.869 107.8 170.878 106.148 169.147C105.769 168.747 105.437 168.367 105.151 168.016C105.372 167.866 105.511 167.777 105.557 167.756C105.797 168.046 106.074 168.366 106.387 168.697C108.03 170.447 110.587 172.488 113.946 173.149C114.574 173.28 115.229 173.35 115.912 173.36Z" fill="#3E6575"/>
<path d="M165.436 244.66C163.913 247.452 161.099 250.823 156.179 251.693C156.096 251.554 156.004 251.393 155.921 251.233C160.969 250.412 163.765 246.861 165.214 244.08C165.288 244.281 165.362 244.48 165.436 244.66Z" fill="#3E6575"/>
<path d="M81.4415 335.69C81.4415 335.69 80.2877 336.921 79.0881 339.182C77.8886 341.443 79.2078 343.524 73.4031 348.766C73.4031 348.766 61.6914 341.333 56.4028 331.779C56.4028 331.779 56.4951 329.047 59.0513 328.407C60.4262 328.066 64.2101 329.987 67.8469 330.728C68.364 330.828 68.8802 330.918 69.3881 330.958C70.0248 331.018 70.6524 331.028 71.2526 330.948C71.8062 330.887 72.3324 330.758 72.8212 330.538H72.8304C74.0673 329.987 75.0457 328.897 75.5528 326.987C75.5528 326.987 78.6625 328.908 76.586 332.159C76.586 332.159 80.2785 330.407 81.4415 335.69Z" fill="#CFD8DC"/>
<path d="M73.4021 348.766C73.4021 348.766 61.6904 341.333 56.4019 331.779C56.4019 331.779 58.3678 331.328 59.9921 334.49C61.6164 337.661 74.3531 344.854 73.4021 348.766Z" fill="#ADBEC4"/>
<path d="M73.4487 333.738C72.4985 335.369 72.5168 332.358 71.2524 330.947C71.8061 330.886 72.3323 330.757 72.821 330.537H72.8302C73.393 331.198 74.196 332.468 73.4487 333.738Z" fill="#ADBEC4"/>
<path d="M69.7663 333.828C68.7605 334.859 68.4371 332.168 67.8469 330.727C68.364 330.827 68.8802 330.917 69.3881 330.957C69.9783 331.828 70.5328 333.038 69.7663 333.828Z" fill="#ADBEC4"/>
<path d="M153.493 368.674H136.927C136.927 368.674 136.234 366.173 136.927 363.422C137.222 362.232 138.939 361.12 140.535 359.57C140.978 359.14 141.403 358.689 141.8 358.179C142.114 357.779 142.4 357.339 142.639 356.869C142.944 356.299 143.184 355.679 143.323 354.999C143.59 353.638 143.489 352.038 142.769 350.117C142.769 350.117 148.408 348.836 150.42 352.167C150.42 352.167 150.614 350.627 152.404 351.657C152.404 351.657 152.146 354.749 152.497 357.34C152.847 359.92 155.072 360.671 153.493 368.674Z" fill="#CFD8DC"/>
<path d="M149.183 357.859C149.035 358.04 148.832 358.13 148.63 358.13C148.454 358.13 148.288 358.069 148.14 357.95C147.282 357.209 145.39 356.059 142.639 356.869C142.944 356.299 143.184 355.679 143.323 354.999C144.43 354.559 146.516 354.298 149.091 356.679C149.423 356.979 149.47 357.509 149.183 357.859Z" fill="#ADBEC4"/>
<path d="M147.79 360.84L147.698 360.991C147.477 361.361 147.034 361.481 146.683 361.261C145.556 360.541 143.028 359.18 140.536 359.571C140.979 359.141 141.404 358.69 141.801 358.18C143.029 357.87 145.344 357.7 147.625 359.751C147.92 360.02 148.002 360.491 147.79 360.84Z" fill="#ADBEC4"/>
<defs>
<linearGradient id="paint0_linear_319_904" x1="218.055" y1="299.153" x2="-67.4992" y2="-13.6305" gradientUnits="userSpaceOnUse">
<stop stop-color="#93B3FC"/>
<stop offset="0.9999" stop-color="#97CCF8"/>
<stop offset="1" stop-color="#97CCF8" stop-opacity="0"/>
</linearGradient>
</defs>
</svg>
