<svg width="984" height="1024" viewBox="0 0 984 1024" fill="none" xmlns="http://www.w3.org/2000/svg">
<path d="M-23 -25H863.386C914.14 182.878 900.369 253.842 805.386 304.399C623.236 294.686 579.915 334.314 612.474 488.669C667.14 675.459 621.029 743.204 354.628 775.313C274.266 798.07 244.98 823.305 219.085 889.127L180.629 1058.34H-23V-25Z" fill="url(#paint0_linear_319_904)"/>
<path d="M208.289 881.985H94.4909C92.4918 881.985 90.8706 880.364 90.8706 878.364V876.376C90.8706 874.376 92.4918 872.755 94.4909 872.755H208.287C210.286 872.755 211.907 874.376 211.907 876.376V878.364C211.909 880.364 210.288 881.985 208.289 881.985Z" fill="#ADBEC4"/>
<path d="M929.37 881.985H898.235C896.235 881.985 894.614 880.364 894.614 878.364V876.376C894.614 874.376 896.235 872.755 898.235 872.755H929.37C931.369 872.755 932.99 874.376 932.99 876.376V878.364C932.988 880.364 931.369 881.985 929.37 881.985Z" fill="#ADBEC4"/>
<path d="M422.442 881.985H308.644C306.645 881.985 305.024 880.364 305.024 878.364V876.376C305.024 874.376 306.645 872.755 308.644 872.755H422.442C424.441 872.755 426.063 874.376 426.063 876.376V878.364C426.063 880.364 424.443 881.985 422.442 881.985Z" fill="#ADBEC4"/>
<path d="M589.535 881.985H475.739C473.74 881.985 472.119 880.364 472.119 878.364V876.376C472.119 874.376 473.74 872.755 475.739 872.755H589.535C591.535 872.755 593.156 874.376 593.156 876.376V878.364C593.156 880.364 591.535 881.985 589.535 881.985Z" fill="#ADBEC4"/>
<path d="M794.176 881.985H639.049C637.05 881.985 635.429 880.364 635.429 878.364V876.376C635.429 874.376 637.05 872.755 639.049 872.755H794.176C796.176 872.755 797.797 874.376 797.797 876.376V878.364C797.797 880.364 796.176 881.985 794.176 881.985Z" fill="#ADBEC4"/>
<path d="M246.432 365.115C246.432 365.115 234.412 356.939 216.833 363.236C199.254 369.535 195.305 393.208 199.636 412.421C203.967 431.634 179.764 497.23 179.764 497.23C179.764 497.23 192.343 514.92 236.306 508.15C236.306 508.15 269.087 448.577 266.654 405.808C264.221 363.04 246.432 365.115 246.432 365.115Z" fill="#0E3944"/>
<path d="M260.31 439.017C276.832 433.734 286.943 447.491 296.41 473.095C305.877 498.7 309.062 501.267 309.062 501.267L345.602 524.744L342.564 538.429C342.564 538.429 307.787 524.813 299.38 516.151C290.972 507.492 266.785 463.62 266.785 463.62L260.31 439.017Z" fill="#EF6E4B"/>
<path d="M179.782 604.431C179.782 604.431 172.614 640.736 173.795 695.384C173.795 695.384 145.547 737.039 168.859 855.889H181.088C181.088 855.889 191.077 754.769 198.72 727.37C206.364 699.971 234.587 691.563 236.115 608.252L179.782 604.431Z" fill="#FF8B66"/>
<path d="M123.894 711.183C116.788 687.765 98.5248 648.544 51.6752 595.381C51.6752 595.381 48.881 593.942 45.1037 596.251C41.1157 598.688 41.1157 601.55 41.1157 601.55C41.1157 601.55 64.6076 652.747 79.5888 690.258C84.632 702.887 96.8334 711.183 110.431 711.183H123.894Z" fill="#FF8B66"/>
<path d="M209.191 756.463C209.191 756.463 209.352 773.934 197.888 774.232C181.701 774.667 181.104 757.035 162.761 757.609C144.417 758.181 106.585 762.768 94.5465 734.106C88.3322 719.295 96.8389 700.286 76.7773 685.956C56.7137 671.625 66.4595 655.574 76.7773 646.977C87.0952 638.402 72.3288 629.001 83.0824 624.621C85.6495 623.588 88.1732 623.704 90.511 624.482C91.8865 624.964 93.1711 625.629 94.4081 626.455C100.094 630.238 104.084 636.818 104.084 636.818C134.465 553.608 188.555 542.625 188.555 542.625L242.049 561.084C243.331 690.543 209.191 756.463 209.191 756.463Z" fill="#164353"/>
<path d="M260.31 439.017C260.31 439.017 247.83 443.228 230.077 440.533C212.324 437.838 206.554 426.692 194.076 433.866C175.342 444.637 184.109 481.705 188.814 500.98C190.567 508.167 192.789 527.047 188.56 542.629C188.56 542.629 213.503 562.038 242.053 561.074L257.629 527.198C257.629 527.198 291.501 486.666 260.31 439.017Z" fill="#CFD8DC"/>
<path d="M228.613 407.923C228.613 407.923 230.688 425.459 224.201 441.413C224.201 441.413 233.464 455.087 242.303 446.089C242.303 446.089 243.111 430.017 253.04 411.835C259.688 399.658 228.613 407.923 228.613 407.923Z" fill="#EF6E4B"/>
<path d="M214.419 408.52C214.419 408.52 206.606 403.578 207.488 411.203C208.51 420.038 217.128 421.76 218.045 418.671C218.962 415.583 214.419 408.52 214.419 408.52Z" fill="#FF8B66"/>
<path d="M259.238 398.956C259.238 398.956 264.197 391.154 266.652 398.427C269.496 406.855 262.435 412.087 260.287 409.685C258.141 407.283 259.238 398.956 259.238 398.956Z" fill="#FF8B66"/>
<path d="M243.107 434.928C228.937 438.1 218.867 430.636 212.651 402.876C209.443 388.555 214.763 378.14 230.635 374.588C246.508 371.034 255.157 378.32 258.364 392.64C265.043 422.468 257.745 431.65 243.107 434.928Z" fill="#FF8B66"/>
<path d="M255.888 403.59C256.456 404.959 255.529 406.645 253.817 407.353C252.105 408.061 250.256 407.529 249.69 406.159C249.123 404.79 250.05 403.105 251.762 402.396C253.472 401.688 255.32 402.223 255.888 403.59Z" fill="#DB614D"/>
<path d="M226.916 410.893C227.145 412.357 225.846 413.776 224.016 414.061C222.186 414.348 220.515 413.394 220.286 411.93C220.057 410.465 221.356 409.047 223.186 408.762C225.018 408.474 226.686 409.429 226.916 410.893Z" fill="#DB614D"/>
<path d="M246.021 390.656C245.882 390.656 245.744 390.617 245.618 390.534C243.195 388.917 239.763 389.776 239.726 389.784C239.331 389.888 238.941 389.65 238.842 389.262C238.743 388.874 238.976 388.477 239.365 388.378C239.532 388.337 243.468 387.351 246.426 389.328C246.76 389.551 246.849 390.001 246.626 390.334C246.485 390.542 246.256 390.656 246.021 390.656Z" fill="#0E3944"/>
<path d="M219.34 396.631C219.214 396.631 219.084 396.597 218.969 396.527C218.626 396.321 218.514 395.877 218.721 395.532C220.553 392.486 224.534 391.695 224.704 391.662C225.09 391.6 225.476 391.843 225.55 392.238C225.625 392.63 225.369 393.01 224.974 393.087C224.939 393.095 221.457 393.795 219.962 396.279C219.828 396.504 219.586 396.631 219.34 396.631Z" fill="#0E3944"/>
<path d="M246.642 398.431C247.035 400.191 246.562 401.795 245.585 402.012C244.608 402.231 243.495 400.982 243.101 399.222C242.706 397.463 243.179 395.858 244.158 395.639C245.135 395.422 246.248 396.67 246.642 398.431Z" fill="#1A4850"/>
<path d="M226.954 402.667C227.349 404.427 226.876 406.031 225.897 406.248C224.92 406.467 223.807 405.218 223.413 403.458C223.018 401.698 223.491 400.094 224.47 399.875C225.449 399.658 226.56 400.907 226.954 402.667Z" fill="#1A4850"/>
<path d="M233.319 419.333C233.319 419.333 242.421 418.592 246.431 415.205C246.431 415.205 245.327 422.316 240.376 422.807C235.424 423.303 233.319 419.333 233.319 419.333Z" fill="#1A4850"/>
<path d="M241.681 398.623C241.681 398.623 242.001 393.999 243.773 393.929C245.545 393.859 247.668 397.283 247.668 397.283L249.884 395.387L247.443 396.279C247.443 396.279 245.267 392.7 243.581 393.07C241.184 393.595 241.681 398.623 241.681 398.623Z" fill="#1A4850"/>
<path d="M228.041 402.235C228.041 402.235 225.78 398.19 224.146 398.881C222.512 399.573 222.054 403.576 222.054 403.576L219.239 402.807L221.829 402.572C221.829 402.572 222.273 398.406 223.954 398.022C226.35 397.473 228.041 402.235 228.041 402.235Z" fill="#1A4850"/>
<path d="M237.911 411.124L237.182 409.741C238.361 409.119 238.462 408.278 238.338 407.688C238.165 406.849 237.483 406.184 236.99 406.145C236.707 406.131 236.463 406.372 236.273 406.876L234.807 406.329C235.435 404.642 236.622 404.549 237.11 404.584C238.355 404.679 239.567 405.901 239.875 407.368C240.191 408.904 239.458 410.309 237.911 411.124Z" fill="#DB614D"/>
<path d="M215.54 413.518C215.54 413.518 211.17 397.438 213.764 386.067C213.764 386.067 226.091 368.901 249.887 377.389C249.887 377.389 256.942 388.752 260.438 404.654C260.438 404.654 261.326 398.941 258.959 386.22C256.593 373.498 245.306 365.594 229.827 368.139C214.35 370.683 197.787 386.081 215.54 413.518Z" fill="#0E3944"/>
<path d="M240.488 373.818C240.488 373.818 241.431 378.014 237.349 388.822C237.349 388.822 234.412 385.753 230.973 388.822C227.535 391.891 220.55 390.866 218.167 392.525C215.783 394.183 215.783 397.975 215.783 397.975C215.783 397.975 213.72 393.254 215.783 387.591C215.783 387.591 211.143 393.489 211.758 400.773C211.758 400.773 205.466 399.757 205.751 389.373C206.038 378.991 220.794 362.195 237.349 363.285C253.903 364.374 257.844 390.586 257.844 390.586C257.844 390.586 256.334 389.398 253.971 389.927C253.971 389.927 253.606 384.375 249.884 377.383C249.884 377.383 251.599 382.43 249.884 387.876C249.884 387.876 245.273 385.458 241.638 386.213C241.638 386.218 243.883 381.827 240.488 373.818Z" fill="#0E3944"/>
<path d="M189.873 437.177C197.93 430.824 204.204 438.906 205.74 450.079C207.279 461.253 192.709 527.173 181.474 524.745C177.137 523.807 175.369 506.54 175.369 506.54C175.369 506.54 179.764 488.004 182.608 460.107C183.915 447.286 185.673 440.49 189.873 437.177Z" fill="#FF8B66"/>
<path d="M166.431 515.428C155.584 505.09 136.136 470.797 131.196 453.327L139.428 450.016C139.428 450.016 164.215 485.476 175.514 494.417C186.812 503.359 190.786 513.316 185.741 521.843C180.695 530.37 168.715 517.603 166.431 515.428Z" fill="#FF8B66"/>
<path d="M134.577 430.45C134.009 441.665 143.148 444.322 139.094 452.93C138.257 454.706 136.983 455.65 135.659 456.119C133.148 457.007 130.358 456.169 128.485 454.275C124.14 449.884 117.423 445.231 113.849 443.191C109.784 440.845 112.087 440.207 112.087 440.207C111.692 440.021 111.31 439.866 110.926 439.711C108.027 438.497 105.707 438.038 107.81 436.747C110.177 435.277 118.566 438.342 118.566 438.342C107.647 431.068 104.683 432.842 106.676 431.297C109.396 429.182 119.778 434.046 120.088 434.193C114.317 428.738 110.135 427.501 112.424 426.679C114.743 425.845 126.157 434.112 130.323 437.214C131.263 437.91 131.837 438.358 131.837 438.358C131.696 429.195 134.577 430.45 134.577 430.45Z" fill="#FF8B66"/>
<path d="M130.327 437.218C131.266 437.914 131.841 438.362 131.841 438.362C131.841 438.362 129.887 441.65 132.417 445.909C132.417 445.909 127.77 442.856 130.327 437.218Z" fill="#EF6E4B"/>
<path d="M120.752 443.658C119.786 443.127 114.278 440.025 112.086 440.209C111.692 440.023 111.31 439.868 110.926 439.713C112.398 437.77 119.658 442.862 120.752 443.658Z" fill="#EF6E4B"/>
<path d="M164.047 610.063C164.047 611.281 163.06 612.267 161.844 612.267C160.627 612.267 159.64 611.279 159.64 610.063C159.64 608.847 160.627 607.859 161.844 607.859C163.06 607.859 164.047 608.844 164.047 610.063Z" fill="#6097B2"/>
<path d="M203.37 625.232C203.37 626.45 202.382 627.435 201.166 627.435C199.95 627.435 198.962 626.448 198.962 625.232C198.962 624.015 199.95 623.028 201.166 623.028C202.382 623.028 203.37 624.015 203.37 625.232Z" fill="#6097B2"/>
<path d="M236.875 633.367C236.875 634.583 235.888 635.571 234.672 635.571C233.455 635.571 232.468 634.583 232.468 633.367C232.468 632.151 233.455 631.164 234.672 631.164C235.888 631.164 236.875 632.151 236.875 633.367Z" fill="#6097B2"/>
<path d="M185.394 581.282C185.394 582.501 184.406 583.486 183.19 583.486C181.974 583.486 180.986 582.498 180.986 581.282C180.986 580.066 181.974 579.078 183.19 579.078C184.406 579.078 185.394 580.066 185.394 581.282Z" fill="#6097B2"/>
<path d="M190.612 604.431C191.829 604.431 192.816 603.445 192.816 602.228C192.816 601.011 191.829 600.024 190.612 600.024C189.395 600.024 188.409 601.011 188.409 602.228C188.409 603.445 189.395 604.431 190.612 604.431Z" fill="#6097B2"/>
<path d="M227.683 614.164C227.683 615.383 226.696 616.368 225.479 616.368C224.263 616.368 223.276 615.381 223.276 614.164C223.276 612.948 224.263 611.961 225.479 611.961C226.696 611.961 227.683 612.946 227.683 614.164Z" fill="#6097B2"/>
<path d="M232.468 578.035C232.468 579.252 231.481 580.239 230.265 580.239C229.048 580.239 228.061 579.252 228.061 578.035C228.061 576.817 229.048 575.832 230.265 575.832C231.481 575.832 232.468 576.819 232.468 578.035Z" fill="#6097B2"/>
<path d="M207.417 572.722C208.634 572.722 209.62 571.735 209.62 570.518C209.62 569.301 208.634 568.315 207.417 568.315C206.2 568.315 205.213 569.301 205.213 570.518C205.213 571.735 206.2 572.722 207.417 572.722Z" fill="#6097B2"/>
<path d="M144.543 653.059C144.543 654.277 143.556 655.262 142.34 655.262C141.123 655.262 140.136 654.275 140.136 653.059C140.136 651.842 141.123 650.855 142.34 650.855C143.556 650.855 144.543 651.842 144.543 653.059Z" fill="#6097B2"/>
<path d="M113.132 643.687C113.132 644.903 112.144 645.891 110.928 645.891C109.712 645.891 108.724 644.903 108.724 643.687C108.724 642.469 109.712 641.483 110.928 641.483C112.144 641.483 113.132 642.471 113.132 643.687Z" fill="#6097B2"/>
<path d="M94.4058 626.455C94.0155 627.051 93.3278 627.44 92.5492 627.44C91.3348 627.44 90.3477 626.454 90.3477 625.238C90.3477 624.963 90.3931 624.711 90.5087 624.482C91.8842 624.963 93.1688 625.628 94.4058 626.455Z" fill="#6097B2"/>
<path d="M153.593 684.008C154.81 684.008 155.797 683.022 155.797 681.805C155.797 680.588 154.81 679.601 153.593 679.601C152.376 679.601 151.389 680.588 151.389 681.805C151.389 683.022 152.376 684.008 153.593 684.008Z" fill="#6097B2"/>
<path d="M99.4204 713.047C99.4204 714.266 98.4332 715.251 97.2168 715.251C96.0004 715.251 95.0132 714.264 95.0132 713.047C95.0132 711.831 96.0004 710.844 97.2168 710.844C98.4332 710.844 99.4204 711.829 99.4204 713.047Z" fill="#6097B2"/>
<path d="M120.248 696.313C121.465 696.313 122.451 695.326 122.451 694.109C122.451 692.892 121.465 691.906 120.248 691.906C119.031 691.906 118.044 692.892 118.044 694.109C118.044 695.326 119.031 696.313 120.248 696.313Z" fill="#6097B2"/>
<path d="M85.947 679.558C87.164 679.558 88.1506 678.571 88.1506 677.354C88.1506 676.137 87.164 675.151 85.947 675.151C84.73 675.151 83.7434 676.137 83.7434 677.354C83.7434 678.571 84.73 679.558 85.947 679.558Z" fill="#6097B2"/>
<path d="M115.839 743.332C115.839 744.548 114.852 745.535 113.635 745.535C112.419 745.535 111.432 744.548 111.432 743.332C111.432 742.113 112.419 741.128 113.635 741.128C114.852 741.128 115.839 742.115 115.839 743.332Z" fill="#6097B2"/>
<path d="M136.826 627.438C136.826 628.656 135.839 629.641 134.623 629.641C133.404 629.641 132.419 628.654 132.419 627.438C132.419 626.221 133.406 625.234 134.623 625.234C135.839 625.232 136.826 626.219 136.826 627.438Z" fill="#6097B2"/>
<path d="M158.003 590.315C158.003 591.534 157.015 592.519 155.799 592.519C154.583 592.519 153.595 591.532 153.595 590.315C153.595 589.099 154.583 588.112 155.799 588.112C157.015 588.112 158.003 589.099 158.003 590.315Z" fill="#6097B2"/>
<path d="M181.969 559.422C181.969 560.638 180.982 561.625 179.766 561.625C178.547 561.625 177.562 560.638 177.562 559.422C177.562 558.203 178.549 557.218 179.766 557.218C180.982 557.216 181.969 558.203 181.969 559.422Z" fill="#6097B2"/>
<path d="M133.4 604.431C133.4 605.65 132.412 606.635 131.196 606.635C129.98 606.635 128.992 605.648 128.992 604.431C128.992 603.215 129.98 602.228 131.196 602.228C132.412 602.228 133.4 603.213 133.4 604.431Z" fill="#6097B2"/>
<path d="M160.208 568.312C160.208 569.529 159.221 570.516 158.005 570.516C156.788 570.516 155.801 569.529 155.801 568.312C155.801 567.094 156.788 566.109 158.005 566.109C159.221 566.109 160.208 567.096 160.208 568.312Z" fill="#6097B2"/>
<path d="M118.045 667.563C118.045 668.781 117.058 669.767 115.841 669.767C114.623 669.767 113.638 668.779 113.638 667.563C113.638 666.347 114.625 665.359 115.841 665.359C117.058 665.359 118.045 666.347 118.045 667.563Z" fill="#6097B2"/>
<path d="M90.3537 648.096C90.3537 649.315 89.3665 650.3 88.1501 650.3C86.9337 650.3 85.9465 649.313 85.9465 648.096C85.9465 646.88 86.9337 645.893 88.1501 645.893C89.3665 645.893 90.3537 646.88 90.3537 648.096Z" fill="#6097B2"/>
<path d="M168.457 643.687C169.674 643.687 170.66 642.7 170.66 641.483C170.66 640.266 169.674 639.28 168.457 639.28C167.24 639.28 166.253 640.266 166.253 641.483C166.253 642.7 167.24 643.687 168.457 643.687Z" fill="#6097B2"/>
<path d="M214.03 655.262C215.247 655.262 216.234 654.276 216.234 653.059C216.234 651.842 215.247 650.855 214.03 650.855C212.813 650.855 211.827 651.842 211.827 653.059C211.827 654.276 212.813 655.262 214.03 655.262Z" fill="#6097B2"/>
<path d="M214.03 590.315C214.03 591.534 213.043 592.519 211.826 592.519C210.61 592.519 209.623 591.532 209.623 590.315C209.623 589.099 210.61 588.112 211.826 588.112C213.043 588.112 214.03 589.099 214.03 590.315Z" fill="#6097B2"/>
<path d="M240.525 594.937C240.525 596.156 239.538 597.141 238.321 597.141C237.105 597.141 236.118 596.154 236.118 594.937C236.118 593.721 237.105 592.734 238.321 592.734C239.538 592.734 240.525 593.721 240.525 594.937Z" fill="#6097B2"/>
<path d="M187.597 669.769C187.597 670.987 186.61 671.972 185.394 671.972C184.177 671.972 183.19 670.985 183.19 669.769C183.19 668.552 184.177 667.565 185.394 667.565C186.61 667.565 187.597 668.55 187.597 669.769Z" fill="#6097B2"/>
<path d="M166.253 711.181C167.47 711.181 168.457 710.194 168.457 708.977C168.457 707.76 167.47 706.773 166.253 706.773C165.036 706.773 164.05 707.76 164.05 708.977C164.05 710.194 165.036 711.181 166.253 711.181Z" fill="#6097B2"/>
<path d="M132.416 717.455C133.633 717.455 134.62 716.468 134.62 715.251C134.62 714.034 133.633 713.047 132.416 713.047C131.199 713.047 130.213 714.034 130.213 715.251C130.213 716.468 131.199 717.455 132.416 717.455Z" fill="#6097B2"/>
<path d="M225.479 684.008C226.696 684.008 227.683 683.022 227.683 681.805C227.683 680.588 226.696 679.601 225.479 679.601C224.262 679.601 223.276 680.588 223.276 681.805C223.276 683.022 224.262 684.008 225.479 684.008Z" fill="#6097B2"/>
<path d="M197.226 698.519C197.226 699.737 196.238 700.722 195.022 700.722C193.806 700.722 192.818 699.735 192.818 698.519C192.818 697.302 193.806 696.315 195.022 696.315C196.238 696.315 197.226 697.3 197.226 698.519Z" fill="#6097B2"/>
<path d="M151.39 747.741C151.39 748.958 150.403 749.945 149.187 749.945C147.968 749.945 146.983 748.958 146.983 747.741C146.983 746.523 147.97 745.538 149.187 745.538C150.403 745.538 151.39 746.523 151.39 747.741Z" fill="#6097B2"/>
<path d="M183.19 738.466C184.407 738.466 185.394 737.48 185.394 736.263C185.394 735.046 184.407 734.059 183.19 734.059C181.973 734.059 180.986 735.046 180.986 736.263C180.986 737.48 181.973 738.466 183.19 738.466Z" fill="#6097B2"/>
<path d="M215.947 725.48C217.164 725.48 218.15 724.493 218.15 723.276C218.15 722.059 217.164 721.073 215.947 721.073C214.73 721.073 213.743 722.059 213.743 723.276C213.743 724.493 214.73 725.48 215.947 725.48Z" fill="#6097B2"/>
<path d="M203.37 761.198C203.37 762.417 202.382 763.402 201.166 763.402C199.95 763.402 198.962 762.415 198.962 761.198C198.962 759.982 199.95 758.995 201.166 758.995C202.382 758.995 203.37 759.98 203.37 761.198Z" fill="#6097B2"/>
<path d="M200.96 877.278H164.754C162.392 870.537 166.749 863.774 166.016 857.834C164.754 847.791 170.601 853.34 170.601 853.34C171.634 842.541 186.813 840.501 186.652 845.315C186.4 852.401 187.775 856.779 189.793 859.714C193.874 865.606 200.569 865.56 201.716 869.779C201.831 870.192 201.922 870.606 201.99 870.971C203.114 876.246 200.96 877.278 200.96 877.278Z" fill="#164353"/>
<path d="M201.99 870.973C194.491 872.716 177.203 870.446 176.516 866.089C175.851 861.87 185.161 859.897 189.791 859.714C193.872 865.606 200.567 865.56 201.714 869.779C201.831 870.192 201.922 870.605 201.99 870.973Z" fill="#205260"/>
<path d="M52.1252 596.829C48.2735 593.321 42.0138 599.122 42.0138 599.122C42.0138 599.122 45.3843 604.12 43.2054 606.137C41.0266 608.155 38.505 603.545 34.2176 605.563C33.8727 605.724 33.5072 605.931 33.1623 606.16C29.8145 608.155 26.3285 612.352 23.5094 615.538C22.9353 616.18 22.3859 616.777 21.882 617.304C18.6025 620.743 10.1433 622.76 8.55928 613.589C6.97732 604.417 17.2952 593.663 28.6229 583.781C39.9507 573.899 47.2636 579.769 47.2636 579.769C47.2636 579.769 49.8307 583.92 49.8307 586.509C49.8307 589.076 52.1231 590.361 53.4077 592.815C54.6943 595.247 52.1252 596.829 52.1252 596.829Z" fill="#164353"/>
<path d="M33.162 606.162C29.8143 608.157 26.3282 612.353 23.5091 615.54C19.2672 616.548 15.461 616.25 14.8641 612.26C13.4185 602.63 32.6333 590.386 31.0988 597.149C30.3202 600.544 31.6503 603.776 33.162 606.162Z" fill="#205260"/>
<path d="M703.599 861.622C701.813 860.684 700.169 858.623 698.69 856.017C698.69 856.017 697.418 848.307 698.69 840.209C699.963 832.11 696.437 825.497 684.971 823.012C673.825 820.598 667.212 825.968 669.786 848.375L669.788 848.384C668.092 857.692 667.741 868.321 671.609 877.278H705.919C705.919 877.278 711.33 865.68 703.599 861.622Z" fill="#CFD8DC"/>
<path d="M733.698 740.849C733.698 740.849 733.698 763.205 721.088 786.134C708.246 809.483 692.371 841.527 692.371 841.527C692.371 841.527 681.793 851.847 675.073 834.753C675.073 834.753 679.816 775.242 690.708 753.458C701.596 731.678 733.698 740.849 733.698 740.849Z" fill="#FF8B66"/>
<path d="M898.216 668.048C898.216 668.048 918.651 753.982 931.65 776.65C931.65 776.65 928.659 786.134 914.585 789C914.585 789 870.129 723.652 867.262 696.137C864.394 668.62 898.216 668.048 898.216 668.048Z" fill="#FF8B66"/>
<path d="M908.098 688.248C902.664 701.339 860.68 702.052 860.68 702.052L857.471 697.329L856.622 696.092L850.065 686.416C850.065 686.416 780.498 618.179 766.946 623.91H766.923C766.533 624.094 766.145 624.3 765.777 624.575C756.467 631.225 755.595 667.66 744.59 728.811C743.535 734.612 741.197 741.376 739.431 746.054C739.224 746.558 739.041 747.041 738.857 747.499C737.849 750.091 737.136 751.741 737.136 751.741C694.671 768.938 680.661 734.957 680.661 734.957C680.661 734.957 681.165 733.972 681.898 732.39C682.059 732.045 682.243 731.657 682.425 731.244C684.649 726.337 688.203 717.83 688.158 713.336C688.112 708.407 688.067 703.661 688.044 699.097C688.044 698.684 688.044 698.293 688.021 697.905C687.953 683.207 687.976 670.436 688.067 659.339V658.17C688.112 653.331 688.182 648.815 688.273 644.595V643.404C688.641 624.075 689.258 611.166 689.923 602.566C689.946 602.176 689.992 601.763 690.016 601.397C691.185 586.928 692.424 585.507 692.424 585.507L683.918 526.372H776.735C776.735 526.372 790.675 540.335 808.767 558.771C809.157 559.139 809.523 559.504 809.89 559.894C816.447 566.567 823.533 573.812 830.641 581.172C830.939 581.47 831.214 581.744 831.468 582.021C834.266 584.91 837.062 587.8 839.836 590.666C840.181 591.009 840.501 591.377 840.846 591.722C850.156 601.374 859.189 610.891 866.917 619.214C867.192 619.488 867.444 619.765 867.698 620.04C878.268 631.481 886.316 640.63 889.091 644.895C896.452 656.152 902.183 670.805 905.349 679.861C905.349 679.861 905.349 679.861 905.349 679.884C905.51 680.297 905.646 680.665 905.785 681.053C907.272 685.452 908.098 688.248 908.098 688.248Z" fill="#8B383E"/>
<path d="M706.319 594.353C702.536 598.824 697.032 601.575 689.925 602.562C689.948 602.172 689.994 601.759 690.018 601.393C696.714 600.431 701.895 597.816 705.45 593.597C711.823 586.075 710.792 575.919 710.77 575.828L711.916 575.689C711.959 576.125 713.015 586.443 706.319 594.353Z" fill="#662C33"/>
<path d="M809.892 559.891C809.525 559.913 809.182 559.936 808.814 559.936C798.496 559.936 787.72 548.656 787.169 548.082L787.995 547.278C788.133 547.439 798.864 558.674 808.769 558.765C809.157 559.135 809.525 559.5 809.892 559.891Z" fill="#662C33"/>
<path d="M739.429 746.054C739.222 746.558 739.038 747.041 738.855 747.5C731.975 750.021 725.67 751.054 719.915 751.054C701.571 751.054 688.868 740.436 681.898 732.388C682.059 732.043 682.243 731.655 682.425 731.242C691.346 741.696 710.402 757.128 739.429 746.054Z" fill="#662C33"/>
<path d="M764.354 602.608C765.891 609.187 766.876 616.366 766.921 623.908C766.531 624.092 766.143 624.299 765.775 624.573C765.729 589.95 745.689 562.939 745.459 562.641L746.376 561.954C746.56 562.183 758.437 578.234 764.055 601.416C766.392 599.879 767.976 597.678 768.639 594.836C771.529 582.684 758.39 562.827 758.276 562.621L759.216 561.978C759.765 562.827 772.745 582.455 769.763 595.088C768.986 598.388 767.15 600.887 764.354 602.608Z" fill="#662C33"/>
<path d="M867.696 620.034C864.28 623.749 861.068 626.913 860.771 627.188L860.151 627.807L859.854 626.981C855.36 615.218 826.47 589.721 826.17 589.469L825.825 589.146L830.641 581.166C830.939 581.464 831.214 581.738 831.468 582.015L827.432 588.711C833.049 590.66 837.04 591.003 839.836 590.66C840.181 591.003 840.501 591.371 840.846 591.716C839.906 591.877 838.896 591.968 837.843 591.968C835.251 591.968 832.294 591.441 828.969 590.431C835.526 596.346 855.911 615.241 860.589 625.765C862.4 623.976 864.693 621.616 866.917 619.208C867.192 619.485 867.444 619.759 867.696 620.034Z" fill="#662C33"/>
<path d="M709.163 698.888L708.704 698.979C708.269 699.095 703.064 700.171 697.079 700.171C694.076 700.171 690.91 699.896 688.046 699.093C688.046 698.68 688.046 698.289 688.023 697.901C695.59 700.08 705.702 698.405 707.994 697.969L706.069 650.254C704.991 652.869 702.86 656.446 698.87 658.416C696.966 659.379 694.834 659.837 692.497 659.837C691.098 659.837 689.63 659.676 688.071 659.333V658.164C692.038 659.081 695.477 658.829 698.343 657.384C703.205 654.975 705.13 649.817 705.726 647.776C701.897 648.348 694.169 646.401 688.277 644.589V643.398C694.628 645.325 703.227 647.549 706.323 646.471L707.056 646.219L709.163 698.888Z" fill="#662C33"/>
<path d="M905.78 681.049C899.108 687.629 885.442 697.695 864.416 697.695C862.192 697.695 859.877 697.581 857.469 697.327L856.62 696.09C882.185 699.025 898.213 687.032 905.345 679.878C905.506 680.293 905.644 680.659 905.78 681.049Z" fill="#662C33"/>
<path d="M793.887 274.954C793.887 274.954 791.337 269.08 780.56 269.078C772.256 269.076 769.078 273.663 769.078 273.663C764.109 288.186 758.77 343.788 756.858 345.766C755.889 346.77 694.29 388.256 694.29 388.256C727.717 388.882 748.574 430.087 748.574 430.087C749.654 416.547 787.406 362.893 787.811 358.108C788.577 349.085 804.548 308.776 793.887 274.954Z" fill="#CE364C"/>
<path d="M686.949 565.685C686.949 565.685 686.64 577.286 690.392 578.05C694.145 578.814 724.716 587.849 759.875 571.869C795.033 555.886 801.148 544.04 790.828 535.25C780.51 526.461 686.949 565.685 686.949 565.685Z" fill="#CE364C"/>
<path d="M672.863 396.286C672.863 396.286 640.874 392.496 622.531 400.435C622.531 400.435 617.415 423.136 642.615 473.936C667.815 524.738 661.971 556.735 690.392 568.779C715.588 579.459 789.874 547.681 792.208 537.142C798.081 510.612 752.655 464.052 749.788 437.072C746.921 410.094 720.553 369.531 672.863 396.286Z" fill="#F24052"/>
<path d="M622.531 400.435C600.175 408.373 575.025 433.474 574.99 445.572C574.955 457.67 595.966 462.335 595.966 462.335L630.416 445.572C630.416 445.572 640.269 438.693 633.997 418.639C627.723 398.588 622.531 400.435 622.531 400.435Z" fill="#CE364C"/>
<path d="M714.388 422.805C707.709 422.805 699.424 420.399 694.275 416.729C691.437 414.707 689.746 412.427 689.38 410.133C688.117 402.192 695.849 398.154 696.181 397.987L697.222 400.027C696.954 400.166 690.649 403.491 691.646 409.771C691.91 411.444 693.282 413.204 695.605 414.86C701.369 418.97 711.338 421.38 717.829 420.236C720.753 419.719 722.668 418.666 723.517 417.109C724.555 415.203 723.669 413.047 723.659 413.024L725.766 412.117C725.821 412.245 727.102 415.281 725.545 418.175C724.351 420.391 721.889 421.842 718.228 422.489C717.042 422.704 715.747 422.805 714.388 422.805Z" fill="#CFD8DC"/>
<path d="M686.039 446.999C681.093 446.999 672.879 444.936 671.729 436.816C671.142 432.683 671.52 429.236 671.853 426.196C672.342 421.719 672.73 418.181 670.122 413.943C665.814 406.948 659.949 406.477 659.701 406.461L659.839 404.173C660.133 404.189 667.109 404.683 672.074 412.741C675.095 417.65 674.626 421.923 674.131 426.446C673.798 429.494 673.453 432.646 673.998 436.493C675.242 445.256 686.41 444.707 686.883 444.682L687.02 446.97C686.71 446.989 686.382 446.999 686.039 446.999Z" fill="#CFD8DC"/>
<path d="M692.999 405.848C692.999 405.848 709.909 394.33 705.896 381.862C701.883 369.394 647.427 370.254 633.382 385.158C619.338 400.063 663.763 409.955 663.763 409.955C667.202 403.025 689.176 402.26 692.999 405.848Z" fill="#CE364C"/>
<path d="M662.594 403.896C654.571 401.172 649.813 395.381 651.533 388.692C653.253 382.005 687.749 381.827 694.289 387.17C700.832 392.515 691.617 413.749 662.594 403.896Z" fill="#A02E44"/>
<path d="M658.776 385.1C658.776 385.1 665.874 397.227 662.594 403.896C662.594 403.896 686.948 412.303 686.948 398.677C686.948 398.677 682.359 388.464 684.087 381.862L658.776 385.1Z" fill="#EF6E4B"/>
<path d="M650.655 374.508C650.655 374.508 638.689 355.344 639.798 337.038C640.354 327.885 645.06 324.3 645.06 324.3C645.06 324.3 641.26 319.017 645.333 310.944C645.333 310.944 650.969 317.466 670.75 315.409C689.824 313.426 691.726 327.024 691.726 327.024C705.361 329.05 696.162 370.292 686.648 374.51L650.655 374.508Z" fill="#FFB878"/>
<path d="M645.579 356.813C645.579 356.813 638.702 349.95 637.855 357.973C636.874 367.269 645.317 371.013 646.967 368.056C648.615 365.098 645.579 356.813 645.579 356.813Z" fill="#FF8B66"/>
<path d="M693.738 357.296C693.738 357.296 700.615 350.433 701.462 358.457C702.443 367.752 694 371.496 692.35 368.539C690.7 365.584 693.738 357.296 693.738 357.296Z" fill="#FF8B66"/>
<path d="M668.933 390.482C653.673 390.482 645.061 380.514 645.061 350.619C645.061 335.198 652.906 325.74 670 325.74C687.092 325.74 694.291 335.198 694.291 350.619C694.291 382.742 684.698 390.482 668.933 390.482Z" fill="#FF8B66"/>
<path d="M689.238 361.28C689.506 362.814 688.168 364.328 686.249 364.663C684.333 364.997 682.559 364.025 682.292 362.492C682.026 360.958 683.362 359.444 685.281 359.109C687.197 358.775 688.969 359.748 689.238 361.28Z" fill="#DB614D"/>
<path d="M657.849 362.116C657.747 363.67 656.089 364.826 654.148 364.7C652.204 364.574 650.711 363.211 650.812 361.658C650.914 360.105 652.57 358.946 654.513 359.074C656.459 359.2 657.95 360.561 657.849 362.116Z" fill="#DB614D"/>
<path d="M682.518 345.252C682.317 345.283 682.109 345.235 681.937 345.103C679.509 343.236 675.863 343.897 675.808 343.905C675.401 343.971 674.996 343.711 674.92 343.296C674.839 342.881 675.114 342.484 675.529 342.406C675.688 342.371 679.903 341.615 682.867 343.895C683.201 344.151 683.263 344.63 683.007 344.965C682.881 345.126 682.703 345.223 682.518 345.252Z" fill="#FFB878"/>
<path d="M653.311 345.357C653.123 345.334 652.946 345.242 652.816 345.085C652.549 344.758 652.597 344.277 652.921 344.011C655.812 341.642 660.046 342.27 660.209 342.299C660.624 342.365 660.909 342.753 660.845 343.168C660.781 343.585 660.374 343.862 659.976 343.806C659.949 343.796 656.236 343.267 653.889 345.192C653.718 345.328 653.509 345.382 653.311 345.357Z" fill="#FFB878"/>
<path d="M680.94 353.866C680.94 355.76 680.087 357.298 679.034 357.296C677.98 357.296 677.127 355.76 677.127 353.866C677.127 351.97 677.98 350.433 679.034 350.433C680.087 350.433 680.94 351.97 680.94 353.866Z" fill="#1A4850"/>
<path d="M660.56 353.866C660.56 355.76 659.707 357.298 658.654 357.296C657.601 357.296 656.748 355.76 656.748 353.866C656.748 351.97 657.601 350.433 658.654 350.433C659.707 350.433 660.56 351.97 660.56 353.866Z" fill="#1A4850"/>
<path d="M649.743 329.05C649.743 329.05 666.006 335.004 689.321 333.329C689.321 333.329 694.292 339.525 693.689 361.389C693.689 361.389 707.342 322.005 667.487 322.005C627.632 322.005 645.587 360.516 645.587 360.516C645.587 360.516 642.329 336.429 649.743 329.05Z" fill="#FFB878"/>
<path d="M669.899 364.056L668.757 362.905L671.776 359.907C668.85 355.768 668.864 346.191 668.869 345.764L670.49 345.772C670.49 345.875 670.473 356.179 673.462 359.417L673.992 359.991L669.899 364.056Z" fill="#DB614D"/>
<path d="M659.771 369.047C659.771 369.047 674.791 369.681 682.373 367.676C682.373 367.676 683.713 378.599 672.074 379.14C659.771 379.712 659.771 369.047 659.771 369.047Z" fill="#1A4850"/>
<path d="M723.952 410.339C726.819 409.806 726.532 417.307 723.952 415.133C721.373 412.96 721.086 410.872 723.952 410.339Z" fill="#CFD8DC"/>
<path d="M689.388 446.685C688.953 449.568 681.96 446.838 684.859 445.114C687.757 443.389 689.824 443.802 689.388 446.685Z" fill="#CFD8DC"/>
<path d="M658.623 462.335C658.623 462.335 654.071 474.006 654.331 480.6C654.591 487.195 656.747 486.333 656.747 486.333C656.747 486.333 653.296 487.692 652.642 491.492C651.989 495.292 661.584 498.084 662.243 498.084C662.902 498.084 669.674 495.505 669.674 495.505L671.093 473.938L665.097 470.173L658.623 462.335Z" fill="#EF6E4B"/>
<path d="M662.243 460.826C662.243 460.826 670.529 465.985 673.738 469.138C676.948 472.292 675.116 496.653 673.738 497.799C672.361 498.946 661.797 501.31 659.771 499.984C657.745 498.659 660.56 491.494 660.56 491.494C660.56 491.494 665.866 490.348 665.1 492.353C664.335 494.361 665.1 496.079 665.1 496.079L667.278 495.22C667.278 495.22 666.209 489.774 667.278 485.761C668.348 481.748 659.808 477.517 658.776 470.175C657.743 462.831 662.243 460.826 662.243 460.826Z" fill="#FF8B66"/>
<path d="M576.365 448.955C573.711 437.499 585.082 433.445 600.9 435.399C619.243 437.664 656.913 442.462 665.101 462.336C665.101 462.336 667.776 470.173 660.855 473.938C641.504 484.462 581.346 470.473 576.365 448.955Z" fill="#CE364C"/>
<path d="M633.747 441.365C633.747 441.365 611.887 432.285 600.995 431.363C590.103 430.444 616.055 439.961 633.747 441.365Z" fill="#A02E44"/>
<path d="M797.625 244.545C795.975 246.425 793.244 253.74 793.244 253.74C792.098 259.884 791.433 263.279 789.277 266.098C787.144 268.919 788.267 273.894 788.267 273.894C788.267 273.894 779.922 278.182 772.904 272.884C772.904 272.884 773.637 267.955 772.904 266.557C771.46 263.76 766.828 262.269 765.246 256.629C763.664 250.966 758.918 244.659 758.918 244.659C758.918 244.659 760.271 241.724 762.747 243.513C765.246 245.324 766.828 249.841 768.181 250.299C768.456 250.39 768.732 250.46 769.007 250.483C769.007 250.483 769.03 250.483 769.075 250.506C770.108 250.644 771.161 250.415 771.803 249.795C771.849 249.772 771.919 249.727 771.964 249.657C774.234 247.02 774.763 239.269 774.67 235.807C774.531 230.993 774.715 224.343 777.65 225.467C780.585 226.59 777.902 229.273 780.172 239.89L781.272 240.029C781.479 240.785 783.496 233.585 783.978 226.822C784.323 222.167 787.371 223.887 788.036 225.353C788.724 226.822 787.691 231.452 787.487 234.822C787.325 237.047 787.142 239.362 787.028 240.739L788.313 241.45C792.945 233.379 791.363 230.031 794.068 229.87C796.751 229.709 795.789 236.52 794.343 239.11C793.724 240.233 793.129 242.571 792.645 244.866C797.391 239.384 796.865 236.52 799.044 236.863C801.293 237.23 799.275 242.664 797.625 244.545Z" fill="#FF8B66"/>
<path d="M777.125 257.178C775.521 252.752 769.788 250.735 769.077 250.505C770.11 250.644 771.163 250.415 771.805 249.795C777.423 252.317 777.125 257.178 777.125 257.178Z" fill="#EF6E4B"/>
<path d="M677.52 843.646C677.52 843.646 674.348 837.172 677.175 834.39C680.002 831.608 683.333 836.767 688.164 835.621C692.997 834.474 694.116 831.04 695.372 835.718C696.629 840.397 695.099 855.11 677.52 843.646Z" fill="#CFD8DC"/>
<path d="M695.709 843.359C695.709 843.359 682.731 847.956 676.004 843.359L677.714 848.976C677.714 848.976 691.82 850.469 693.765 846.915L695.709 843.359Z" fill="#ADBEC4"/>
<path d="M695.533 850.339C695.533 850.339 683.652 848.691 677.918 851.64V854.426C677.918 854.426 693.41 850.81 698.418 854.426L695.533 850.339Z" fill="#ADBEC4"/>
<path d="M677.349 860.209C677.349 860.209 679.653 854.594 686.882 854.191C694.11 853.788 698.988 857.768 698.988 857.768C698.988 857.768 687.524 853.045 677.349 860.209Z" fill="#ADBEC4"/>
<path d="M983.191 782.189C960.377 812.638 929.33 818.485 929.33 818.485C920.32 811.286 920.091 802.756 920.091 802.756C920.091 802.756 911.4 795.006 910.254 791.292C909.108 787.577 917.705 776.388 922.864 777.536C926.418 778.314 928.482 781.158 929.421 782.833C925.157 773.226 928.572 769.878 934.626 770.704C940.931 771.553 934.97 773.044 939.487 778.11C939.807 778.478 940.175 778.775 940.565 779.05C941.391 779.624 942.376 780.012 943.5 780.219C944.485 780.402 945.586 780.448 946.732 780.38C947.329 780.357 947.946 780.289 948.566 780.196C949.735 780.012 950.926 779.715 952.166 779.324C954.07 778.728 956.04 777.881 957.967 776.825C965.854 772.515 969.179 771.047 975.187 772.583C981.172 774.097 981.079 778.637 981.079 778.637L983.191 782.189Z" fill="#CFD8DC"/>
<path d="M983.191 782.189C960.377 812.639 929.33 818.485 929.33 818.485C945.175 811.676 959.735 802.756 969.685 791.772C979.614 780.791 983.191 782.189 983.191 782.189Z" fill="#ADBEC4"/>
<path d="M940.565 779.048C941.391 779.622 942.376 780.01 943.5 780.216C937.469 781.431 937.034 786.821 937.034 786.821L934.467 785.995C935.016 779.529 940.129 779.07 940.565 779.048Z" fill="#ADBEC4"/>
<path d="M944.623 787.463L941.941 787.554C940.931 783.748 942.238 781.478 943.5 780.217C944.485 780.4 945.586 780.446 946.732 780.378C943.545 783.519 944.623 787.463 944.623 787.463Z" fill="#ADBEC4"/>
<path d="M951.25 785.995L948.59 786.338C947.558 783.632 947.857 781.615 948.568 780.194C949.737 780.01 950.928 779.713 952.167 779.322C949.966 782.602 951.25 785.995 951.25 785.995Z" fill="#ADBEC4"/>
<path d="M695.944 503.245C695.944 503.245 701.832 535.021 689.924 547.683C678.018 560.345 685.894 549.94 689.445 533.614C692.999 517.289 690.293 500.092 695.944 503.245Z" fill="#CE364C"/>
<path d="M750.895 489.064C750.895 489.064 769.664 495.23 779.482 512.566C779.482 512.566 766.372 484.341 750.895 489.064Z" fill="#CE364C"/>
<path d="M263.402 252.984C265.903 253.023 273.156 255.91 273.156 255.91C278.48 259.186 281.441 260.972 284.979 261.267C288.5 261.581 289.946 267.63 289.946 267.63C289.946 267.63 303.835 270.668 304.619 261.912C304.619 261.912 296.856 250.923 296.311 249.44C295.208 246.491 297.212 242.059 294.095 237.098C290.96 232.123 289.473 224.372 289.473 224.372C289.473 224.372 286.39 223.406 286.053 226.442C285.719 229.511 288.003 233.715 287.435 235.027C287.317 235.291 287.185 235.543 287.018 235.762C287.018 235.762 287.003 235.778 286.989 235.828C286.398 236.685 285.52 237.313 284.63 237.373C284.583 237.391 284.502 237.412 284.419 237.4C280.942 237.313 274.843 232.499 272.34 230.107C268.864 226.772 263.813 222.445 262.675 225.374C261.537 228.304 265.327 228.116 271.671 236.925L271.035 237.833C271.456 238.494 264.767 235.157 259.43 230.973C255.75 228.102 254.978 231.518 255.618 232.995C256.244 234.49 260.37 236.834 263.005 238.944C264.761 240.318 266.601 241.737 267.697 242.577L267.363 244.006C258.272 242.02 256.853 238.6 254.918 240.497C252.997 242.377 258.691 246.237 261.582 246.906C262.83 247.201 264.965 248.329 266.987 249.512C259.738 249.351 257.968 247.036 256.762 248.88C255.519 250.793 260.901 252.945 263.402 252.984Z" fill="#FF8B66"/>
<path d="M286.528 246.274C284.326 242.112 286.679 236.51 286.986 235.83C286.396 236.687 285.518 237.315 284.628 237.375C282.724 243.23 286.528 246.274 286.528 246.274Z" fill="#EF6E4B"/>
<path d="M672.018 252.984C669.517 253.023 662.264 255.91 662.264 255.91C656.94 259.186 653.979 260.972 650.441 261.267C646.92 261.581 645.474 267.63 645.474 267.63C645.474 267.63 631.585 270.668 630.801 261.912C630.801 261.912 638.566 250.923 639.109 249.44C640.212 246.491 638.209 242.059 641.325 237.098C644.46 232.123 645.947 224.372 645.947 224.372C645.947 224.372 649.03 223.406 649.367 226.442C649.702 229.511 647.417 233.715 647.985 235.027C648.103 235.291 648.235 235.543 648.405 235.762C648.405 235.762 648.419 235.778 648.434 235.828C649.024 236.685 649.902 237.313 650.792 237.373C650.84 237.391 650.92 237.412 651.003 237.4C654.481 237.313 660.579 232.499 663.084 230.107C666.56 226.772 671.612 222.445 672.749 225.374C673.887 228.304 670.098 228.116 663.753 236.925L664.389 237.833C663.968 238.494 670.657 235.157 675.994 230.973C679.674 228.102 680.447 231.518 679.806 232.995C679.181 234.49 675.054 236.834 672.419 238.944C670.664 240.318 668.823 241.737 667.727 242.577L668.061 244.006C677.153 242.02 678.571 238.6 680.506 240.497C682.427 242.377 676.733 246.237 673.842 246.906C672.595 247.201 670.459 248.329 668.437 249.512C675.684 249.351 677.456 247.036 678.662 248.88C679.901 250.793 674.519 252.945 672.018 252.984Z" fill="#FF8B66"/>
<path d="M648.892 246.274C651.094 242.112 648.741 236.51 648.434 235.83C649.024 236.687 649.902 237.315 650.792 237.375C652.696 243.23 648.892 246.274 648.892 246.274Z" fill="#EF6E4B"/>
<path d="M549.968 673.971L523.287 508.772L469.864 514.738L416.441 508.772L389.76 673.971L376.946 834.193C376.946 834.193 381.02 847.469 407.67 838.297C407.67 838.297 427.442 689.688 430.499 686.414C433.556 683.141 464.953 586.073 464.953 586.073H474.773C474.773 586.073 506.169 683.141 509.227 686.414C512.284 689.688 532.056 838.297 532.056 838.297C558.708 847.469 562.781 834.193 562.781 834.193L549.968 673.971Z" fill="#0E3944"/>
<path d="M453.033 348.796C456.407 352.08 473.01 358.005 481.776 348.796L487.72 354.634C487.72 354.634 480.942 370.574 469.048 371.131C457.153 371.689 448.555 356.95 448.555 356.95L453.033 348.796Z" fill="#0C476B"/>
<path d="M500.052 346.995C519.923 338.439 584.125 315.699 584.125 315.699C584.125 315.699 627.284 261.627 636.086 253.602C636.086 253.602 645.639 255.322 648.436 267.216C648.436 267.216 620.644 326.723 605.539 343.759C590.432 360.795 513.922 397.641 513.922 397.641L500.052 346.995Z" fill="#0C476B"/>
<path d="M430.499 345.768C436.412 342.03 466.091 361.885 466.091 361.885C466.091 361.885 504.678 341.394 513.734 345.363C513.734 345.363 521.896 356.284 525.173 384.359C528.453 412.433 528.669 527.966 528.669 527.966C528.669 527.966 502.726 537.144 467.636 537.144C427.633 537.144 406.111 525.672 406.111 525.672C406.111 525.672 398.971 365.708 430.499 345.768Z" fill="#FFB878"/>
<path d="M454.6 342.767C454.6 342.767 458.873 356.21 454.6 361.39C454.6 361.39 459.038 370.702 467.016 371.115C476.233 371.59 479.43 361.39 479.43 361.39C479.43 361.39 474.556 348.406 479.43 343.843L454.6 342.767Z" fill="#EF6E4B"/>
<path d="M443.946 329.535C443.946 329.535 434.952 312.225 436.732 293.724C438.512 275.226 466.386 270.984 485.17 280.073C485.17 280.073 479.593 274.621 481.776 273.105C483.959 271.591 487.72 281.286 487.72 281.286C487.72 281.286 493.653 279.468 494.562 281.286C495.471 283.105 488.484 284.098 488.484 284.098C488.484 284.098 500.605 290.821 489.281 326.597L443.946 329.535Z" fill="#8B383E"/>
<path d="M442.593 318.573C442.593 318.573 435.887 311.882 435.061 319.705C434.105 328.769 442.337 332.421 443.946 329.538C445.554 326.653 442.593 318.573 442.593 318.573Z" fill="#FF8B66"/>
<path d="M489.552 319.046C489.552 319.046 496.258 312.353 497.084 320.178C498.04 329.242 489.808 332.893 488.199 330.01C486.59 327.125 489.552 319.046 489.552 319.046Z" fill="#FF8B66"/>
<path d="M465.366 351.402C450.486 351.402 442.089 341.683 442.089 312.533C442.089 297.496 449.738 288.272 466.407 288.272C483.073 288.272 490.093 297.496 490.093 312.533C490.093 343.856 480.737 351.402 465.366 351.402Z" fill="#FF8B66"/>
<path d="M485.163 322.929C485.425 324.424 484.12 325.901 482.249 326.227C480.378 326.553 478.652 325.605 478.391 324.11C478.129 322.615 479.434 321.138 481.305 320.812C483.174 320.486 484.903 321.434 485.163 322.929Z" fill="#DB614D"/>
<path d="M454.559 323.745C454.459 325.26 452.844 326.388 450.949 326.264C449.055 326.14 447.599 324.812 447.698 323.296C447.797 321.783 449.412 320.653 451.308 320.777C453.202 320.901 454.658 322.229 454.559 323.745Z" fill="#DB614D"/>
<path d="M478.358 307.803C478.162 307.803 477.968 307.727 477.821 307.574C475.758 305.411 472.148 305.504 472.094 305.504C471.692 305.506 471.341 305.195 471.328 304.784C471.314 304.373 471.636 304.03 472.047 304.017C472.206 304.007 476.382 303.91 478.895 306.547C479.178 306.845 479.168 307.316 478.872 307.599C478.728 307.737 478.542 307.803 478.358 307.803Z" fill="#8B383E"/>
<path d="M450.341 307.803C450.158 307.803 449.974 307.737 449.829 307.599C449.532 307.316 449.522 306.845 449.802 306.548C452.318 303.908 456.488 304.009 456.651 304.018C457.062 304.032 457.382 304.375 457.369 304.784C457.357 305.195 456.998 305.511 456.603 305.505C456.576 305.498 452.919 305.43 450.88 307.574C450.732 307.727 450.538 307.803 450.341 307.803Z" fill="#8B383E"/>
<path d="M477.072 315.698C477.072 317.547 476.239 319.044 475.213 319.044C474.187 319.044 473.354 317.545 473.354 315.698C473.354 313.85 474.187 312.353 475.213 312.353C476.241 312.353 477.072 313.85 477.072 315.698Z" fill="#1A4850"/>
<path d="M457.202 315.698C457.202 317.547 456.37 319.044 455.343 319.044C454.317 319.044 453.485 317.547 453.485 315.698C453.485 313.85 454.317 312.353 455.343 312.353C456.37 312.353 457.202 313.852 457.202 315.698Z" fill="#1A4850"/>
<path d="M457.202 335.469C457.202 335.469 470.325 337.158 477.074 333.918C477.074 333.918 473.257 342.852 466.091 342.051C458.923 341.251 457.202 335.469 457.202 335.469Z" fill="#1A4850"/>
<path d="M488.542 322.349C488.542 322.349 488.077 306.165 481.776 293.727C481.776 293.727 470.67 298.861 468.224 297.648C465.779 296.436 470.554 293.727 470.554 293.727C470.554 293.727 452.227 299.769 451.126 298.557C450.026 297.345 457.2 293.727 457.2 293.727L445.784 297.648C445.784 297.648 442.264 312.208 443.72 322.351C443.72 322.351 438.816 313.885 438.208 308.039C437.601 302.192 440.172 285.53 457.367 284.317C474.565 283.105 484.222 287.008 488.482 294.904C492.745 302.797 492.216 312.51 488.542 322.349Z" fill="#8B383E"/>
<path d="M467.96 330.793C466.514 330.795 465.046 330.419 464.602 330.296L465.023 328.773C466.585 329.205 469.034 329.461 469.569 328.831C469.753 328.612 469.68 328.104 469.364 327.437C467.215 322.863 466.766 311.283 466.748 310.794L468.33 310.736C468.334 310.854 468.782 322.483 470.796 326.764C471.411 328.069 471.403 329.108 470.777 329.852C470.166 330.574 469.069 330.793 467.96 330.793Z" fill="#DB614D"/>
<path d="M484.424 353.054C484.424 353.054 511.354 436.655 513.919 504.677C513.919 504.677 523.64 507.351 534.584 492.449C545.528 477.544 539.018 359.492 518.052 339.835C518.052 339.835 508.537 337.666 484.424 353.054Z" fill="#105E99"/>
<path d="M488.812 367.674C488.812 367.674 493.633 356.474 491.491 348.794C489.349 341.113 481.776 348.794 481.776 348.794C481.776 348.794 484.837 361.369 488.812 367.674Z" fill="#0C476B"/>
<path d="M434.757 346.995C414.886 338.439 350.684 315.699 350.684 315.699C350.684 315.699 307.415 260.049 298.614 252.026C298.614 252.026 287.722 258.188 286.984 270.943C286.984 270.943 314.165 326.725 329.272 343.761C344.379 360.797 420.889 397.642 420.889 397.642L434.757 346.995Z" fill="#0C476B"/>
<path d="M450.387 353.054C450.387 353.054 423.456 436.655 420.891 504.677C420.891 504.677 411.17 507.351 400.227 492.449C389.283 477.544 395.793 359.492 416.759 339.835C416.759 339.835 426.271 337.666 450.387 353.054Z" fill="#105E99"/>
<path d="M445.996 367.674C445.996 367.674 441.176 356.474 443.318 348.794C445.459 341.113 453.032 348.794 453.032 348.794C453.032 348.794 449.974 361.369 445.996 367.674Z" fill="#0C476B"/>
<path d="M586.537 877.278H533.066C529.328 856.023 535.29 834.745 535.29 834.745L559.732 830.548C561.956 843.985 564.639 849.282 568.354 852.01C568.377 852.01 568.377 852.01 568.377 852.01C571.083 853.982 574.315 854.625 578.352 856.023C582.962 857.628 585.392 860.539 586.607 863.703C589.015 869.986 586.537 877.278 586.537 877.278Z" fill="#662C33"/>
<path d="M586.607 863.703C573.423 865.353 544.462 868.174 546.228 860.539C547.696 854.164 559.916 852.446 568.355 852.01C568.377 852.01 568.377 852.01 568.377 852.01C571.083 853.982 574.315 854.625 578.352 856.023C582.96 857.627 585.391 860.539 586.607 863.703Z" fill="#8B383E"/>
<path d="M407.459 877.278H353.989C353.989 877.278 352.291 872.28 353.072 866.983C353.714 862.673 356.006 858.154 362.175 856.023C366.808 854.418 370.362 853.821 373.274 851.093C376.438 848.113 378.8 842.609 380.795 830.548L405.237 834.745C405.237 834.745 411.175 856.023 407.459 877.278Z" fill="#662C33"/>
<path d="M353.072 866.983C353.714 862.673 356.006 858.154 362.175 856.023C366.807 854.418 370.362 853.821 373.274 851.093C380.037 853.179 389.508 857.01 392.443 862.809C396.524 870.764 365.271 869.505 353.072 866.983Z" fill="#8B383E"/>
<path d="M791.343 873.449C791.343 875.696 791.114 877.278 791.114 877.278H726.156C726.156 875.993 726.179 874.711 726.247 873.449C726.981 856.458 732.346 841.715 732.346 841.715L748.581 834.745C749.979 843.113 753.579 848.456 758.097 851.942C759.289 852.882 760.528 853.662 761.813 854.327C762.409 854.649 763.004 854.947 763.624 855.221C764.976 855.841 766.375 856.345 767.775 856.758C773.508 858.501 779.309 858.867 783.367 859.486C790.288 860.562 791.343 868.565 791.343 873.449Z" fill="#164353"/>
<path d="M791.343 873.449C791.343 875.696 791.113 877.278 791.113 877.278H726.156C726.156 875.993 726.179 874.711 726.247 873.449H791.343Z" fill="#225866"/>
<path d="M761.808 854.325L752.798 857.215L750.893 853.912L758.093 851.94C759.286 852.882 760.526 853.66 761.808 854.325Z" fill="#225866"/>
<path d="M767.77 856.756L761.695 860.791L757.957 859.323L763.619 855.219C764.974 855.839 766.372 856.343 767.77 856.756Z" fill="#225866"/>
<path d="M543.154 873.449C542.993 875.651 542.421 877.278 542.421 877.278H499.155C498.606 876.016 498.215 874.756 497.938 873.449C493.674 852.743 522.426 827.407 522.426 827.407L531.552 839.584C531.552 839.584 530.497 859.073 538.225 863.131C542.857 865.56 543.454 870.147 543.154 873.449Z" fill="#164353"/>
<path d="M497.939 873.449H543.155C542.994 875.651 542.421 877.278 542.421 877.278H499.155C498.604 876.016 498.213 874.754 497.939 873.449Z" fill="#225866"/>
<path d="M536.248 861.578C536.248 861.578 518.019 857.423 509.708 862.803V859.794C509.708 859.794 525.04 852.343 536.248 861.578Z" fill="#225866"/>
<path d="M532.636 856.954C532.636 856.954 520.997 851.632 509.706 856.954L510.995 853.918C510.995 853.918 524.481 848.819 532.636 856.954Z" fill="#225866"/>
<path d="M771.737 689.372C771.76 706.775 756.306 848.662 756.306 848.662C740.852 850.199 728.471 847.103 728.471 847.103C724.229 775.196 723.816 713.357 723.816 713.357L649.755 657.846L649.571 657.708C649.571 657.708 649.296 658.97 648.79 661.217C645.123 677.497 629.598 745.688 623.132 761.303C615.772 779.097 535.294 853.92 535.294 853.92C520.344 851.857 507.659 841.029 507.659 841.029C536.55 793.108 575.942 745.048 575.942 745.048C579.015 727.783 581.216 689.376 582.524 660.669C582.546 660.233 582.569 659.775 582.592 659.339C583.463 639.895 583.899 625.22 583.899 625.22L570.324 597.383L656.562 565.694L675.89 590.435C675.89 590.435 680.316 594.539 687.286 601.098C687.606 601.395 687.928 601.695 688.249 601.992C714.138 626.409 771.737 681.575 771.737 689.372Z" fill="#8BBDDB"/>
<path d="M582.526 660.665C582.549 660.23 582.571 659.771 582.594 659.335C600.754 649.476 597.705 633.745 597.658 633.586L598.781 633.357C598.827 633.516 602.084 650.416 582.526 660.665Z" fill="#6097B2"/>
<path d="M648.423 646.723C649.043 650.162 649.501 653.877 649.753 657.844L649.569 657.706C649.569 657.706 649.295 658.968 648.789 661.215C647.987 634.249 636.866 618.314 636.728 618.13L637.667 617.465C637.781 617.603 644.799 627.738 648.192 645.416C661.308 633.768 648.466 609.898 648.33 609.669L649.338 609.12C649.478 609.371 663.076 634.639 648.423 646.723Z" fill="#6097B2"/>
<path d="M688.251 601.988C688.228 602.011 688.183 602.011 688.16 602.034C687.633 602.24 687.014 602.331 686.372 602.331C680.021 602.331 669.358 593.434 668.854 592.998L669.61 592.127C673.074 595.061 682.726 602.102 687.289 601.092C687.611 601.393 687.931 601.691 688.251 601.988Z" fill="#6097B2"/>
<path d="M576.365 448.955C576.365 448.955 602.598 444.734 615.741 453.112C628.884 461.491 646.141 483.36 646.141 483.36C646.141 483.36 625.652 486.065 623.333 499.982C623.333 499.982 608.451 464.539 576.365 448.955Z" fill="#ADBEC4"/>
<path d="M536.903 462.637C525.807 468.637 507.259 491.158 506.42 505.007C505.602 518.516 515.611 530.94 522.356 541.502C543.406 574.461 565.57 603.582 574.99 642.239C575.05 642.485 623.14 661.568 679.581 593.725C679.581 593.725 647.688 550.816 636.672 514.284C632.188 499.415 627.624 483.618 619.01 470.512C609.522 456.076 593.271 447.584 576.367 448.953C562.062 450.116 547.834 456.726 536.903 462.637Z" fill="#CFD8DC"/>
<path d="M532.246 448.813C532.246 448.813 539.342 460.939 536.064 467.608C536.064 467.608 560.42 476.016 560.42 462.389C560.42 462.389 555.829 452.177 557.559 445.574L532.246 448.813Z" fill="#EF6E4B"/>
<path d="M586.363 531.853C586.363 531.853 572.815 535.701 569.397 540.496C565.979 545.291 562.937 556.049 562.937 556.049H586.363L590.768 547.945L595.925 537.144L586.363 531.853Z" fill="#EF6E4B"/>
<path d="M563.968 435.289C563.968 435.289 573.478 431.299 567.326 402.694C563.249 383.739 557.375 380.914 553.582 380.747C553.582 380.747 548.939 373.752 532.836 377.1C521.808 379.394 513.008 386.092 509.134 398.485C505.09 411.422 513.178 439.151 523.828 441.91L563.968 435.289Z" fill="#164353"/>
<path d="M566.217 415.959C566.217 415.959 572.21 407.615 574.473 415.839C577.096 425.366 568.934 430.725 566.704 427.925C564.476 425.124 566.217 415.959 566.217 415.959Z" fill="#FF8B66"/>
<path d="M516.065 424.751C516.065 424.751 507.709 418.776 508.207 427.291C508.783 437.154 518.233 439.608 519.446 436.239C520.66 432.871 516.065 424.751 516.065 424.751Z" fill="#FF8B66"/>
<path d="M547.65 455.097C563.569 452.47 570.837 440.591 565.692 409.406C563.038 393.32 553.226 384.803 535.397 387.746C517.568 390.687 511.687 401.791 514.34 417.879C519.867 451.388 531.205 457.811 547.65 455.097Z" fill="#FF8B66"/>
<path d="M521.445 428.131C521.43 429.777 523.086 431.128 525.145 431.146C527.204 431.165 528.886 429.845 528.9 428.199C528.914 426.553 527.258 425.203 525.199 425.184C523.142 425.168 521.461 426.485 521.445 428.131Z" fill="#DB614D"/>
<path d="M554.331 423.602C554.703 425.205 556.632 426.126 558.637 425.661C560.643 425.195 561.965 423.518 561.593 421.913C561.219 420.31 559.292 419.387 557.287 419.854C555.281 420.321 553.958 421.998 554.331 423.602Z" fill="#DB614D"/>
<path d="M525.926 410.761C525.769 410.761 525.61 410.715 525.472 410.62C525.104 410.37 525.009 409.869 525.259 409.501C527.486 406.236 531.953 405.61 532.143 405.583C532.611 405.532 532.987 405.837 533.047 406.275C533.105 406.717 532.797 407.122 532.355 407.182C532.314 407.186 528.405 407.745 526.593 410.408C526.436 410.639 526.182 410.761 525.926 410.761Z" fill="#1A4850"/>
<path d="M555.897 405.817C555.727 405.817 555.556 405.765 555.411 405.653C552.834 403.708 548.962 404.441 548.925 404.449C548.481 404.547 548.065 404.253 547.977 403.815C547.89 403.38 548.173 402.954 548.611 402.868C548.796 402.832 553.228 401.986 556.382 404.365C556.737 404.633 556.807 405.139 556.541 405.494C556.382 405.705 556.14 405.817 555.897 405.817Z" fill="#1A4850"/>
<path d="M528.826 418.968C529.152 420.944 530.307 422.402 531.405 422.221C532.504 422.039 533.13 420.29 532.803 418.313C532.477 416.337 531.323 414.881 530.224 415.063C529.125 415.242 528.499 416.991 528.826 418.968Z" fill="#1A4850"/>
<path d="M550.083 415.461C550.409 417.437 551.564 418.893 552.663 418.712C553.761 418.53 554.387 416.781 554.061 414.804C553.735 412.828 552.58 411.372 551.481 411.554C550.383 411.735 549.757 413.485 550.083 415.461Z" fill="#1A4850"/>
<path d="M556.051 433.41C556.051 433.41 542.243 437.115 534.583 435.643C534.583 435.643 539.877 442.309 547.435 440.386C554.992 438.466 556.051 433.41 556.051 433.41Z" fill="#1A4850"/>
<path d="M556.704 394.935C556.704 394.935 538.737 407.943 516.184 408.935L516.823 429.011C516.823 429.011 495.803 390.28 537.378 383.421C578.951 376.562 566.851 419.823 566.851 419.823C566.851 419.823 565.56 401.163 556.704 394.935Z" fill="#0E3944"/>
<path d="M542.008 428.016L541.895 426.281C541.919 426.279 544.317 426.093 544.941 424.608C545.199 423.997 544.177 422.047 543.274 420.329C542.023 417.939 540.466 414.968 539.803 411.665L541.509 411.323C542.12 414.381 543.613 417.231 544.813 419.521C546.149 422.072 547.116 423.914 546.541 425.281C545.501 427.762 542.151 428.007 542.008 428.016Z" fill="#DB614D"/>
<path d="M566.452 394.984C536.232 381.868 507.707 409.063 507.707 409.063C507.707 409.063 504.382 387.027 510.206 381.868C511.72 380.515 513.347 379.324 515.045 378.268C528.39 369.853 546.137 370.014 554.276 372.903C555.948 373.5 557.233 374.21 557.968 374.966C562.782 379.964 566.452 394.984 566.452 394.984Z" fill="#CE364C"/>
<path d="M562.782 390.075C562.782 390.075 537.398 385.055 513.737 400.715C513.737 400.715 512.223 386.498 515.044 378.268C528.39 369.853 546.136 370.014 554.275 372.903C559.021 378.314 562.782 390.075 562.782 390.075Z" fill="#CFD8DC"/>
<path d="M510.206 406.471C510.206 406.471 514.231 389.381 519.652 384.567C528.669 376.561 554.009 373.81 567.328 378.624C580.646 383.438 567.328 397.989 567.328 397.989C567.328 397.989 546.099 382.785 510.206 406.471Z" fill="#A02E44"/>
<path d="M549.4 520.032C549.4 520.032 559.773 536.099 577.439 545.552C577.439 545.552 599.541 526.368 628.196 528.094C628.196 528.094 604.446 570.944 584.052 575.69C573.336 578.182 534.584 552.522 534.584 552.522C534.584 552.522 542.32 525.249 549.4 520.032Z" fill="#FF8B66"/>
<path d="M511.199 490.902C520.693 475.448 542.593 498.293 550.046 514.608C557.5 530.926 562.939 534.385 562.939 534.385C562.939 534.385 541.056 543.526 541.213 559.928C541.213 559.928 490.483 524.625 511.199 490.902Z" fill="#ADBEC4"/>
<path d="M577.439 538.493C577.439 538.493 590.768 525.416 634.596 508.349L628.936 490.547C633.962 483.93 643.206 483.93 643.206 483.93C643.206 483.93 665.662 515.639 661.795 525.11C659.383 531.027 612.546 537.235 577.439 538.493Z" fill="#EF6E4B"/>
<path d="M625.439 512.62C625.439 512.62 625.784 510.746 627.405 508.46C629.024 506.174 628.586 502.013 629.167 500.722C629.747 499.433 633.196 494.161 635.484 493.136C637.773 492.11 640.775 490.433 641.414 493.339C642.052 496.242 637.314 495.42 635.187 499.598C635.187 499.598 639.842 498.093 643.535 498.966C647.227 499.84 648.272 503.215 643.71 503.103C640.071 503.014 635.385 505.608 635.385 505.608C635.385 505.608 640.127 506.321 639.363 508.508C638.301 511.529 632.519 509.668 625.439 512.62Z" fill="#FF8B66"/>
<path d="M301.29 572.319C305.208 582.349 321.256 599.547 321.256 599.547C321.256 599.547 360.463 576.044 378.55 585.933C396.637 595.821 411.011 601.853 422.742 597.547C434.472 593.241 384.171 501.762 384.171 501.762L318.956 476.876C318.956 476.876 317.533 493.371 310.082 496.302C302.63 499.233 294.685 526.46 295.218 531.619C295.749 536.778 301.29 572.319 301.29 572.319Z" fill="#3E6575"/>
<path d="M374.667 600.144C374.667 600.144 357.85 633.109 323.132 675.326C323.132 675.326 319.574 725.53 227.762 804.518L218.15 796.957C218.15 796.957 272.827 711.31 283.763 685.051C294.7 658.792 277.718 634.732 328.031 568.312L374.667 600.144Z" fill="#EF6E4B"/>
<path d="M321.142 541.811C306.667 569.541 301.808 604.993 301.808 604.993L295.216 621.624C295.216 621.624 318.598 634.234 345.599 638.821L356.427 610.16L321.142 541.811Z" fill="#662C33"/>
<path d="M396.645 597.548C396.645 597.548 403.813 633.852 402.632 688.5C402.632 688.5 430.88 730.156 407.568 849.005H395.34C395.34 849.005 385.35 747.888 377.707 720.486C370.064 693.087 341.84 684.679 340.312 601.368L396.645 597.548Z" fill="#FF8B66"/>
<path d="M403.814 636.521C403.814 636.521 380.815 640.649 340.3 638.745L339.657 634.183L339.496 633.014L335.3 603.481C335.3 603.481 331.403 598.665 327.39 590.823C326.909 589.906 326.45 588.967 325.992 587.98C320.533 576.355 315.697 559.455 321.13 541.824L329.682 542.214L330.874 542.282L359.49 543.59L360.704 543.658L370.105 544.094L371.571 544.162L377.67 544.436C377.67 544.436 408.671 572.342 403.144 623.933L403.535 631.11L403.58 632.279L403.814 636.521Z" fill="#8B383E"/>
<path d="M330.876 542.28C330.073 544.643 324.662 562.16 327.39 590.821C326.909 589.904 326.45 588.965 325.992 587.978C323.951 561.77 328.652 545.422 329.682 542.21C329.821 541.82 329.889 541.638 329.889 541.613L330.967 542.004C330.967 542.028 330.921 542.121 330.876 542.28Z" fill="#662C33"/>
<path d="M403.584 632.278C395.445 634.364 381.641 634.938 368.525 634.938C356.761 634.938 345.595 634.457 339.657 634.183L339.496 633.014C349.791 633.518 376.893 634.573 394.365 632.669L393.242 614.21C393.516 592.68 387.005 574.291 380.722 561.588C364.81 558.699 360.429 546.912 359.49 543.587C359.351 543.061 359.283 542.739 359.283 542.716L360.407 542.532C360.407 542.555 360.497 542.968 360.704 543.656C361.737 547.094 366.001 557.344 380.057 560.279C375.815 552.001 371.803 546.338 370.107 544.091C369.603 543.404 369.281 543.013 369.258 542.991L370.13 542.257C370.175 542.303 370.704 542.945 371.573 544.16C376.893 551.382 394.846 578.554 394.388 614.162L395.511 632.528C398.562 632.161 401.29 631.702 403.537 631.107L403.584 632.278Z" fill="#662C33"/>
<path d="M345 417.413C335.874 412.386 270.111 438.177 270.111 438.177C270.111 438.177 260.382 455.531 266.447 462.336C272.513 469.14 294.03 466.14 300.623 462.336C307.215 458.531 324.676 455.652 324.676 455.652L345 417.413Z" fill="#8BBDDB"/>
<path d="M403.155 362.665C403.155 362.665 416.74 367.909 421.708 383.559C426.677 399.21 411.822 438.833 416.956 457.046C422.091 475.259 421.293 509.654 405.259 516.915C389.225 524.176 356.34 511.182 349.281 491.31C342.22 471.439 345.268 396.153 358.839 370.55C372.412 344.944 399.887 357.839 403.155 362.665Z" fill="#F24052"/>
<path d="M387.544 430.19C391.127 434.052 400.338 427.169 400.338 427.169C400.338 427.169 400.15 461.321 390.224 463.94C380.299 466.559 355.002 437.036 356.043 429.013C357.084 420.985 379.599 421.624 387.544 430.19Z" fill="#8BBDDB"/>
<path d="M349.281 421.648C349.281 421.648 359.322 430.174 376.813 434.228C394.305 438.282 403.785 430.058 412.729 441.336C426.155 458.265 404.311 489.472 392.818 505.645C388.533 511.674 379.491 528.398 377.664 544.44C377.664 544.44 347.313 553.257 321.14 541.811L319.187 504.577C319.187 504.577 302.69 454.399 349.281 421.648Z" fill="#0E3944"/>
<path d="M380.66 457.873C380.66 457.873 394.528 424.823 398.545 422.712C402.562 420.602 412.746 425.668 414.79 430.188C416.835 434.709 414.79 444.571 414.79 444.571C414.79 444.571 403.853 432.088 380.66 457.873Z" fill="#8BBDDB"/>
<path d="M447.082 597.539C440.777 610.449 425.298 614.162 425.298 614.162C425.298 614.162 424.129 612.374 422.157 609.164C421.95 608.844 421.721 608.476 421.514 608.109C409.338 588.367 372.125 525.196 372.858 492.339C373.707 453.083 399.317 431.53 399.317 431.53C412.318 434.626 416.424 438.18 416.424 438.18C416.424 438.18 420.804 460.514 416.791 487.386C412.779 514.236 405.486 521.345 409.156 523.362C412.801 525.357 409.156 529.37 409.156 529.37C409.156 529.37 430.732 559.43 434.769 568.785C437.384 574.884 441.832 585.249 444.606 591.715C444.79 592.174 444.973 592.632 445.155 593.045C446.324 595.775 447.082 597.539 447.082 597.539Z" fill="#6097B2"/>
<path d="M409.604 438.176C409.604 438.176 394.157 449.628 403.157 467.125L445.977 511.455C422.475 536.498 420.145 546.78 403.157 558.325L409.604 568.312C409.604 568.312 469.103 522.584 469.192 511.455C469.229 506.69 432.849 449.054 409.604 438.176Z" fill="#FF8B66"/>
<path d="M402.217 558.329C402.217 558.329 394.056 559.234 388.915 560.52C383.775 561.805 376.922 563.089 376.708 564.161C376.493 565.231 388.058 564.161 388.058 564.161C388.058 564.161 378.635 568.031 378.422 569.522C378.209 571.014 390.415 568.444 390.415 568.444C390.415 568.444 382.705 573.155 383.133 574.44C383.56 575.724 393.058 572.513 393.058 572.513C393.058 572.513 391.292 577.009 389.46 579.151C389.46 579.151 391.301 580.16 395.032 576.016C398.764 571.869 404.724 573.201 409.444 569.522C414.16 565.842 406.513 557.775 402.217 558.329Z" fill="#FF8B66"/>
<path d="M358.461 427.148C358.461 427.148 346.708 434.742 339.286 453.085C331.863 471.429 308.442 505.947 302.954 514.866C297.467 523.784 301.29 572.319 301.29 572.319C301.29 572.319 294.41 542.893 291.354 531.427C288.297 519.963 301.226 491.633 303.169 490.129C305.112 488.626 315.048 491.377 313.138 479.875C311.228 468.374 337.885 418.809 345.002 417.413C345.002 417.413 356.4 419.554 358.461 427.148Z" fill="#6097B2"/>
<path d="M322.117 429.629C321.911 430.019 321.681 430.409 321.407 430.775C318.747 434.604 313.794 437.654 313.794 437.654C313.794 437.654 304.829 450.219 304.738 451.665C304.648 452.904 289.169 464.138 282.291 463.909H282.269C281.329 463.887 280.548 463.635 279.999 463.129C275.918 459.277 293.894 426.946 297.861 419.976C298.113 419.517 298.32 419.172 298.458 418.943C298.549 418.759 298.619 418.646 298.619 418.646C298.619 418.646 295.455 406.859 308.662 409.061C319.645 410.872 321.824 419.608 322.97 425.455C323.241 426.855 322.85 428.276 322.117 429.629Z" fill="#6097B2"/>
<path d="M276.001 441.846C285.074 429.92 316.998 406.789 333.813 399.943L338.016 407.758C338.016 407.758 305.523 436.324 297.89 448.544C290.257 460.764 280.801 465.817 271.767 461.749C262.732 457.678 274.093 444.358 276.001 441.846Z" fill="#FF8B66"/>
<path d="M318.954 427.177L317.234 429.149L316.362 430.157L313.518 433.414C313.518 433.414 306.364 442.082 306.639 445.566C306.845 448.065 293.064 459.254 282.288 463.909C277.908 465.811 274.01 466.637 271.741 465.33C263.945 460.836 265.688 447.332 270.113 438.183C273.965 430.203 291.001 419.908 295.381 417.386C295.931 417.041 296.276 416.837 296.389 416.789C296.412 416.766 296.412 416.766 296.412 416.766L298.039 410.439C298.039 410.439 303.979 406.862 308.657 409.063C308.657 409.063 298.339 409.499 300.036 413.512C301.779 417.545 316.087 427.039 318.954 427.177Z" fill="#8BBDDB"/>
<path d="M356.419 394.09C346.033 398.355 347.522 407.756 338.007 407.756C332.115 407.756 331.335 401.015 331.335 401.015C333.995 395.259 335.69 385.445 336.058 380.767C336.448 376.09 338.007 377.901 338.007 377.901C338.007 377.465 337.985 377.052 337.962 376.639C337.824 373.498 337.252 371.206 339.315 372.558C341.653 374.072 342.456 382.969 342.456 382.969C344.383 369.991 341.516 368.064 343.763 369.21C346.836 370.77 346.859 382.234 346.859 382.579C349.335 375.034 348.67 370.724 350.391 372.445C352.134 374.188 349.519 388.037 348.488 393.128C348.259 394.274 348.098 394.984 348.098 394.984C356.328 390.947 356.419 394.09 356.419 394.09Z" fill="#FF8B66"/>
<path d="M348.486 393.126C348.257 394.272 348.096 394.982 348.096 394.982C348.096 394.982 344.289 394.615 341.516 398.72C341.516 398.72 342.294 393.219 348.486 393.126Z" fill="#EF6E4B"/>
<path d="M338.579 387.211C338.647 386.11 339.106 379.805 338.007 377.901C338.007 377.465 337.985 377.052 337.962 376.639C340.345 377.145 338.833 385.881 338.579 387.211Z" fill="#EF6E4B"/>
<path d="M345.025 441.912C345.025 441.912 352.045 422.888 354.277 418.641C356.512 414.393 368.141 415.122 376.943 416.764C385.745 418.406 387.544 430.19 387.544 430.19C387.544 430.19 360.766 417.553 345.025 441.912Z" fill="#8BBDDB"/>
<path d="M390.224 404.47C390.224 404.47 381.815 419.998 381.947 437.218C381.947 437.218 368.288 446.501 363.399 434.874C363.399 434.874 368.587 419.641 366.08 399.078C364.403 385.307 390.224 404.47 390.224 404.47Z" fill="#EF6E4B"/>
<path d="M363.401 382.923C363.401 382.923 360.902 374.022 356.454 380.28C351.301 387.529 356.553 394.575 359.302 392.894C362.051 391.213 363.401 382.923 363.401 382.923Z" fill="#FF8B66"/>
<path d="M403.107 405.81C403.107 405.81 412.015 403.332 408.97 410.379C405.443 418.542 396.695 417.706 396.707 414.484C396.72 411.265 403.107 405.81 403.107 405.81Z" fill="#FF8B66"/>
<path d="M367.046 421.745C354.393 414.62 351.906 402.334 365.865 377.545C373.064 364.76 383.987 360.58 398.159 368.56C412.333 376.542 413.884 387.743 406.684 400.531C391.685 427.166 380.117 429.106 367.046 421.745Z" fill="#FF8B66"/>
<path d="M397.515 407.012C397.021 408.408 395.204 409.04 393.457 408.423C391.709 407.805 390.695 406.172 391.189 404.774C391.683 403.377 393.5 402.746 395.247 403.365C396.994 403.983 398.008 405.616 397.515 407.012Z" fill="#DB614D"/>
<path d="M371.098 393.051C370.289 394.292 368.374 394.478 366.823 393.466C365.272 392.454 364.669 390.627 365.479 389.387C366.288 388.146 368.203 387.96 369.754 388.972C371.307 389.982 371.908 391.81 371.098 393.051Z" fill="#DB614D"/>
<path d="M399.326 390.986C399.002 390.986 398.706 390.767 398.624 390.439C397.907 387.615 394.778 385.953 394.747 385.938C394.392 385.753 394.254 385.315 394.439 384.96C394.623 384.604 395.059 384.466 395.418 384.652C395.571 384.73 399.156 386.639 400.03 390.083C400.129 390.472 399.894 390.866 399.505 390.965C399.443 390.978 399.384 390.986 399.326 390.986Z" fill="#1A4850"/>
<path d="M381.949 378.623C381.821 378.623 381.693 378.59 381.575 378.52C381.544 378.501 378.496 376.69 375.714 377.539C375.328 377.657 374.925 377.44 374.808 377.056C374.692 376.674 374.907 376.267 375.291 376.149C378.694 375.106 382.18 377.188 382.327 377.277C382.67 377.483 382.779 377.929 382.571 378.272C382.434 378.499 382.195 378.623 381.949 378.623Z" fill="#1A4850"/>
<path d="M394.097 396.991C393.211 398.563 391.786 399.439 390.914 398.945C390.041 398.454 390.051 396.781 390.935 395.209C391.819 393.638 393.246 392.762 394.117 393.253C394.991 393.747 394.983 395.418 394.097 396.991Z" fill="#1A4850"/>
<path d="M376.357 387.475C375.473 389.047 374.048 389.922 373.174 389.429C372.301 388.937 372.311 387.267 373.195 385.695C374.079 384.123 375.504 383.248 376.377 383.739C377.251 384.231 377.241 385.903 376.357 387.475Z" fill="#1A4850"/>
<path d="M370.21 403.608C370.21 403.608 377.47 409.147 382.715 409.317C382.715 409.317 377.137 413.86 373.126 410.913C369.118 407.966 370.21 403.608 370.21 403.608Z" fill="#1A4850"/>
<path d="M390.282 393.815C390.282 393.815 393.614 390.594 394.979 391.727C396.342 392.861 395.629 396.826 395.629 396.826L398.545 396.901L396.135 395.93C396.135 395.93 396.912 391.814 395.412 390.961C393.277 389.745 390.282 393.815 390.282 393.815Z" fill="#1A4850"/>
<path d="M377.73 387.37C377.73 387.37 378.756 382.851 377.079 382.273C375.402 381.695 372.383 384.361 372.383 384.361L370.807 381.905L372.889 383.465C372.889 383.465 376.005 380.666 377.513 381.505C379.659 382.7 377.73 387.37 377.73 387.37Z" fill="#1A4850"/>
<path d="M401.519 373.859C401.519 373.859 396.986 367.56 390.726 372.562C384.467 377.564 370.347 385.569 363.401 382.923C356.454 380.28 378.597 350.685 397.822 359.351C417.048 368.018 415.317 396.229 407.32 405.199C399.324 414.168 403.107 405.812 403.107 405.812C403.107 405.812 403.642 393.086 406.312 384.654C408.985 376.219 401.519 373.859 401.519 373.859Z" fill="#F24052"/>
<path d="M380.21 400.724C379.859 400.724 379.491 400.676 379.114 400.581L379.5 399.063C380.793 399.391 381.429 398.836 381.732 398.313C382.164 397.574 382.104 396.622 381.761 396.265C381.561 396.056 381.22 396.079 380.741 396.329L380.016 394.941C381.608 394.107 382.56 394.831 382.895 395.185C383.756 396.089 383.841 397.809 383.085 399.102C382.47 400.154 381.437 400.724 380.21 400.724Z" fill="#DB614D"/>
<path d="M472.877 509.699C472.121 520.82 444.606 557.026 440.019 558.308C438.827 558.628 437.611 559.293 436.465 560.074C435.984 560.419 435.502 560.784 435.044 561.152C432.429 563.261 430.459 565.691 430.459 565.691C422.434 565.165 399.894 554.731 407.141 552.439C407.576 552.3 408.058 552.048 408.584 551.683C408.882 551.476 409.204 551.247 409.524 550.95C418.053 543.796 434.654 514.767 434.769 512.566C434.86 510.158 437.727 509.699 437.727 509.699C437.727 509.699 422.066 486.701 412.985 483.927C403.904 481.154 399.32 470.171 399.32 470.171C390.355 432.222 416.426 438.184 416.426 438.184C435.641 449.624 473.633 498.555 472.877 509.699Z" fill="#8BBDDB"/>
<path d="M436.465 560.074C435.984 560.419 435.502 560.785 435.044 561.152C422.731 560.303 412.413 554.25 408.584 551.683C408.882 551.477 409.204 551.247 409.524 550.95C413.628 553.631 424.129 559.616 436.465 560.074Z" fill="#3E6575"/>
<path d="M322.118 429.629C321.911 430.019 321.682 430.409 321.407 430.775C319.641 430.707 317.969 430.5 316.362 430.155C308.223 428.505 301.963 423.941 297.857 419.974C296.918 419.057 296.092 418.185 295.381 417.382C295.931 417.037 296.275 416.832 296.389 416.785C296.986 417.45 297.674 418.183 298.452 418.941C302.533 422.954 308.886 427.631 317.231 429.145C318.793 429.447 320.42 429.606 322.118 429.629Z" fill="#3E6575"/>
<path d="M445.155 593.046C441.372 599.444 434.379 607.17 422.157 609.165C421.95 608.845 421.721 608.477 421.515 608.109C434.057 606.228 441.004 598.089 444.604 591.716C444.788 592.176 444.971 592.633 445.155 593.046Z" fill="#3E6575"/>
<path d="M236.477 801.68C236.477 801.68 233.61 804.502 230.63 809.683C227.65 814.865 230.927 819.636 216.506 831.649C216.506 831.649 187.409 814.613 174.27 792.715C174.27 792.715 174.499 786.456 180.85 784.987C184.266 784.207 193.667 788.61 202.702 790.307C203.987 790.537 205.269 790.743 206.531 790.834C208.113 790.972 209.672 790.995 211.163 790.811C212.539 790.673 213.846 790.375 215.06 789.872H215.083C218.156 788.61 220.587 786.111 221.847 781.732C221.847 781.732 229.573 786.136 224.414 793.587C224.414 793.587 233.587 789.572 236.477 801.68Z" fill="#CFD8DC"/>
<path d="M216.504 831.649C216.504 831.649 187.407 814.613 174.268 792.715C174.268 792.715 179.152 791.683 183.188 798.93C187.223 806.197 218.867 822.684 216.504 831.649Z" fill="#ADBEC4"/>
<path d="M216.62 797.207C214.259 800.945 214.305 794.043 211.163 790.809C212.539 790.671 213.846 790.373 215.06 789.869H215.083C216.481 791.385 218.476 794.295 216.62 797.207Z" fill="#ADBEC4"/>
<path d="M207.471 797.414C204.972 799.776 204.168 793.607 202.702 790.305C203.987 790.534 205.269 790.741 206.531 790.832C207.997 792.829 209.375 795.603 207.471 797.414Z" fill="#ADBEC4"/>
<path d="M415.484 877.278H374.326C374.326 877.278 372.606 871.545 374.326 865.24C375.06 862.512 379.324 859.965 383.291 856.411C384.392 855.426 385.448 854.393 386.433 853.224C387.213 852.307 387.924 851.298 388.519 850.222C389.274 848.914 389.871 847.493 390.216 845.934C390.881 842.816 390.629 839.148 388.841 834.745C388.841 834.745 402.851 831.81 407.849 839.445C407.849 839.445 408.33 835.914 412.779 838.276C412.779 838.276 412.136 845.362 413.008 851.3C413.88 857.214 419.406 858.935 415.484 877.278Z" fill="#CFD8DC"/>
<path d="M404.776 852.491C404.408 852.904 403.904 853.111 403.401 853.111C402.965 853.111 402.552 852.972 402.184 852.698C400.053 851 395.352 848.365 388.519 850.222C389.274 848.914 389.871 847.493 390.216 845.934C392.967 844.926 398.149 844.33 404.547 849.786C405.373 850.474 405.488 851.688 404.776 852.491Z" fill="#ADBEC4"/>
<path d="M401.315 859.323L401.085 859.668C400.536 860.517 399.435 860.791 398.564 860.288C395.765 858.637 389.483 855.519 383.293 856.413C384.394 855.428 385.45 854.395 386.435 853.227C389.485 852.516 395.239 852.126 400.904 856.826C401.637 857.444 401.841 858.522 401.315 859.323Z" fill="#ADBEC4"/>
<defs>
<linearGradient id="paint0_linear_319_904" x1="575.883" y1="717.94" x2="-71.7351" y2="-51.0071" gradientUnits="userSpaceOnUse">
<stop stop-color="#93B3FC"/>
<stop offset="0.9999" stop-color="#97CCF8"/>
<stop offset="1" stop-color="#97CCF8" stop-opacity="0"/>
</linearGradient>
</defs>
</svg>
