<svg width="749" height="876" viewBox="0 0 749 876" fill="none" xmlns="http://www.w3.org/2000/svg">
<path d="M-23 -25H657.079C696.02 147.889 685.454 206.909 612.579 248.956C472.824 240.878 439.587 273.836 464.567 402.211C506.51 557.562 471.131 613.904 266.735 640.608C205.077 659.535 182.608 680.523 162.74 735.266L133.234 876H-23V-25Z" fill="url(#paint0_linear_319_904)"/>
<path d="M154.456 729.326H67.1449C65.6111 729.326 64.3672 727.977 64.3672 726.315V724.661C64.3672 722.998 65.6111 721.65 67.1449 721.65H154.455C155.989 721.65 157.232 722.998 157.232 724.661V726.315C157.234 727.977 155.99 729.326 154.456 729.326Z" fill="#ADBEC4"/>
<path d="M707.705 729.326H683.817C682.283 729.326 681.039 727.977 681.039 726.315V724.661C681.039 722.998 682.283 721.65 683.817 721.65H707.705C709.239 721.65 710.483 722.998 710.483 724.661V726.315C710.481 727.977 709.239 729.326 707.705 729.326Z" fill="#ADBEC4"/>
<path d="M318.765 729.326H231.454C229.92 729.326 228.676 727.977 228.676 726.315V724.661C228.676 722.998 229.92 721.65 231.454 721.65H318.765C320.299 721.65 321.543 722.998 321.543 724.661V726.315C321.543 727.977 320.301 729.326 318.765 729.326Z" fill="#ADBEC4"/>
<path d="M446.967 729.326H359.658C358.124 729.326 356.88 727.977 356.88 726.315V724.661C356.88 722.998 358.124 721.65 359.658 721.65H446.967C448.501 721.65 449.745 722.998 449.745 724.661V726.315C449.745 727.977 448.501 729.326 446.967 729.326Z" fill="#ADBEC4"/>
<path d="M603.978 729.326H484.957C483.423 729.326 482.179 727.977 482.179 726.315V724.661C482.179 722.998 483.423 721.65 484.957 721.65H603.978C605.512 721.65 606.756 722.998 606.756 724.661V726.315C606.756 727.977 605.512 729.326 603.978 729.326Z" fill="#ADBEC4"/>
<path d="M183.721 299.453C183.721 299.453 174.499 292.653 161.012 297.89C147.524 303.129 144.494 322.818 147.817 338.797C151.14 354.776 132.571 409.33 132.571 409.33C132.571 409.33 142.222 424.044 175.952 418.413C175.952 418.413 201.104 368.867 199.237 333.297C197.371 297.727 183.721 299.453 183.721 299.453Z" fill="#0E3944"/>
<path d="M194.37 360.916C207.046 356.522 214.804 367.963 222.067 389.258C229.331 410.553 231.774 412.688 231.774 412.688L259.81 432.214L257.479 443.595C257.479 443.595 230.797 432.271 224.346 425.067C217.895 417.865 199.337 381.378 199.337 381.378L194.37 360.916Z" fill="#EF6E4B"/>
<path d="M132.585 498.489C132.585 498.489 127.085 528.682 127.991 574.132C127.991 574.132 106.318 608.777 124.204 707.622H133.586C133.586 707.622 141.251 623.522 147.115 600.735C152.979 577.947 174.634 570.955 175.806 501.666L132.585 498.489Z" fill="#FF8B66"/>
<path d="M89.7045 587.272C84.2521 567.796 70.24 535.177 34.2946 490.962C34.2946 490.962 32.1507 489.765 29.2526 491.685C26.1929 493.712 26.1929 496.092 26.1929 496.092C26.1929 496.092 44.217 538.672 55.7113 569.869C59.5807 580.372 68.9422 587.272 79.3748 587.272H89.7045Z" fill="#FF8B66"/>
<path d="M155.149 624.931C155.149 624.931 155.272 639.462 146.476 639.709C134.057 640.071 133.599 625.406 119.525 625.884C105.451 626.36 76.4239 630.175 67.1876 606.338C62.4197 594.019 68.9464 578.21 53.5542 566.291C38.1604 554.373 45.6378 541.023 53.5542 533.873C61.4705 526.742 50.1411 518.923 58.3918 515.28C60.3614 514.421 62.2977 514.517 64.0914 515.165C65.1467 515.565 66.1323 516.118 67.0814 516.805C71.4436 519.952 74.505 525.424 74.505 525.424C97.8152 456.22 139.316 447.085 139.316 447.085L180.359 462.437C181.343 570.106 155.149 624.931 155.149 624.931Z" fill="#164353"/>
<path d="M194.369 360.916C194.369 360.916 184.794 364.418 171.173 362.177C157.553 359.935 153.125 350.665 143.552 356.632C129.178 365.59 135.905 396.419 139.514 412.45C140.859 418.427 142.564 434.129 139.319 447.089C139.319 447.089 158.457 463.231 180.362 462.429L192.313 434.255C192.313 434.255 218.301 400.545 194.369 360.916Z" fill="#CFD8DC"/>
<path d="M170.05 335.056C170.05 335.056 171.642 349.64 166.665 362.909C166.665 362.909 173.772 374.281 180.554 366.797C180.554 366.797 181.173 353.431 188.792 338.309C193.892 328.182 170.05 335.056 170.05 335.056Z" fill="#EF6E4B"/>
<path d="M159.16 335.552C159.16 335.552 153.165 331.442 153.842 337.783C154.626 345.131 161.238 346.564 161.942 343.994C162.646 341.426 159.16 335.552 159.16 335.552Z" fill="#FF8B66"/>
<path d="M193.547 327.598C193.547 327.598 197.351 321.109 199.236 327.158C201.417 334.168 196 338.518 194.352 336.521C192.706 334.523 193.547 327.598 193.547 327.598Z" fill="#FF8B66"/>
<path d="M181.17 357.515C170.299 360.153 162.572 353.946 157.803 330.858C155.342 318.948 159.424 310.286 171.601 307.331C183.78 304.375 190.416 310.435 192.877 322.345C198.001 347.153 192.401 354.789 181.17 357.515Z" fill="#FF8B66"/>
<path d="M190.977 331.452C191.413 332.591 190.701 333.992 189.388 334.582C188.074 335.171 186.656 334.728 186.222 333.589C185.786 332.45 186.497 331.048 187.811 330.459C189.123 329.87 190.541 330.315 190.977 331.452Z" fill="#DB614D"/>
<path d="M168.748 337.526C168.923 338.743 167.927 339.923 166.523 340.16C165.119 340.399 163.837 339.606 163.661 338.388C163.485 337.17 164.482 335.99 165.886 335.753C167.291 335.514 168.572 336.308 168.748 337.526Z" fill="#DB614D"/>
<path d="M183.406 320.695C183.3 320.695 183.194 320.662 183.097 320.593C181.238 319.248 178.605 319.963 178.576 319.97C178.274 320.056 177.974 319.858 177.898 319.535C177.822 319.212 178.001 318.883 178.299 318.8C178.427 318.766 181.447 317.947 183.717 319.59C183.973 319.776 184.041 320.15 183.87 320.427C183.762 320.6 183.587 320.695 183.406 320.695Z" fill="#0E3944"/>
<path d="M162.935 325.664C162.839 325.664 162.739 325.636 162.65 325.578C162.387 325.406 162.302 325.037 162.46 324.75C163.865 322.216 166.92 321.559 167.05 321.531C167.347 321.48 167.643 321.682 167.7 322.01C167.757 322.337 167.561 322.653 167.258 322.716C167.231 322.723 164.56 323.305 163.412 325.372C163.309 325.559 163.124 325.664 162.935 325.664Z" fill="#0E3944"/>
<path d="M183.883 327.161C184.184 328.625 183.821 329.959 183.072 330.14C182.322 330.322 181.468 329.283 181.166 327.819C180.863 326.356 181.226 325.021 181.977 324.839C182.726 324.659 183.58 325.696 183.883 327.161Z" fill="#1A4850"/>
<path d="M168.777 330.684C169.08 332.148 168.717 333.482 167.966 333.663C167.217 333.845 166.363 332.805 166.06 331.342C165.757 329.879 166.12 328.544 166.871 328.362C167.622 328.182 168.475 329.221 168.777 330.684Z" fill="#1A4850"/>
<path d="M173.661 344.545C173.661 344.545 180.644 343.929 183.721 341.112C183.721 341.112 182.873 347.026 179.075 347.434C175.276 347.847 173.661 344.545 173.661 344.545Z" fill="#1A4850"/>
<path d="M180.077 327.321C180.077 327.321 180.322 323.476 181.682 323.417C183.041 323.359 184.67 326.206 184.67 326.206L186.37 324.63L184.497 325.372C184.497 325.372 182.827 322.395 181.534 322.703C179.695 323.139 180.077 327.321 180.077 327.321Z" fill="#1A4850"/>
<path d="M169.611 330.325C169.611 330.325 167.876 326.96 166.623 327.536C165.369 328.111 165.017 331.44 165.017 331.44L162.858 330.801L164.845 330.605C164.845 330.605 165.185 327.141 166.475 326.821C168.313 326.364 169.611 330.325 169.611 330.325Z" fill="#1A4850"/>
<path d="M177.184 337.718L176.624 336.567C177.529 336.05 177.607 335.351 177.512 334.86C177.379 334.163 176.856 333.609 176.477 333.577C176.26 333.565 176.073 333.766 175.927 334.185L174.802 333.73C175.284 332.326 176.195 332.249 176.569 332.278C177.524 332.357 178.455 333.374 178.691 334.594C178.933 335.872 178.371 337.04 177.184 337.718Z" fill="#DB614D"/>
<path d="M160.02 339.709C160.02 339.709 156.667 326.335 158.657 316.878C158.657 316.878 168.115 302.601 186.372 309.661C186.372 309.661 191.785 319.111 194.468 332.337C194.468 332.337 195.149 327.586 193.333 317.005C191.517 306.425 182.858 299.851 170.982 301.968C159.107 304.084 146.399 316.89 160.02 339.709Z" fill="#0E3944"/>
<path d="M179.161 306.691C179.161 306.691 179.885 310.181 176.752 319.169C176.752 319.169 174.499 316.617 171.861 319.169C169.222 321.722 163.863 320.87 162.035 322.249C160.206 323.628 160.206 326.782 160.206 326.782C160.206 326.782 158.623 322.855 160.206 318.146C160.206 318.146 156.646 323.051 157.118 329.109C157.118 329.109 152.29 328.264 152.509 319.628C152.729 310.994 164.05 297.024 176.752 297.931C189.454 298.836 192.477 320.636 192.477 320.636C192.477 320.636 191.319 319.649 189.506 320.088C189.506 320.088 189.226 315.471 186.37 309.656C186.37 309.656 187.685 313.853 186.37 318.383C186.37 318.383 182.832 316.371 180.043 317C180.043 317.003 181.766 313.352 179.161 306.691Z" fill="#0E3944"/>
<path d="M140.327 359.386C146.508 354.102 151.322 360.823 152.501 370.116C153.681 379.41 142.503 434.234 133.883 432.214C130.555 431.435 129.199 417.074 129.199 417.074C129.199 417.074 132.571 401.658 134.753 378.456C135.756 367.794 137.104 362.141 140.327 359.386Z" fill="#FF8B66"/>
<path d="M122.341 424.466C114.019 415.868 99.0971 387.347 95.3069 372.817L101.623 370.064C101.623 370.064 120.641 399.556 129.31 406.991C137.979 414.428 141.027 422.709 137.156 429.801C133.285 436.893 124.093 426.275 122.341 424.466Z" fill="#FF8B66"/>
<path d="M97.9011 353.791C97.4654 363.118 104.477 365.328 101.367 372.487C100.725 373.965 99.7471 374.75 98.7315 375.139C96.8046 375.878 94.6639 375.181 93.2267 373.606C89.8929 369.954 84.7399 366.084 81.9971 364.387C78.8787 362.436 80.6455 361.905 80.6455 361.905C80.3428 361.751 80.0497 361.622 79.755 361.493C77.5303 360.483 75.7508 360.102 77.3639 359.028C79.1798 357.805 85.6162 360.354 85.6162 360.354C77.2387 354.305 74.9649 355.78 76.494 354.495C78.5808 352.737 86.5463 356.782 86.784 356.904C82.3568 352.367 79.1481 351.338 80.9038 350.655C82.6832 349.961 91.441 356.837 94.637 359.416C95.358 359.995 95.7985 360.368 95.7985 360.368C95.6907 352.747 97.9011 353.791 97.9011 353.791Z" fill="#FF8B66"/>
<path d="M94.64 359.42C95.3609 359.999 95.8014 360.371 95.8014 360.371C95.8014 360.371 94.3025 363.106 96.2435 366.648C96.2435 366.648 92.6783 364.109 94.64 359.42Z" fill="#EF6E4B"/>
<path d="M87.2936 364.775C86.5521 364.334 82.3261 361.754 80.6449 361.907C80.3423 361.752 80.0491 361.624 79.7544 361.495C80.8842 359.879 86.4538 364.114 87.2936 364.775Z" fill="#EF6E4B"/>
<path d="M120.512 503.172C120.512 504.186 119.755 505.005 118.821 505.005C117.888 505.005 117.131 504.184 117.131 503.172C117.131 502.161 117.888 501.34 118.821 501.34C119.755 501.34 120.512 502.159 120.512 503.172Z" fill="#6097B2"/>
<path d="M150.682 515.788C150.682 516.802 149.925 517.621 148.991 517.621C148.058 517.621 147.301 516.8 147.301 515.788C147.301 514.776 148.058 513.955 148.991 513.955C149.925 513.955 150.682 514.776 150.682 515.788Z" fill="#6097B2"/>
<path d="M176.389 522.554C176.389 523.566 175.632 524.387 174.699 524.387C173.765 524.387 173.008 523.566 173.008 522.554C173.008 521.542 173.765 520.721 174.699 520.721C175.632 520.721 176.389 521.542 176.389 522.554Z" fill="#6097B2"/>
<path d="M136.89 479.236C136.89 480.249 136.132 481.068 135.199 481.068C134.266 481.068 133.508 480.247 133.508 479.236C133.508 478.224 134.266 477.403 135.199 477.403C136.132 477.403 136.89 478.224 136.89 479.236Z" fill="#6097B2"/>
<path d="M140.894 498.489C141.828 498.489 142.585 497.668 142.585 496.656C142.585 495.644 141.828 494.823 140.894 494.823C139.96 494.823 139.203 495.644 139.203 496.656C139.203 497.668 139.96 498.489 140.894 498.489Z" fill="#6097B2"/>
<path d="M169.336 506.583C169.336 507.597 168.579 508.416 167.646 508.416C166.712 508.416 165.955 507.595 165.955 506.583C165.955 505.572 166.712 504.751 167.646 504.751C168.579 504.751 169.336 505.57 169.336 506.583Z" fill="#6097B2"/>
<path d="M173.008 476.535C173.008 477.547 172.25 478.368 171.317 478.368C170.384 478.368 169.626 477.547 169.626 476.535C169.626 475.522 170.384 474.703 171.317 474.703C172.25 474.703 173.008 475.524 173.008 476.535Z" fill="#6097B2"/>
<path d="M153.787 472.116C154.721 472.116 155.478 471.296 155.478 470.283C155.478 469.271 154.721 468.451 153.787 468.451C152.853 468.451 152.096 469.271 152.096 470.283C152.096 471.296 152.853 472.116 153.787 472.116Z" fill="#6097B2"/>
<path d="M105.548 538.931C105.548 539.945 104.79 540.764 103.857 540.764C102.924 540.764 102.166 539.943 102.166 538.931C102.166 537.92 102.924 537.099 103.857 537.099C104.79 537.099 105.548 537.92 105.548 538.931Z" fill="#6097B2"/>
<path d="M81.4468 531.137C81.4468 532.149 80.6894 532.97 79.7561 532.97C78.8228 532.97 78.0654 532.149 78.0654 531.137C78.0654 530.124 78.8228 529.304 79.7561 529.304C80.6894 529.304 81.4468 530.125 81.4468 531.137Z" fill="#6097B2"/>
<path d="M67.0794 516.805C66.78 517.301 66.2523 517.624 65.6549 517.624C64.7232 517.624 63.9658 516.805 63.9658 515.793C63.9658 515.565 64.0007 515.355 64.0894 515.165C65.1447 515.565 66.1303 516.118 67.0794 516.805Z" fill="#6097B2"/>
<path d="M112.491 564.672C113.425 564.672 114.182 563.851 114.182 562.839C114.182 561.827 113.425 561.006 112.491 561.006C111.557 561.006 110.8 561.827 110.8 562.839C110.8 563.851 111.557 564.672 112.491 564.672Z" fill="#6097B2"/>
<path d="M70.9271 588.823C70.9271 589.836 70.1697 590.656 69.2364 590.656C68.3031 590.656 67.5457 589.835 67.5457 588.823C67.5457 587.811 68.3031 586.99 69.2364 586.99C70.1697 586.99 70.9271 587.81 70.9271 588.823Z" fill="#6097B2"/>
<path d="M86.9068 574.905C87.8405 574.905 88.5975 574.085 88.5975 573.072C88.5975 572.06 87.8405 571.24 86.9068 571.24C85.973 571.24 85.2161 572.06 85.2161 573.072C85.2161 574.085 85.973 574.905 86.9068 574.905Z" fill="#6097B2"/>
<path d="M60.5896 560.97C61.5234 560.97 62.2803 560.15 62.2803 559.138C62.2803 558.125 61.5234 557.305 60.5896 557.305C59.6559 557.305 58.8989 558.125 58.8989 559.138C58.8989 560.15 59.6559 560.97 60.5896 560.97Z" fill="#6097B2"/>
<path d="M83.524 614.01C83.524 615.022 82.7666 615.843 81.8333 615.843C80.9 615.843 80.1426 615.022 80.1426 614.01C80.1426 612.997 80.9 612.177 81.8333 612.177C82.7666 612.177 83.524 612.998 83.524 614.01Z" fill="#6097B2"/>
<path d="M99.6265 517.622C99.6265 518.636 98.8691 519.455 97.9358 519.455C97.0009 519.455 96.2451 518.634 96.2451 517.622C96.2451 516.611 97.0025 515.79 97.9358 515.79C98.8691 515.788 99.6265 516.609 99.6265 517.622Z" fill="#6097B2"/>
<path d="M115.874 486.748C115.874 487.762 115.117 488.581 114.183 488.581C113.25 488.581 112.493 487.76 112.493 486.748C112.493 485.737 113.25 484.916 114.183 484.916C115.117 484.916 115.874 485.737 115.874 486.748Z" fill="#6097B2"/>
<path d="M134.263 461.055C134.263 462.066 133.505 462.887 132.572 462.887C131.637 462.887 130.881 462.066 130.881 461.055C130.881 460.041 131.639 459.222 132.572 459.222C133.505 459.22 134.263 460.041 134.263 461.055Z" fill="#6097B2"/>
<path d="M96.9976 498.488C96.9976 499.502 96.2402 500.321 95.3069 500.321C94.3736 500.321 93.6162 499.5 93.6162 498.488C93.6162 497.477 94.3736 496.656 95.3069 496.656C96.2402 496.656 96.9976 497.475 96.9976 498.488Z" fill="#6097B2"/>
<path d="M117.567 468.449C117.567 469.461 116.809 470.282 115.876 470.282C114.943 470.282 114.185 469.461 114.185 468.449C114.185 467.436 114.943 466.616 115.876 466.616C116.809 466.616 117.567 467.437 117.567 468.449Z" fill="#6097B2"/>
<path d="M85.2166 550.994C85.2166 552.008 84.4592 552.827 83.5259 552.827C82.591 552.827 81.8352 552.006 81.8352 550.994C81.8352 549.983 82.5926 549.161 83.5259 549.161C84.4592 549.161 85.2166 549.983 85.2166 550.994Z" fill="#6097B2"/>
<path d="M63.9705 534.804C63.9705 535.817 63.2131 536.637 62.2798 536.637C61.3465 536.637 60.5891 535.816 60.5891 534.804C60.5891 533.792 61.3465 532.971 62.2798 532.971C63.2131 532.971 63.9705 533.792 63.9705 534.804Z" fill="#6097B2"/>
<path d="M123.895 531.137C124.829 531.137 125.586 530.316 125.586 529.304C125.586 528.292 124.829 527.471 123.895 527.471C122.961 527.471 122.204 528.292 122.204 529.304C122.204 530.316 122.961 531.137 123.895 531.137Z" fill="#6097B2"/>
<path d="M158.861 540.764C159.795 540.764 160.552 539.943 160.552 538.931C160.552 537.919 159.795 537.099 158.861 537.099C157.928 537.099 157.171 537.919 157.171 538.931C157.171 539.943 157.928 540.764 158.861 540.764Z" fill="#6097B2"/>
<path d="M158.861 486.748C158.861 487.762 158.104 488.581 157.17 488.581C156.237 488.581 155.48 487.76 155.48 486.748C155.48 485.737 156.237 484.916 157.17 484.916C158.104 484.916 158.861 485.737 158.861 486.748Z" fill="#6097B2"/>
<path d="M179.189 490.593C179.189 491.606 178.432 492.425 177.499 492.425C176.565 492.425 175.808 491.604 175.808 490.593C175.808 489.581 176.565 488.76 177.499 488.76C178.432 488.76 179.189 489.581 179.189 490.593Z" fill="#6097B2"/>
<path d="M138.581 552.829C138.581 553.842 137.823 554.661 136.89 554.661C135.957 554.661 135.199 553.84 135.199 552.829C135.199 551.817 135.957 550.996 136.89 550.996C137.823 550.996 138.581 551.815 138.581 552.829Z" fill="#6097B2"/>
<path d="M122.205 587.27C123.138 587.27 123.895 586.45 123.895 585.438C123.895 584.425 123.138 583.605 122.205 583.605C121.271 583.605 120.514 584.425 120.514 585.438C120.514 586.45 121.271 587.27 122.205 587.27Z" fill="#6097B2"/>
<path d="M96.243 592.488C97.1767 592.488 97.9336 591.668 97.9336 590.656C97.9336 589.643 97.1767 588.823 96.243 588.823C95.3092 588.823 94.5522 589.643 94.5522 590.656C94.5522 591.668 95.3092 592.488 96.243 592.488Z" fill="#6097B2"/>
<path d="M167.646 564.672C168.58 564.672 169.336 563.851 169.336 562.839C169.336 561.827 168.58 561.006 167.646 561.006C166.712 561.006 165.955 561.827 165.955 562.839C165.955 563.851 166.712 564.672 167.646 564.672Z" fill="#6097B2"/>
<path d="M145.968 576.74C145.968 577.753 145.21 578.572 144.277 578.572C143.344 578.572 142.586 577.751 142.586 576.74C142.586 575.728 143.344 574.907 144.277 574.907C145.21 574.907 145.968 575.726 145.968 576.74Z" fill="#6097B2"/>
<path d="M110.801 617.677C110.801 618.689 110.043 619.51 109.11 619.51C108.175 619.51 107.419 618.689 107.419 617.677C107.419 616.664 108.177 615.844 109.11 615.844C110.043 615.844 110.801 616.664 110.801 617.677Z" fill="#6097B2"/>
<path d="M135.199 609.963C136.133 609.963 136.89 609.143 136.89 608.131C136.89 607.119 136.133 606.298 135.199 606.298C134.265 606.298 133.508 607.119 133.508 608.131C133.508 609.143 134.265 609.963 135.199 609.963Z" fill="#6097B2"/>
<path d="M160.332 599.163C161.266 599.163 162.023 598.342 162.023 597.33C162.023 596.318 161.266 595.498 160.332 595.498C159.398 595.498 158.641 596.318 158.641 597.33C158.641 598.342 159.398 599.163 160.332 599.163Z" fill="#6097B2"/>
<path d="M150.682 628.869C150.682 629.883 149.925 630.702 148.991 630.702C148.058 630.702 147.301 629.881 147.301 628.869C147.301 627.857 148.058 627.036 148.991 627.036C149.925 627.036 150.682 627.856 150.682 628.869Z" fill="#6097B2"/>
<path d="M148.833 725.411H121.055C119.242 719.805 122.585 714.18 122.023 709.24C121.055 700.887 125.54 705.502 125.54 705.502C126.333 696.521 137.979 694.824 137.855 698.828C137.662 704.721 138.717 708.362 140.266 710.803C143.397 715.703 148.534 715.666 149.413 719.175C149.502 719.518 149.572 719.862 149.624 720.166C150.486 724.553 148.833 725.411 148.833 725.411Z" fill="#164353"/>
<path d="M149.624 720.167C143.87 721.617 130.606 719.729 130.078 716.105C129.568 712.596 136.711 710.956 140.264 710.803C143.395 715.703 148.532 715.665 149.411 719.175C149.502 719.518 149.571 719.862 149.624 720.167Z" fill="#205260"/>
<path d="M34.6398 492.166C31.6847 489.248 26.8819 494.073 26.8819 494.073C26.8819 494.073 29.4679 498.229 27.7962 499.907C26.1245 501.586 24.1898 497.752 20.9003 499.43C20.6356 499.564 20.3552 499.736 20.0906 499.926C17.522 501.586 14.8473 505.076 12.6844 507.726C12.2439 508.26 11.8224 508.757 11.4358 509.195C8.91955 512.054 2.42927 513.733 1.21392 506.105C0.000164248 498.477 7.91653 489.533 16.6077 481.314C25.299 473.095 30.9098 477.977 30.9098 477.977C30.9098 477.977 32.8794 481.429 32.8794 483.583C32.8794 485.718 34.6382 486.787 35.6238 488.827C36.611 490.85 34.6398 492.166 34.6398 492.166Z" fill="#164353"/>
<path d="M20.0904 499.928C17.5218 501.587 14.8471 505.077 12.6842 507.727C9.42959 508.566 6.50928 508.318 6.05135 505C4.94217 496.991 19.6847 486.807 18.5074 492.432C17.9101 495.256 18.9305 497.944 20.0904 499.928Z" fill="#205260"/>
<path d="M534.483 712.39C533.112 711.61 531.851 709.896 530.717 707.728C530.717 707.728 529.741 701.316 530.717 694.582C531.693 687.845 528.988 682.345 520.191 680.279C511.639 678.271 506.565 682.737 508.539 701.373L508.541 701.38C507.24 709.121 506.971 717.962 509.939 725.411H536.263C536.263 725.411 540.414 715.765 534.483 712.39Z" fill="#CFD8DC"/>
<path d="M557.576 611.945C557.576 611.945 557.576 630.539 547.901 649.608C538.048 669.027 525.868 695.677 525.868 695.677C525.868 695.677 517.752 704.26 512.596 690.044C512.596 690.044 516.236 640.549 524.592 622.432C532.946 604.318 557.576 611.945 557.576 611.945Z" fill="#FF8B66"/>
<path d="M683.802 551.398C683.802 551.398 699.482 622.868 709.455 641.72C709.455 641.72 707.16 649.608 696.362 651.992C696.362 651.992 662.253 597.643 660.053 574.759C657.852 551.874 683.802 551.398 683.802 551.398Z" fill="#FF8B66"/>
<path d="M691.384 568.198C687.215 579.086 655.003 579.678 655.003 579.678L652.541 575.75L651.89 574.721L646.859 566.674C646.859 566.674 593.483 509.922 583.086 514.689H583.068C582.769 514.842 582.471 515.013 582.189 515.242C575.046 520.773 574.377 551.075 565.933 601.933C565.123 606.758 563.33 612.383 561.975 616.274C561.816 616.693 561.675 617.095 561.534 617.476C560.761 619.632 560.214 621.004 560.214 621.004C527.633 635.307 516.884 607.045 516.884 607.045C516.884 607.045 517.27 606.226 517.833 604.91C517.956 604.623 518.097 604.3 518.237 603.957C519.943 599.876 522.67 592.801 522.635 589.063C522.601 584.963 522.566 581.016 522.548 577.22C522.548 576.877 522.548 576.552 522.531 576.229C522.479 564.005 522.496 553.383 522.566 544.154V543.182C522.601 539.158 522.654 535.401 522.724 531.892V530.901C523.006 514.826 523.48 504.089 523.99 496.937C524.008 496.613 524.043 496.269 524.062 495.965C524.958 483.931 525.909 482.75 525.909 482.75L519.382 433.568H590.596C590.596 433.568 601.292 445.18 615.173 460.513C615.472 460.819 615.753 461.123 616.035 461.448C621.066 466.997 626.502 473.023 631.956 479.144C632.184 479.392 632.395 479.62 632.59 479.85C634.737 482.253 636.882 484.656 639.01 487.04C639.275 487.325 639.521 487.631 639.785 487.918C646.928 495.946 653.859 503.861 659.789 510.783C659.999 511.011 660.193 511.241 660.388 511.47C668.497 520.986 674.672 528.595 676.802 532.141C682.449 541.504 686.846 553.691 689.275 561.222C689.275 561.222 689.275 561.222 689.275 561.241C689.399 561.585 689.503 561.891 689.61 562.213C690.751 565.872 691.384 568.198 691.384 568.198Z" fill="#8B383E"/>
<path d="M536.57 490.106C533.667 493.825 529.444 496.113 523.992 496.934C524.009 496.609 524.044 496.266 524.063 495.962C529.2 495.161 533.176 492.987 535.903 489.478C540.793 483.222 540.002 474.775 539.984 474.699L540.864 474.584C540.897 474.947 541.707 483.528 536.57 490.106Z" fill="#662C33"/>
<path d="M616.036 461.445C615.754 461.464 615.491 461.482 615.209 461.482C607.293 461.482 599.025 452.101 598.601 451.623L599.235 450.955C599.341 451.089 607.575 460.433 615.174 460.509C615.472 460.816 615.754 461.12 616.036 461.445Z" fill="#662C33"/>
<path d="M561.973 616.274C561.815 616.693 561.674 617.095 561.533 617.476C556.255 619.573 551.417 620.432 547.001 620.432C532.927 620.432 523.18 611.602 517.833 604.908C517.956 604.622 518.097 604.299 518.237 603.955C525.082 612.65 539.702 625.484 561.973 616.274Z" fill="#662C33"/>
<path d="M581.097 496.972C582.276 502.444 583.032 508.415 583.067 514.687C582.767 514.84 582.469 515.012 582.187 515.24C582.152 486.445 566.776 463.98 566.6 463.733L567.304 463.161C567.445 463.351 576.557 476.7 580.867 495.981C582.661 494.703 583.876 492.872 584.385 490.508C586.602 480.402 576.521 463.887 576.434 463.715L577.155 463.181C577.576 463.887 587.535 480.211 585.247 490.718C584.651 493.463 583.243 495.541 581.097 496.972Z" fill="#662C33"/>
<path d="M660.386 511.465C657.765 514.555 655.301 517.186 655.073 517.415L654.598 517.93L654.369 517.243C650.921 507.46 628.755 486.254 628.526 486.044L628.261 485.776L631.956 479.14C632.184 479.387 632.395 479.615 632.59 479.845L629.494 485.414C633.804 487.035 636.865 487.321 639.01 487.035C639.275 487.321 639.521 487.626 639.785 487.913C639.064 488.047 638.289 488.123 637.481 488.123C635.493 488.123 633.224 487.685 630.673 486.845C635.703 491.764 651.344 507.478 654.933 516.231C656.323 514.744 658.082 512.781 659.788 510.778C659.999 511.008 660.193 511.237 660.386 511.465Z" fill="#662C33"/>
<path d="M538.752 577.047L538.4 577.123C538.066 577.219 534.073 578.114 529.481 578.114C527.177 578.114 524.748 577.885 522.55 577.217C522.55 576.874 522.55 576.549 522.532 576.226C528.338 578.038 536.096 576.645 537.855 576.283L536.378 536.599C535.551 538.773 533.916 541.748 530.854 543.387C529.393 544.187 527.758 544.569 525.964 544.569C524.892 544.569 523.765 544.435 522.569 544.15V543.177C525.613 543.94 528.251 543.731 530.45 542.528C534.18 540.525 535.657 536.235 536.115 534.538C533.177 535.014 527.248 533.394 522.727 531.888V530.896C527.6 532.499 534.198 534.349 536.573 533.452L537.135 533.243L538.752 577.047Z" fill="#662C33"/>
<path d="M689.606 562.21C684.487 567.683 674.002 576.054 657.869 576.054C656.163 576.054 654.387 575.96 652.539 575.749L651.888 574.72C671.503 577.16 683.801 567.186 689.272 561.236C689.396 561.582 689.502 561.886 689.606 562.21Z" fill="#662C33"/>
<path d="M603.756 224.467C603.756 224.467 601.799 219.582 593.531 219.58C587.16 219.579 584.721 223.393 584.721 223.393C580.909 235.472 576.813 281.715 575.345 283.361C574.602 284.195 527.34 318.699 527.34 318.699C552.988 319.219 568.99 353.489 568.99 353.489C569.819 342.228 598.784 297.605 599.095 293.625C599.682 286.121 611.936 252.596 603.756 224.467Z" fill="#CE364C"/>
<path d="M521.708 466.264C521.708 466.264 521.471 475.912 524.35 476.548C527.229 477.183 550.685 484.698 577.66 471.407C604.635 458.114 609.327 448.262 601.409 440.952C593.493 433.642 521.708 466.264 521.708 466.264Z" fill="#CE364C"/>
<path d="M510.9 325.377C510.9 325.377 486.357 322.225 472.283 328.828C472.283 328.828 468.359 347.708 487.693 389.958C507.028 432.209 502.543 458.82 524.35 468.837C543.681 477.719 600.677 451.29 602.468 442.525C606.974 420.461 572.121 381.737 569.921 359.298C567.722 336.861 547.491 303.125 510.9 325.377Z" fill="#F24052"/>
<path d="M472.283 328.828C455.131 335.43 435.834 356.306 435.807 366.368C435.78 376.43 451.901 380.31 451.901 380.31L478.333 366.368C478.333 366.368 485.893 360.646 481.081 343.968C476.267 327.292 472.283 328.828 472.283 328.828Z" fill="#CE364C"/>
<path d="M542.761 347.433C537.636 347.433 531.279 345.432 527.329 342.379C525.152 340.698 523.854 338.802 523.574 336.893C522.604 330.289 528.536 326.931 528.791 326.792L529.59 328.489C529.384 328.604 524.547 331.369 525.312 336.593C525.515 337.984 526.567 339.447 528.349 340.825C532.772 344.243 540.42 346.247 545.401 345.296C547.644 344.866 549.113 343.99 549.764 342.695C550.562 341.11 549.882 339.317 549.874 339.298L551.49 338.544C551.533 338.65 552.515 341.175 551.321 343.582C550.405 345.425 548.516 346.632 545.706 347.17C544.797 347.348 543.803 347.433 542.761 347.433Z" fill="#CFD8DC"/>
<path d="M521.01 367.555C517.215 367.555 510.913 365.839 510.03 359.085C509.58 355.648 509.87 352.781 510.125 350.253C510.501 346.529 510.799 343.587 508.798 340.062C505.492 334.245 500.992 333.853 500.802 333.84L500.908 331.936C501.133 331.95 506.486 332.361 510.295 339.063C512.613 343.146 512.253 346.699 511.873 350.461C511.618 352.996 511.353 355.617 511.772 358.817C512.726 366.105 521.295 365.648 521.658 365.627L521.762 367.531C521.525 367.546 521.273 367.555 521.01 367.555Z" fill="#CFD8DC"/>
<path d="M526.35 333.33C526.35 333.33 539.324 323.75 536.245 313.381C533.166 303.012 491.385 303.726 480.609 316.122C469.834 328.519 503.919 336.746 503.919 336.746C506.557 330.982 523.417 330.346 526.35 333.33Z" fill="#CE364C"/>
<path d="M503.022 331.706C496.866 329.441 493.215 324.625 494.535 319.061C495.855 313.5 522.322 313.352 527.34 317.795C532.36 322.241 525.29 339.901 503.022 331.706Z" fill="#A02E44"/>
<path d="M500.092 316.074C500.092 316.074 505.538 326.16 503.022 331.706C503.022 331.706 521.707 338.699 521.707 327.366C521.707 327.366 518.186 318.872 519.512 313.381L500.092 316.074Z" fill="#EF6E4B"/>
<path d="M493.862 307.264C493.862 307.264 484.681 291.327 485.532 276.102C485.958 268.489 489.569 265.507 489.569 265.507C489.569 265.507 486.653 261.114 489.778 254.4C489.778 254.4 494.102 259.824 509.279 258.113C523.914 256.464 525.373 267.773 525.373 267.773C535.835 269.458 528.777 303.759 521.477 307.266L493.862 307.264Z" fill="#FFB878"/>
<path d="M489.967 292.548C489.967 292.548 484.691 286.84 484.041 293.513C483.288 301.244 489.766 304.358 491.032 301.899C492.296 299.439 489.967 292.548 489.967 292.548Z" fill="#FF8B66"/>
<path d="M526.917 292.95C526.917 292.95 532.193 287.242 532.843 293.915C533.596 301.646 527.118 304.76 525.852 302.3C524.586 299.843 526.917 292.95 526.917 292.95Z" fill="#FF8B66"/>
<path d="M507.885 320.55C496.177 320.55 489.569 312.26 489.569 287.397C489.569 274.572 495.589 266.705 508.704 266.705C521.818 266.705 527.342 274.572 527.342 287.397C527.342 314.113 519.981 320.55 507.885 320.55Z" fill="#FF8B66"/>
<path d="M523.464 296.263C523.67 297.54 522.643 298.799 521.171 299.077C519.701 299.355 518.34 298.546 518.135 297.272C517.931 295.995 518.956 294.736 520.428 294.458C521.899 294.18 523.258 294.989 523.464 296.263Z" fill="#DB614D"/>
<path d="M499.381 296.959C499.303 298.251 498.031 299.212 496.541 299.108C495.05 299.003 493.905 297.869 493.982 296.578C494.06 295.286 495.331 294.322 496.822 294.429C498.314 294.534 499.458 295.666 499.381 296.959Z" fill="#DB614D"/>
<path d="M518.308 282.933C518.154 282.959 517.994 282.919 517.863 282.809C515.999 281.256 513.203 281.806 513.16 281.813C512.848 281.868 512.537 281.651 512.479 281.306C512.417 280.961 512.627 280.631 512.946 280.566C513.068 280.537 516.302 279.908 518.576 281.804C518.833 282.017 518.88 282.416 518.684 282.694C518.587 282.828 518.451 282.909 518.308 282.933Z" fill="#FFB878"/>
<path d="M495.899 283.021C495.755 283.002 495.619 282.924 495.519 282.794C495.315 282.522 495.351 282.122 495.6 281.901C497.818 279.931 501.067 280.453 501.192 280.477C501.51 280.532 501.729 280.855 501.68 281.2C501.631 281.547 501.319 281.777 501.013 281.731C500.992 281.722 498.143 281.282 496.343 282.883C496.212 282.996 496.052 283.041 495.899 283.021Z" fill="#FFB878"/>
<path d="M517.097 290.097C517.097 291.672 516.443 292.952 515.635 292.95C514.827 292.95 514.172 291.672 514.172 290.097C514.172 288.52 514.827 287.242 515.635 287.242C516.443 287.242 517.097 288.52 517.097 290.097Z" fill="#1A4850"/>
<path d="M501.461 290.097C501.461 291.672 500.807 292.952 499.999 292.95C499.191 292.95 498.536 291.672 498.536 290.097C498.536 288.52 499.191 287.242 499.999 287.242C500.807 287.242 501.461 288.52 501.461 290.097Z" fill="#1A4850"/>
<path d="M493.162 269.458C493.162 269.458 505.64 274.41 523.528 273.017C523.528 273.017 527.342 278.17 526.879 296.354C526.879 296.354 537.354 263.599 506.776 263.599C476.198 263.599 489.974 295.627 489.974 295.627C489.974 295.627 487.473 275.595 493.162 269.458Z" fill="#FFB878"/>
<path d="M508.627 298.572L507.75 297.615L510.067 295.121C507.822 291.679 507.833 283.714 507.836 283.359L509.08 283.366C509.08 283.452 509.067 292.021 511.36 294.714L511.767 295.191L508.627 298.572Z" fill="#DB614D"/>
<path d="M500.856 302.723C500.856 302.723 512.38 303.25 518.197 301.582C518.197 301.582 519.225 310.667 510.295 311.117C500.856 311.593 500.856 302.723 500.856 302.723Z" fill="#1A4850"/>
<path d="M550.099 337.065C552.298 336.622 552.078 342.86 550.099 341.052C548.12 339.245 547.9 337.508 550.099 337.065Z" fill="#CFD8DC"/>
<path d="M523.58 367.294C523.245 369.691 517.88 367.421 520.105 365.987C522.328 364.552 523.914 364.896 523.58 367.294Z" fill="#CFD8DC"/>
<path d="M499.975 380.31C499.975 380.31 496.482 390.016 496.682 395.5C496.882 400.985 498.536 400.268 498.536 400.268C498.536 400.268 495.888 401.398 495.386 404.559C494.885 407.719 502.247 410.042 502.752 410.042C503.258 410.042 508.454 407.896 508.454 407.896L509.542 389.959L504.942 386.828L499.975 380.31Z" fill="#EF6E4B"/>
<path d="M502.753 379.054C502.753 379.054 509.11 383.345 511.572 385.967C514.034 388.59 512.629 408.851 511.572 409.804C510.515 410.758 502.41 412.724 500.856 411.622C499.301 410.519 501.461 404.561 501.461 404.561C501.461 404.561 505.532 403.607 504.944 405.275C504.358 406.945 504.944 408.374 504.944 408.374L506.616 407.659C506.616 407.659 505.795 403.13 506.616 399.792C507.436 396.455 500.884 392.936 500.092 386.83C499.3 380.722 502.753 379.054 502.753 379.054Z" fill="#FF8B66"/>
<path d="M436.863 369.181C434.826 359.654 443.551 356.282 455.687 357.907C469.761 359.791 498.663 363.781 504.946 380.31C504.946 380.31 506.998 386.828 501.688 389.959C486.841 398.712 440.684 387.077 436.863 369.181Z" fill="#CE364C"/>
<path d="M480.889 362.869C480.889 362.869 464.117 355.317 455.76 354.551C447.403 353.786 467.314 361.701 480.889 362.869Z" fill="#A02E44"/>
<path d="M606.624 199.177C605.358 200.74 603.263 206.824 603.263 206.824C602.384 211.934 601.874 214.757 600.219 217.102C598.582 219.448 599.444 223.586 599.444 223.586C599.444 223.586 593.041 227.152 587.657 222.746C587.657 222.746 588.219 218.646 587.657 217.483C586.549 215.158 582.995 213.917 581.782 209.227C580.568 204.517 576.927 199.271 576.927 199.271C576.927 199.271 577.964 196.831 579.864 198.318C581.782 199.824 582.995 203.581 584.033 203.962C584.244 204.038 584.456 204.096 584.667 204.115C584.667 204.115 584.684 204.115 584.719 204.134C585.512 204.249 586.32 204.058 586.812 203.543C586.847 203.524 586.901 203.486 586.936 203.428C588.677 201.235 589.083 194.788 589.012 191.91C588.906 187.906 589.047 182.375 591.298 183.31C593.55 184.244 591.492 186.475 593.233 195.305L594.078 195.42C594.236 196.049 595.784 190.062 596.153 184.436C596.418 180.565 598.757 181.996 599.267 183.215C599.795 184.436 599.002 188.287 598.845 191.09C598.722 192.94 598.581 194.866 598.494 196.011L599.479 196.602C603.033 189.89 601.82 187.105 603.895 186.972C605.954 186.838 605.215 192.502 604.106 194.656C603.631 195.591 603.174 197.535 602.804 199.443C606.445 194.885 606.041 192.502 607.713 192.787C609.438 193.093 607.89 197.612 606.624 199.177Z" fill="#FF8B66"/>
<path d="M590.896 209.683C589.665 206.003 585.266 204.324 584.721 204.134C585.513 204.249 586.321 204.058 586.814 203.543C591.124 205.64 590.896 209.683 590.896 209.683Z" fill="#EF6E4B"/>
<path d="M514.474 697.44C514.474 697.44 512.04 692.055 514.209 689.741C516.378 687.428 518.934 691.718 522.64 690.765C526.348 689.812 527.207 686.955 528.17 690.846C529.135 694.738 527.961 706.974 514.474 697.44Z" fill="#CFD8DC"/>
<path d="M528.429 697.201C528.429 697.201 518.472 701.024 513.311 697.201L514.623 701.873C514.623 701.873 525.445 703.115 526.938 700.159L528.429 697.201Z" fill="#ADBEC4"/>
<path d="M528.294 703.006C528.294 703.006 519.178 701.636 514.779 704.089V706.406C514.779 706.406 526.665 703.398 530.508 706.406L528.294 703.006Z" fill="#ADBEC4"/>
<path d="M514.342 711.215C514.342 711.215 516.11 706.545 521.656 706.21C527.202 705.875 530.945 709.185 530.945 709.185C530.945 709.185 522.149 705.257 514.342 711.215Z" fill="#ADBEC4"/>
<path d="M749 646.327C731.495 671.651 707.675 676.514 707.675 676.514C700.762 670.526 700.586 663.433 700.586 663.433C700.586 663.433 693.918 656.986 693.039 653.898C692.159 650.808 698.756 641.502 702.714 642.457C705.441 643.105 707.024 645.47 707.745 646.863C704.473 638.872 707.094 636.088 711.738 636.775C716.575 637.481 712.002 638.721 715.468 642.935C715.713 643.24 715.995 643.488 716.295 643.716C716.929 644.194 717.685 644.516 718.547 644.688C719.302 644.841 720.147 644.879 721.026 644.822C721.484 644.803 721.958 644.747 722.433 644.669C723.33 644.516 724.245 644.269 725.195 643.945C726.656 643.448 728.168 642.744 729.646 641.866C735.698 638.281 738.249 637.06 742.858 638.338C747.45 639.597 747.379 643.373 747.379 643.373L749 646.327Z" fill="#CFD8DC"/>
<path d="M749 646.327C731.495 671.651 707.675 676.514 707.675 676.514C719.832 670.851 731.003 663.433 738.637 654.297C746.255 645.164 749 646.327 749 646.327Z" fill="#ADBEC4"/>
<path d="M716.295 643.714C716.929 644.192 717.685 644.515 718.546 644.686C713.92 645.696 713.585 650.179 713.585 650.179L711.616 649.492C712.037 644.114 715.961 643.733 716.295 643.714Z" fill="#ADBEC4"/>
<path d="M719.409 650.714L717.35 650.789C716.575 647.624 717.578 645.736 718.547 644.687C719.302 644.839 720.147 644.877 721.026 644.82C718.581 647.433 719.409 650.714 719.409 650.714Z" fill="#ADBEC4"/>
<path d="M724.493 649.492L722.452 649.778C721.66 647.527 721.89 645.849 722.435 644.668C723.332 644.515 724.246 644.267 725.197 643.943C723.508 646.67 724.493 649.492 724.493 649.492Z" fill="#ADBEC4"/>
<path d="M528.609 414.334C528.609 414.334 533.127 440.761 523.99 451.292C514.855 461.822 520.899 453.169 523.623 439.591C526.35 426.014 524.274 411.711 528.609 414.334Z" fill="#CE364C"/>
<path d="M570.771 402.539C570.771 402.539 585.171 407.668 592.704 422.086C592.704 422.086 582.645 398.611 570.771 402.539Z" fill="#CE364C"/>
<path d="M196.742 206.195C198.661 206.228 204.225 208.629 204.225 208.629C208.31 211.353 210.583 212.839 213.297 213.084C215.999 213.345 217.108 218.376 217.108 218.376C217.108 218.376 227.764 220.903 228.366 213.62C228.366 213.62 222.41 204.481 221.991 203.248C221.145 200.795 222.682 197.109 220.291 192.983C217.886 188.845 216.745 182.399 216.745 182.399C216.745 182.399 214.379 181.595 214.121 184.12C213.864 186.673 215.617 190.17 215.181 191.26C215.091 191.48 214.989 191.69 214.861 191.872C214.861 191.872 214.85 191.886 214.839 191.927C214.386 192.64 213.712 193.162 213.029 193.212C212.993 193.227 212.931 193.244 212.868 193.234C210.199 193.162 205.52 189.158 203.6 187.169C200.933 184.395 197.057 180.797 196.184 183.232C195.311 185.669 198.218 185.513 203.086 192.839L202.598 193.595C202.921 194.144 197.789 191.369 193.695 187.889C190.871 185.501 190.278 188.342 190.77 189.57C191.25 190.814 194.416 192.763 196.437 194.519C197.784 195.661 199.196 196.841 200.038 197.54L199.781 198.728C192.806 197.076 191.717 194.232 190.232 195.81C188.759 197.373 193.127 200.584 195.346 201.14C196.303 201.386 197.941 202.323 199.492 203.308C193.931 203.174 192.573 201.248 191.647 202.782C190.693 204.373 194.823 206.162 196.742 206.195Z" fill="#FF8B66"/>
<path d="M214.485 200.614C212.796 197.153 214.601 192.494 214.837 191.928C214.384 192.641 213.71 193.163 213.027 193.213C211.566 198.083 214.485 200.614 214.485 200.614Z" fill="#EF6E4B"/>
<path d="M510.253 206.195C508.334 206.228 502.769 208.629 502.769 208.629C498.684 211.353 496.412 212.839 493.697 213.084C490.996 213.345 489.886 218.376 489.886 218.376C489.886 218.376 479.23 220.903 478.628 213.62C478.628 213.62 484.586 204.481 485.003 203.248C485.849 200.795 484.312 197.109 486.703 192.983C489.108 188.845 490.249 182.399 490.249 182.399C490.249 182.399 492.615 181.595 492.873 184.12C493.13 186.673 491.377 190.17 491.813 191.26C491.904 191.48 492.005 191.69 492.135 191.872C492.135 191.872 492.146 191.886 492.157 191.927C492.61 192.64 493.284 193.162 493.967 193.212C494.003 193.227 494.065 193.244 494.128 193.234C496.797 193.162 501.476 189.158 503.398 187.169C506.065 184.395 509.94 180.797 510.814 183.232C511.687 185.669 508.779 185.513 503.911 192.839L504.399 193.595C504.076 194.144 509.208 191.369 513.303 187.889C516.126 185.501 516.719 188.342 516.228 189.57C515.748 190.814 512.582 192.763 510.56 194.519C509.213 195.661 507.801 196.841 506.96 197.54L507.217 198.728C514.192 197.076 515.28 194.232 516.765 195.81C518.239 197.373 513.87 200.584 511.652 201.14C510.695 201.386 509.056 202.323 507.505 203.308C513.065 203.174 514.425 201.248 515.35 202.782C516.301 204.373 512.171 206.162 510.253 206.195Z" fill="#FF8B66"/>
<path d="M492.509 200.614C494.198 197.153 492.393 192.494 492.157 191.928C492.61 192.641 493.284 193.163 493.967 193.213C495.428 198.083 492.509 200.614 492.509 200.614Z" fill="#EF6E4B"/>
<path d="M416.609 556.324L396.139 418.93L355.15 423.892L314.161 418.93L293.69 556.324L283.858 689.578C283.858 689.578 286.984 700.619 307.431 692.991C307.431 692.991 322.602 569.395 324.947 566.673C327.292 563.95 351.382 483.221 351.382 483.221H358.916C358.916 483.221 383.005 563.95 385.351 566.673C387.696 569.395 402.867 692.991 402.867 692.991C423.315 700.619 426.44 689.578 426.44 689.578L416.609 556.324Z" fill="#0E3944"/>
<path d="M342.236 285.88C344.825 288.612 357.563 293.539 364.289 285.88L368.85 290.736C368.85 290.736 363.649 303.993 354.524 304.457C345.397 304.92 338.801 292.662 338.801 292.662L342.236 285.88Z" fill="#0C476B"/>
<path d="M378.311 284.383C393.557 277.267 442.816 258.354 442.816 258.354C442.816 258.354 475.93 213.384 482.683 206.709C482.683 206.709 490.013 208.14 492.159 218.031C492.159 218.031 470.836 267.523 459.246 281.691C447.655 295.86 388.953 326.504 388.953 326.504L378.311 284.383Z" fill="#0C476B"/>
<path d="M324.947 283.362C329.484 280.253 352.255 296.767 352.255 296.767C352.255 296.767 381.861 279.724 388.809 283.026C388.809 283.026 395.071 292.108 397.586 315.458C400.102 338.807 400.268 434.894 400.268 434.894C400.268 434.894 380.363 442.527 353.44 442.527C322.748 442.527 306.235 432.985 306.235 432.985C306.235 432.985 300.757 299.946 324.947 283.362Z" fill="#FFB878"/>
<path d="M343.438 280.867C343.438 280.867 346.717 292.047 343.438 296.354C343.438 296.354 346.844 304.099 352.965 304.443C360.036 304.838 362.489 296.354 362.489 296.354C362.489 296.354 358.75 285.556 362.489 281.762L343.438 280.867Z" fill="#EF6E4B"/>
<path d="M335.264 269.862C335.264 269.862 328.363 255.465 329.729 240.078C331.095 224.694 352.481 221.166 366.893 228.725C366.893 228.725 362.615 224.19 364.289 222.93C365.964 221.671 368.85 229.733 368.85 229.733C368.85 229.733 373.402 228.222 374.099 229.733C374.797 231.246 369.436 232.072 369.436 232.072C369.436 232.072 378.736 237.663 370.048 267.418L335.264 269.862Z" fill="#8B383E"/>
<path d="M334.226 260.745C334.226 260.745 329.081 255.18 328.447 261.686C327.713 269.225 334.029 272.261 335.264 269.864C336.498 267.464 334.226 260.745 334.226 260.745Z" fill="#FF8B66"/>
<path d="M370.255 261.138C370.255 261.138 375.4 255.571 376.034 262.079C376.768 269.618 370.452 272.655 369.217 270.257C367.983 267.857 370.255 261.138 370.255 261.138Z" fill="#FF8B66"/>
<path d="M351.699 288.048C340.282 288.048 333.839 279.965 333.839 255.721C333.839 243.215 339.708 235.544 352.497 235.544C365.284 235.544 370.67 243.215 370.67 255.721C370.67 281.772 363.492 288.048 351.699 288.048Z" fill="#FF8B66"/>
<path d="M366.888 264.367C367.089 265.611 366.088 266.839 364.652 267.11C363.217 267.382 361.892 266.593 361.692 265.35C361.491 264.106 362.492 262.878 363.928 262.607C365.362 262.335 366.688 263.124 366.888 264.367Z" fill="#DB614D"/>
<path d="M343.407 265.046C343.331 266.306 342.091 267.244 340.637 267.141C339.184 267.038 338.067 265.934 338.143 264.673C338.219 263.414 339.458 262.474 340.912 262.577C342.366 262.68 343.483 263.785 343.407 265.046Z" fill="#DB614D"/>
<path d="M361.667 251.787C361.516 251.787 361.367 251.724 361.255 251.597C359.672 249.798 356.902 249.876 356.861 249.876C356.552 249.877 356.283 249.618 356.273 249.276C356.262 248.934 356.509 248.649 356.824 248.639C356.947 248.63 360.15 248.55 362.079 250.743C362.296 250.99 362.288 251.382 362.061 251.617C361.95 251.732 361.808 251.787 361.667 251.787Z" fill="#8B383E"/>
<path d="M340.171 251.788C340.03 251.788 339.889 251.733 339.778 251.617C339.55 251.382 339.542 250.991 339.757 250.743C341.687 248.548 344.887 248.632 345.012 248.639C345.327 248.651 345.573 248.936 345.563 249.276C345.554 249.618 345.278 249.881 344.975 249.876C344.955 249.871 342.149 249.814 340.585 251.597C340.47 251.724 340.322 251.788 340.171 251.788Z" fill="#8B383E"/>
<path d="M360.68 258.354C360.68 259.891 360.041 261.136 359.254 261.136C358.466 261.136 357.828 259.889 357.828 258.354C357.828 256.817 358.466 255.571 359.254 255.571C360.043 255.571 360.68 256.817 360.68 258.354Z" fill="#1A4850"/>
<path d="M345.435 258.354C345.435 259.891 344.796 261.136 344.009 261.136C343.221 261.136 342.583 259.891 342.583 258.354C342.583 256.817 343.221 255.571 344.009 255.571C344.796 255.571 345.435 256.818 345.435 258.354Z" fill="#1A4850"/>
<path d="M345.435 274.796C345.435 274.796 355.503 276.201 360.681 273.506C360.681 273.506 357.753 280.937 352.255 280.27C346.755 279.606 345.435 274.796 345.435 274.796Z" fill="#1A4850"/>
<path d="M369.48 263.885C369.48 263.885 369.124 250.425 364.289 240.08C364.289 240.08 355.768 244.35 353.892 243.342C352.015 242.334 355.679 240.08 355.679 240.08C355.679 240.08 341.618 245.106 340.773 244.098C339.929 243.089 345.433 240.08 345.433 240.08L336.674 243.342C336.674 243.342 333.974 255.451 335.091 263.886C335.091 263.886 331.328 256.846 330.862 251.983C330.396 247.121 332.369 233.263 345.562 232.255C358.756 231.246 366.165 234.493 369.434 241.059C372.705 247.624 372.299 255.702 369.48 263.885Z" fill="#8B383E"/>
<path d="M353.689 270.908C352.58 270.91 351.453 270.597 351.112 270.494L351.436 269.228C352.634 269.587 354.513 269.8 354.923 269.276C355.064 269.094 355.009 268.672 354.766 268.117C353.117 264.312 352.773 254.682 352.759 254.275L353.973 254.226C353.976 254.324 354.32 263.996 355.864 267.557C356.337 268.642 356.33 269.506 355.85 270.125C355.381 270.726 354.54 270.908 353.689 270.908Z" fill="#DB614D"/>
<path d="M366.321 289.422C366.321 289.422 386.983 358.951 388.951 415.524C388.951 415.524 396.41 417.749 404.806 405.354C413.203 392.958 408.208 294.776 392.122 278.428C392.122 278.428 384.822 276.624 366.321 289.422Z" fill="#105E99"/>
<path d="M369.688 301.581C369.688 301.581 373.386 292.267 371.743 285.879C370.1 279.491 364.289 285.879 364.289 285.879C364.289 285.879 366.638 296.337 369.688 301.581Z" fill="#0C476B"/>
<path d="M328.214 284.383C312.967 277.267 263.709 258.354 263.709 258.354C263.709 258.354 230.511 212.071 223.758 205.398C223.758 205.398 215.401 210.523 214.835 221.131C214.835 221.131 235.689 267.524 247.28 281.693C258.871 295.861 317.574 326.505 317.574 326.505L328.214 284.383Z" fill="#0C476B"/>
<path d="M340.206 289.422C340.206 289.422 319.544 358.951 317.576 415.524C317.576 415.524 310.117 417.749 301.721 405.354C293.324 392.958 298.319 294.776 314.405 278.428C314.405 278.428 321.703 276.624 340.206 289.422Z" fill="#105E99"/>
<path d="M336.837 301.581C336.837 301.581 333.139 292.267 334.782 285.879C336.425 279.491 342.236 285.879 342.236 285.879C342.236 285.879 339.889 296.337 336.837 301.581Z" fill="#0C476B"/>
<path d="M444.667 725.411H403.641C400.773 707.733 405.348 690.037 405.348 690.037L424.101 686.547C425.808 697.721 427.866 702.127 430.716 704.396C430.734 704.396 430.734 704.396 430.734 704.396C432.81 706.036 435.289 706.571 438.387 707.733C441.924 709.068 443.789 711.49 444.721 714.121C446.568 719.346 444.667 725.411 444.667 725.411Z" fill="#662C33"/>
<path d="M444.721 714.121C434.605 715.493 412.385 717.84 413.74 711.49C414.866 706.187 424.242 704.758 430.716 704.396C430.734 704.396 430.734 704.396 430.734 704.396C432.81 706.036 435.289 706.57 438.387 707.733C441.922 709.068 443.787 711.49 444.721 714.121Z" fill="#8B383E"/>
<path d="M307.27 725.411H266.244C266.244 725.411 264.942 721.255 265.541 716.849C266.034 713.264 267.793 709.506 272.526 707.733C276.08 706.399 278.807 705.902 281.041 703.634C283.468 701.155 285.281 696.578 286.812 686.547L305.565 690.037C305.565 690.037 310.12 707.733 307.27 725.411Z" fill="#662C33"/>
<path d="M265.541 716.849C266.034 713.264 267.792 709.506 272.525 707.733C276.08 706.399 278.807 705.902 281.041 703.633C286.23 705.368 293.497 708.554 295.748 713.377C298.88 719.994 274.901 718.946 265.541 716.849Z" fill="#8B383E"/>
<path d="M601.805 722.227C601.805 724.095 601.629 725.411 601.629 725.411H551.79C551.79 724.343 551.807 723.276 551.86 722.227C552.422 708.096 556.539 695.834 556.539 695.834L568.995 690.037C570.068 696.997 572.83 701.44 576.297 704.339C577.211 705.121 578.162 705.77 579.147 706.323C579.605 706.591 580.061 706.838 580.537 707.067C581.575 707.582 582.647 708.001 583.722 708.345C588.12 709.794 592.571 710.099 595.685 710.614C600.995 711.509 601.805 718.164 601.805 722.227Z" fill="#164353"/>
<path d="M601.804 722.227C601.804 724.095 601.628 725.411 601.628 725.411H551.789C551.789 724.343 551.807 723.276 551.859 722.227H601.804Z" fill="#225866"/>
<path d="M579.144 706.322L572.23 708.725L570.769 705.978L576.293 704.338C577.209 705.121 578.16 705.769 579.144 706.322Z" fill="#225866"/>
<path d="M583.718 708.343L579.057 711.699L576.189 710.478L580.533 707.065C581.573 707.58 582.646 707.999 583.718 708.343Z" fill="#225866"/>
<path d="M411.382 722.227C411.258 724.058 410.819 725.411 410.819 725.411H377.623C377.202 724.362 376.902 723.314 376.69 722.227C373.418 705.006 395.478 683.934 395.478 683.934L402.48 694.061C402.48 694.061 401.67 710.27 407.6 713.645C411.154 715.665 411.612 719.48 411.382 722.227Z" fill="#164353"/>
<path d="M376.69 722.227H411.382C411.258 724.058 410.819 725.411 410.819 725.411H377.623C377.2 724.362 376.901 723.312 376.69 722.227Z" fill="#225866"/>
<path d="M406.083 712.354C406.083 712.354 392.096 708.898 385.72 713.372V710.87C385.72 710.87 397.484 704.673 406.083 712.354Z" fill="#225866"/>
<path d="M403.312 708.508C403.312 708.508 394.381 704.082 385.719 708.508L386.707 705.983C386.707 705.983 397.054 701.742 403.312 708.508Z" fill="#225866"/>
<path d="M586.762 569.132C586.779 583.607 574.922 701.612 574.922 701.612C563.065 702.89 553.566 700.315 553.566 700.315C550.311 640.511 549.994 589.081 549.994 589.081L493.171 542.913L493.03 542.798C493.03 542.798 492.819 543.847 492.431 545.716C489.617 559.256 477.706 615.97 472.745 628.957C467.097 643.756 405.351 705.985 405.351 705.985C393.88 704.269 384.148 695.264 384.148 695.264C406.314 655.408 436.538 615.437 436.538 615.437C438.896 601.078 440.585 569.136 441.588 545.261C441.605 544.898 441.623 544.517 441.64 544.155C442.309 527.983 442.643 515.778 442.643 515.778L432.228 492.626L498.394 466.271L513.223 486.848C513.223 486.848 516.619 490.261 521.967 495.716C522.212 495.964 522.46 496.213 522.705 496.46C542.569 516.767 586.762 562.648 586.762 569.132Z" fill="#8BBDDB"/>
<path d="M441.589 545.258C441.607 544.895 441.624 544.514 441.642 544.151C455.575 535.952 453.236 522.868 453.199 522.736L454.061 522.546C454.096 522.678 456.595 536.733 441.589 545.258Z" fill="#6097B2"/>
<path d="M492.149 533.662C492.624 536.522 492.976 539.612 493.169 542.911L493.028 542.796C493.028 542.796 492.818 543.846 492.429 545.715C491.815 523.288 483.282 510.035 483.176 509.882L483.897 509.329C483.984 509.444 489.368 517.872 491.972 532.575C502.035 522.887 492.182 503.035 492.078 502.845L492.851 502.388C492.959 502.597 503.391 523.612 492.149 533.662Z" fill="#6097B2"/>
<path d="M522.707 496.457C522.69 496.475 522.655 496.476 522.637 496.494C522.233 496.666 521.758 496.742 521.265 496.742C516.393 496.742 508.212 489.342 507.825 488.98L508.405 488.255C511.062 490.696 518.468 496.551 521.969 495.711C522.216 495.962 522.461 496.209 522.707 496.457Z" fill="#6097B2"/>
<path d="M436.863 369.181C436.863 369.181 456.99 365.67 467.074 372.639C477.158 379.607 490.398 397.795 490.398 397.795C490.398 397.795 474.678 400.045 472.898 411.62C472.898 411.62 461.48 382.142 436.863 369.181Z" fill="#ADBEC4"/>
<path d="M406.585 380.56C398.072 385.55 383.841 404.281 383.198 415.799C382.57 427.034 390.249 437.367 395.424 446.151C411.575 473.562 428.58 497.782 435.807 529.933C435.853 530.137 472.751 546.008 516.055 489.584C516.055 489.584 491.585 453.897 483.133 423.515C479.693 411.148 476.191 398.01 469.582 387.11C462.303 375.104 449.834 368.041 436.864 369.18C425.888 370.147 414.972 375.645 406.585 380.56Z" fill="#CFD8DC"/>
<path d="M403.012 369.063C403.012 369.063 408.457 379.149 405.942 384.695C405.942 384.695 424.628 391.687 424.628 380.354C424.628 380.354 421.106 371.861 422.434 366.37L403.012 369.063Z" fill="#EF6E4B"/>
<path d="M444.534 438.126C444.534 438.126 434.139 441.326 431.517 445.315C428.894 449.303 426.56 458.25 426.56 458.25H444.534L447.913 451.51L451.87 442.527L444.534 438.126Z" fill="#EF6E4B"/>
<path d="M427.351 357.816C427.351 357.816 434.647 354.497 429.927 330.707C426.799 314.942 422.293 312.593 419.382 312.453C419.382 312.453 415.82 306.636 403.465 309.42C395.004 311.328 388.252 316.899 385.279 327.206C382.177 337.965 388.382 361.028 396.553 363.322L427.351 357.816Z" fill="#164353"/>
<path d="M429.076 341.739C429.076 341.739 433.674 334.8 435.411 341.639C437.423 349.563 431.161 354.02 429.45 351.691C427.74 349.362 429.076 341.739 429.076 341.739Z" fill="#FF8B66"/>
<path d="M390.597 349.051C390.597 349.051 384.186 344.082 384.568 351.163C385.01 359.367 392.261 361.407 393.191 358.606C394.123 355.804 390.597 349.051 390.597 349.051Z" fill="#FF8B66"/>
<path d="M414.831 374.289C427.045 372.104 432.621 362.225 428.674 336.289C426.638 322.91 419.109 315.827 405.43 318.274C391.751 320.72 387.238 329.956 389.274 343.336C393.514 371.204 402.213 376.546 414.831 374.289Z" fill="#FF8B66"/>
<path d="M394.725 351.862C394.714 353.231 395.985 354.355 397.564 354.37C399.144 354.386 400.434 353.288 400.445 351.919C400.456 350.55 399.185 349.427 397.605 349.411C396.027 349.398 394.737 350.493 394.725 351.862Z" fill="#DB614D"/>
<path d="M419.957 348.096C420.242 349.429 421.722 350.195 423.261 349.808C424.8 349.42 425.814 348.025 425.529 346.691C425.242 345.358 423.763 344.59 422.225 344.978C420.686 345.367 419.67 346.761 419.957 348.096Z" fill="#DB614D"/>
<path d="M398.163 337.416C398.043 337.416 397.921 337.378 397.815 337.299C397.533 337.091 397.46 336.674 397.652 336.368C399.36 333.652 402.787 333.132 402.933 333.11C403.293 333.067 403.581 333.321 403.627 333.685C403.671 334.053 403.435 334.389 403.096 334.439C403.064 334.442 400.065 334.908 398.675 337.122C398.555 337.314 398.36 337.416 398.163 337.416Z" fill="#1A4850"/>
<path d="M421.158 333.304C421.028 333.304 420.897 333.261 420.786 333.168C418.808 331.55 415.837 332.16 415.809 332.167C415.468 332.247 415.15 332.003 415.082 331.639C415.015 331.277 415.232 330.923 415.568 330.851C415.711 330.822 419.111 330.118 421.531 332.096C421.803 332.32 421.857 332.74 421.653 333.036C421.531 333.211 421.345 333.304 421.158 333.304Z" fill="#1A4850"/>
<path d="M400.388 344.241C400.638 345.885 401.524 347.098 402.367 346.947C403.21 346.796 403.69 345.341 403.44 343.697C403.19 342.053 402.304 340.842 401.461 340.993C400.618 341.143 400.138 342.598 400.388 344.241Z" fill="#1A4850"/>
<path d="M416.698 341.325C416.948 342.969 417.834 344.18 418.677 344.028C419.52 343.877 420 342.422 419.75 340.779C419.499 339.135 418.614 337.924 417.771 338.075C416.928 338.226 416.447 339.681 416.698 341.325Z" fill="#1A4850"/>
<path d="M421.277 356.253C421.277 356.253 410.683 359.334 404.806 358.109C404.806 358.109 408.867 363.654 414.666 362.055C420.464 360.457 421.277 356.253 421.277 356.253Z" fill="#1A4850"/>
<path d="M421.778 324.253C421.778 324.253 407.992 335.073 390.689 335.897L391.179 352.594C391.179 352.594 375.051 320.382 406.95 314.678C438.846 308.973 429.563 344.952 429.563 344.952C429.563 344.952 428.572 329.434 421.778 324.253Z" fill="#0E3944"/>
<path d="M410.502 351.766L410.415 350.323C410.434 350.322 412.274 350.167 412.752 348.932C412.95 348.424 412.166 346.802 411.474 345.373C410.513 343.386 409.319 340.914 408.81 338.168L410.119 337.883C410.588 340.427 411.734 342.797 412.654 344.702C413.679 346.823 414.421 348.355 413.98 349.492C413.182 351.555 410.612 351.759 410.502 351.766Z" fill="#DB614D"/>
<path d="M429.257 324.295C406.07 313.386 384.185 336.004 384.185 336.004C384.185 336.004 381.634 317.677 386.102 313.386C387.263 312.261 388.512 311.27 389.815 310.392C400.054 303.393 413.67 303.527 419.914 305.93C421.198 306.426 422.184 307.017 422.748 307.646C426.441 311.802 429.257 324.295 429.257 324.295Z" fill="#CE364C"/>
<path d="M426.441 320.212C426.441 320.212 406.965 316.036 388.811 329.061C388.811 329.061 387.65 317.237 389.814 310.392C400.054 303.393 413.669 303.527 419.914 305.93C423.555 310.43 426.441 320.212 426.441 320.212Z" fill="#CFD8DC"/>
<path d="M386.102 333.848C386.102 333.848 389.19 319.635 393.35 315.631C400.268 308.972 419.71 306.684 429.929 310.688C440.147 314.692 429.929 326.794 429.929 326.794C429.929 326.794 413.641 314.149 386.102 333.848Z" fill="#A02E44"/>
<path d="M416.173 428.295C416.173 428.295 424.133 441.658 437.687 449.519C437.687 449.519 454.644 433.564 476.63 435C476.63 435 458.408 470.637 442.76 474.584C434.538 476.658 404.806 455.316 404.806 455.316C404.806 455.316 410.742 432.633 416.173 428.295Z" fill="#FF8B66"/>
<path d="M386.864 404.068C394.148 391.215 410.951 410.215 416.669 423.784C422.388 437.355 426.562 440.232 426.562 440.232C426.562 440.232 409.772 447.834 409.892 461.476C409.892 461.476 370.97 432.115 386.864 404.068Z" fill="#ADBEC4"/>
<path d="M437.687 443.649C437.687 443.649 447.913 432.773 481.541 418.578L477.197 403.772C481.054 398.269 488.146 398.269 488.146 398.269C488.146 398.269 505.375 424.641 502.409 432.518C500.558 437.439 464.622 442.603 437.687 443.649Z" fill="#EF6E4B"/>
<path d="M474.515 422.13C474.515 422.13 474.779 420.572 476.023 418.671C477.265 416.769 476.929 413.308 477.375 412.235C477.82 411.163 480.466 406.778 482.222 405.926C483.978 405.073 486.281 403.678 486.771 406.095C487.261 408.509 483.626 407.826 481.994 411.301C481.994 411.301 485.565 410.048 488.398 410.775C491.232 411.502 492.033 414.308 488.533 414.215C485.741 414.142 482.146 416.299 482.146 416.299C482.146 416.299 485.784 416.891 485.198 418.71C484.383 421.223 479.946 419.676 474.515 422.13Z" fill="#FF8B66"/>
<path d="M225.811 471.781C228.817 480.123 241.131 494.426 241.131 494.426C241.131 494.426 271.212 474.88 285.089 483.103C298.966 491.327 309.995 496.345 318.995 492.763C327.995 489.182 289.402 413.1 289.402 413.1L239.366 392.403C239.366 392.403 238.274 406.122 232.557 408.559C226.84 410.996 220.744 433.641 221.153 437.932C221.56 442.222 225.811 471.781 225.811 471.781Z" fill="#3E6575"/>
<path d="M282.11 494.923C282.11 494.923 269.207 522.339 242.569 557.451C242.569 557.451 239.839 599.204 169.397 664.898L162.022 658.61C162.022 658.61 203.973 587.378 212.363 565.539C220.755 543.699 207.725 523.689 246.328 468.449L282.11 494.923Z" fill="#EF6E4B"/>
<path d="M241.043 446.408C229.937 469.471 226.209 498.955 226.209 498.955L221.151 512.787C221.151 512.787 239.091 523.275 259.807 527.09L268.115 503.253L241.043 446.408Z" fill="#662C33"/>
<path d="M298.973 492.763C298.973 492.763 304.472 522.957 303.566 568.407C303.566 568.407 325.239 603.051 307.353 701.897H297.971C297.971 701.897 290.307 617.799 284.442 595.01C278.578 572.222 256.924 565.23 255.751 495.941L298.973 492.763Z" fill="#FF8B66"/>
<path d="M304.472 525.177C304.472 525.177 286.827 528.61 255.741 527.027L255.249 523.232L255.125 522.26L251.905 497.698C251.905 497.698 248.915 493.693 245.837 487.171C245.467 486.408 245.116 485.627 244.764 484.806C240.576 475.137 236.865 461.082 241.034 446.419L247.595 446.744L248.51 446.8L270.465 447.887L271.397 447.944L278.61 448.307L279.735 448.363L284.414 448.592C284.414 448.592 308.199 471.8 303.959 514.708L304.259 520.677L304.293 521.649L304.472 525.177Z" fill="#8B383E"/>
<path d="M248.511 446.799C247.895 448.764 243.743 463.332 245.836 487.169C245.467 486.407 245.115 485.625 244.764 484.804C243.198 463.008 246.805 449.411 247.595 446.74C247.701 446.416 247.754 446.264 247.754 446.244L248.581 446.568C248.581 446.589 248.546 446.666 248.511 446.799Z" fill="#662C33"/>
<path d="M304.296 521.649C298.052 523.383 287.461 523.861 277.397 523.861C268.372 523.861 259.804 523.461 255.249 523.232L255.125 522.26C263.024 522.679 283.818 523.557 297.223 521.973L296.361 506.621C296.572 488.715 291.576 473.421 286.756 462.856C274.547 460.454 271.186 450.651 270.465 447.886C270.359 447.448 270.306 447.18 270.306 447.161L271.168 447.008C271.168 447.027 271.238 447.37 271.397 447.942C272.189 450.802 275.461 459.327 286.245 461.767C282.991 454.883 279.912 450.174 278.611 448.305C278.224 447.733 277.977 447.408 277.96 447.389L278.628 446.78C278.663 446.817 279.069 447.352 279.736 448.361C283.818 454.368 297.592 476.967 297.241 506.582L298.103 521.856C300.443 521.551 302.536 521.169 304.26 520.675L304.296 521.649Z" fill="#662C33"/>
<path d="M259.348 342.948C252.346 338.767 201.889 360.217 201.889 360.217C201.889 360.217 194.424 374.65 199.078 380.31C203.732 385.969 220.241 383.474 225.299 380.31C230.357 377.146 243.754 374.751 243.754 374.751L259.348 342.948Z" fill="#8BBDDB"/>
<path d="M303.967 297.416C303.967 297.416 314.39 301.777 318.202 314.793C322.015 327.809 310.617 360.763 314.556 375.911C318.495 391.058 317.884 419.663 305.581 425.702C293.279 431.742 268.048 420.934 262.632 404.408C257.215 387.881 259.554 325.267 269.966 303.973C280.379 282.677 301.46 293.402 303.967 297.416Z" fill="#F24052"/>
<path d="M291.99 353.575C294.739 356.787 301.806 351.062 301.806 351.062C301.806 351.062 301.662 379.466 294.046 381.644C286.431 383.822 267.022 359.269 267.821 352.596C268.619 345.919 285.894 346.45 291.99 353.575Z" fill="#8BBDDB"/>
<path d="M262.633 346.471C262.633 346.471 270.337 353.561 283.756 356.933C297.177 360.304 304.45 353.465 311.313 362.845C321.614 376.924 304.854 402.879 296.036 416.33C292.748 421.343 285.811 435.253 284.409 448.595C284.409 448.595 261.123 455.928 241.042 446.409L239.543 415.442C239.543 415.442 226.885 373.709 262.633 346.471Z" fill="#0E3944"/>
<path d="M286.708 376.598C286.708 376.598 297.348 349.111 300.43 347.356C303.512 345.6 311.326 349.813 312.894 353.573C314.463 357.333 312.894 365.535 312.894 365.535C312.894 365.535 304.503 355.154 286.708 376.598Z" fill="#8BBDDB"/>
<path d="M337.67 492.756C332.833 503.493 320.956 506.581 320.956 506.581C320.956 506.581 320.06 505.094 318.546 502.425C318.388 502.159 318.212 501.853 318.054 501.547C308.711 485.128 280.159 432.59 280.722 405.263C281.373 372.614 301.023 354.689 301.023 354.689C310.998 357.264 314.148 360.22 314.148 360.22C314.148 360.22 317.509 378.794 314.43 401.144C311.351 423.475 305.756 429.387 308.572 431.065C311.368 432.724 308.572 436.061 308.572 436.061C308.572 436.061 325.125 461.061 328.223 468.842C330.229 473.914 333.642 482.535 335.77 487.913C335.911 488.294 336.052 488.675 336.192 489.019C337.089 491.29 337.67 492.756 337.67 492.756Z" fill="#6097B2"/>
<path d="M308.916 360.217C308.916 360.217 297.063 369.741 303.969 384.293L336.823 421.161C318.79 441.989 317.003 450.541 303.969 460.142L308.916 468.449C308.916 468.449 354.566 430.417 354.634 421.161C354.663 417.199 326.75 369.263 308.916 360.217Z" fill="#FF8B66"/>
<path d="M303.248 460.146C303.248 460.146 296.986 460.898 293.042 461.968C289.098 463.037 283.84 464.105 283.675 464.996C283.511 465.886 292.384 464.996 292.384 464.996C292.384 464.996 285.154 468.215 284.991 469.455C284.827 470.696 294.192 468.559 294.192 468.559C294.192 468.559 288.277 472.477 288.605 473.545C288.933 474.613 296.22 471.943 296.22 471.943C296.22 471.943 294.865 475.682 293.46 477.463C293.46 477.463 294.872 478.303 297.735 474.856C300.598 471.407 305.171 472.514 308.792 469.455C312.411 466.395 306.544 459.686 303.248 460.146Z" fill="#FF8B66"/>
<path d="M269.676 351.045C269.676 351.045 260.658 357.36 254.963 372.616C249.269 387.872 231.298 416.58 227.088 423.999C222.878 431.415 225.811 471.781 225.811 471.781C225.811 471.781 220.533 447.308 218.188 437.772C215.843 428.238 225.762 404.676 227.253 403.425C228.744 402.175 236.367 404.463 234.902 394.897C233.436 385.332 253.889 344.109 259.349 342.948C259.349 342.948 268.095 344.729 269.676 351.045Z" fill="#6097B2"/>
<path d="M241.791 353.108C241.633 353.432 241.457 353.757 241.246 354.061C239.205 357.246 235.405 359.782 235.405 359.782C235.405 359.782 228.527 370.232 228.457 371.435C228.387 372.465 216.511 381.809 211.235 381.619H211.217C210.496 381.6 209.897 381.39 209.476 380.969C206.345 377.766 220.137 350.877 223.181 345.08C223.374 344.698 223.532 344.412 223.639 344.221C223.708 344.068 223.762 343.974 223.762 343.974C223.762 343.974 221.335 334.171 231.468 336.002C239.894 337.508 241.566 344.774 242.445 349.637C242.653 350.801 242.354 351.983 241.791 353.108Z" fill="#6097B2"/>
<path d="M206.408 363.269C213.369 353.35 237.863 334.112 250.764 328.419L253.989 334.918C253.989 334.918 229.059 358.676 223.203 368.839C217.346 379.002 210.091 383.205 203.16 379.822C196.228 376.436 204.944 365.358 206.408 363.269Z" fill="#FF8B66"/>
<path d="M239.364 351.069L238.044 352.709L237.375 353.547L235.193 356.256C235.193 356.256 229.704 363.465 229.915 366.363C230.074 368.441 219.5 377.747 211.232 381.618C207.871 383.2 204.881 383.887 203.14 382.8C197.158 379.063 198.495 367.831 201.891 360.222C204.846 353.585 217.917 345.023 221.278 342.926C221.699 342.639 221.964 342.469 222.051 342.429C222.069 342.41 222.069 342.41 222.069 342.41L223.317 337.148C223.317 337.148 227.874 334.173 231.463 336.004C231.463 336.004 223.547 336.366 224.849 339.703C226.187 343.058 237.164 350.954 239.364 351.069Z" fill="#8BBDDB"/>
<path d="M268.109 323.551C260.14 327.098 261.283 334.917 253.983 334.917C249.462 334.917 248.863 329.31 248.863 329.31C250.904 324.523 252.205 316.361 252.487 312.471C252.786 308.58 253.983 310.087 253.983 310.087C253.983 309.724 253.965 309.381 253.948 309.037C253.842 306.425 253.403 304.518 254.986 305.643C256.78 306.902 257.396 314.302 257.396 314.302C258.874 303.508 256.675 301.906 258.399 302.859C260.757 304.156 260.774 313.69 260.774 313.977C262.674 307.703 262.164 304.118 263.484 305.549C264.821 306.998 262.815 318.517 262.024 322.751C261.848 323.704 261.725 324.295 261.725 324.295C268.039 320.937 268.109 323.551 268.109 323.551Z" fill="#FF8B66"/>
<path d="M262.023 322.749C261.847 323.702 261.723 324.293 261.723 324.293C261.723 324.293 258.803 323.987 256.675 327.402C256.675 327.402 257.272 322.826 262.023 322.749Z" fill="#EF6E4B"/>
<path d="M254.422 317.83C254.474 316.914 254.826 311.67 253.983 310.087C253.983 309.724 253.965 309.381 253.948 309.037C255.776 309.458 254.616 316.723 254.422 317.83Z" fill="#EF6E4B"/>
<path d="M259.367 363.324C259.367 363.324 264.753 347.501 266.466 343.97C268.18 340.437 277.103 341.043 283.856 342.409C290.609 343.774 291.99 353.575 291.99 353.575C291.99 353.575 271.444 343.065 259.367 363.324Z" fill="#8BBDDB"/>
<path d="M294.046 332.184C294.046 332.184 287.594 345.098 287.695 359.42C287.695 359.42 277.215 367.141 273.465 357.47C273.465 357.47 277.445 344.801 275.521 327.699C274.235 316.246 294.046 332.184 294.046 332.184Z" fill="#EF6E4B"/>
<path d="M273.466 314.264C273.466 314.264 271.549 306.861 268.136 312.065C264.182 318.094 268.212 323.955 270.321 322.556C272.43 321.158 273.466 314.264 273.466 314.264Z" fill="#FF8B66"/>
<path d="M303.931 333.298C303.931 333.298 310.765 331.237 308.429 337.098C305.723 343.888 299.011 343.192 299.02 340.512C299.03 337.835 303.931 333.298 303.931 333.298Z" fill="#FF8B66"/>
<path d="M276.263 346.551C266.554 340.626 264.647 330.407 275.357 309.791C280.88 299.157 289.261 295.681 300.134 302.318C311.009 308.956 312.199 318.272 306.675 328.908C295.167 351.06 286.292 352.673 276.263 346.551Z" fill="#FF8B66"/>
<path d="M299.64 334.298C299.261 335.459 297.867 335.985 296.526 335.471C295.186 334.958 294.408 333.599 294.786 332.436C295.165 331.275 296.559 330.75 297.9 331.265C299.24 331.778 300.018 333.137 299.64 334.298Z" fill="#DB614D"/>
<path d="M279.372 322.687C278.751 323.719 277.282 323.874 276.092 323.032C274.902 322.19 274.439 320.67 275.06 319.64C275.681 318.607 277.15 318.453 278.34 319.295C279.532 320.134 279.993 321.655 279.372 322.687Z" fill="#DB614D"/>
<path d="M301.029 320.969C300.78 320.969 300.554 320.787 300.49 320.514C299.941 318.166 297.54 316.783 297.516 316.771C297.244 316.617 297.138 316.253 297.28 315.957C297.421 315.662 297.756 315.547 298.031 315.701C298.149 315.767 300.899 317.354 301.57 320.219C301.646 320.542 301.465 320.87 301.167 320.952C301.12 320.962 301.074 320.969 301.029 320.969Z" fill="#1A4850"/>
<path d="M287.697 310.687C287.599 310.687 287.5 310.66 287.41 310.602C287.386 310.586 285.048 309.08 282.913 309.786C282.617 309.884 282.308 309.703 282.218 309.384C282.129 309.066 282.294 308.728 282.588 308.63C285.2 307.762 287.874 309.494 287.987 309.568C288.25 309.739 288.334 310.11 288.174 310.395C288.069 310.584 287.885 310.687 287.697 310.687Z" fill="#1A4850"/>
<path d="M297.017 325.964C296.338 327.271 295.244 327.999 294.576 327.589C293.905 327.18 293.913 325.789 294.591 324.482C295.27 323.175 296.364 322.446 297.033 322.855C297.703 323.266 297.697 324.655 297.017 325.964Z" fill="#1A4850"/>
<path d="M283.406 318.049C282.728 319.356 281.635 320.085 280.964 319.674C280.294 319.265 280.302 317.876 280.98 316.569C281.658 315.262 282.752 314.533 283.422 314.942C284.092 315.351 284.084 316.742 283.406 318.049Z" fill="#1A4850"/>
<path d="M278.69 331.467C278.69 331.467 284.26 336.074 288.285 336.215C288.285 336.215 284.005 339.993 280.928 337.542C277.852 335.091 278.69 331.467 278.69 331.467Z" fill="#1A4850"/>
<path d="M294.091 323.322C294.091 323.322 296.647 320.643 297.694 321.586C298.74 322.529 298.193 325.827 298.193 325.827L300.431 325.888L298.581 325.081C298.581 325.081 299.177 321.658 298.027 320.949C296.388 319.937 294.091 323.322 294.091 323.322Z" fill="#1A4850"/>
<path d="M284.46 317.962C284.46 317.962 285.247 314.204 283.961 313.723C282.674 313.242 280.357 315.459 280.357 315.459L279.148 313.417L280.746 314.714C280.746 314.714 283.137 312.387 284.293 313.084C285.94 314.078 284.46 317.962 284.46 317.962Z" fill="#1A4850"/>
<path d="M302.712 306.725C302.712 306.725 299.234 301.486 294.431 305.646C289.628 309.806 278.795 316.464 273.466 314.264C268.136 312.065 285.125 287.452 299.876 294.659C314.626 301.868 313.298 325.33 307.163 332.79C301.028 340.249 303.931 333.3 303.931 333.3C303.931 333.3 304.341 322.716 306.39 315.703C308.44 308.688 302.712 306.725 302.712 306.725Z" fill="#F24052"/>
<path d="M286.363 329.068C286.094 329.068 285.811 329.028 285.521 328.949L285.818 327.687C286.81 327.96 287.298 327.498 287.531 327.063C287.862 326.449 287.816 325.657 287.553 325.36C287.399 325.186 287.138 325.205 286.77 325.413L286.214 324.259C287.436 323.565 288.166 324.168 288.423 324.461C289.084 325.214 289.149 326.644 288.569 327.72C288.096 328.594 287.304 329.068 286.363 329.068Z" fill="#DB614D"/>
<path d="M357.461 419.701C356.881 428.95 335.77 459.062 332.251 460.129C331.337 460.395 330.404 460.948 329.524 461.597C329.155 461.884 328.786 462.188 328.434 462.494C326.428 464.247 324.916 466.269 324.916 466.269C318.759 465.831 301.465 457.154 307.025 455.247C307.36 455.132 307.729 454.923 308.133 454.619C308.361 454.447 308.608 454.256 308.854 454.009C315.398 448.059 328.134 423.916 328.223 422.085C328.293 420.082 330.492 419.701 330.492 419.701C330.492 419.701 318.477 400.574 311.509 398.267C304.542 395.96 301.025 386.826 301.025 386.826C294.146 355.265 314.149 360.224 314.149 360.224C328.892 369.737 358.041 410.433 357.461 419.701Z" fill="#8BBDDB"/>
<path d="M329.524 461.597C329.155 461.884 328.786 462.188 328.434 462.494C318.987 461.788 311.071 456.754 308.133 454.619C308.361 454.447 308.608 454.256 308.854 454.009C312.002 456.238 320.06 461.216 329.524 461.597Z" fill="#3E6575"/>
<path d="M241.791 353.108C241.633 353.432 241.457 353.757 241.246 354.061C239.891 354.004 238.608 353.833 237.375 353.546C231.131 352.173 226.328 348.377 223.178 345.078C222.457 344.315 221.823 343.59 221.278 342.922C221.699 342.635 221.964 342.465 222.051 342.426C222.509 342.979 223.037 343.589 223.634 344.219C226.765 347.556 231.639 351.447 238.042 352.706C239.24 352.957 240.489 353.089 241.791 353.108Z" fill="#3E6575"/>
<path d="M336.192 489.019C333.289 494.341 327.924 500.766 318.546 502.425C318.388 502.159 318.212 501.853 318.054 501.548C327.677 499.983 333.007 493.214 335.769 487.913C335.91 488.296 336.051 488.676 336.192 489.019Z" fill="#3E6575"/>
<path d="M176.083 662.538C176.083 662.538 173.884 664.884 171.598 669.193C169.311 673.503 171.826 677.471 160.761 687.462C160.761 687.462 138.436 673.293 128.355 655.082C128.355 655.082 128.531 649.875 133.404 648.654C136.025 648.005 143.237 651.667 150.17 653.079C151.155 653.269 152.139 653.441 153.108 653.517C154.321 653.632 155.518 653.651 156.662 653.498C157.717 653.383 158.72 653.135 159.652 652.716H159.669C162.027 651.667 163.892 649.589 164.859 645.947C164.859 645.947 170.786 649.609 166.828 655.806C166.828 655.806 173.867 652.467 176.083 662.538Z" fill="#CFD8DC"/>
<path d="M160.759 687.462C160.759 687.462 138.435 673.293 128.354 655.082C128.354 655.082 132.101 654.223 135.197 660.25C138.294 666.294 162.572 680.006 160.759 687.462Z" fill="#ADBEC4"/>
<path d="M160.848 658.817C159.037 661.926 159.072 656.186 156.662 653.496C157.717 653.381 158.72 653.134 159.652 652.715H159.669C160.742 653.975 162.272 656.395 160.848 658.817Z" fill="#ADBEC4"/>
<path d="M153.829 658.989C151.911 660.954 151.295 655.824 150.17 653.077C151.156 653.268 152.14 653.44 153.108 653.515C154.233 655.176 155.29 657.483 153.829 658.989Z" fill="#ADBEC4"/>
<path d="M313.427 725.411H281.848C281.848 725.411 280.529 720.643 281.848 715.399C282.411 713.13 285.683 711.012 288.727 708.056C289.572 707.237 290.381 706.378 291.137 705.406C291.736 704.643 292.281 703.804 292.737 702.909C293.317 701.821 293.775 700.64 294.04 699.343C294.55 696.749 294.357 693.699 292.985 690.037C292.985 690.037 303.734 687.596 307.569 693.946C307.569 693.946 307.938 691.009 311.351 692.974C311.351 692.974 310.858 698.867 311.527 703.805C312.196 708.724 316.436 710.155 313.427 725.411Z" fill="#CFD8DC"/>
<path d="M305.211 704.796C304.929 705.14 304.542 705.312 304.156 705.312C303.821 705.312 303.504 705.197 303.222 704.968C301.587 703.556 297.981 701.365 292.737 702.909C293.317 701.821 293.775 700.64 294.04 699.343C296.151 698.505 300.126 698.008 305.035 702.546C305.669 703.118 305.758 704.128 305.211 704.796Z" fill="#ADBEC4"/>
<path d="M302.555 710.478L302.379 710.765C301.958 711.471 301.113 711.699 300.445 711.28C298.298 709.908 293.477 707.314 288.729 708.058C289.573 707.239 290.383 706.38 291.139 705.408C293.479 704.817 297.893 704.492 302.24 708.402C302.802 708.915 302.959 709.812 302.555 710.478Z" fill="#ADBEC4"/>
<defs>
<linearGradient id="paint0_linear_319_904" x1="436.493" y1="592.892" x2="-107.823" y2="-3.32767" gradientUnits="userSpaceOnUse">
<stop stop-color="#93B3FC"/>
<stop offset="0.9999" stop-color="#97CCF8"/>
<stop offset="1" stop-color="#97CCF8" stop-opacity="0"/>
</linearGradient>
</defs>
</svg>
