<svg width="269" height="107" viewBox="0 0 269 107" fill="none" xmlns="http://www.w3.org/2000/svg">
<path d="M22.5344 16.9009L13.1657 38.5566V51.6798H9.40998V38.5566L0 16.9009H4.16845L11.2672 34.5149L18.366 16.9009H22.5344ZM31.9231 50.3825C30.2035 49.2182 28.8552 47.5632 27.8785 45.4176C26.9017 43.272 26.4133 40.7854 26.4133 37.9578C26.4133 35.1635 26.9155 32.6936 27.9197 30.548C28.924 28.4024 30.2929 26.7557 32.0263 25.6081C33.7597 24.4604 35.6995 23.8866 37.8456 23.8866C39.9918 23.8866 41.9315 24.4604 43.6649 25.6081C45.3984 26.7557 46.7672 28.394 47.7715 30.523C48.7758 32.652 49.2779 35.1303 49.2779 37.9578C49.2779 40.7854 48.762 43.272 47.7302 45.4176C46.6984 47.5632 45.3021 49.2182 43.5411 50.3825C41.7802 51.5467 39.8267 52.1289 37.6805 52.1289C35.5619 52.1289 33.6428 51.5467 31.9231 50.3825ZM41.4775 46.9894C42.6607 46.2243 43.6168 45.0766 44.3459 43.5464C45.0751 42.0162 45.4396 40.1534 45.4396 37.9578C45.4396 35.7623 45.0819 33.8995 44.3666 32.3693C43.6512 30.8391 42.7157 29.6997 41.5601 28.9512C40.4045 28.2028 39.1526 27.8285 37.8043 27.8285C36.4286 27.8285 35.1698 28.2028 34.028 28.9512C32.8861 29.6997 31.9713 30.8391 31.2834 32.3693C30.5955 33.8995 30.2516 35.7623 30.2516 37.9578C30.2516 40.1866 30.5887 42.0661 31.2628 43.5963C31.9369 45.1265 32.838 46.2659 33.9661 47.0143C35.0942 47.7628 36.3323 48.137 37.6805 48.137C39.0287 48.137 40.2944 47.7545 41.4775 46.9894ZM75.6099 24.3357V51.6798H71.8542V47.6381C71.1388 49.0352 70.1414 50.1246 68.862 50.9064C67.5826 51.6881 66.1724 52.079 64.6316 52.079C62.8707 52.079 61.2886 51.6382 59.8854 50.7567C58.4821 49.8752 57.3747 48.5529 56.563 46.7898C55.7513 45.0267 55.3455 42.8811 55.3455 40.3529V24.3357H59.0599V39.7542C59.0599 42.4487 59.624 44.5194 60.7521 45.9665C61.8802 47.4135 63.421 48.137 65.3745 48.137C67.3831 48.137 68.9652 47.3886 70.1208 45.8916C71.2764 44.3947 71.8542 42.2158 71.8542 39.355V24.3357H75.6099ZM87.8683 28.078V44.1951C87.8683 45.5257 88.1022 46.4655 88.5699 47.0143C89.0377 47.5632 89.8493 47.8377 91.0049 47.8377H93.7702V51.6798H90.3859C88.2948 51.6798 86.7264 51.0977 85.6809 49.9334C84.6353 48.7691 84.1125 46.8563 84.1125 44.1951V28.078H81.1822V24.3357H84.1125V17.4497H87.8683V24.3357H93.7702V28.078H87.8683ZM115.48 25.159C116.855 26.0405 117.935 27.3628 118.72 29.1259C119.504 30.889 119.896 33.0346 119.896 35.5627V51.6798H116.181V36.2114C116.181 33.4836 115.617 31.3962 114.489 29.9492C113.361 28.5022 111.82 27.7786 109.867 27.7786C107.886 27.7786 106.31 28.5271 105.141 30.0241C103.972 31.521 103.387 33.6999 103.387 36.5607V51.6798H99.6313V14.7552H103.387V28.2277C104.13 26.8306 105.155 25.7495 106.462 24.9843C107.769 24.2192 109.234 23.8367 110.857 23.8367C112.563 23.8367 114.104 24.2775 115.48 25.159Z" fill="#172539"/>
<path d="M213.448 26.9806C212.651 24.9514 211.495 23.3797 209.982 22.2653C208.468 21.1509 206.707 20.5937 204.699 20.5937C202.69 20.5937 200.881 21.1509 199.272 22.2653C197.662 23.3797 196.396 24.9764 195.475 27.0555C194.553 29.1346 194.092 31.538 194.092 34.2657C194.092 36.9935 194.553 39.3886 195.475 41.4511C196.396 43.5135 197.662 45.1019 199.272 46.2163C200.881 47.3307 202.69 47.8879 204.699 47.8879C207.505 47.8879 209.817 46.8733 211.632 44.8441C213.448 42.8149 214.508 40.0706 214.81 36.611H203.337V32.9185H218.814V36.4114C218.594 39.2722 217.851 41.8918 216.585 44.2703C215.319 46.6488 213.655 48.5283 211.591 49.9088C209.528 51.2893 207.23 51.9795 204.699 51.9795C202.03 51.9795 199.595 51.2228 197.394 49.7092C195.193 48.1956 193.452 46.0916 192.173 43.3971C190.893 40.7026 190.254 37.6588 190.254 34.2657C190.254 30.8727 190.893 27.8206 192.173 25.1095C193.452 22.3983 195.193 20.286 197.394 18.7724C199.595 17.2588 202.03 16.502 204.699 16.502C207.753 16.502 210.456 17.4168 212.809 19.2464C215.161 21.076 216.874 23.6541 217.947 26.9806H213.448ZM241.865 34.2907C240.228 36.2035 237.731 37.1598 234.374 37.1598H228.843V51.6802H225.088V16.9012H234.374C237.621 16.9012 240.09 17.8493 241.782 19.7454C243.474 21.6415 244.32 24.0865 244.32 27.0804C244.32 29.9745 243.502 32.3779 241.865 34.2907ZM238.996 31.7708C239.987 30.6731 240.482 29.1096 240.482 27.0804C240.482 22.7892 238.446 20.6436 234.374 20.6436H228.843V33.4175H234.374C236.465 33.4175 238.006 32.8686 238.996 31.7708ZM254.328 50.8069C252.828 49.9919 251.652 48.8609 250.799 47.4139C249.946 45.9668 249.506 44.2952 249.479 42.3991H253.482C253.619 44.0291 254.177 45.4013 255.153 46.5157C256.13 47.6301 257.554 48.1873 259.425 48.1873C261.213 48.1873 262.624 47.6467 263.655 46.5656C264.687 45.4845 265.203 44.0957 265.203 42.3991C265.203 41.0685 264.9 39.9874 264.295 39.1558C263.69 38.3241 262.933 37.6921 262.025 37.2596C261.117 36.8272 259.893 36.3615 258.352 35.8625C256.453 35.2637 254.933 34.6649 253.791 34.0662C252.65 33.4674 251.673 32.5276 250.861 31.2469C250.049 29.9662 249.644 28.2447 249.644 26.0825C249.644 24.1863 250.043 22.5064 250.84 21.0428C251.638 19.5791 252.76 18.4481 254.204 17.6497C255.649 16.8513 257.306 16.4521 259.177 16.4521C261.874 16.4521 264.082 17.2671 265.802 18.8972C267.521 20.5272 268.491 22.6894 268.711 25.3839H264.584C264.446 24.0533 263.869 22.8807 262.851 21.8661C261.833 20.8515 260.484 20.3442 258.806 20.3442C257.238 20.3442 255.958 20.8349 254.968 21.8162C253.977 22.7975 253.482 24.1697 253.482 25.9328C253.482 27.1969 253.778 28.2281 254.369 29.0265C254.961 29.8248 255.69 30.4319 256.557 30.8477C257.423 31.2635 258.641 31.7376 260.209 32.2698C262.108 32.9019 263.635 33.5256 264.79 34.141C265.946 34.7564 266.936 35.7045 267.762 36.9852C268.587 38.2659 269 40.004 269 42.1995C269 43.8961 268.629 45.4928 267.886 46.9897C267.143 48.4867 266.042 49.7009 264.584 50.6323C263.126 51.5637 261.406 52.0294 259.425 52.0294C257.527 52.0294 255.828 51.6219 254.328 50.8069Z" fill="#172539"/>
<path d="M88.7541 103.572C87.8404 103.572 87.0737 103.4 86.454 103.057C85.8343 102.715 85.3591 102.273 85.0283 101.734C84.6974 101.194 84.5215 100.626 84.5005 100.029C84.5005 99.9274 84.5346 99.8353 84.6029 99.7528C84.6712 99.6703 84.7526 99.629 84.8471 99.629H85.6505C85.7766 99.629 85.8711 99.6671 85.9341 99.7433C85.9971 99.8195 86.0391 99.9084 86.0602 100.01C86.1232 100.315 86.2545 100.616 86.454 100.915C86.6536 101.213 86.9398 101.461 87.3126 101.658C87.6855 101.854 88.166 101.953 88.7541 101.953C89.6574 101.953 90.3217 101.759 90.747 101.372C91.1724 100.985 91.3851 100.467 91.3851 99.8195C91.3851 99.375 91.2722 99.0163 91.0464 98.7433C90.8205 98.4703 90.4766 98.2259 90.0145 98.01C89.5523 97.7941 88.9537 97.5592 88.2185 97.3053C87.4518 97.0386 86.8164 96.7466 86.3122 96.4291C85.8081 96.1117 85.4326 95.718 85.1858 95.2482C84.939 94.7784 84.8156 94.1816 84.8156 93.4578C84.8156 92.7721 84.9679 92.1594 85.2724 91.6198C85.577 91.0801 86.0181 90.6515 86.5958 90.3341C87.1734 90.0166 87.8666 89.8579 88.6754 89.8579C89.3265 89.8579 89.8963 89.9627 90.3847 90.1722C90.8731 90.3817 91.28 90.6611 91.6056 91.0102C91.9312 91.3594 92.178 91.734 92.3461 92.134C92.5141 92.534 92.6034 92.9245 92.6139 93.3054C92.6139 93.3054 92.5876 93.48 92.5351 93.5625C92.4826 93.6451 92.3986 93.6863 92.2831 93.6863H91.4481C91.4481 93.6863 91.2984 93.661 91.2196 93.6102C91.1409 93.5594 91.0805 93.4641 91.0385 93.3245C90.9755 92.8038 90.7339 92.3658 90.3138 92.0102C89.8937 91.6547 89.3475 91.4769 88.6754 91.4769C87.9927 91.4769 87.4386 91.6356 87.0133 91.9531C86.5879 92.2705 86.3752 92.7657 86.3752 93.4387C86.3752 93.8705 86.475 94.2292 86.6746 94.5149C86.8741 94.8006 87.1892 95.0514 87.6198 95.2672C88.0504 95.4831 88.6123 95.7117 89.3055 95.9529C90.1457 96.2323 90.8337 96.5275 91.3693 96.8386C91.905 97.1497 92.3014 97.537 92.5588 98.0005C92.8161 98.464 92.9447 99.0576 92.9447 99.7814C92.9447 100.581 92.7714 101.264 92.4248 101.829C92.0783 102.394 91.5925 102.826 90.9676 103.124C90.3427 103.423 89.6048 103.572 88.7541 103.572ZM98.4588 103.572C97.3666 103.572 96.5001 103.169 95.8594 102.362C95.2187 101.556 94.8669 100.454 94.8039 99.0576C94.7934 98.8925 94.7881 98.6798 94.7881 98.4195C94.7881 98.1592 94.7934 97.9465 94.8039 97.7814C94.8459 96.8799 95.0192 96.0894 95.3238 95.4101C95.6283 94.7308 96.0458 94.207 96.5762 93.8387C97.1066 93.4705 97.7289 93.2864 98.4431 93.2864C99.2413 93.2864 99.9109 93.4895 100.452 93.8959C100.993 94.3022 101.405 94.88 101.688 95.6291C101.972 96.3783 102.114 97.2545 102.114 98.2576V98.5814C102.114 98.7211 102.08 98.829 102.011 98.9052C101.943 98.9814 101.856 99.0195 101.751 99.0195H96.3005V99.0957V99.1909C96.3215 99.7115 96.4161 100.197 96.5841 100.648C96.7521 101.099 96.9963 101.464 97.3167 101.743C97.637 102.023 98.0125 102.162 98.4431 102.162C98.8212 102.162 99.1363 102.092 99.3883 101.953C99.6404 101.813 99.8452 101.658 100.003 101.486C100.16 101.315 100.265 101.178 100.318 101.077C100.412 100.924 100.538 100.8 100.538 100.8C100.538 100.8 100.675 100.753 100.79 100.753H101.562C101.657 100.753 101.738 100.788 101.807 100.858C101.875 100.927 101.904 101.026 101.893 101.153C101.883 101.343 101.799 101.575 101.641 101.848C101.484 102.121 101.26 102.391 100.972 102.657C100.683 102.924 100.326 103.143 99.9004 103.315C99.475 103.486 98.9945 103.572 98.4588 103.572ZM96.3005 97.7053H100.617V97.6481C100.617 97.0767 100.531 96.5688 100.357 96.1244C100.184 95.6799 99.9345 95.3276 99.6089 95.0673C99.2833 94.8069 98.8947 94.6768 98.4431 94.6768C97.9915 94.6768 97.6055 94.8069 97.2852 95.0673C96.9648 95.3276 96.7206 95.6799 96.5526 96.1244C96.3845 96.5688 96.3005 97.0767 96.3005 97.6481V97.7053ZM107.533 103.381C106.945 103.381 106.467 103.245 106.1 102.972C105.732 102.699 105.464 102.311 105.296 101.81C105.128 101.308 105.044 100.715 105.044 100.029V95.0006H103.815C103.71 95.0006 103.624 94.9593 103.555 94.8768C103.487 94.7942 103.453 94.6895 103.453 94.5625V93.9149C103.453 93.7879 103.487 93.6832 103.555 93.6006C103.624 93.5181 103.71 93.4768 103.815 93.4768H105.044V90.296C105.044 90.169 105.078 90.0642 105.147 89.9817C105.215 89.8992 105.302 89.8579 105.407 89.8579H106.147C106.252 89.8579 106.339 89.8992 106.407 89.9817C106.475 90.0642 106.509 90.169 106.509 90.296V93.4768H108.463C108.578 93.4768 108.668 93.5181 108.731 93.6006C108.794 93.6832 108.825 93.7879 108.825 93.9149V94.5625C108.825 94.6895 108.794 94.7942 108.731 94.8768C108.668 94.9593 108.578 95.0006 108.463 95.0006H106.509V99.8957C106.509 100.492 106.593 100.962 106.761 101.305C106.929 101.648 107.229 101.819 107.659 101.819H108.62C108.725 101.819 108.812 101.861 108.88 101.943C108.949 102.026 108.983 102.131 108.983 102.257V102.943C108.983 103.07 108.949 103.175 108.88 103.257C108.812 103.34 108.725 103.381 108.62 103.381H107.533ZM116.12 107C116.036 107 115.962 106.962 115.899 106.886C115.836 106.81 115.804 106.721 115.804 106.619L115.82 106.467L115.883 106.276L117.096 102.791L114.087 94.2006C114.035 94.0482 114.008 93.8768 114.008 93.8768C114.008 93.7625 114.04 93.6673 114.103 93.5911C114.166 93.5149 114.245 93.4768 114.339 93.4768H115.111C115.227 93.4768 115.313 93.5086 115.371 93.5721C115.429 93.6356 115.468 93.7117 115.489 93.8006L117.884 100.734L120.342 93.8006C120.373 93.7117 120.418 93.6356 120.476 93.5721C120.533 93.5086 120.62 93.4768 120.736 93.4768H121.476C121.57 93.4768 121.649 93.5149 121.712 93.5911C121.775 93.6673 121.807 93.7562 121.807 93.8578C121.807 93.8578 121.781 94.0355 121.728 94.2006L117.254 106.676C117.222 106.765 117.178 106.841 117.12 106.905C117.062 106.968 116.976 107 116.86 107H116.12ZM126.832 103.572C126.034 103.572 125.367 103.388 124.832 103.019C124.296 102.651 123.886 102.14 123.603 101.486C123.319 100.832 123.162 100.086 123.13 99.2481C123.12 99.0322 123.114 98.756 123.114 98.4195C123.114 98.083 123.12 97.8132 123.13 97.61C123.162 96.7593 123.322 96.0101 123.611 95.3625C123.899 94.7149 124.312 94.207 124.847 93.8387C125.383 93.4705 126.045 93.2864 126.832 93.2864C127.62 93.2864 128.282 93.4705 128.817 93.8387C129.353 94.207 129.765 94.7149 130.054 95.3625C130.343 96.0101 130.503 96.7593 130.535 97.61C130.545 97.8132 130.55 98.083 130.55 98.4195C130.55 98.756 130.545 99.0322 130.535 99.2481C130.503 100.086 130.346 100.832 130.062 101.486C129.778 102.14 129.369 102.651 128.833 103.019C128.297 103.388 127.631 103.572 126.832 103.572ZM126.832 102.105C127.484 102.105 128.003 101.854 128.392 101.353C128.781 100.851 128.991 100.118 129.022 99.1528C129.033 98.9624 129.038 98.7211 129.038 98.429C129.038 98.137 129.033 97.8957 129.022 97.7053C128.991 96.7402 128.781 96.0069 128.392 95.5053C128.003 95.0038 127.484 94.753 126.832 94.753C126.181 94.753 125.659 95.0038 125.265 95.5053C124.871 96.0069 124.664 96.7402 124.642 97.7053C124.632 97.8957 124.627 98.137 124.627 98.429C124.627 98.7211 124.632 98.9624 124.642 99.1528C124.664 100.118 124.871 100.851 125.265 101.353C125.659 101.854 126.181 102.105 126.832 102.105ZM135.954 103.572C135.281 103.572 134.712 103.391 134.244 103.029C133.777 102.667 133.422 102.162 133.181 101.515C132.939 100.867 132.819 100.124 132.819 99.2862V93.9149C132.819 93.7879 132.853 93.6832 132.921 93.6006C132.989 93.5181 133.076 93.4768 133.181 93.4768H133.969C134.074 93.4768 134.16 93.5181 134.229 93.6006C134.297 93.6832 134.331 93.7879 134.331 93.9149V99.1909C134.331 101.083 135.014 102.029 136.379 102.029C137.03 102.029 137.553 101.778 137.947 101.277C138.34 100.775 138.537 100.08 138.537 99.1909V93.9149C138.537 93.7879 138.571 93.6832 138.64 93.6006C138.708 93.5181 138.795 93.4768 138.9 93.4768H139.687C139.792 93.4768 139.876 93.5181 139.939 93.6006C140.002 93.6832 140.034 93.7879 140.034 93.9149V102.943C140.034 103.07 140.002 103.175 139.939 103.257C139.876 103.34 139.792 103.381 139.687 103.381H138.947C138.842 103.381 138.755 103.34 138.687 103.257C138.619 103.175 138.585 103.07 138.585 102.943V102.105C138.301 102.55 137.957 102.905 137.553 103.172C137.148 103.438 136.615 103.572 135.954 103.572ZM143.122 103.381C143.017 103.381 142.93 103.34 142.862 103.257C142.793 103.175 142.759 103.07 142.759 102.943V93.934C142.759 93.807 142.793 93.699 142.862 93.6102C142.93 93.5213 143.017 93.4768 143.122 93.4768H143.846C143.951 93.4768 144.041 93.5213 144.114 93.6102C144.188 93.699 144.224 93.807 144.224 93.934V94.772C144.434 94.3403 144.723 94.0165 145.091 93.8006C145.458 93.5848 145.905 93.4768 146.43 93.4768H147.044C147.149 93.4768 147.236 93.5181 147.304 93.6006C147.373 93.6832 147.407 93.7879 147.407 93.9149V94.6958C147.407 94.8228 147.373 94.9244 147.304 95.0006C147.236 95.0768 147.149 95.1149 147.044 95.1149H146.099C145.532 95.1149 145.086 95.3149 144.76 95.7148C144.434 96.1148 144.272 96.6577 144.272 97.3434V102.943C144.272 103.07 144.235 103.175 144.161 103.257C144.088 103.34 143.999 103.381 143.894 103.381H143.122ZM153.377 107C153.272 107 153.186 106.959 153.117 106.876C153.049 106.794 153.015 106.689 153.015 106.562V93.9149C153.015 93.7879 153.049 93.6832 153.117 93.6006C153.186 93.5181 153.272 93.4768 153.377 93.4768H154.102C154.207 93.4768 154.294 93.5181 154.362 93.6006C154.43 93.6832 154.464 93.7879 154.464 93.9149V94.753C154.717 94.3339 155.053 93.9847 155.473 93.7054C155.893 93.426 156.418 93.2864 157.048 93.2864C157.636 93.2864 158.138 93.407 158.553 93.6483C158.968 93.8895 159.309 94.2197 159.577 94.6387C159.844 95.0577 160.047 95.5339 160.183 96.0672C160.32 96.6005 160.399 97.1719 160.42 97.7814C160.43 97.9846 160.435 98.2005 160.435 98.429C160.435 98.6576 160.43 98.8735 160.42 99.0766C160.399 99.6734 160.32 100.242 160.183 100.781C160.047 101.321 159.844 101.797 159.577 102.21C159.309 102.623 158.968 102.953 158.553 103.2C158.138 103.448 157.636 103.572 157.048 103.572C156.439 103.572 155.927 103.435 155.512 103.162C155.097 102.889 154.759 102.55 154.496 102.143V106.562C154.496 106.689 154.464 106.794 154.401 106.876C154.338 106.959 154.254 107 154.149 107H153.377ZM156.717 102.029C157.263 102.029 157.691 101.886 158.001 101.6C158.311 101.315 158.534 100.94 158.671 100.477C158.807 100.013 158.886 99.5147 158.907 98.9814C158.918 98.6132 158.918 98.2449 158.907 97.8767C158.886 97.3434 158.807 96.845 158.671 96.3815C158.534 95.918 158.311 95.5434 158.001 95.2577C157.691 94.972 157.263 94.8292 156.717 94.8292C156.203 94.8292 155.785 94.9752 155.465 95.2672C155.145 95.5593 154.908 95.9307 154.756 96.3815C154.604 96.8323 154.517 97.2926 154.496 97.7624C154.485 97.9656 154.48 98.2068 154.48 98.4862C154.48 98.7655 154.485 99.0132 154.496 99.229C154.506 99.6734 154.593 100.112 154.756 100.543C154.919 100.975 155.163 101.331 155.488 101.61C155.814 101.889 156.224 102.029 156.717 102.029ZM165.051 103.572C164.526 103.572 164.048 103.445 163.618 103.191C163.187 102.937 162.841 102.594 162.578 102.162C162.315 101.731 162.184 101.242 162.184 100.696C162.184 99.8195 162.478 99.1211 163.066 98.6005C163.655 98.0798 164.421 97.737 165.366 97.5719L167.714 97.1719V96.6196C167.714 96.0101 167.569 95.5339 167.281 95.1911C166.992 94.8482 166.522 94.6768 165.871 94.6768C165.408 94.6768 165.03 94.7911 164.736 95.0196C164.442 95.2482 164.237 95.5403 164.122 95.8958C164.059 96.0863 163.949 96.1815 163.791 96.1815H163.082C162.967 96.1815 162.88 96.1402 162.822 96.0577C162.764 95.9752 162.736 95.8767 162.736 95.7625C162.736 95.572 162.796 95.3371 162.917 95.0577C163.037 94.7784 163.224 94.5054 163.476 94.2387C163.728 93.9721 164.051 93.7467 164.445 93.5625C164.839 93.3784 165.319 93.2864 165.886 93.2864C166.517 93.2864 167.047 93.3848 167.478 93.5816C167.908 93.7784 168.247 94.0419 168.494 94.372C168.74 94.7022 168.919 95.0768 169.029 95.4958C169.14 95.9148 169.195 96.3402 169.195 96.772V102.943C169.195 103.07 169.161 103.175 169.092 103.257C169.024 103.34 168.937 103.381 168.832 103.381H168.108C167.992 103.381 167.903 103.34 167.84 103.257C167.777 103.175 167.745 103.07 167.745 102.943V102.124C167.609 102.353 167.425 102.578 167.194 102.8C166.963 103.023 166.674 103.207 166.327 103.353C165.981 103.499 165.556 103.572 165.051 103.572ZM165.382 102.143C165.813 102.143 166.207 102.032 166.564 101.81C166.921 101.588 167.202 101.242 167.407 100.772C167.611 100.302 167.714 99.7115 167.714 99.0005V98.4671L165.886 98.7909C165.141 98.9179 164.579 99.1306 164.201 99.429C163.823 99.7274 163.634 100.105 163.634 100.562C163.634 100.918 163.72 101.213 163.893 101.448C164.067 101.683 164.287 101.857 164.555 101.972C164.823 102.086 165.099 102.143 165.382 102.143ZM174.961 103.381C174.373 103.381 173.895 103.245 173.527 102.972C173.16 102.699 172.892 102.311 172.724 101.81C172.556 101.308 172.472 100.715 172.472 100.029V95.0006H171.243C171.138 95.0006 171.051 94.9593 170.983 94.8768C170.915 94.7942 170.88 94.6895 170.88 94.5625V93.9149C170.88 93.7879 170.915 93.6832 170.983 93.6006C171.051 93.5181 171.138 93.4768 171.243 93.4768H172.472V90.296C172.472 90.169 172.506 90.0642 172.574 89.9817C172.642 89.8992 172.729 89.8579 172.834 89.8579H173.574C173.679 89.8579 173.766 89.8992 173.834 89.9817C173.903 90.0642 173.937 90.169 173.937 90.296V93.4768H175.89C176.006 93.4768 176.095 93.5181 176.158 93.6006C176.221 93.6832 176.253 93.7879 176.253 93.9149V94.5625C176.253 94.6895 176.221 94.7942 176.158 94.8768C176.095 94.9593 176.006 95.0006 175.89 95.0006H173.937V99.8957C173.937 100.492 174.021 100.962 174.189 101.305C174.357 101.648 174.656 101.819 175.087 101.819H176.048C176.153 101.819 176.239 101.861 176.308 101.943C176.376 102.026 176.41 102.131 176.41 102.257V102.943C176.41 103.07 176.376 103.175 176.308 103.257C176.239 103.34 176.153 103.381 176.048 103.381H174.961ZM178.679 103.381C178.574 103.381 178.487 103.34 178.419 103.257C178.35 103.175 178.316 103.07 178.316 102.943V90.296C178.316 90.169 178.35 90.0642 178.419 89.9817C178.487 89.8992 178.574 89.8579 178.679 89.8579H179.466C179.582 89.8579 179.671 89.8992 179.734 89.9817C179.797 90.0642 179.829 90.169 179.829 90.296V94.7339C180.112 94.3022 180.459 93.953 180.868 93.6863C181.278 93.4197 181.798 93.2864 182.428 93.2864C183.111 93.2864 183.691 93.4673 184.169 93.8292C184.647 94.1911 185.009 94.6927 185.256 95.3339C185.503 95.9752 185.626 96.7212 185.626 97.5719V102.943C185.626 103.07 185.595 103.175 185.532 103.257C185.469 103.34 185.379 103.381 185.264 103.381H184.476C184.371 103.381 184.284 103.34 184.216 103.257C184.148 103.175 184.114 103.07 184.114 102.943V97.6672C184.114 96.7783 183.935 96.0831 183.578 95.5815C183.221 95.08 182.696 94.8292 182.003 94.8292C181.352 94.8292 180.826 95.08 180.427 95.5815C180.028 96.0831 179.829 96.7783 179.829 97.6672V102.943C179.829 103.07 179.797 103.175 179.734 103.257C179.671 103.34 179.582 103.381 179.466 103.381H178.679Z" fill="#172539"/>
<mask id="mask0_246_36" style="mask-type:luminance" maskUnits="userSpaceOnUse" x="128" y="0" width="56" height="67">
<path d="M128.673 0H183.995V66.8844H128.673V0Z" fill="white"/>
</mask>
<g mask="url(#mask0_246_36)">
<mask id="mask1_246_36" style="mask-type:luminance" maskUnits="userSpaceOnUse" x="128" y="0" width="56" height="67">
<path d="M128.673 66.885H183.992V0H128.673V66.885Z" fill="white"/>
</mask>
<g mask="url(#mask1_246_36)">
<path d="M134.7 38.4368C134.438 36.7903 134.306 35.1175 134.306 33.4409C134.306 18.7567 144.187 6.81023 156.333 6.81023C157.769 6.81023 159.169 6.98317 160.53 7.2997L167.971 3.11307C164.327 1.05877 160.354 -0.00389054 156.333 1.07029e-05C141.08 1.07029e-05 128.673 15.0008 128.673 33.4409C128.673 38.4433 129.593 43.1879 131.226 47.4562L134.7 38.4368Z" fill="#172539"/>
</g>
<mask id="mask2_246_36" style="mask-type:luminance" maskUnits="userSpaceOnUse" x="128" y="0" width="56" height="67">
<path d="M128.673 66.885H183.992V0H128.673V66.885Z" fill="white"/>
</mask>
<g mask="url(#mask2_246_36)">
<path d="M177.958 28.3991C178.224 30.0602 178.359 31.7484 178.36 33.4406C178.36 48.1281 168.478 60.0746 156.333 60.0746C154.921 60.0746 153.545 59.9049 152.206 59.5981L144.746 63.7978C148.376 65.834 152.331 66.8875 156.333 66.8848C171.585 66.8848 183.993 51.8808 183.993 33.4406C183.993 28.4284 183.069 23.6707 181.426 19.396L177.958 28.3991Z" fill="#172539"/>
</g>
<mask id="mask3_246_36" style="mask-type:luminance" maskUnits="userSpaceOnUse" x="128" y="0" width="56" height="67">
<path d="M128.673 66.885H183.992V0H128.673V66.885Z" fill="white"/>
</mask>
<g mask="url(#mask3_246_36)">
<path d="M146.312 21.3863L128.873 66.6463L166.303 45.5826L183.739 0.329102L146.312 21.3863ZM161.494 39.6143C159.68 41.9435 156.961 42.895 154.398 42.0977C151.836 41.3004 149.835 38.8806 149.176 35.7821C148.517 32.6836 149.305 29.3971 151.232 27.2045C154.09 23.9528 158.568 24.0352 161.342 27.3907C164.117 30.7461 164.184 36.1599 161.494 39.6143Z" fill="#4D71E6"/>
</g>
</g>
</svg>
