<svg xmlns="http://www.w3.org/2000/svg" version="1.1" xmlns:xlink="http://www.w3.org/1999/xlink" xmlns:svgjs="http://svgjs.dev/svgjs" viewBox="0 0 7.963600274858951 3.052818821023722"><g transform="matrix(1,0,0,1,0.40139737028928923,0.7225387741482248)"><rect width="7.963600274858951" height="7.963600274858951" x="-0.40139737028928923" y="-3.1779295010658393" fill="#bfe4ff"></rect><g><path d=" M 0.6135900000000001 0.046697999999999906 L 0.36706800000000006 0.518022 L 0.36706800000000006 0.80364 L 0.26824200000000004 0.80364 L 0.26824200000000004 0.518022 L 0.020634000000000003 0.046697999999999906 L 0.13032000000000002 0.046697999999999906 L 0.31711200000000006 0.430056 L 0.5039040000000001 0.046697999999999906 L 0.6135900000000001 0.046697999999999906 M 0.8606380312500002 0.775404 Q 0.7927630312500001 0.737394 0.7542100312500001 0.667347 Q 0.7156570312500001 0.5972999999999999 0.7156570312500001 0.50499 Q 0.7156570312500001 0.41376599999999997 0.7552960312500001 0.34371899999999994 Q 0.7949350312500001 0.2736719999999999 0.8633530312500002 0.2362049999999999 Q 0.9317710312500002 0.19873799999999997 1.0164790312500003 0.19873799999999997 Q 1.1011870312500003 0.19873799999999997 1.1696050312500001 0.2362049999999999 Q 1.2380230312500002 0.2736719999999999 1.2776620312500002 0.3431759999999999 Q 1.3173010312500002 0.41267999999999994 1.3173010312500002 0.50499 Q 1.3173010312500002 0.5972999999999999 1.2765760312500003 0.667347 Q 1.2358510312500002 0.737394 1.1663470312500002 0.775404 Q 1.0968430312500002 0.813414 1.0121350312500002 0.813414 Q 0.9285130312500002 0.813414 0.8606380312500002 0.775404 M 1.1120470312500002 0.7015560000000001 Q 1.15874503125 0.676578 1.1875240312500002 0.626622 Q 1.2163030312500003 0.576666 1.2163030312500003 0.50499 Q 1.2163030312500003 0.433314 1.1880670312500001 0.383358 Q 1.1598310312500002 0.333402 1.1142190312500002 0.30896699999999994 Q 1.0686070312500002 0.2845319999999999 1.0153930312500001 0.2845319999999999 Q 0.9610930312500001 0.2845319999999999 0.9160240312500001 0.30896699999999994 Q 0.8709550312500002 0.333402 0.8438050312500002 0.383358 Q 0.8166550312500002 0.433314 0.8166550312500002 0.50499 Q 0.8166550312500002 0.577752 0.8432620312500001 0.6277079999999999 Q 0.8698690312500001 0.677664 0.9143950312500002 0.702099 Q 0.9589210312500002 0.726534 1.0121350312500002 0.726534 Q 1.0653490312500002 0.726534 1.1120470312500002 0.7015560000000001 M 2.0101849394531253 0.20851199999999992 L 2.0101849394531253 0.80364 L 1.9113589394531254 0.80364 L 1.9113589394531254 0.715674 Q 1.8831229394531253 0.761286 1.8326239394531254 0.786807 Q 1.7821249394531253 0.812328 1.7213089394531254 0.812328 Q 1.6518049394531253 0.812328 1.5964189394531252 0.783549 Q 1.5410329394531253 0.75477 1.5089959394531252 0.6972119999999999 Q 1.4769589394531253 0.639654 1.4769589394531253 0.557118 L 1.4769589394531253 0.20851199999999992 L 1.5746989394531252 0.20851199999999992 L 1.5746989394531252 0.544086 Q 1.5746989394531252 0.6320520000000001 1.6192249394531253 0.679293 Q 1.6637509394531254 0.726534 1.7408569394531253 0.726534 Q 1.8201349394531254 0.726534 1.8657469394531252 0.677664 Q 1.9113589394531254 0.628794 1.9113589394531254 0.535398 L 1.9113589394531254 0.20851199999999992 L 2.0101849394531253 0.20851199999999992 M 2.3327428476562506 0.28996199999999994 L 2.3327428476562506 0.64074 Q 2.3327428476562506 0.68418 2.3512048476562506 0.702099 Q 2.3696668476562506 0.720018 2.415278847656251 0.720018 L 2.4880408476562508 0.720018 L 2.4880408476562508 0.80364 L 2.3989888476562506 0.80364 Q 2.3164528476562505 0.80364 2.2751848476562504 0.76563 Q 2.2339168476562503 0.72762 2.2339168476562503 0.64074 L 2.2339168476562503 0.28996199999999994 L 2.1568108476562506 0.28996199999999994 L 2.1568108476562506 0.20851199999999992 L 2.2339168476562503 0.20851199999999992 L 2.2339168476562503 0.05864399999999992 L 2.3327428476562506 0.05864399999999992 L 2.3327428476562506 0.20851199999999992 L 2.4880408476562508 0.20851199999999992 L 2.4880408476562508 0.28996199999999994 L 2.3327428476562506 0.28996199999999994 M 3.0592916953125004 0.22643099999999994 Q 3.1135916953125005 0.25520999999999994 3.1445426953125004 0.31276799999999993 Q 3.1754936953125004 0.37032599999999993 3.1754936953125004 0.452862 L 3.1754936953125004 0.80364 L 3.0777536953125004 0.80364 L 3.0777536953125004 0.46697999999999995 Q 3.0777536953125004 0.37792799999999993 3.0332276953125 0.33068699999999995 Q 2.9887016953125003 0.283446 2.9115956953125 0.283446 Q 2.8334036953125006 0.283446 2.7872486953125004 0.33231599999999994 Q 2.7410936953125002 0.38118599999999997 2.7410936953125002 0.47458199999999995 L 2.7410936953125002 0.80364 L 2.6422676953125004 0.80364 L 2.6422676953125004 -1.1102230246251565e-16 L 2.7410936953125002 -1.1102230246251565e-16 L 2.7410936953125002 0.2932199999999999 Q 2.7704156953125003 0.24760799999999994 2.8220006953125005 0.22262999999999988 Q 2.8735856953125003 0.19765199999999994 2.9376596953125005 0.19765199999999994 Q 3.0049916953125004 0.19765199999999994 3.0592916953125004 0.22643099999999994" fill="#173054" fill-rule="nonzero"></path></g><g><path d=" M 5.637180411233497 0.2660699999999999 Q 5.605686411233497 0.1998239999999999 5.545956411233497 0.1634429999999999 Q 5.486226411233497 0.1270619999999999 5.406948411233497 0.1270619999999999 Q 5.327670411233497 0.1270619999999999 5.264139411233497 0.1634429999999999 Q 5.200608411233497 0.1998239999999999 5.164227411233497 0.2676989999999999 Q 5.127846411233497 0.33557399999999993 5.127846411233497 0.42462599999999995 Q 5.127846411233497 0.513678 5.164227411233497 0.58101 Q 5.200608411233497 0.648342 5.264139411233497 0.684723 Q 5.327670411233497 0.721104 5.406948411233497 0.721104 Q 5.517720411233498 0.721104 5.589396411233497 0.6548579999999999 Q 5.661072411233497 0.588612 5.673018411233497 0.475668 L 5.371110411233497 0.475668 L 5.371110411233497 0.395304 L 5.778360411233497 0.395304 L 5.778360411233497 0.47132399999999997 Q 5.769672411233497 0.56472 5.719716411233497 0.642369 Q 5.669760411233497 0.720018 5.588310411233497 0.7650870000000001 Q 5.506860411233498 0.810156 5.406948411233497 0.810156 Q 5.3016064112334975 0.810156 5.214726411233497 0.7607430000000001 Q 5.127846411233497 0.71133 5.0773474112334975 0.623364 Q 5.026848411233497 0.535398 5.026848411233497 0.42462599999999995 Q 5.026848411233497 0.31385399999999997 5.0773474112334975 0.2253449999999999 Q 5.127846411233497 0.13683599999999996 5.214726411233497 0.08742299999999992 Q 5.3016064112334975 0.03800999999999988 5.406948411233497 0.03800999999999988 Q 5.527494411233497 0.03800999999999988 5.620347411233498 0.09773999999999994 Q 5.7132004112334975 0.1574699999999999 5.755554411233497 0.2660699999999999 L 5.637180411233497 0.2660699999999999 M 6.38490784971006 0.42516899999999996 Q 6.32029084971006 0.487614 6.18779884971006 0.487614 L 6.04227484971006 0.487614 L 6.04227484971006 0.80364 L 5.94344884971006 0.80364 L 5.94344884971006 0.046697999999999906 L 6.18779884971006 0.046697999999999906 Q 6.31594684971006 0.046697999999999906 6.38273584971006 0.10859999999999992 Q 6.44952484971006 0.17050199999999993 6.44952484971006 0.268242 Q 6.44952484971006 0.36272399999999994 6.38490784971006 0.42516899999999996 M 6.3094308497100595 0.37032599999999993 Q 6.348526849710059 0.33448799999999995 6.348526849710059 0.268242 Q 6.348526849710059 0.12814799999999993 6.18779884971006 0.12814799999999993 L 6.04227484971006 0.12814799999999993 L 6.04227484971006 0.40616399999999997 L 6.18779884971006 0.40616399999999997 Q 6.27033484971006 0.40616399999999997 6.3094308497100595 0.37032599999999993 M 6.712857578225685 0.784635 Q 6.653670578225685 0.758028 6.620004578225685 0.7107870000000001 Q 6.586338578225685 0.663546 6.585252578225685 0.601644 L 6.690594578225685 0.601644 Q 6.696024578225685 0.6548579999999999 6.734577578225685 0.691239 Q 6.773130578225685 0.72762 6.846978578225685 0.72762 Q 6.917568578225685 0.72762 6.958293578225685 0.692325 Q 6.999018578225685 0.65703 6.999018578225685 0.601644 Q 6.999018578225685 0.5582039999999999 6.975126578225685 0.5310539999999999 Q 6.951234578225685 0.5039039999999999 6.9153965782256845 0.489786 Q 6.879558578225685 0.475668 6.8187425782256845 0.45937799999999995 Q 6.743808578225685 0.43982999999999994 6.698739578225685 0.420282 Q 6.653670578225685 0.400734 6.621633578225685 0.35892299999999994 Q 6.5895965782256845 0.31711199999999995 6.5895965782256845 0.2465219999999999 Q 6.5895965782256845 0.1846199999999999 6.621090578225685 0.13683599999999996 Q 6.652584578225685 0.08905199999999991 6.709599578225685 0.06298799999999993 Q 6.766614578225685 0.03692399999999996 6.840462578225685 0.03692399999999996 Q 6.946890578225685 0.03692399999999996 7.014765578225685 0.09013799999999994 Q 7.082640578225685 0.14335199999999992 7.091328578225685 0.2313179999999999 L 6.982728578225685 0.2313179999999999 Q 6.977298578225685 0.18787799999999988 6.937116578225685 0.15475499999999998 Q 6.896934578225685 0.12163199999999996 6.8306885782256845 0.12163199999999996 Q 6.768786578225685 0.12163199999999996 6.729690578225685 0.15366899999999994 Q 6.690594578225685 0.18570599999999993 6.690594578225685 0.24326399999999992 Q 6.690594578225685 0.2845319999999999 6.713943578225685 0.3105959999999999 Q 6.737292578225685 0.33665999999999996 6.771501578225685 0.35023499999999996 Q 6.805710578225685 0.36380999999999997 6.867612578225685 0.38118599999999997 Q 6.942546578225685 0.40181999999999995 6.9881585782256845 0.421911 Q 7.033770578225685 0.44200199999999995 7.066350578225685 0.483813 Q 7.098930578225685 0.525624 7.098930578225685 0.5972999999999999 Q 7.098930578225685 0.652686 7.069608578225685 0.7015560000000001 Q 7.040286578225685 0.750426 6.982728578225685 0.780834 Q 6.925170578225685 0.811242 6.846978578225685 0.811242 Q 6.772044578225685 0.811242 6.712857578225685 0.784635" fill="#173054" fill-rule="nonzero"></path></g><g><path d=" M 2.356046714228255 1.9330281311316626 Q 2.3199812596828 1.9330281311316626 2.295523077864618 1.9218354038589354 Q 2.2710648960464366 1.9106426765862081 2.2580067142282547 1.8930244947680264 Q 2.244948532410073 1.8754063129498446 2.244119441500982 1.8559226765862082 Q 2.244119441500982 1.8526063129498445 2.2468139869555275 1.849911767495299 Q 2.249508532410073 1.8472172220407537 2.2532394415009818 1.8472172220407537 L 2.2743812596828 1.8472172220407537 Q 2.2793558051373455 1.8472172220407537 2.281843077864618 1.8497044947680263 Q 2.284330350591891 1.852191767495299 2.2851594415009817 1.8555081311316628 Q 2.287646714228255 1.8654572220407537 2.295523077864618 1.8751990402225718 Q 2.3033994415009817 1.88494085840439 2.3181158051373454 1.8913663129498446 Q 2.332832168773709 1.897791767495299 2.356046714228255 1.897791767495299 Q 2.3916976233191636 1.897791767495299 2.4084867142282547 1.8851481311316627 Q 2.4252758051373458 1.8725044947680263 2.4252758051373458 1.8513626765862081 Q 2.4252758051373458 1.8368535856771173 2.4163630778646183 1.82794085840439 Q 2.407450350591891 1.8190281311316627 2.389210350591891 1.81198085840439 Q 2.370970350591891 1.8049335856771171 2.3419521687737093 1.7966426765862082 Q 2.311690350591891 1.7879372220407537 2.2917921687737093 1.7775735856771173 Q 2.2718939869555275 1.767209949313481 2.262152168773709 1.751871767495299 Q 2.252410350591891 1.7365335856771171 2.252410350591891 1.7129044947680263 Q 2.252410350591891 1.6905190402225718 2.264432168773709 1.67290085840439 Q 2.2764539869555276 1.655282676586208 2.2992539869555273 1.6449190402225717 Q 2.3220539869555274 1.6345554038589354 2.3539739869555274 1.6345554038589354 Q 2.3796758051373454 1.6345554038589354 2.398952168773709 1.6413954038589353 Q 2.418228532410073 1.6482354038589353 2.431079441500982 1.6596354038589354 Q 2.443930350591891 1.6710354038589355 2.450563077864618 1.6840935856771173 Q 2.4571958051373457 1.6971517674952992 2.457610350591891 1.7095881311316627 Q 2.457610350591891 1.7124899493134809 2.455537623319164 1.7151844947680264 Q 2.4534648960464365 1.7178790402225719 2.4489048960464364 1.7178790402225719 L 2.4269339869555275 1.7178790402225719 Q 2.424032168773709 1.7178790402225719 2.4209230778646185 1.71622085840439 Q 2.4178139869555273 1.714562676586208 2.4161558051373455 1.7100026765862082 Q 2.413668532410073 1.6930063129498445 2.3970867142282546 1.6813990402225718 Q 2.3805048960464363 1.6697917674952991 2.3539739869555274 1.6697917674952991 Q 2.327028532410073 1.6697917674952991 2.3102394415009817 1.6801554038589355 Q 2.293450350591891 1.6905190402225718 2.293450350591891 1.7124899493134809 Q 2.293450350591891 1.7265844947680264 2.3013267142282547 1.735911767495299 Q 2.3092030778646184 1.7452390402225717 2.326199441500982 1.7522863129498445 Q 2.3431958051373454 1.7593335856771173 2.3705558051373457 1.767209949313481 Q 2.4037194415009817 1.7763299493134808 2.4248612596828 1.7864863129498445 Q 2.4460030778646185 1.7966426765862082 2.456159441500982 1.8117735856771173 Q 2.4663158051373455 1.8269044947680264 2.4663158051373455 1.8505335856771172 Q 2.4663158051373455 1.876649949313481 2.4526358051373456 1.8950972220407536 Q 2.4389558051373457 1.9135444947680262 2.414290350591891 1.9232863129498445 Q 2.3896248960464366 1.9330281311316626 2.356046714228255 1.9330281311316626 M 2.6114105601089364 1.9330281311316626 Q 2.568297832836209 1.9330281311316626 2.5430105601089363 1.9067044947680263 Q 2.5177232873816635 1.88038085840439 2.515236014654391 1.8347808584043899 Q 2.5148214691998456 1.829391767495299 2.5148214691998456 1.8208935856771173 Q 2.5148214691998456 1.8123954038589354 2.515236014654391 1.8070063129498446 Q 2.5168941964725726 1.7775735856771173 2.5289160146543908 1.7553954038589354 Q 2.540937832836209 1.7332172220407536 2.5618723782907544 1.7211954038589354 Q 2.5828069237453 1.7091735856771173 2.6109960146543907 1.7091735856771173 Q 2.6425014691998454 1.7091735856771173 2.663850560108936 1.7224390402225718 Q 2.6851996510180274 1.7357044947680262 2.6963923782907546 1.7601626765862082 Q 2.707585105563482 1.7846208584043899 2.707585105563482 1.817369949313481 L 2.707585105563482 1.8244172220407535 Q 2.707585105563482 1.8289772220407536 2.7048905601089364 1.8314644947680263 Q 2.702196014654391 1.833951767495299 2.6980505601089364 1.833951767495299 L 2.5546178328362092 1.833951767495299 Q 2.5546178328362092 1.8343663129498444 2.5546178328362092 1.835609949313481 Q 2.5546178328362092 1.8368535856771173 2.5546178328362092 1.8376826765862082 Q 2.5554469237453 1.854679040222572 2.5620796510180273 1.8693954038589353 Q 2.5687123782907544 1.884111767495299 2.581356014654391 1.893231767495299 Q 2.593999651018027 1.902351767495299 2.6109960146543907 1.902351767495299 Q 2.625919651018027 1.902351767495299 2.6358687419271183 1.897791767495299 Q 2.645817832836209 1.893231767495299 2.652036014654391 1.8876354038589354 Q 2.6582541964725728 1.8820390402225717 2.6603269237452998 1.8787226765862082 Q 2.664057832836209 1.8737481311316626 2.6661305601089365 1.872711767495299 Q 2.6682032873816635 1.8716754038589354 2.6727632873816636 1.8716754038589354 L 2.693076014654391 1.8716754038589354 Q 2.6968069237453 1.8716754038589354 2.6995014691998453 1.8739554038589354 Q 2.702196014654391 1.8762354038589355 2.7017814691998456 1.88038085840439 Q 2.7013669237453 1.8865990402225719 2.695148741927118 1.895511767495299 Q 2.688930560108936 1.9044244947680264 2.677530560108936 1.9131299493134808 Q 2.6661305601089365 1.9218354038589354 2.6493414691998454 1.927431767495299 Q 2.6325523782907547 1.9330281311316626 2.6114105601089364 1.9330281311316626 M 2.5546178328362092 1.8053481311316628 L 2.6682032873816635 1.8053481311316628 L 2.6682032873816635 1.8041044947680263 Q 2.6682032873816635 1.785449949313481 2.6613632873816635 1.77094085840439 Q 2.6545232873816635 1.756431767495299 2.6416723782907545 1.7479335856771172 Q 2.6288214691998455 1.7394354038589355 2.6109960146543907 1.7394354038589355 Q 2.5931705601089363 1.7394354038589355 2.5805269237453 1.7479335856771172 Q 2.5678832873816635 1.756431767495299 2.5612505601089364 1.77094085840439 Q 2.5546178328362092 1.785449949313481 2.5546178328362092 1.8041044947680263 L 2.5546178328362092 1.8053481311316628 M 2.8501915757339362 1.9288826765862082 Q 2.826977030279391 1.9288826765862082 2.8124679393703 1.919969949313481 Q 2.7979588484612092 1.9110572220407536 2.7913261211884817 1.8946826765862081 Q 2.7846933939157545 1.8783081311316627 2.7846933939157545 1.8559226765862082 L 2.7846933939157545 1.7464826765862083 L 2.752358848461209 1.7464826765862083 Q 2.7482133939157545 1.7464826765862083 2.745518848461209 1.7437881311316628 Q 2.7428243030066635 1.7410935856771173 2.7428243030066635 1.7369481311316628 L 2.7428243030066635 1.7228535856771172 Q 2.7428243030066635 1.7187081311316628 2.745518848461209 1.7160135856771173 Q 2.7482133939157545 1.7133190402225718 2.752358848461209 1.7133190402225718 L 2.7846933939157545 1.7133190402225718 L 2.7846933939157545 1.6440899493134808 Q 2.7846933939157545 1.6399444947680264 2.7873879393703 1.637249949313481 Q 2.7900824848248456 1.6345554038589354 2.7942279393703 1.6345554038589354 L 2.813711575733936 1.6345554038589354 Q 2.817857030279391 1.6345554038589354 2.8205515757339366 1.637249949313481 Q 2.8232461211884816 1.6399444947680264 2.8232461211884816 1.6440899493134808 L 2.8232461211884816 1.7133190402225718 L 2.874649757552118 1.7133190402225718 Q 2.8792097575521183 1.7133190402225718 2.881697030279391 1.7160135856771173 Q 2.8841843030066636 1.7187081311316628 2.8841843030066636 1.7228535856771172 L 2.8841843030066636 1.7369481311316628 Q 2.8841843030066636 1.7410935856771173 2.881697030279391 1.7437881311316628 Q 2.8792097575521183 1.7464826765862083 2.874649757552118 1.7464826765862083 L 2.8232461211884816 1.7464826765862083 L 2.8232461211884816 1.85302085840439 Q 2.8232461211884816 1.8725044947680263 2.829878848461209 1.8836972220407535 Q 2.8365115757339363 1.894889949313481 2.8535079393703 1.894889949313481 L 2.8787952120975726 1.894889949313481 Q 2.8829406666430275 1.894889949313481 2.8856352120975726 1.8975844947680263 Q 2.888329757552118 1.9002790402225718 2.888329757552118 1.9044244947680264 L 2.888329757552118 1.9193481311316627 Q 2.888329757552118 1.9234935856771171 2.8856352120975726 1.9261881311316627 Q 2.8829406666430275 1.9288826765862082 2.8787952120975726 1.9288826765862082 L 2.8501915757339362 1.9288826765862082 M 3.0761224919271184 2.0076463129498445 Q 3.072806128290755 2.0076463129498445 3.070318855563482 2.005159040222572 Q 3.0678315828362095 2.002671767495299 3.0678315828362095 1.9993554038589354 Q 3.0678315828362095 1.9976972220407536 3.0682461282907547 1.9960390402225718 Q 3.0686606737453004 1.99438085840439 3.0699043101089365 1.9918935856771172 L 3.1018243101089364 1.9160317674952991 L 3.022646128290755 1.7290717674952991 Q 3.0205734010180274 1.7240972220407536 3.0205734010180274 1.7220244947680263 Q 3.0205734010180274 1.7182935856771173 3.0230606737453 1.7158063129498444 Q 3.0255479464725727 1.7133190402225718 3.029278855563482 1.7133190402225718 L 3.0495915828362095 1.7133190402225718 Q 3.054151582836209 1.7133190402225718 3.0564315828362094 1.715391767495299 Q 3.0587115828362093 1.7174644947680264 3.0595406737453 1.7203663129498445 L 3.122551582836209 1.87126085840439 L 3.1872206737453004 1.7203663129498445 Q 3.1884643101089365 1.7174644947680264 3.1907443101089363 1.715391767495299 Q 3.1930243101089366 1.7133190402225718 3.1975843101089367 1.7133190402225718 L 3.217067946472573 1.7133190402225718 Q 3.220798855563482 1.7133190402225718 3.223286128290755 1.7158063129498444 Q 3.2257734010180275 1.7182935856771173 3.2257734010180275 1.7216099493134809 Q 3.2257734010180275 1.723682676586208 3.2237006737453 1.7290717674952991 L 3.105969764654391 2.0005990402225717 Q 3.104726128290755 2.00350085840439 3.102446128290755 2.005573585677117 Q 3.1001661282907547 2.0076463129498445 3.0956061282907545 2.0076463129498445 L 3.0761224919271184 2.0076463129498445 M 3.3580119841146185 1.9330281311316626 Q 3.326506529569164 1.9330281311316626 3.3053647113873454 1.9210063129498445 Q 3.2842228932055275 1.9089844947680263 3.2730301659328003 1.8876354038589354 Q 3.261837438660073 1.8662863129498446 3.2605938022964365 1.8389263129498445 Q 3.2601792568418912 1.8318790402225718 3.2601792568418912 1.8208935856771173 Q 3.2601792568418912 1.8099081311316627 3.2605938022964365 1.8032754038589354 Q 3.261837438660073 1.7755008584043899 3.2732374386600727 1.7543590402225717 Q 3.2846374386600727 1.7332172220407536 3.305779256841891 1.7211954038589354 Q 3.326921075023709 1.7091735856771173 3.3580119841146185 1.7091735856771173 Q 3.3891028932055276 1.7091735856771173 3.4102447113873455 1.7211954038589354 Q 3.431386529569164 1.7332172220407536 3.442786529569164 1.7543590402225717 Q 3.4541865295691636 1.7755008584043899 3.4554301659328 1.8032754038589354 Q 3.4558447113873454 1.8099081311316627 3.4558447113873454 1.8208935856771173 Q 3.4558447113873454 1.8318790402225718 3.4554301659328 1.8389263129498445 Q 3.4541865295691636 1.8662863129498446 3.4429938022964364 1.8876354038589354 Q 3.431801075023709 1.9089844947680263 3.410659256841891 1.9210063129498445 Q 3.389517438660073 1.9330281311316626 3.3580119841146185 1.9330281311316626 M 3.3580119841146185 1.9011081311316627 Q 3.3837138022964366 1.9011081311316627 3.3990519841146183 1.8847335856771172 Q 3.4143901659328 1.8683590402225718 3.4156338022964365 1.8368535856771173 Q 3.4160483477509818 1.8306354038589354 3.4160483477509818 1.82110085840439 Q 3.4160483477509818 1.8115663129498445 3.4156338022964365 1.8053481311316628 Q 3.4143901659328 1.773842676586208 3.3990519841146183 1.7574681311316627 Q 3.3837138022964366 1.7410935856771173 3.3580119841146185 1.7410935856771173 Q 3.3323101659328 1.7410935856771173 3.3167647113873455 1.7574681311316627 Q 3.301219256841891 1.773842676586208 3.3003901659328 1.8053481311316628 Q 3.299975620478255 1.8115663129498445 3.299975620478255 1.82110085840439 Q 3.299975620478255 1.8306354038589354 3.3003901659328 1.8368535856771173 Q 3.301219256841891 1.8683590402225718 3.3167647113873455 1.8847335856771172 Q 3.3323101659328 1.9011081311316627 3.3580119841146185 1.9011081311316627 M 3.598023276728255 1.9330281311316626 Q 3.5714923676373456 1.9330281311316626 3.553045094910073 1.9212135856771173 Q 3.5345978221828003 1.9093990402225718 3.525063276728255 1.8882572220407536 Q 3.5155287312737094 1.8671154038589355 3.5155287312737094 1.8397554038589354 L 3.5155287312737094 1.7228535856771172 Q 3.5155287312737094 1.7187081311316628 3.518223276728255 1.7160135856771173 Q 3.5209178221828004 1.7133190402225718 3.525063276728255 1.7133190402225718 L 3.5457905494555275 1.7133190402225718 Q 3.549936004000982 1.7133190402225718 3.5526305494555275 1.7160135856771173 Q 3.555325094910073 1.7187081311316628 3.555325094910073 1.7228535856771172 L 3.555325094910073 1.8376826765862082 Q 3.555325094910073 1.8994499493134809 3.609216004000982 1.8994499493134809 Q 3.6349178221828002 1.8994499493134809 3.6504632767282548 1.8830754038589355 Q 3.6660087312737093 1.86670085840439 3.6660087312737093 1.8376826765862082 L 3.6660087312737093 1.7228535856771172 Q 3.6660087312737093 1.7187081311316628 3.668703276728255 1.7160135856771173 Q 3.6713978221828003 1.7133190402225718 3.6755432767282548 1.7133190402225718 L 3.6962705494555275 1.7133190402225718 Q 3.700416004000982 1.7133190402225718 3.7029032767282546 1.7160135856771173 Q 3.7053905494555277 1.7187081311316628 3.7053905494555277 1.7228535856771172 L 3.7053905494555277 1.9193481311316627 Q 3.7053905494555277 1.9234935856771171 3.7029032767282546 1.9261881311316627 Q 3.700416004000982 1.9288826765862082 3.6962705494555275 1.9288826765862082 L 3.6767869130918913 1.9288826765862082 Q 3.6726414585464364 1.9288826765862082 3.6699469130918914 1.9261881311316627 Q 3.667252367637346 1.9234935856771171 3.667252367637346 1.9193481311316627 L 3.667252367637346 1.9011081311316627 Q 3.6560596403646186 1.9156172220407537 3.6400996403646184 1.9243226765862083 Q 3.624139640364618 1.9330281311316626 3.598023276728255 1.9330281311316626 M 3.7866372078362094 1.9288826765862082 Q 3.7824917532907545 1.9288826765862082 3.779797207836209 1.9261881311316627 Q 3.777102662381664 1.9234935856771171 3.777102662381664 1.9193481311316627 L 3.777102662381664 1.7232681311316627 Q 3.777102662381664 1.7191226765862082 3.779797207836209 1.71622085840439 Q 3.7824917532907545 1.7133190402225718 3.7866372078362094 1.7133190402225718 L 3.8057062987453003 1.7133190402225718 Q 3.8098517532907548 1.7133190402225718 3.8127535714725727 1.71622085840439 Q 3.815655389654391 1.7191226765862082 3.815655389654391 1.7232681311316627 L 3.815655389654391 1.7415081311316627 Q 3.8239462987453 1.7274135856771173 3.838455389654391 1.7203663129498445 Q 3.852964480563482 1.7133190402225718 3.8736917532907547 1.7133190402225718 L 3.8898590260180272 1.7133190402225718 Q 3.894004480563482 1.7133190402225718 3.896699026018027 1.7160135856771173 Q 3.8993935714725727 1.7187081311316628 3.8993935714725727 1.7228535856771172 L 3.8993935714725727 1.739849949313481 Q 3.8993935714725727 1.7439954038589354 3.896699026018027 1.7464826765862083 Q 3.894004480563482 1.748969949313481 3.8898590260180272 1.748969949313481 L 3.8649862987453 1.748969949313481 Q 3.8426008441998456 1.748969949313481 3.8297499351089366 1.7620281311316628 Q 3.8168990260180276 1.7750863129498444 3.8168990260180276 1.7974717674952991 L 3.8168990260180276 1.9193481311316627 Q 3.8168990260180276 1.9234935856771171 3.813997207836209 1.9261881311316627 Q 3.811095389654391 1.9288826765862082 3.8069499351089364 1.9288826765862082 L 3.7866372078362094 1.9288826765862082 M 4.056502048035074 2.0076463129498445 Q 4.052356593489619 2.0076463129498445 4.049662048035073 2.004951767495299 Q 4.046967502580528 2.0022572220407535 4.046967502580528 1.998111767495299 L 4.046967502580528 1.7228535856771172 Q 4.046967502580528 1.7187081311316628 4.049662048035073 1.7160135856771173 Q 4.052356593489619 1.7133190402225718 4.056502048035074 1.7133190402225718 L 4.075571138944165 1.7133190402225718 Q 4.079716593489619 1.7133190402225718 4.082411138944164 1.7160135856771173 Q 4.08510568439871 1.7187081311316628 4.08510568439871 1.7228535856771172 L 4.08510568439871 1.7410935856771173 Q 4.0950547753078 1.7274135856771173 4.111636593489619 1.7182935856771173 Q 4.128218411671437 1.7091735856771173 4.1530911389441645 1.7091735856771173 Q 4.176305684398709 1.7091735856771173 4.192680229853255 1.717049949313481 Q 4.2090547753078 1.7249263129498444 4.21962568439871 1.7386063129498446 Q 4.230196593489619 1.7522863129498445 4.23558568439871 1.7696972220407536 Q 4.240974775307801 1.7871081311316628 4.241803866216891 1.8070063129498446 Q 4.242218411671437 1.8136390402225717 4.242218411671437 1.82110085840439 Q 4.242218411671437 1.8285626765862082 4.241803866216891 1.8351954038589353 Q 4.240974775307801 1.854679040222572 4.23558568439871 1.8722972220407537 Q 4.230196593489619 1.8899154038589354 4.21962568439871 1.9033881311316627 Q 4.2090547753078 1.91686085840439 4.192680229853255 1.9249444947680263 Q 4.176305684398709 1.9330281311316626 4.1530911389441645 1.9330281311316626 Q 4.129047502580528 1.9330281311316626 4.112672957125983 1.9241154038589354 Q 4.096298411671437 1.9152026765862082 4.085934775307801 1.9019372220407536 L 4.085934775307801 1.998111767495299 Q 4.085934775307801 2.0022572220407535 4.083447502580528 2.004951767495299 Q 4.080960229853255 2.0076463129498445 4.076814775307801 2.0076463129498445 L 4.056502048035074 2.0076463129498445 M 4.14438568439871 1.8994499493134809 Q 4.165942048035073 1.8994499493134809 4.1781711389441645 1.8901226765862083 Q 4.190400229853255 1.8807954038589354 4.195789320762346 1.8656644947680263 Q 4.201178411671437 1.8505335856771172 4.2020075025805275 1.833122676586208 Q 4.202422048035073 1.82110085840439 4.2020075025805275 1.8090790402225718 Q 4.201178411671437 1.7916681311316627 4.195789320762346 1.7765372220407536 Q 4.190400229853255 1.7614063129498445 4.1781711389441645 1.7520790402225719 Q 4.165942048035073 1.742751767495299 4.14438568439871 1.742751767495299 Q 4.124072957125982 1.742751767495299 4.111429320762346 1.7522863129498445 Q 4.09878568439871 1.76182085840439 4.0927747753078005 1.7765372220407536 Q 4.0867638662168915 1.7912535856771172 4.085934775307801 1.8065917674952992 Q 4.085520229853255 1.8132244947680263 4.085520229853255 1.8223444947680263 Q 4.085520229853255 1.8314644947680263 4.085934775307801 1.838511767495299 Q 4.086349320762346 1.85302085840439 4.0927747753078005 1.8671154038589355 Q 4.099200229853255 1.8812099493134808 4.112051138944164 1.8903299493134809 Q 4.124902048035073 1.8994499493134809 4.14438568439871 1.8994499493134809 M 4.363683670904392 1.9330281311316626 Q 4.342956398177119 1.9330281311316626 4.3259600345407545 1.9247372220407537 Q 4.308963670904391 1.9164463129498446 4.298600034540755 1.902351767495299 Q 4.288236398177118 1.8882572220407536 4.288236398177118 1.870431767495299 Q 4.288236398177118 1.8418281311316627 4.311450943631664 1.824831767495299 Q 4.334665489086209 1.8078354038589355 4.3719745799953005 1.8024463129498445 L 4.433741852722573 1.79374085840439 L 4.433741852722573 1.7817190402225718 Q 4.433741852722573 1.76182085840439 4.422341852722573 1.7506281311316627 Q 4.410941852722573 1.7394354038589355 4.385240034540755 1.7394354038589355 Q 4.367000034540755 1.7394354038589355 4.355392761813482 1.7468972220407537 Q 4.343785489086209 1.7543590402225717 4.33922548908621 1.7659663129498444 Q 4.3367382163589365 1.7721844947680263 4.330520034540755 1.7721844947680263 L 4.311865489086209 1.7721844947680263 Q 4.307305489086209 1.7721844947680263 4.305025489086209 1.7694899493134808 Q 4.30274548908621 1.7667954038589355 4.30274548908621 1.7630644947680263 Q 4.30274548908621 1.7568463129498446 4.3075127618134825 1.7477263129498446 Q 4.312280034540755 1.7386063129498446 4.322229125449846 1.72990085840439 Q 4.332178216358937 1.7211954038589354 4.347723670904391 1.7151844947680264 Q 4.363269125449846 1.7091735856771173 4.3856545799953 1.7091735856771173 Q 4.410527307268028 1.7091735856771173 4.4275236709043915 1.7155990402225718 Q 4.444520034540755 1.7220244947680263 4.454261852722573 1.7328026765862081 Q 4.4640036709043915 1.74358085840439 4.468356398177119 1.75726085840439 Q 4.472709125449846 1.77094085840439 4.472709125449846 1.7850354038589353 L 4.472709125449846 1.9193481311316627 Q 4.472709125449846 1.9234935856771171 4.470014579995301 1.9261881311316627 Q 4.467320034540755 1.9288826765862082 4.4631745799953 1.9288826765862082 L 4.444105489086209 1.9288826765862082 Q 4.43954548908621 1.9288826765862082 4.4370582163589365 1.9261881311316627 Q 4.434570943631664 1.9234935856771171 4.434570943631664 1.9193481311316627 L 4.434570943631664 1.901522676586208 Q 4.429181852722573 1.9089844947680263 4.420061852722573 1.9162390402225717 Q 4.410941852722573 1.9234935856771171 4.397261852722573 1.9282608584043899 Q 4.383581852722573 1.9330281311316626 4.363683670904392 1.9330281311316626 M 4.372389125449846 1.9019372220407536 Q 4.38938548908621 1.9019372220407536 4.403480034540755 1.8946826765862081 Q 4.4175745799953 1.8874281311316627 4.425658216358936 1.8720899493134808 Q 4.433741852722573 1.8567517674952991 4.433741852722573 1.8335372220407535 L 4.433741852722573 1.8219299493134808 L 4.3856545799953 1.8289772220407536 Q 4.356221852722573 1.833122676586208 4.341298216358936 1.8428644947680264 Q 4.3263745799953 1.8526063129498445 4.3263745799953 1.867529949313481 Q 4.3263745799953 1.8791372220407536 4.333214579995301 1.8868063129498445 Q 4.3400545799953 1.8944754038589355 4.35062548908621 1.8982063129498445 Q 4.3611963981771185 1.9019372220407536 4.372389125449846 1.9019372220407536 M 4.624431547324846 1.9288826765862082 Q 4.6012170018703005 1.9288826765862082 4.586707910961209 1.919969949313481 Q 4.572198820052119 1.9110572220407536 4.565566092779392 1.8946826765862081 Q 4.558933365506665 1.8783081311316627 4.558933365506665 1.8559226765862082 L 4.558933365506665 1.7464826765862083 L 4.5265988200521186 1.7464826765862083 Q 4.5224533655066645 1.7464826765862083 4.519758820052119 1.7437881311316628 Q 4.5170642745975735 1.7410935856771173 4.5170642745975735 1.7369481311316628 L 4.5170642745975735 1.7228535856771172 Q 4.5170642745975735 1.7187081311316628 4.519758820052119 1.7160135856771173 Q 4.5224533655066645 1.7133190402225718 4.5265988200521186 1.7133190402225718 L 4.558933365506665 1.7133190402225718 L 4.558933365506665 1.6440899493134808 Q 4.558933365506665 1.6399444947680264 4.561627910961209 1.637249949313481 Q 4.564322456415755 1.6345554038589354 4.56846791096121 1.6345554038589354 L 4.587951547324846 1.6345554038589354 Q 4.5920970018703 1.6345554038589354 4.594791547324846 1.637249949313481 Q 4.597486092779391 1.6399444947680264 4.597486092779391 1.6440899493134808 L 4.597486092779391 1.7133190402225718 L 4.648889729143028 1.7133190402225718 Q 4.653449729143028 1.7133190402225718 4.6559370018703 1.7160135856771173 Q 4.658424274597573 1.7187081311316628 4.658424274597573 1.7228535856771172 L 4.658424274597573 1.7369481311316628 Q 4.658424274597573 1.7410935856771173 4.6559370018703 1.7437881311316628 Q 4.653449729143028 1.7464826765862083 4.648889729143028 1.7464826765862083 L 4.597486092779391 1.7464826765862083 L 4.597486092779391 1.85302085840439 Q 4.597486092779391 1.8725044947680263 4.604118820052118 1.8836972220407535 Q 4.610751547324846 1.894889949313481 4.62774791096121 1.894889949313481 L 4.653035183688482 1.894889949313481 Q 4.657180638233937 1.894889949313481 4.659875183688483 1.8975844947680263 Q 4.662569729143028 1.9002790402225718 4.662569729143028 1.9044244947680264 L 4.662569729143028 1.9193481311316627 Q 4.662569729143028 1.9234935856771171 4.659875183688483 1.9261881311316627 Q 4.657180638233937 1.9288826765862082 4.653035183688482 1.9288826765862082 L 4.624431547324846 1.9288826765862082 M 4.722260631131665 1.9288826765862082 Q 4.71811517658621 1.9288826765862082 4.715420631131664 1.9261881311316627 Q 4.712726085677119 1.9234935856771171 4.712726085677119 1.9193481311316627 L 4.712726085677119 1.6440899493134808 Q 4.712726085677119 1.6399444947680264 4.715420631131664 1.637249949313481 Q 4.71811517658621 1.6345554038589354 4.722260631131665 1.6345554038589354 L 4.742987903858937 1.6345554038589354 Q 4.747547903858937 1.6345554038589354 4.750035176586209 1.637249949313481 Q 4.752522449313482 1.6399444947680264 4.752522449313482 1.6440899493134808 L 4.752522449313482 1.7406790402225718 Q 4.76371517658621 1.7265844947680264 4.779882449313482 1.7178790402225719 Q 4.796049722040755 1.7091735856771173 4.820922449313483 1.7091735856771173 Q 4.847867903858937 1.7091735856771173 4.8667297220407555 1.7209881311316626 Q 4.885591540222573 1.7328026765862081 4.895333358404391 1.7537372220407537 Q 4.90507517658621 1.774671767495299 4.90507517658621 1.8024463129498445 L 4.90507517658621 1.9193481311316627 Q 4.90507517658621 1.9234935856771171 4.902587903858937 1.9261881311316627 Q 4.900100631131664 1.9288826765862082 4.895540631131664 1.9288826765862082 L 4.874813358404391 1.9288826765862082 Q 4.870667903858937 1.9288826765862082 4.867973358404392 1.9261881311316627 Q 4.865278812949846 1.9234935856771171 4.865278812949846 1.9193481311316627 L 4.865278812949846 1.8045190402225717 Q 4.865278812949846 1.7755008584043899 4.8511842674953005 1.7591263129498445 Q 4.837089722040755 1.742751767495299 4.809729722040755 1.742751767495299 Q 4.784027903858937 1.742751767495299 4.76827517658621 1.7591263129498445 Q 4.752522449313482 1.7755008584043899 4.752522449313482 1.8045190402225717 L 4.752522449313482 1.9193481311316627 Q 4.752522449313482 1.9234935856771171 4.750035176586209 1.9261881311316627 Q 4.747547903858937 1.9288826765862082 4.742987903858937 1.9288826765862082 L 4.722260631131665 1.9288826765862082" fill="#173054" fill-rule="nonzero"></path></g><g clip-path="url(#SvgjsClipPath1007)"><g clip-path="url(#a94519c69-6a76-4774-bd42-b0889cc654580c28a51a-9b09-42b6-8c9e-0d9ebbd58926)"><path d=" M 3.5650427869328296 0.5153970961871108 C 3.5581566737378987 0.4795621953430717 3.5546847883243076 0.443154958574523 3.5546737673274054 0.40666443169461636 C 3.5546737673274054 0.08707136166442497 3.8146804849675235 -0.17293535597569326 4.134273554997716 -0.17293535597569326 C 4.172056557943507 -0.17293535597569326 4.208916292020322 -0.16917125981755973 4.244710715863704 -0.16228225364135346 L 4.4405147367688675 -0.25340178894107246 C 4.344618251407457 -0.29811222160232176 4.240080697875781 -0.3212404280191164 4.134273554997715 -0.3211555197874732 C 3.732935679722023 -0.3211555197874732 3.4064536035156254 0.005326556418924877 3.4064536035156254 0.4066644316946167 C 3.4064536035156254 0.5155391375515685 3.430671656155691 0.618803209512435 3.4736391689041946 0.7116982618678773 Z" fill="#173054" transform="matrix(1,0,0,1,0,0)" fill-rule="nonzero"></path></g><g clip-path="url(#a94519c69-6a76-4774-bd42-b0889cc654580c28a51a-9b09-42b6-8c9e-0d9ebbd58926)"><path d=" M 4.703291261015915 0.29693747765091744 C 4.710315198117197 0.3330911835643748 4.713858751796097 0.36983474352344164 4.713873342668025 0.40666443169461625 C 4.713873342668025 0.7263285224070373 4.453866625027907 0.9863352400471554 4.134273554997716 0.9863352400471554 C 4.097129738191985 0.9863352400471554 4.060909190255229 0.9826421645712509 4.025682931869679 0.9759662204417312 L 3.8293817661889125 1.067369838470366 C 3.924912212618916 1.1116856020721595 4.028964725317468 1.1346144809477312 4.134273554997715 1.1345554038589352 C 4.535611430273407 1.1345554038589354 4.862093506479805 0.8080023069703082 4.862093506479805 0.40666443169461647 C 4.862093506479805 0.29757666379097775 4.83780443315751 0.19402850910119557 4.794552837680092 0.1009914153812953 Z" fill="#173054" transform="matrix(1,0,0,1,0,0)" fill-rule="nonzero"></path></g><g clip-path="url(#a94519c69-6a76-4774-bd42-b0889cc654580c28a51a-9b09-42b6-8c9e-0d9ebbd58926)"><path d=" M 3.8705737618816927 0.1443140315409437 L 3.8702896791527768 0.1443140315409437 L 3.4117091340005663 1.1293708940562235 L 4.396623955151388 0.6709323902684707 L 4.396623955151388 0.6712164729973862 L 4.8554175623502855 -0.3139824308823512 Z M 4.2700650994194325 0.5410355624717549 C 4.222331642268205 0.5917292768354825 4.150797980127008 0.6124385645517072 4.083364860064088 0.5950860452481859 C 4.015931740001168 0.5777335259446643 3.9632796701516995 0.5250676075760352 3.9459448853388084 0.4576299263948886 C 3.9286101005259173 0.390192245213742 3.949338199797116 0.31866403177563246 4.0000444655850345 0.27094390795512874 C 4.07524497556509 0.20017203012404078 4.19307267562688 0.20196674509231055 4.266082849511663 0.27499612207385454 C 4.339093023396446 0.34802549905539865 4.34085675139982 0.46585366702553505 4.270065099419432 0.5410355624717551" fill="#3a868f" transform="matrix(1,0,0,1,0,0)" fill-rule="nonzero"></path></g></g></g><defs><clipPath id="SvgjsClipPath1007"><path d=" M 3.4064536035156254 -0.32114140385893547 h 1.455696807717871 v 1.455696807717871 h -1.455696807717871 Z"></path></clipPath><clipPath id="a94519c69-6a76-4774-bd42-b0889cc654580c28a51a-9b09-42b6-8c9e-0d9ebbd58926"><path d=" M 3.4064536035156254 1.1345554038589354 L 4.862093506479805 1.1345554038589354 L 4.862093506479805 -0.3211555197874733 L 3.4064536035156254 -0.3211555197874733 Z"></path></clipPath></defs></svg>